M48
; DRILL file {KiCad (6.0.4-0)} date Monday, June 27, 2022 at 11:15:04 AM
; FORMAT={-:-/ absolute / inch / decimal}
; #@! TF.CreationDate,2022-06-27T11:15:04-06:00
; #@! TF.GenerationSoftware,Kicad,Pcbnew,(6.0.4-0)
; #@! TF.FileFunction,Plated,1,2,PTH
FMAT,2
INCH
; #@! TA.AperFunction,Plated,PTH,ViaDrill
T1C0.0157
; #@! TA.AperFunction,Plated,PTH,ComponentDrill
T2C0.0331
; #@! TA.AperFunction,Plated,PTH,ComponentDrill
T3C0.0394
; #@! TA.AperFunction,Plated,PTH,ComponentDrill
T4C0.1280
%
G90
G05
T1
X4.074Y-3.2921
X4.2441Y-3.0276
X4.2953Y-3.3031
X4.2953Y-3.3465
X4.4252Y-2.6378
X4.5143Y-2.5802
X4.6496Y-2.5906
X4.8622Y-2.5906
X4.9213Y-2.4016
X4.9606Y-2.3228
X4.9882Y-2.2244
X4.9921Y-2.2756
X5.0Y-2.4409
X5.122Y-3.1457
X5.2402Y-2.4409
X5.2638Y-2.7598
X5.3494Y-2.3858
X5.3504Y-2.1654
X5.3583Y-2.9646
X5.3819Y-2.9331
T2
X4.139Y-3.4972
X4.139Y-3.5972
X4.189Y-3.5472
X4.239Y-3.4972
X4.239Y-3.5972
T3
X3.7866Y-2.5339
X3.7866Y-2.6425
X3.7866Y-2.7512
X3.7866Y-2.8598
X3.8984Y-2.4795
X3.8984Y-2.5882
X3.8984Y-2.6969
X3.8984Y-2.8055
X3.8984Y-2.9142
X5.4331Y-3.2047
X5.4331Y-3.3047
X5.4331Y-3.4047
X5.4331Y-3.5047
X5.778Y-2.4008
X5.778Y-3.0008
X5.878Y-2.4008
X5.878Y-3.0008
X5.978Y-2.4008
X5.978Y-3.0008
X6.078Y-2.4008
X6.078Y-3.0008
X6.178Y-2.4008
X6.178Y-3.0008
X6.278Y-2.4008
X6.278Y-3.0008
X6.378Y-2.4008
X6.378Y-3.0008
T4
X3.8425Y-2.2047
X3.8425Y-3.189
T0
M30
