%TF.GenerationSoftware,KiCad,Pcbnew,(6.0.4-0)*%
%TF.CreationDate,2022-06-27T11:15:04-06:00*%
%TF.ProjectId,DAC_pockel,4441435f-706f-4636-9b65-6c2e6b696361,rev?*%
%TF.SameCoordinates,Original*%
%TF.FileFunction,Paste,Top*%
%TF.FilePolarity,Positive*%
%FSLAX46Y46*%
G04 Gerber Fmt 4.6, Leading zero omitted, Abs format (unit mm)*
G04 Created by KiCad (PCBNEW (6.0.4-0)) date 2022-06-27 11:15:04*
%MOMM*%
%LPD*%
G01*
G04 APERTURE LIST*
G04 Aperture macros list*
%AMRoundRect*
0 Rectangle with rounded corners*
0 $1 Rounding radius*
0 $2 $3 $4 $5 $6 $7 $8 $9 X,Y pos of 4 corners*
0 Add a 4 corners polygon primitive as box body*
4,1,4,$2,$3,$4,$5,$6,$7,$8,$9,$2,$3,0*
0 Add four circle primitives for the rounded corners*
1,1,$1+$1,$2,$3*
1,1,$1+$1,$4,$5*
1,1,$1+$1,$6,$7*
1,1,$1+$1,$8,$9*
0 Add four rect primitives between the rounded corners*
20,1,$1+$1,$2,$3,$4,$5,0*
20,1,$1+$1,$4,$5,$6,$7,0*
20,1,$1+$1,$6,$7,$8,$9,0*
20,1,$1+$1,$8,$9,$2,$3,0*%
G04 Aperture macros list end*
%ADD10C,5.000000*%
%ADD11C,1.575000*%
%ADD12R,1.575000X1.575000*%
%ADD13RoundRect,0.250000X0.650000X-0.350000X0.650000X0.350000X-0.650000X0.350000X-0.650000X-0.350000X0*%
%ADD14RoundRect,0.150000X0.625000X-0.150000X0.625000X0.150000X-0.625000X0.150000X-0.625000X-0.150000X0*%
%ADD15RoundRect,0.237500X0.237500X-0.287500X0.237500X0.287500X-0.237500X0.287500X-0.237500X-0.287500X0*%
%ADD16RoundRect,0.237500X-0.287500X-0.237500X0.287500X-0.237500X0.287500X0.237500X-0.287500X0.237500X0*%
%ADD17RoundRect,0.150000X0.825000X0.150000X-0.825000X0.150000X-0.825000X-0.150000X0.825000X-0.150000X0*%
%ADD18R,0.900000X0.800000*%
%ADD19R,1.060000X0.650000*%
%ADD20RoundRect,0.250000X-0.412500X-0.925000X0.412500X-0.925000X0.412500X0.925000X-0.412500X0.925000X0*%
%ADD21R,1.500000X2.000000*%
%ADD22R,3.800000X2.000000*%
%ADD23RoundRect,0.237500X0.287500X0.237500X-0.287500X0.237500X-0.287500X-0.237500X0.287500X-0.237500X0*%
%ADD24RoundRect,0.250000X0.450000X0.425000X-0.450000X0.425000X-0.450000X-0.425000X0.450000X-0.425000X0*%
%ADD25RoundRect,0.250001X0.624999X-0.462499X0.624999X0.462499X-0.624999X0.462499X-0.624999X-0.462499X0*%
%ADD26RoundRect,0.250001X0.462499X1.074999X-0.462499X1.074999X-0.462499X-1.074999X0.462499X-1.074999X0*%
%ADD27RoundRect,0.237500X-0.237500X0.287500X-0.237500X-0.287500X0.237500X-0.287500X0.237500X0.287500X0*%
%ADD28RoundRect,0.250001X-0.462499X-0.624999X0.462499X-0.624999X0.462499X0.624999X-0.462499X0.624999X0*%
G04 APERTURE END LIST*
D10*
%TO.C,J1*%
X97600000Y-81000000D03*
D11*
X96180000Y-64360000D03*
X96180000Y-67120000D03*
X96180000Y-69880000D03*
X96180000Y-72640000D03*
X99020000Y-62980000D03*
X99020000Y-65740000D03*
X99020000Y-71260000D03*
D12*
X99020000Y-74020000D03*
D10*
X97600000Y-56000000D03*
D11*
X99020000Y-68500000D03*
%TD*%
D13*
%TO.C,J6*%
X139100000Y-55200000D03*
X139100000Y-60800000D03*
D14*
X141625000Y-56500000D03*
X141625000Y-57500000D03*
X141625000Y-58500000D03*
X141625000Y-59500000D03*
%TD*%
D15*
%TO.C,R3*%
X124800000Y-65825000D03*
X124800000Y-67575000D03*
%TD*%
D16*
%TO.C,C16*%
X135175000Y-69000000D03*
X133425000Y-69000000D03*
%TD*%
D17*
%TO.C,U6*%
X128925000Y-67205000D03*
X128925000Y-65935000D03*
X128925000Y-64665000D03*
X128925000Y-63395000D03*
X133875000Y-63395000D03*
X133875000Y-64665000D03*
X133875000Y-65935000D03*
X133875000Y-67205000D03*
%TD*%
%TO.C,IC1*%
X128625000Y-59005000D03*
X128625000Y-57735000D03*
X128625000Y-56465000D03*
X128625000Y-55195000D03*
X133575000Y-55195000D03*
X133575000Y-56465000D03*
X133575000Y-57735000D03*
X133575000Y-59005000D03*
%TD*%
D16*
%TO.C,C17*%
X128675000Y-69100000D03*
X126925000Y-69100000D03*
%TD*%
D18*
%TO.C,U5*%
X110900000Y-79700000D03*
X108900000Y-80650000D03*
X108900000Y-78750000D03*
%TD*%
D19*
%TO.C,U3*%
X107150000Y-83620000D03*
X107150000Y-82670000D03*
X107150000Y-84570000D03*
X104950000Y-84570000D03*
X104950000Y-83620000D03*
X104950000Y-82670000D03*
%TD*%
D16*
%TO.C,C15*%
X110775000Y-82600000D03*
X109025000Y-82600000D03*
%TD*%
%TO.C,C14*%
X106675000Y-86500000D03*
X104925000Y-86500000D03*
%TD*%
D15*
%TO.C,C9*%
X117100000Y-75525000D03*
X117100000Y-77275000D03*
%TD*%
D20*
%TO.C,C6*%
X122537500Y-76400000D03*
X119462500Y-76400000D03*
%TD*%
D21*
%TO.C,U2*%
X117800000Y-86250000D03*
X122400000Y-86250000D03*
X120100000Y-86250000D03*
D22*
X120100000Y-79950000D03*
%TD*%
D23*
%TO.C,R2*%
X115275000Y-86800000D03*
X113525000Y-86800000D03*
%TD*%
D24*
%TO.C,C13*%
X114650000Y-89100000D03*
X117350000Y-89100000D03*
%TD*%
%TO.C,C10*%
X119750000Y-89100000D03*
X122450000Y-89100000D03*
%TD*%
D25*
%TO.C,C8*%
X127000000Y-82412500D03*
X127000000Y-85387500D03*
%TD*%
D17*
%TO.C,U4*%
X128825000Y-75005000D03*
X128825000Y-73735000D03*
X128825000Y-72465000D03*
X128825000Y-71195000D03*
X133775000Y-71195000D03*
X133775000Y-72465000D03*
X133775000Y-73735000D03*
X133775000Y-75005000D03*
%TD*%
D16*
%TO.C,C12*%
X128775000Y-77100000D03*
X127025000Y-77100000D03*
%TD*%
%TO.C,C11*%
X135675000Y-77000000D03*
X133925000Y-77000000D03*
%TD*%
%TO.C,C26*%
X128575000Y-60700000D03*
X126825000Y-60700000D03*
%TD*%
%TO.C,C25*%
X134775000Y-60700000D03*
X133025000Y-60700000D03*
%TD*%
D15*
%TO.C,R1*%
X129000000Y-87525000D03*
X129000000Y-89275000D03*
%TD*%
D18*
%TO.C,Q1*%
X127000000Y-88400000D03*
X125000000Y-89350000D03*
X125000000Y-87450000D03*
%TD*%
D26*
%TO.C,L1*%
X132112500Y-83500000D03*
X135087500Y-83500000D03*
%TD*%
D23*
%TO.C,C7*%
X120825000Y-91100000D03*
X122575000Y-91100000D03*
%TD*%
D27*
%TO.C,C5*%
X130800000Y-88250000D03*
X130800000Y-86500000D03*
%TD*%
%TO.C,C4*%
X132700000Y-88275000D03*
X132700000Y-86525000D03*
%TD*%
D25*
%TO.C,C3*%
X134900000Y-86512500D03*
X134900000Y-89487500D03*
%TD*%
D28*
%TO.C,C2*%
X135287500Y-80000000D03*
X132312500Y-80000000D03*
%TD*%
D23*
%TO.C,C1*%
X109025000Y-76800000D03*
X110775000Y-76800000D03*
%TD*%
M02*
