%TF.GenerationSoftware,KiCad,Pcbnew,(6.0.4-0)*%
%TF.CreationDate,2022-06-27T11:15:04-06:00*%
%TF.ProjectId,DAC_pockel,4441435f-706f-4636-9b65-6c2e6b696361,rev?*%
%TF.SameCoordinates,Original*%
%TF.FileFunction,Soldermask,Top*%
%TF.FilePolarity,Negative*%
%FSLAX46Y46*%
G04 Gerber Fmt 4.6, Leading zero omitted, Abs format (unit mm)*
G04 Created by KiCad (PCBNEW (6.0.4-0)) date 2022-06-27 11:15:04*
%MOMM*%
%LPD*%
G01*
G04 APERTURE LIST*
G04 Aperture macros list*
%AMRoundRect*
0 Rectangle with rounded corners*
0 $1 Rounding radius*
0 $2 $3 $4 $5 $6 $7 $8 $9 X,Y pos of 4 corners*
0 Add a 4 corners polygon primitive as box body*
4,1,4,$2,$3,$4,$5,$6,$7,$8,$9,$2,$3,0*
0 Add four circle primitives for the rounded corners*
1,1,$1+$1,$2,$3*
1,1,$1+$1,$4,$5*
1,1,$1+$1,$6,$7*
1,1,$1+$1,$8,$9*
0 Add four rect primitives between the rounded corners*
20,1,$1+$1,$2,$3,$4,$5,0*
20,1,$1+$1,$4,$5,$6,$7,0*
20,1,$1+$1,$6,$7,$8,$9,0*
20,1,$1+$1,$8,$9,$2,$3,0*%
%AMFreePoly0*
4,1,37,0.012349,0.795885,0.074216,0.795507,0.088518,0.793370,0.224339,0.752751,0.237465,0.746685,0.356427,0.669578,0.367324,0.660073,0.459862,0.552676,0.467652,0.540494,0.526329,0.411442,0.530388,0.397563,0.550485,0.257230,0.551000,0.250000,0.551000,-0.250000,0.550996,-0.250622,0.550847,-0.262838,0.550144,-0.270677,0.526624,-0.410478,0.522228,-0.424254,0.460416,-0.551833,
0.452330,-0.563821,0.357195,-0.668925,0.346069,-0.678161,0.225259,-0.752338,0.211989,-0.758081,0.075216,-0.795370,0.060866,-0.797157,0.011464,-0.796251,0.000000,-0.801000,-0.500000,-0.801000,-0.536062,-0.786062,-0.551000,-0.750000,-0.551000,0.750000,-0.536062,0.786062,-0.500000,0.801000,0.000000,0.801000,0.012349,0.795885,0.012349,0.795885,$1*%
%AMFreePoly1*
4,1,37,0.536062,0.786062,0.551000,0.750000,0.551000,-0.750000,0.536062,-0.786062,0.500000,-0.801000,0.000000,-0.801000,-0.012525,-0.795812,-0.080875,-0.794559,-0.095149,-0.792248,-0.230464,-0.749973,-0.243516,-0.743747,-0.361526,-0.665192,-0.372306,-0.655554,-0.463526,-0.547035,-0.471167,-0.534759,-0.528262,-0.405000,-0.532150,-0.391073,-0.549733,-0.256613,-0.548336,-0.256430,-0.551000,-0.250000,
-0.551000,0.250000,-0.550512,0.251179,-0.550356,0.263956,-0.528545,0.404033,-0.524317,0.417860,-0.464069,0.546185,-0.456130,0.558271,-0.362286,0.664529,-0.351274,0.673901,-0.231379,0.749549,-0.218180,0.755454,-0.081873,0.794411,-0.067546,0.796373,-0.011990,0.796033,0.000000,0.801000,0.500000,0.801000,0.536062,0.786062,0.536062,0.786062,$1*%
G04 Aperture macros list end*
%ADD10C,5.102000*%
%ADD11C,1.677000*%
%ADD12RoundRect,0.051000X-0.787500X0.787500X-0.787500X-0.787500X0.787500X-0.787500X0.787500X0.787500X0*%
%ADD13RoundRect,0.301000X0.650000X-0.350000X0.650000X0.350000X-0.650000X0.350000X-0.650000X-0.350000X0*%
%ADD14RoundRect,0.201000X0.625000X-0.150000X0.625000X0.150000X-0.625000X0.150000X-0.625000X-0.150000X0*%
%ADD15RoundRect,0.288500X0.237500X-0.287500X0.237500X0.287500X-0.237500X0.287500X-0.237500X-0.287500X0*%
%ADD16RoundRect,0.288500X-0.287500X-0.237500X0.287500X-0.237500X0.287500X0.237500X-0.287500X0.237500X0*%
%ADD17RoundRect,0.201000X0.825000X0.150000X-0.825000X0.150000X-0.825000X-0.150000X0.825000X-0.150000X0*%
%ADD18O,1.802000X1.802000*%
%ADD19RoundRect,0.051000X-0.850000X0.850000X-0.850000X-0.850000X0.850000X-0.850000X0.850000X0.850000X0*%
%ADD20RoundRect,0.051000X-0.450000X-0.400000X0.450000X-0.400000X0.450000X0.400000X-0.450000X0.400000X0*%
%ADD21RoundRect,0.051000X-0.530000X-0.325000X0.530000X-0.325000X0.530000X0.325000X-0.530000X0.325000X0*%
%ADD22RoundRect,0.301000X-0.412500X-0.925000X0.412500X-0.925000X0.412500X0.925000X-0.412500X0.925000X0*%
%ADD23RoundRect,0.051000X0.750000X-1.000000X0.750000X1.000000X-0.750000X1.000000X-0.750000X-1.000000X0*%
%ADD24RoundRect,0.051000X1.900000X-1.000000X1.900000X1.000000X-1.900000X1.000000X-1.900000X-1.000000X0*%
%ADD25RoundRect,0.288500X0.287500X0.237500X-0.287500X0.237500X-0.287500X-0.237500X0.287500X-0.237500X0*%
%ADD26RoundRect,0.301000X0.450000X0.425000X-0.450000X0.425000X-0.450000X-0.425000X0.450000X-0.425000X0*%
%ADD27RoundRect,0.301001X0.624999X-0.462499X0.624999X0.462499X-0.624999X0.462499X-0.624999X-0.462499X0*%
%ADD28RoundRect,0.051000X-0.900000X0.700000X-0.900000X-0.700000X0.900000X-0.700000X0.900000X0.700000X0*%
%ADD29O,1.902000X1.502000*%
%ADD30RoundRect,0.301001X0.462499X1.074999X-0.462499X1.074999X-0.462499X-1.074999X0.462499X-1.074999X0*%
%ADD31FreePoly0,180.000000*%
%ADD32FreePoly1,180.000000*%
%ADD33C,1.342000*%
%ADD34RoundRect,0.288500X-0.237500X0.287500X-0.237500X-0.287500X0.237500X-0.287500X0.237500X0.287500X0*%
%ADD35RoundRect,0.301001X-0.462499X-0.624999X0.462499X-0.624999X0.462499X0.624999X-0.462499X0.624999X0*%
G04 APERTURE END LIST*
D10*
%TO.C,J1*%
X97600000Y-81000000D03*
D11*
X96180000Y-64360000D03*
X96180000Y-67120000D03*
X96180000Y-69880000D03*
X96180000Y-72640000D03*
X99020000Y-62980000D03*
X99020000Y-65740000D03*
X99020000Y-71260000D03*
D12*
X99020000Y-74020000D03*
D10*
X97600000Y-56000000D03*
D11*
X99020000Y-68500000D03*
%TD*%
D13*
%TO.C,J6*%
X139100000Y-55200000D03*
X139100000Y-60800000D03*
D14*
X141625000Y-56500000D03*
X141625000Y-57500000D03*
X141625000Y-58500000D03*
X141625000Y-59500000D03*
%TD*%
D15*
%TO.C,R3*%
X124800000Y-65825000D03*
X124800000Y-67575000D03*
%TD*%
D16*
%TO.C,C16*%
X135175000Y-69000000D03*
X133425000Y-69000000D03*
%TD*%
D17*
%TO.C,U6*%
X128925000Y-67205000D03*
X128925000Y-65935000D03*
X128925000Y-64665000D03*
X128925000Y-63395000D03*
X133875000Y-63395000D03*
X133875000Y-64665000D03*
X133875000Y-65935000D03*
X133875000Y-67205000D03*
%TD*%
D18*
%TO.C,J3*%
X146760000Y-76220000D03*
X149300000Y-76220000D03*
X151840000Y-76220000D03*
X154380000Y-76220000D03*
X156920000Y-76220000D03*
X159460000Y-76220000D03*
D19*
X162000000Y-76220000D03*
%TD*%
D18*
%TO.C,J2*%
X146760000Y-60980000D03*
X149300000Y-60980000D03*
X151840000Y-60980000D03*
X154380000Y-60980000D03*
X156920000Y-60980000D03*
X159460000Y-60980000D03*
D19*
X162000000Y-60980000D03*
%TD*%
D17*
%TO.C,IC1*%
X128625000Y-59005000D03*
X128625000Y-57735000D03*
X128625000Y-56465000D03*
X128625000Y-55195000D03*
X133575000Y-55195000D03*
X133575000Y-56465000D03*
X133575000Y-57735000D03*
X133575000Y-59005000D03*
%TD*%
D16*
%TO.C,C17*%
X128675000Y-69100000D03*
X126925000Y-69100000D03*
%TD*%
D20*
%TO.C,U5*%
X110900000Y-79700000D03*
X108900000Y-80650000D03*
X108900000Y-78750000D03*
%TD*%
D21*
%TO.C,U3*%
X107150000Y-83620000D03*
X107150000Y-82670000D03*
X107150000Y-84570000D03*
X104950000Y-84570000D03*
X104950000Y-83620000D03*
X104950000Y-82670000D03*
%TD*%
D16*
%TO.C,C15*%
X110775000Y-82600000D03*
X109025000Y-82600000D03*
%TD*%
%TO.C,C14*%
X106675000Y-86500000D03*
X104925000Y-86500000D03*
%TD*%
D15*
%TO.C,C9*%
X117100000Y-75525000D03*
X117100000Y-77275000D03*
%TD*%
D22*
%TO.C,C6*%
X122537500Y-76400000D03*
X119462500Y-76400000D03*
%TD*%
D23*
%TO.C,U2*%
X117800000Y-86250000D03*
X122400000Y-86250000D03*
X120100000Y-86250000D03*
D24*
X120100000Y-79950000D03*
%TD*%
D25*
%TO.C,R2*%
X115275000Y-86800000D03*
X113525000Y-86800000D03*
%TD*%
D26*
%TO.C,C13*%
X114650000Y-89100000D03*
X117350000Y-89100000D03*
%TD*%
%TO.C,C10*%
X119750000Y-89100000D03*
X122450000Y-89100000D03*
%TD*%
D27*
%TO.C,C8*%
X127000000Y-82412500D03*
X127000000Y-85387500D03*
%TD*%
D17*
%TO.C,U4*%
X128825000Y-75005000D03*
X128825000Y-73735000D03*
X128825000Y-72465000D03*
X128825000Y-71195000D03*
X133775000Y-71195000D03*
X133775000Y-72465000D03*
X133775000Y-73735000D03*
X133775000Y-75005000D03*
%TD*%
D16*
%TO.C,C12*%
X128775000Y-77100000D03*
X127025000Y-77100000D03*
%TD*%
%TO.C,C11*%
X135675000Y-77000000D03*
X133925000Y-77000000D03*
%TD*%
%TO.C,C26*%
X128575000Y-60700000D03*
X126825000Y-60700000D03*
%TD*%
%TO.C,C25*%
X134775000Y-60700000D03*
X133025000Y-60700000D03*
%TD*%
D15*
%TO.C,R1*%
X129000000Y-87525000D03*
X129000000Y-89275000D03*
%TD*%
D20*
%TO.C,Q1*%
X127000000Y-88400000D03*
X125000000Y-89350000D03*
X125000000Y-87450000D03*
%TD*%
D28*
%TO.C,PS1*%
X138000000Y-81400000D03*
D29*
X138000000Y-83940000D03*
X138000000Y-86480000D03*
X138000000Y-89020000D03*
%TD*%
D30*
%TO.C,L1*%
X132112500Y-83500000D03*
X135087500Y-83500000D03*
%TD*%
D31*
%TO.C,JP1*%
X125350000Y-91600000D03*
D32*
X126650000Y-91600000D03*
%TD*%
D33*
%TO.C,J7*%
X107670000Y-91370000D03*
X105130000Y-88830000D03*
X107670000Y-88830000D03*
X105130000Y-91370000D03*
X106400000Y-90100000D03*
%TD*%
D25*
%TO.C,C7*%
X120825000Y-91100000D03*
X122575000Y-91100000D03*
%TD*%
D34*
%TO.C,C5*%
X130800000Y-88250000D03*
X130800000Y-86500000D03*
%TD*%
%TO.C,C4*%
X132700000Y-88275000D03*
X132700000Y-86525000D03*
%TD*%
D27*
%TO.C,C3*%
X134900000Y-86512500D03*
X134900000Y-89487500D03*
%TD*%
D35*
%TO.C,C2*%
X135287500Y-80000000D03*
X132312500Y-80000000D03*
%TD*%
D25*
%TO.C,C1*%
X109025000Y-76800000D03*
X110775000Y-76800000D03*
%TD*%
G36*
X125899267Y-90833301D02*
G01*
X125950946Y-90876489D01*
X126019661Y-90885120D01*
X126082291Y-90855156D01*
X126100348Y-90834318D01*
X126102238Y-90833664D01*
X126103749Y-90834974D01*
X126103821Y-90836018D01*
X126101000Y-90850199D01*
X126101000Y-92349801D01*
X126103978Y-92364774D01*
X126103335Y-92366668D01*
X126101373Y-92367058D01*
X126100733Y-92366699D01*
X126049054Y-92323511D01*
X125980339Y-92314880D01*
X125917709Y-92344844D01*
X125899652Y-92365682D01*
X125897762Y-92366336D01*
X125896251Y-92365026D01*
X125896179Y-92363982D01*
X125899000Y-92349801D01*
X125899000Y-90850199D01*
X125896022Y-90835226D01*
X125896665Y-90833332D01*
X125898627Y-90832942D01*
X125899267Y-90833301D01*
G37*
G36*
X107696668Y-83991665D02*
G01*
X107697058Y-83993627D01*
X107696699Y-83994267D01*
X107653511Y-84045946D01*
X107644880Y-84114661D01*
X107674844Y-84177291D01*
X107695682Y-84195348D01*
X107696336Y-84197238D01*
X107695026Y-84198749D01*
X107693982Y-84198821D01*
X107679801Y-84196000D01*
X106620199Y-84196000D01*
X106605226Y-84198978D01*
X106603332Y-84198335D01*
X106602942Y-84196373D01*
X106603301Y-84195733D01*
X106646489Y-84144054D01*
X106655120Y-84075339D01*
X106625156Y-84012709D01*
X106604318Y-83994652D01*
X106603664Y-83992762D01*
X106604974Y-83991251D01*
X106606018Y-83991179D01*
X106620199Y-83994000D01*
X107679801Y-83994000D01*
X107694774Y-83991022D01*
X107696668Y-83991665D01*
G37*
G36*
X105496668Y-83991665D02*
G01*
X105497058Y-83993627D01*
X105496699Y-83994267D01*
X105453511Y-84045946D01*
X105444880Y-84114661D01*
X105474844Y-84177291D01*
X105495682Y-84195348D01*
X105496336Y-84197238D01*
X105495026Y-84198749D01*
X105493982Y-84198821D01*
X105479801Y-84196000D01*
X104420199Y-84196000D01*
X104405226Y-84198978D01*
X104403332Y-84198335D01*
X104402942Y-84196373D01*
X104403301Y-84195733D01*
X104446489Y-84144054D01*
X104455120Y-84075339D01*
X104425156Y-84012709D01*
X104404318Y-83994652D01*
X104403664Y-83992762D01*
X104404974Y-83991251D01*
X104406018Y-83991179D01*
X104420199Y-83994000D01*
X105479801Y-83994000D01*
X105494774Y-83991022D01*
X105496668Y-83991665D01*
G37*
G36*
X105496668Y-83041665D02*
G01*
X105497058Y-83043627D01*
X105496699Y-83044267D01*
X105453511Y-83095946D01*
X105444880Y-83164661D01*
X105474844Y-83227291D01*
X105495682Y-83245348D01*
X105496336Y-83247238D01*
X105495026Y-83248749D01*
X105493982Y-83248821D01*
X105479801Y-83246000D01*
X104420199Y-83246000D01*
X104405226Y-83248978D01*
X104403332Y-83248335D01*
X104402942Y-83246373D01*
X104403301Y-83245733D01*
X104446489Y-83194054D01*
X104455120Y-83125339D01*
X104425156Y-83062709D01*
X104404318Y-83044652D01*
X104403664Y-83042762D01*
X104404974Y-83041251D01*
X104406018Y-83041179D01*
X104420199Y-83044000D01*
X105479801Y-83044000D01*
X105494774Y-83041022D01*
X105496668Y-83041665D01*
G37*
G36*
X107696668Y-83041665D02*
G01*
X107697058Y-83043627D01*
X107696699Y-83044267D01*
X107653511Y-83095946D01*
X107644880Y-83164661D01*
X107674844Y-83227291D01*
X107695682Y-83245348D01*
X107696336Y-83247238D01*
X107695026Y-83248749D01*
X107693982Y-83248821D01*
X107679801Y-83246000D01*
X106620199Y-83246000D01*
X106605226Y-83248978D01*
X106603332Y-83248335D01*
X106602942Y-83246373D01*
X106603301Y-83245733D01*
X106646489Y-83194054D01*
X106655120Y-83125339D01*
X106625156Y-83062709D01*
X106604318Y-83044652D01*
X106603664Y-83042762D01*
X106604974Y-83041251D01*
X106606018Y-83041179D01*
X106620199Y-83044000D01*
X107679801Y-83044000D01*
X107694774Y-83041022D01*
X107696668Y-83041665D01*
G37*
M02*
