G04 #@! TF.GenerationSoftware,KiCad,Pcbnew,(5.1.5-0)*
G04 #@! TF.CreationDate,2022-06-25T14:07:13-06:00*
G04 #@! TF.ProjectId,DAC_pockel,4441435f-706f-4636-9b65-6c2e6b696361,rev?*
G04 #@! TF.SameCoordinates,Original*
G04 #@! TF.FileFunction,Soldermask,Bot*
G04 #@! TF.FilePolarity,Negative*
%FSLAX46Y46*%
G04 Gerber Fmt 4.6, Leading zero omitted, Abs format (unit mm)*
G04 Created by KiCad (PCBNEW (5.1.5-0)) date 2022-06-25 14:07:13*
%MOMM*%
%LPD*%
G04 APERTURE LIST*
%ADD10C,0.100000*%
G04 APERTURE END LIST*
D10*
G36*
X107779300Y-90707595D02*
G01*
X107865724Y-90724786D01*
X107987838Y-90775367D01*
X108097738Y-90848800D01*
X108191200Y-90942262D01*
X108264633Y-91052162D01*
X108315214Y-91174276D01*
X108341000Y-91303912D01*
X108341000Y-91436088D01*
X108315214Y-91565724D01*
X108264633Y-91687838D01*
X108191200Y-91797738D01*
X108097738Y-91891200D01*
X107987838Y-91964633D01*
X107865724Y-92015214D01*
X107779300Y-92032405D01*
X107736089Y-92041000D01*
X107603911Y-92041000D01*
X107560700Y-92032405D01*
X107474276Y-92015214D01*
X107352162Y-91964633D01*
X107242262Y-91891200D01*
X107148800Y-91797738D01*
X107075367Y-91687838D01*
X107024786Y-91565724D01*
X106999000Y-91436088D01*
X106999000Y-91303912D01*
X107024786Y-91174276D01*
X107075367Y-91052162D01*
X107148800Y-90942262D01*
X107242262Y-90848800D01*
X107352162Y-90775367D01*
X107474276Y-90724786D01*
X107560700Y-90707595D01*
X107603911Y-90699000D01*
X107736089Y-90699000D01*
X107779300Y-90707595D01*
G37*
G36*
X105239300Y-90707595D02*
G01*
X105325724Y-90724786D01*
X105447838Y-90775367D01*
X105557738Y-90848800D01*
X105651200Y-90942262D01*
X105724633Y-91052162D01*
X105775214Y-91174276D01*
X105801000Y-91303912D01*
X105801000Y-91436088D01*
X105775214Y-91565724D01*
X105724633Y-91687838D01*
X105651200Y-91797738D01*
X105557738Y-91891200D01*
X105447838Y-91964633D01*
X105325724Y-92015214D01*
X105239300Y-92032405D01*
X105196089Y-92041000D01*
X105063911Y-92041000D01*
X105020700Y-92032405D01*
X104934276Y-92015214D01*
X104812162Y-91964633D01*
X104702262Y-91891200D01*
X104608800Y-91797738D01*
X104535367Y-91687838D01*
X104484786Y-91565724D01*
X104459000Y-91436088D01*
X104459000Y-91303912D01*
X104484786Y-91174276D01*
X104535367Y-91052162D01*
X104608800Y-90942262D01*
X104702262Y-90848800D01*
X104812162Y-90775367D01*
X104934276Y-90724786D01*
X105020700Y-90707595D01*
X105063911Y-90699000D01*
X105196089Y-90699000D01*
X105239300Y-90707595D01*
G37*
G36*
X106509300Y-89437595D02*
G01*
X106595724Y-89454786D01*
X106717838Y-89505367D01*
X106827738Y-89578800D01*
X106921200Y-89672262D01*
X106994633Y-89782162D01*
X107045214Y-89904276D01*
X107071000Y-90033912D01*
X107071000Y-90166088D01*
X107045214Y-90295724D01*
X106994633Y-90417838D01*
X106921200Y-90527738D01*
X106827738Y-90621200D01*
X106717838Y-90694633D01*
X106595724Y-90745214D01*
X106509300Y-90762405D01*
X106466089Y-90771000D01*
X106333911Y-90771000D01*
X106290700Y-90762405D01*
X106204276Y-90745214D01*
X106082162Y-90694633D01*
X105972262Y-90621200D01*
X105878800Y-90527738D01*
X105805367Y-90417838D01*
X105754786Y-90295724D01*
X105729000Y-90166088D01*
X105729000Y-90033912D01*
X105754786Y-89904276D01*
X105805367Y-89782162D01*
X105878800Y-89672262D01*
X105972262Y-89578800D01*
X106082162Y-89505367D01*
X106204276Y-89454786D01*
X106290700Y-89437595D01*
X106333911Y-89429000D01*
X106466089Y-89429000D01*
X106509300Y-89437595D01*
G37*
G36*
X138273665Y-88272622D02*
G01*
X138347222Y-88279867D01*
X138488786Y-88322810D01*
X138619252Y-88392546D01*
X138631098Y-88402268D01*
X138733607Y-88486393D01*
X138803008Y-88570960D01*
X138827454Y-88600748D01*
X138897190Y-88731214D01*
X138940133Y-88872778D01*
X138954633Y-89020000D01*
X138940133Y-89167222D01*
X138912677Y-89257732D01*
X138897189Y-89308788D01*
X138862322Y-89374019D01*
X138827454Y-89439252D01*
X138803008Y-89469040D01*
X138733607Y-89553607D01*
X138649040Y-89623008D01*
X138619252Y-89647454D01*
X138488786Y-89717190D01*
X138347222Y-89760133D01*
X138273665Y-89767378D01*
X138236888Y-89771000D01*
X137763112Y-89771000D01*
X137726335Y-89767378D01*
X137652778Y-89760133D01*
X137511214Y-89717190D01*
X137380748Y-89647454D01*
X137350960Y-89623008D01*
X137266393Y-89553607D01*
X137196992Y-89469040D01*
X137172546Y-89439252D01*
X137137678Y-89374019D01*
X137102811Y-89308788D01*
X137087323Y-89257732D01*
X137059867Y-89167222D01*
X137045367Y-89020000D01*
X137059867Y-88872778D01*
X137102810Y-88731214D01*
X137172546Y-88600748D01*
X137196992Y-88570960D01*
X137266393Y-88486393D01*
X137368902Y-88402268D01*
X137380748Y-88392546D01*
X137511214Y-88322810D01*
X137652778Y-88279867D01*
X137726335Y-88272622D01*
X137763112Y-88269000D01*
X138236888Y-88269000D01*
X138273665Y-88272622D01*
G37*
G36*
X105239300Y-88167595D02*
G01*
X105325724Y-88184786D01*
X105447838Y-88235367D01*
X105557738Y-88308800D01*
X105651200Y-88402262D01*
X105724633Y-88512162D01*
X105775214Y-88634276D01*
X105801000Y-88763912D01*
X105801000Y-88896088D01*
X105775214Y-89025724D01*
X105724633Y-89147838D01*
X105651200Y-89257738D01*
X105557738Y-89351200D01*
X105447838Y-89424633D01*
X105325724Y-89475214D01*
X105239300Y-89492405D01*
X105196089Y-89501000D01*
X105063911Y-89501000D01*
X105020700Y-89492405D01*
X104934276Y-89475214D01*
X104812162Y-89424633D01*
X104702262Y-89351200D01*
X104608800Y-89257738D01*
X104535367Y-89147838D01*
X104484786Y-89025724D01*
X104459000Y-88896088D01*
X104459000Y-88763912D01*
X104484786Y-88634276D01*
X104535367Y-88512162D01*
X104608800Y-88402262D01*
X104702262Y-88308800D01*
X104812162Y-88235367D01*
X104934276Y-88184786D01*
X105020700Y-88167595D01*
X105063911Y-88159000D01*
X105196089Y-88159000D01*
X105239300Y-88167595D01*
G37*
G36*
X107779300Y-88167595D02*
G01*
X107865724Y-88184786D01*
X107987838Y-88235367D01*
X108097738Y-88308800D01*
X108191200Y-88402262D01*
X108264633Y-88512162D01*
X108315214Y-88634276D01*
X108341000Y-88763912D01*
X108341000Y-88896088D01*
X108315214Y-89025724D01*
X108264633Y-89147838D01*
X108191200Y-89257738D01*
X108097738Y-89351200D01*
X107987838Y-89424633D01*
X107865724Y-89475214D01*
X107779300Y-89492405D01*
X107736089Y-89501000D01*
X107603911Y-89501000D01*
X107560700Y-89492405D01*
X107474276Y-89475214D01*
X107352162Y-89424633D01*
X107242262Y-89351200D01*
X107148800Y-89257738D01*
X107075367Y-89147838D01*
X107024786Y-89025724D01*
X106999000Y-88896088D01*
X106999000Y-88763912D01*
X107024786Y-88634276D01*
X107075367Y-88512162D01*
X107148800Y-88402262D01*
X107242262Y-88308800D01*
X107352162Y-88235367D01*
X107474276Y-88184786D01*
X107560700Y-88167595D01*
X107603911Y-88159000D01*
X107736089Y-88159000D01*
X107779300Y-88167595D01*
G37*
G36*
X138273665Y-85732622D02*
G01*
X138347222Y-85739867D01*
X138488786Y-85782810D01*
X138619252Y-85852546D01*
X138649040Y-85876992D01*
X138733607Y-85946393D01*
X138803008Y-86030960D01*
X138827454Y-86060748D01*
X138897190Y-86191214D01*
X138940133Y-86332778D01*
X138954633Y-86480000D01*
X138940133Y-86627222D01*
X138897190Y-86768786D01*
X138827454Y-86899252D01*
X138803008Y-86929040D01*
X138733607Y-87013607D01*
X138649040Y-87083008D01*
X138619252Y-87107454D01*
X138488786Y-87177190D01*
X138347222Y-87220133D01*
X138273665Y-87227378D01*
X138236888Y-87231000D01*
X137763112Y-87231000D01*
X137726335Y-87227378D01*
X137652778Y-87220133D01*
X137511214Y-87177190D01*
X137380748Y-87107454D01*
X137350960Y-87083008D01*
X137266393Y-87013607D01*
X137196992Y-86929040D01*
X137172546Y-86899252D01*
X137102810Y-86768786D01*
X137059867Y-86627222D01*
X137045367Y-86480000D01*
X137059867Y-86332778D01*
X137102810Y-86191214D01*
X137172546Y-86060748D01*
X137196992Y-86030960D01*
X137266393Y-85946393D01*
X137350960Y-85876992D01*
X137380748Y-85852546D01*
X137511214Y-85782810D01*
X137652778Y-85739867D01*
X137726335Y-85732622D01*
X137763112Y-85729000D01*
X138236888Y-85729000D01*
X138273665Y-85732622D01*
G37*
G36*
X138273665Y-83192622D02*
G01*
X138347222Y-83199867D01*
X138488786Y-83242810D01*
X138619252Y-83312546D01*
X138649040Y-83336992D01*
X138733607Y-83406393D01*
X138771828Y-83452967D01*
X138827454Y-83520748D01*
X138897190Y-83651214D01*
X138940133Y-83792778D01*
X138954633Y-83940000D01*
X138940133Y-84087222D01*
X138897190Y-84228786D01*
X138827454Y-84359252D01*
X138803008Y-84389040D01*
X138733607Y-84473607D01*
X138649040Y-84543008D01*
X138619252Y-84567454D01*
X138488786Y-84637190D01*
X138347222Y-84680133D01*
X138273665Y-84687378D01*
X138236888Y-84691000D01*
X137763112Y-84691000D01*
X137726335Y-84687378D01*
X137652778Y-84680133D01*
X137511214Y-84637190D01*
X137380748Y-84567454D01*
X137350960Y-84543008D01*
X137266393Y-84473607D01*
X137196992Y-84389040D01*
X137172546Y-84359252D01*
X137102810Y-84228786D01*
X137059867Y-84087222D01*
X137045367Y-83940000D01*
X137059867Y-83792778D01*
X137102810Y-83651214D01*
X137172546Y-83520748D01*
X137228172Y-83452967D01*
X137266393Y-83406393D01*
X137350960Y-83336992D01*
X137380748Y-83312546D01*
X137511214Y-83242810D01*
X137652778Y-83199867D01*
X137726335Y-83192622D01*
X137763112Y-83189000D01*
X138236888Y-83189000D01*
X138273665Y-83192622D01*
G37*
G36*
X98344098Y-78547033D02*
G01*
X98808350Y-78739332D01*
X98808352Y-78739333D01*
X99226168Y-79018509D01*
X99581491Y-79373832D01*
X99860667Y-79791648D01*
X99860668Y-79791650D01*
X100052967Y-80255902D01*
X100151000Y-80748747D01*
X100151000Y-81251253D01*
X100052967Y-81744098D01*
X99884423Y-82151000D01*
X99860667Y-82208352D01*
X99581491Y-82626168D01*
X99226168Y-82981491D01*
X98808352Y-83260667D01*
X98808351Y-83260668D01*
X98808350Y-83260668D01*
X98344098Y-83452967D01*
X97851253Y-83551000D01*
X97348747Y-83551000D01*
X96855902Y-83452967D01*
X96391650Y-83260668D01*
X96391649Y-83260668D01*
X96391648Y-83260667D01*
X95973832Y-82981491D01*
X95618509Y-82626168D01*
X95339333Y-82208352D01*
X95315577Y-82151000D01*
X95147033Y-81744098D01*
X95049000Y-81251253D01*
X95049000Y-80748747D01*
X95147033Y-80255902D01*
X95339332Y-79791650D01*
X95339333Y-79791648D01*
X95618509Y-79373832D01*
X95973832Y-79018509D01*
X96391648Y-78739333D01*
X96391650Y-78739332D01*
X96855902Y-78547033D01*
X97348747Y-78449000D01*
X97851253Y-78449000D01*
X98344098Y-78547033D01*
G37*
G36*
X138951000Y-82151000D02*
G01*
X137049000Y-82151000D01*
X137049000Y-80649000D01*
X138951000Y-80649000D01*
X138951000Y-82151000D01*
G37*
G36*
X162901000Y-77121000D02*
G01*
X161099000Y-77121000D01*
X161099000Y-75319000D01*
X162901000Y-75319000D01*
X162901000Y-77121000D01*
G37*
G36*
X159573512Y-75323927D02*
G01*
X159722812Y-75353624D01*
X159886784Y-75421544D01*
X160034354Y-75520147D01*
X160159853Y-75645646D01*
X160258456Y-75793216D01*
X160326376Y-75957188D01*
X160361000Y-76131259D01*
X160361000Y-76308741D01*
X160326376Y-76482812D01*
X160258456Y-76646784D01*
X160159853Y-76794354D01*
X160034354Y-76919853D01*
X159886784Y-77018456D01*
X159722812Y-77086376D01*
X159573512Y-77116073D01*
X159548742Y-77121000D01*
X159371258Y-77121000D01*
X159346488Y-77116073D01*
X159197188Y-77086376D01*
X159033216Y-77018456D01*
X158885646Y-76919853D01*
X158760147Y-76794354D01*
X158661544Y-76646784D01*
X158593624Y-76482812D01*
X158559000Y-76308741D01*
X158559000Y-76131259D01*
X158593624Y-75957188D01*
X158661544Y-75793216D01*
X158760147Y-75645646D01*
X158885646Y-75520147D01*
X159033216Y-75421544D01*
X159197188Y-75353624D01*
X159346488Y-75323927D01*
X159371258Y-75319000D01*
X159548742Y-75319000D01*
X159573512Y-75323927D01*
G37*
G36*
X157033512Y-75323927D02*
G01*
X157182812Y-75353624D01*
X157346784Y-75421544D01*
X157494354Y-75520147D01*
X157619853Y-75645646D01*
X157718456Y-75793216D01*
X157786376Y-75957188D01*
X157821000Y-76131259D01*
X157821000Y-76308741D01*
X157786376Y-76482812D01*
X157718456Y-76646784D01*
X157619853Y-76794354D01*
X157494354Y-76919853D01*
X157346784Y-77018456D01*
X157182812Y-77086376D01*
X157033512Y-77116073D01*
X157008742Y-77121000D01*
X156831258Y-77121000D01*
X156806488Y-77116073D01*
X156657188Y-77086376D01*
X156493216Y-77018456D01*
X156345646Y-76919853D01*
X156220147Y-76794354D01*
X156121544Y-76646784D01*
X156053624Y-76482812D01*
X156019000Y-76308741D01*
X156019000Y-76131259D01*
X156053624Y-75957188D01*
X156121544Y-75793216D01*
X156220147Y-75645646D01*
X156345646Y-75520147D01*
X156493216Y-75421544D01*
X156657188Y-75353624D01*
X156806488Y-75323927D01*
X156831258Y-75319000D01*
X157008742Y-75319000D01*
X157033512Y-75323927D01*
G37*
G36*
X154493512Y-75323927D02*
G01*
X154642812Y-75353624D01*
X154806784Y-75421544D01*
X154954354Y-75520147D01*
X155079853Y-75645646D01*
X155178456Y-75793216D01*
X155246376Y-75957188D01*
X155281000Y-76131259D01*
X155281000Y-76308741D01*
X155246376Y-76482812D01*
X155178456Y-76646784D01*
X155079853Y-76794354D01*
X154954354Y-76919853D01*
X154806784Y-77018456D01*
X154642812Y-77086376D01*
X154493512Y-77116073D01*
X154468742Y-77121000D01*
X154291258Y-77121000D01*
X154266488Y-77116073D01*
X154117188Y-77086376D01*
X153953216Y-77018456D01*
X153805646Y-76919853D01*
X153680147Y-76794354D01*
X153581544Y-76646784D01*
X153513624Y-76482812D01*
X153479000Y-76308741D01*
X153479000Y-76131259D01*
X153513624Y-75957188D01*
X153581544Y-75793216D01*
X153680147Y-75645646D01*
X153805646Y-75520147D01*
X153953216Y-75421544D01*
X154117188Y-75353624D01*
X154266488Y-75323927D01*
X154291258Y-75319000D01*
X154468742Y-75319000D01*
X154493512Y-75323927D01*
G37*
G36*
X151953512Y-75323927D02*
G01*
X152102812Y-75353624D01*
X152266784Y-75421544D01*
X152414354Y-75520147D01*
X152539853Y-75645646D01*
X152638456Y-75793216D01*
X152706376Y-75957188D01*
X152741000Y-76131259D01*
X152741000Y-76308741D01*
X152706376Y-76482812D01*
X152638456Y-76646784D01*
X152539853Y-76794354D01*
X152414354Y-76919853D01*
X152266784Y-77018456D01*
X152102812Y-77086376D01*
X151953512Y-77116073D01*
X151928742Y-77121000D01*
X151751258Y-77121000D01*
X151726488Y-77116073D01*
X151577188Y-77086376D01*
X151413216Y-77018456D01*
X151265646Y-76919853D01*
X151140147Y-76794354D01*
X151041544Y-76646784D01*
X150973624Y-76482812D01*
X150939000Y-76308741D01*
X150939000Y-76131259D01*
X150973624Y-75957188D01*
X151041544Y-75793216D01*
X151140147Y-75645646D01*
X151265646Y-75520147D01*
X151413216Y-75421544D01*
X151577188Y-75353624D01*
X151726488Y-75323927D01*
X151751258Y-75319000D01*
X151928742Y-75319000D01*
X151953512Y-75323927D01*
G37*
G36*
X149413512Y-75323927D02*
G01*
X149562812Y-75353624D01*
X149726784Y-75421544D01*
X149874354Y-75520147D01*
X149999853Y-75645646D01*
X150098456Y-75793216D01*
X150166376Y-75957188D01*
X150201000Y-76131259D01*
X150201000Y-76308741D01*
X150166376Y-76482812D01*
X150098456Y-76646784D01*
X149999853Y-76794354D01*
X149874354Y-76919853D01*
X149726784Y-77018456D01*
X149562812Y-77086376D01*
X149413512Y-77116073D01*
X149388742Y-77121000D01*
X149211258Y-77121000D01*
X149186488Y-77116073D01*
X149037188Y-77086376D01*
X148873216Y-77018456D01*
X148725646Y-76919853D01*
X148600147Y-76794354D01*
X148501544Y-76646784D01*
X148433624Y-76482812D01*
X148399000Y-76308741D01*
X148399000Y-76131259D01*
X148433624Y-75957188D01*
X148501544Y-75793216D01*
X148600147Y-75645646D01*
X148725646Y-75520147D01*
X148873216Y-75421544D01*
X149037188Y-75353624D01*
X149186488Y-75323927D01*
X149211258Y-75319000D01*
X149388742Y-75319000D01*
X149413512Y-75323927D01*
G37*
G36*
X146873512Y-75323927D02*
G01*
X147022812Y-75353624D01*
X147186784Y-75421544D01*
X147334354Y-75520147D01*
X147459853Y-75645646D01*
X147558456Y-75793216D01*
X147626376Y-75957188D01*
X147661000Y-76131259D01*
X147661000Y-76308741D01*
X147626376Y-76482812D01*
X147558456Y-76646784D01*
X147459853Y-76794354D01*
X147334354Y-76919853D01*
X147186784Y-77018456D01*
X147022812Y-77086376D01*
X146873512Y-77116073D01*
X146848742Y-77121000D01*
X146671258Y-77121000D01*
X146646488Y-77116073D01*
X146497188Y-77086376D01*
X146333216Y-77018456D01*
X146185646Y-76919853D01*
X146060147Y-76794354D01*
X145961544Y-76646784D01*
X145893624Y-76482812D01*
X145859000Y-76308741D01*
X145859000Y-76131259D01*
X145893624Y-75957188D01*
X145961544Y-75793216D01*
X146060147Y-75645646D01*
X146185646Y-75520147D01*
X146333216Y-75421544D01*
X146497188Y-75353624D01*
X146646488Y-75323927D01*
X146671258Y-75319000D01*
X146848742Y-75319000D01*
X146873512Y-75323927D01*
G37*
G36*
X99858500Y-74858500D02*
G01*
X98181500Y-74858500D01*
X98181500Y-73181500D01*
X99858500Y-73181500D01*
X99858500Y-74858500D01*
G37*
G36*
X96424581Y-71833723D02*
G01*
X96577178Y-71896930D01*
X96714512Y-71988694D01*
X96831306Y-72105488D01*
X96923070Y-72242822D01*
X96986277Y-72395419D01*
X97018500Y-72557414D01*
X97018500Y-72722586D01*
X96986277Y-72884581D01*
X96923070Y-73037178D01*
X96831306Y-73174512D01*
X96714512Y-73291306D01*
X96577178Y-73383070D01*
X96424581Y-73446277D01*
X96262586Y-73478500D01*
X96097414Y-73478500D01*
X95935419Y-73446277D01*
X95782822Y-73383070D01*
X95645488Y-73291306D01*
X95528694Y-73174512D01*
X95436930Y-73037178D01*
X95373723Y-72884581D01*
X95341500Y-72722586D01*
X95341500Y-72557414D01*
X95373723Y-72395419D01*
X95436930Y-72242822D01*
X95528694Y-72105488D01*
X95645488Y-71988694D01*
X95782822Y-71896930D01*
X95935419Y-71833723D01*
X96097414Y-71801500D01*
X96262586Y-71801500D01*
X96424581Y-71833723D01*
G37*
G36*
X99264581Y-70453723D02*
G01*
X99417178Y-70516930D01*
X99554512Y-70608694D01*
X99671306Y-70725488D01*
X99763070Y-70862822D01*
X99826277Y-71015419D01*
X99858500Y-71177414D01*
X99858500Y-71342586D01*
X99826277Y-71504581D01*
X99763070Y-71657178D01*
X99671306Y-71794512D01*
X99554512Y-71911306D01*
X99417178Y-72003070D01*
X99264581Y-72066277D01*
X99102586Y-72098500D01*
X98937414Y-72098500D01*
X98775419Y-72066277D01*
X98622822Y-72003070D01*
X98485488Y-71911306D01*
X98368694Y-71794512D01*
X98276930Y-71657178D01*
X98213723Y-71504581D01*
X98181500Y-71342586D01*
X98181500Y-71177414D01*
X98213723Y-71015419D01*
X98276930Y-70862822D01*
X98368694Y-70725488D01*
X98485488Y-70608694D01*
X98622822Y-70516930D01*
X98775419Y-70453723D01*
X98937414Y-70421500D01*
X99102586Y-70421500D01*
X99264581Y-70453723D01*
G37*
G36*
X96424581Y-69073723D02*
G01*
X96577178Y-69136930D01*
X96714512Y-69228694D01*
X96831306Y-69345488D01*
X96923070Y-69482822D01*
X96986277Y-69635419D01*
X97018500Y-69797414D01*
X97018500Y-69962586D01*
X96986277Y-70124581D01*
X96923070Y-70277178D01*
X96831306Y-70414512D01*
X96714512Y-70531306D01*
X96577178Y-70623070D01*
X96424581Y-70686277D01*
X96262586Y-70718500D01*
X96097414Y-70718500D01*
X95935419Y-70686277D01*
X95782822Y-70623070D01*
X95645488Y-70531306D01*
X95528694Y-70414512D01*
X95436930Y-70277178D01*
X95373723Y-70124581D01*
X95341500Y-69962586D01*
X95341500Y-69797414D01*
X95373723Y-69635419D01*
X95436930Y-69482822D01*
X95528694Y-69345488D01*
X95645488Y-69228694D01*
X95782822Y-69136930D01*
X95935419Y-69073723D01*
X96097414Y-69041500D01*
X96262586Y-69041500D01*
X96424581Y-69073723D01*
G37*
G36*
X99264581Y-67693723D02*
G01*
X99417178Y-67756930D01*
X99554512Y-67848694D01*
X99671306Y-67965488D01*
X99763070Y-68102822D01*
X99826277Y-68255419D01*
X99858500Y-68417414D01*
X99858500Y-68582586D01*
X99826277Y-68744581D01*
X99763070Y-68897178D01*
X99671306Y-69034512D01*
X99554512Y-69151306D01*
X99417178Y-69243070D01*
X99264581Y-69306277D01*
X99102586Y-69338500D01*
X98937414Y-69338500D01*
X98775419Y-69306277D01*
X98622822Y-69243070D01*
X98485488Y-69151306D01*
X98368694Y-69034512D01*
X98276930Y-68897178D01*
X98213723Y-68744581D01*
X98181500Y-68582586D01*
X98181500Y-68417414D01*
X98213723Y-68255419D01*
X98276930Y-68102822D01*
X98368694Y-67965488D01*
X98485488Y-67848694D01*
X98622822Y-67756930D01*
X98775419Y-67693723D01*
X98937414Y-67661500D01*
X99102586Y-67661500D01*
X99264581Y-67693723D01*
G37*
G36*
X96424581Y-66313723D02*
G01*
X96577178Y-66376930D01*
X96714512Y-66468694D01*
X96831306Y-66585488D01*
X96923070Y-66722822D01*
X96986277Y-66875419D01*
X97018500Y-67037414D01*
X97018500Y-67202586D01*
X96986277Y-67364581D01*
X96923070Y-67517178D01*
X96831306Y-67654512D01*
X96714512Y-67771306D01*
X96577178Y-67863070D01*
X96424581Y-67926277D01*
X96262586Y-67958500D01*
X96097414Y-67958500D01*
X95935419Y-67926277D01*
X95782822Y-67863070D01*
X95645488Y-67771306D01*
X95528694Y-67654512D01*
X95436930Y-67517178D01*
X95373723Y-67364581D01*
X95341500Y-67202586D01*
X95341500Y-67037414D01*
X95373723Y-66875419D01*
X95436930Y-66722822D01*
X95528694Y-66585488D01*
X95645488Y-66468694D01*
X95782822Y-66376930D01*
X95935419Y-66313723D01*
X96097414Y-66281500D01*
X96262586Y-66281500D01*
X96424581Y-66313723D01*
G37*
G36*
X99264581Y-64933723D02*
G01*
X99417178Y-64996930D01*
X99554512Y-65088694D01*
X99671306Y-65205488D01*
X99763070Y-65342822D01*
X99826277Y-65495419D01*
X99858500Y-65657414D01*
X99858500Y-65822586D01*
X99826277Y-65984581D01*
X99763070Y-66137178D01*
X99671306Y-66274512D01*
X99554512Y-66391306D01*
X99417178Y-66483070D01*
X99264581Y-66546277D01*
X99102586Y-66578500D01*
X98937414Y-66578500D01*
X98775419Y-66546277D01*
X98622822Y-66483070D01*
X98485488Y-66391306D01*
X98368694Y-66274512D01*
X98276930Y-66137178D01*
X98213723Y-65984581D01*
X98181500Y-65822586D01*
X98181500Y-65657414D01*
X98213723Y-65495419D01*
X98276930Y-65342822D01*
X98368694Y-65205488D01*
X98485488Y-65088694D01*
X98622822Y-64996930D01*
X98775419Y-64933723D01*
X98937414Y-64901500D01*
X99102586Y-64901500D01*
X99264581Y-64933723D01*
G37*
G36*
X96424581Y-63553723D02*
G01*
X96577178Y-63616930D01*
X96714512Y-63708694D01*
X96831306Y-63825488D01*
X96923070Y-63962822D01*
X96986277Y-64115419D01*
X97018500Y-64277414D01*
X97018500Y-64442586D01*
X96986277Y-64604581D01*
X96923070Y-64757178D01*
X96831306Y-64894512D01*
X96714512Y-65011306D01*
X96577178Y-65103070D01*
X96424581Y-65166277D01*
X96262586Y-65198500D01*
X96097414Y-65198500D01*
X95935419Y-65166277D01*
X95782822Y-65103070D01*
X95645488Y-65011306D01*
X95528694Y-64894512D01*
X95436930Y-64757178D01*
X95373723Y-64604581D01*
X95341500Y-64442586D01*
X95341500Y-64277414D01*
X95373723Y-64115419D01*
X95436930Y-63962822D01*
X95528694Y-63825488D01*
X95645488Y-63708694D01*
X95782822Y-63616930D01*
X95935419Y-63553723D01*
X96097414Y-63521500D01*
X96262586Y-63521500D01*
X96424581Y-63553723D01*
G37*
G36*
X99264581Y-62173723D02*
G01*
X99417178Y-62236930D01*
X99554512Y-62328694D01*
X99671306Y-62445488D01*
X99763070Y-62582822D01*
X99826277Y-62735419D01*
X99858500Y-62897414D01*
X99858500Y-63062586D01*
X99826277Y-63224581D01*
X99763070Y-63377178D01*
X99671306Y-63514512D01*
X99554512Y-63631306D01*
X99417178Y-63723070D01*
X99264581Y-63786277D01*
X99102586Y-63818500D01*
X98937414Y-63818500D01*
X98775419Y-63786277D01*
X98622822Y-63723070D01*
X98485488Y-63631306D01*
X98368694Y-63514512D01*
X98276930Y-63377178D01*
X98213723Y-63224581D01*
X98181500Y-63062586D01*
X98181500Y-62897414D01*
X98213723Y-62735419D01*
X98276930Y-62582822D01*
X98368694Y-62445488D01*
X98485488Y-62328694D01*
X98622822Y-62236930D01*
X98775419Y-62173723D01*
X98937414Y-62141500D01*
X99102586Y-62141500D01*
X99264581Y-62173723D01*
G37*
G36*
X159573512Y-60083927D02*
G01*
X159722812Y-60113624D01*
X159886784Y-60181544D01*
X160034354Y-60280147D01*
X160159853Y-60405646D01*
X160258456Y-60553216D01*
X160326376Y-60717188D01*
X160361000Y-60891259D01*
X160361000Y-61068741D01*
X160326376Y-61242812D01*
X160258456Y-61406784D01*
X160159853Y-61554354D01*
X160034354Y-61679853D01*
X159886784Y-61778456D01*
X159722812Y-61846376D01*
X159573512Y-61876073D01*
X159548742Y-61881000D01*
X159371258Y-61881000D01*
X159346488Y-61876073D01*
X159197188Y-61846376D01*
X159033216Y-61778456D01*
X158885646Y-61679853D01*
X158760147Y-61554354D01*
X158661544Y-61406784D01*
X158593624Y-61242812D01*
X158559000Y-61068741D01*
X158559000Y-60891259D01*
X158593624Y-60717188D01*
X158661544Y-60553216D01*
X158760147Y-60405646D01*
X158885646Y-60280147D01*
X159033216Y-60181544D01*
X159197188Y-60113624D01*
X159346488Y-60083927D01*
X159371258Y-60079000D01*
X159548742Y-60079000D01*
X159573512Y-60083927D01*
G37*
G36*
X162901000Y-61881000D02*
G01*
X161099000Y-61881000D01*
X161099000Y-60079000D01*
X162901000Y-60079000D01*
X162901000Y-61881000D01*
G37*
G36*
X157033512Y-60083927D02*
G01*
X157182812Y-60113624D01*
X157346784Y-60181544D01*
X157494354Y-60280147D01*
X157619853Y-60405646D01*
X157718456Y-60553216D01*
X157786376Y-60717188D01*
X157821000Y-60891259D01*
X157821000Y-61068741D01*
X157786376Y-61242812D01*
X157718456Y-61406784D01*
X157619853Y-61554354D01*
X157494354Y-61679853D01*
X157346784Y-61778456D01*
X157182812Y-61846376D01*
X157033512Y-61876073D01*
X157008742Y-61881000D01*
X156831258Y-61881000D01*
X156806488Y-61876073D01*
X156657188Y-61846376D01*
X156493216Y-61778456D01*
X156345646Y-61679853D01*
X156220147Y-61554354D01*
X156121544Y-61406784D01*
X156053624Y-61242812D01*
X156019000Y-61068741D01*
X156019000Y-60891259D01*
X156053624Y-60717188D01*
X156121544Y-60553216D01*
X156220147Y-60405646D01*
X156345646Y-60280147D01*
X156493216Y-60181544D01*
X156657188Y-60113624D01*
X156806488Y-60083927D01*
X156831258Y-60079000D01*
X157008742Y-60079000D01*
X157033512Y-60083927D01*
G37*
G36*
X146873512Y-60083927D02*
G01*
X147022812Y-60113624D01*
X147186784Y-60181544D01*
X147334354Y-60280147D01*
X147459853Y-60405646D01*
X147558456Y-60553216D01*
X147626376Y-60717188D01*
X147661000Y-60891259D01*
X147661000Y-61068741D01*
X147626376Y-61242812D01*
X147558456Y-61406784D01*
X147459853Y-61554354D01*
X147334354Y-61679853D01*
X147186784Y-61778456D01*
X147022812Y-61846376D01*
X146873512Y-61876073D01*
X146848742Y-61881000D01*
X146671258Y-61881000D01*
X146646488Y-61876073D01*
X146497188Y-61846376D01*
X146333216Y-61778456D01*
X146185646Y-61679853D01*
X146060147Y-61554354D01*
X145961544Y-61406784D01*
X145893624Y-61242812D01*
X145859000Y-61068741D01*
X145859000Y-60891259D01*
X145893624Y-60717188D01*
X145961544Y-60553216D01*
X146060147Y-60405646D01*
X146185646Y-60280147D01*
X146333216Y-60181544D01*
X146497188Y-60113624D01*
X146646488Y-60083927D01*
X146671258Y-60079000D01*
X146848742Y-60079000D01*
X146873512Y-60083927D01*
G37*
G36*
X149413512Y-60083927D02*
G01*
X149562812Y-60113624D01*
X149726784Y-60181544D01*
X149874354Y-60280147D01*
X149999853Y-60405646D01*
X150098456Y-60553216D01*
X150166376Y-60717188D01*
X150201000Y-60891259D01*
X150201000Y-61068741D01*
X150166376Y-61242812D01*
X150098456Y-61406784D01*
X149999853Y-61554354D01*
X149874354Y-61679853D01*
X149726784Y-61778456D01*
X149562812Y-61846376D01*
X149413512Y-61876073D01*
X149388742Y-61881000D01*
X149211258Y-61881000D01*
X149186488Y-61876073D01*
X149037188Y-61846376D01*
X148873216Y-61778456D01*
X148725646Y-61679853D01*
X148600147Y-61554354D01*
X148501544Y-61406784D01*
X148433624Y-61242812D01*
X148399000Y-61068741D01*
X148399000Y-60891259D01*
X148433624Y-60717188D01*
X148501544Y-60553216D01*
X148600147Y-60405646D01*
X148725646Y-60280147D01*
X148873216Y-60181544D01*
X149037188Y-60113624D01*
X149186488Y-60083927D01*
X149211258Y-60079000D01*
X149388742Y-60079000D01*
X149413512Y-60083927D01*
G37*
G36*
X151953512Y-60083927D02*
G01*
X152102812Y-60113624D01*
X152266784Y-60181544D01*
X152414354Y-60280147D01*
X152539853Y-60405646D01*
X152638456Y-60553216D01*
X152706376Y-60717188D01*
X152741000Y-60891259D01*
X152741000Y-61068741D01*
X152706376Y-61242812D01*
X152638456Y-61406784D01*
X152539853Y-61554354D01*
X152414354Y-61679853D01*
X152266784Y-61778456D01*
X152102812Y-61846376D01*
X151953512Y-61876073D01*
X151928742Y-61881000D01*
X151751258Y-61881000D01*
X151726488Y-61876073D01*
X151577188Y-61846376D01*
X151413216Y-61778456D01*
X151265646Y-61679853D01*
X151140147Y-61554354D01*
X151041544Y-61406784D01*
X150973624Y-61242812D01*
X150939000Y-61068741D01*
X150939000Y-60891259D01*
X150973624Y-60717188D01*
X151041544Y-60553216D01*
X151140147Y-60405646D01*
X151265646Y-60280147D01*
X151413216Y-60181544D01*
X151577188Y-60113624D01*
X151726488Y-60083927D01*
X151751258Y-60079000D01*
X151928742Y-60079000D01*
X151953512Y-60083927D01*
G37*
G36*
X154493512Y-60083927D02*
G01*
X154642812Y-60113624D01*
X154806784Y-60181544D01*
X154954354Y-60280147D01*
X155079853Y-60405646D01*
X155178456Y-60553216D01*
X155246376Y-60717188D01*
X155281000Y-60891259D01*
X155281000Y-61068741D01*
X155246376Y-61242812D01*
X155178456Y-61406784D01*
X155079853Y-61554354D01*
X154954354Y-61679853D01*
X154806784Y-61778456D01*
X154642812Y-61846376D01*
X154493512Y-61876073D01*
X154468742Y-61881000D01*
X154291258Y-61881000D01*
X154266488Y-61876073D01*
X154117188Y-61846376D01*
X153953216Y-61778456D01*
X153805646Y-61679853D01*
X153680147Y-61554354D01*
X153581544Y-61406784D01*
X153513624Y-61242812D01*
X153479000Y-61068741D01*
X153479000Y-60891259D01*
X153513624Y-60717188D01*
X153581544Y-60553216D01*
X153680147Y-60405646D01*
X153805646Y-60280147D01*
X153953216Y-60181544D01*
X154117188Y-60113624D01*
X154266488Y-60083927D01*
X154291258Y-60079000D01*
X154468742Y-60079000D01*
X154493512Y-60083927D01*
G37*
G36*
X98344098Y-53547033D02*
G01*
X98808350Y-53739332D01*
X98808352Y-53739333D01*
X99226168Y-54018509D01*
X99581491Y-54373832D01*
X99860667Y-54791648D01*
X99860668Y-54791650D01*
X100052967Y-55255902D01*
X100151000Y-55748747D01*
X100151000Y-56251253D01*
X100052967Y-56744098D01*
X99860668Y-57208350D01*
X99860667Y-57208352D01*
X99581491Y-57626168D01*
X99226168Y-57981491D01*
X98808352Y-58260667D01*
X98808351Y-58260668D01*
X98808350Y-58260668D01*
X98344098Y-58452967D01*
X97851253Y-58551000D01*
X97348747Y-58551000D01*
X96855902Y-58452967D01*
X96391650Y-58260668D01*
X96391649Y-58260668D01*
X96391648Y-58260667D01*
X95973832Y-57981491D01*
X95618509Y-57626168D01*
X95339333Y-57208352D01*
X95339332Y-57208350D01*
X95147033Y-56744098D01*
X95049000Y-56251253D01*
X95049000Y-55748747D01*
X95147033Y-55255902D01*
X95339332Y-54791650D01*
X95339333Y-54791648D01*
X95618509Y-54373832D01*
X95973832Y-54018509D01*
X96391648Y-53739333D01*
X96391650Y-53739332D01*
X96855902Y-53547033D01*
X97348747Y-53449000D01*
X97851253Y-53449000D01*
X98344098Y-53547033D01*
G37*
M02*
