%FSLAX45Y45*%
G04 Gerber Fmt 4.5, Leading zero omitted, Abs format (unit mm)*
G04 Created by KiCad (PCBNEW (5.1.5-0)) date 2022-06-25 14:07:16*
%MOMM*%
%LPD*%
G04 APERTURE LIST*
%TA.AperFunction,Profile*%
%ADD10C,0.050000*%
%TD*%
%ADD11C,0.200000*%
%ADD12C,0.300000*%
G04 APERTURE END LIST*
D10*
X8800000Y-4300000D02*
X8800000Y-9400000D01*
X16400000Y-4300000D02*
X8800000Y-4300000D01*
X16400000Y-9400000D02*
X16400000Y-4300000D01*
X8800000Y-9400000D02*
X16400000Y-9400000D01*
D11*
X10328000Y-8342000D02*
X10368000Y-8382000D01*
X10368000Y-8342000D02*
X10328000Y-8382000D01*
X10760000Y-7670000D02*
X10800000Y-7710000D01*
X10800000Y-7670000D02*
X10760000Y-7710000D01*
X10890000Y-8370000D02*
X10930000Y-8410000D01*
X10930000Y-8370000D02*
X10890000Y-8410000D01*
X10890000Y-8480000D02*
X10930000Y-8520000D01*
X10930000Y-8480000D02*
X10890000Y-8520000D01*
X11220000Y-6680000D02*
X11260000Y-6720000D01*
X11260000Y-6680000D02*
X11220000Y-6720000D01*
X11446265Y-6533735D02*
X11486265Y-6573735D01*
X11486265Y-6533735D02*
X11446265Y-6573735D01*
X11790000Y-6560000D02*
X11830000Y-6600000D01*
X11830000Y-6560000D02*
X11790000Y-6600000D01*
X12330000Y-6560000D02*
X12370000Y-6600000D01*
X12370000Y-6560000D02*
X12330000Y-6600000D01*
X12480000Y-6080000D02*
X12520000Y-6120000D01*
X12520000Y-6080000D02*
X12480000Y-6120000D01*
X12580000Y-5880000D02*
X12620000Y-5920000D01*
X12620000Y-5880000D02*
X12580000Y-5920000D01*
X12650000Y-5630000D02*
X12690000Y-5670000D01*
X12690000Y-5630000D02*
X12650000Y-5670000D01*
X12660000Y-5760000D02*
X12700000Y-5800000D01*
X12700000Y-5760000D02*
X12660000Y-5800000D01*
X12680000Y-6180000D02*
X12720000Y-6220000D01*
X12720000Y-6180000D02*
X12680000Y-6220000D01*
X12990000Y-7970000D02*
X13030000Y-8010000D01*
X13030000Y-7970000D02*
X12990000Y-8010000D01*
X13290000Y-6180000D02*
X13330000Y-6220000D01*
X13330000Y-6180000D02*
X13290000Y-6220000D01*
X13350000Y-6990000D02*
X13390000Y-7030000D01*
X13390000Y-6990000D02*
X13350000Y-7030000D01*
X13567500Y-6040000D02*
X13607500Y-6080000D01*
X13607500Y-6040000D02*
X13567500Y-6080000D01*
X13570000Y-5480000D02*
X13610000Y-5520000D01*
X13610000Y-5480000D02*
X13570000Y-5520000D01*
X13590000Y-7510000D02*
X13630000Y-7550000D01*
X13630000Y-7510000D02*
X13590000Y-7550000D01*
X13640000Y-5830000D02*
X13680000Y-5870000D01*
X13680000Y-5830000D02*
X13640000Y-5870000D01*
X13650000Y-7430000D02*
X13690000Y-7470000D01*
X13690000Y-7430000D02*
X13650000Y-7470000D01*
X10555000Y-8883000D02*
G75*
G03X10555000Y-8883000I-42000J0D01*
G01*
X10555000Y-9137000D02*
G75*
G03X10555000Y-9137000I-42000J0D01*
G01*
X10682000Y-9010000D02*
G75*
G03X10682000Y-9010000I-42000J0D01*
G01*
X10809000Y-8883000D02*
G75*
G03X10809000Y-8883000I-42000J0D01*
G01*
X10809000Y-9137000D02*
G75*
G03X10809000Y-9137000I-42000J0D01*
G01*
X13800000Y-8090000D02*
X13800000Y-8190000D01*
X13750000Y-8140000D02*
X13850000Y-8140000D01*
X13800000Y-8344000D02*
X13800000Y-8444000D01*
X13750000Y-8394000D02*
X13850000Y-8394000D01*
X13800000Y-8598000D02*
X13800000Y-8698000D01*
X13750000Y-8648000D02*
X13850000Y-8648000D01*
X13800000Y-8852000D02*
X13800000Y-8952000D01*
X13750000Y-8902000D02*
X13850000Y-8902000D01*
X9618000Y-6386000D02*
X9618000Y-6486000D01*
X9568000Y-6436000D02*
X9668000Y-6436000D01*
X9618000Y-6662000D02*
X9618000Y-6762000D01*
X9568000Y-6712000D02*
X9668000Y-6712000D01*
X9618000Y-6938000D02*
X9618000Y-7038000D01*
X9568000Y-6988000D02*
X9668000Y-6988000D01*
X9618000Y-7214000D02*
X9618000Y-7314000D01*
X9568000Y-7264000D02*
X9668000Y-7264000D01*
X9902000Y-6248000D02*
X9902000Y-6348000D01*
X9852000Y-6298000D02*
X9952000Y-6298000D01*
X9902000Y-6524000D02*
X9902000Y-6624000D01*
X9852000Y-6574000D02*
X9952000Y-6574000D01*
X9902000Y-6800000D02*
X9902000Y-6900000D01*
X9852000Y-6850000D02*
X9952000Y-6850000D01*
X9902000Y-7076000D02*
X9902000Y-7176000D01*
X9852000Y-7126000D02*
X9952000Y-7126000D01*
X9902000Y-7352000D02*
X9902000Y-7452000D01*
X9852000Y-7402000D02*
X9952000Y-7402000D01*
X14676000Y-7572000D02*
X14676000Y-7672000D01*
X14626000Y-7622000D02*
X14726000Y-7622000D01*
X14930000Y-7572000D02*
X14930000Y-7672000D01*
X14880000Y-7622000D02*
X14980000Y-7622000D01*
X15184000Y-7572000D02*
X15184000Y-7672000D01*
X15134000Y-7622000D02*
X15234000Y-7622000D01*
X15438000Y-7572000D02*
X15438000Y-7672000D01*
X15388000Y-7622000D02*
X15488000Y-7622000D01*
X15692000Y-7572000D02*
X15692000Y-7672000D01*
X15642000Y-7622000D02*
X15742000Y-7622000D01*
X15946000Y-7572000D02*
X15946000Y-7672000D01*
X15896000Y-7622000D02*
X15996000Y-7622000D01*
X16200000Y-7572000D02*
X16200000Y-7672000D01*
X16150000Y-7622000D02*
X16250000Y-7622000D01*
X14676000Y-6048000D02*
X14676000Y-6148000D01*
X14626000Y-6098000D02*
X14726000Y-6098000D01*
X14930000Y-6048000D02*
X14930000Y-6148000D01*
X14880000Y-6098000D02*
X14980000Y-6098000D01*
X15184000Y-6048000D02*
X15184000Y-6148000D01*
X15134000Y-6098000D02*
X15234000Y-6098000D01*
X15438000Y-6048000D02*
X15438000Y-6148000D01*
X15388000Y-6098000D02*
X15488000Y-6098000D01*
X15692000Y-6048000D02*
X15692000Y-6148000D01*
X15642000Y-6098000D02*
X15742000Y-6098000D01*
X15946000Y-6048000D02*
X15946000Y-6148000D01*
X15896000Y-6098000D02*
X15996000Y-6098000D01*
X16200000Y-6048000D02*
X16200000Y-6148000D01*
X16150000Y-6098000D02*
X16250000Y-6098000D01*
X9874906Y-5714906D02*
X9874906Y-5485094D01*
X9645094Y-5485094D01*
X9645094Y-5714906D01*
X9874906Y-5714906D01*
X9874906Y-8214906D02*
X9874906Y-7985094D01*
X9645094Y-7985094D01*
X9645094Y-8214906D01*
X9874906Y-8214906D01*
D12*
X9083928Y-9868214D02*
X9083928Y-9568214D01*
X9155357Y-9568214D01*
X9198214Y-9582500D01*
X9226786Y-9611072D01*
X9241071Y-9639643D01*
X9255357Y-9696786D01*
X9255357Y-9739643D01*
X9241071Y-9796786D01*
X9226786Y-9825357D01*
X9198214Y-9853929D01*
X9155357Y-9868214D01*
X9083928Y-9868214D01*
X9383928Y-9868214D02*
X9383928Y-9668214D01*
X9383928Y-9725357D02*
X9398214Y-9696786D01*
X9412500Y-9682500D01*
X9441071Y-9668214D01*
X9469643Y-9668214D01*
X9569643Y-9868214D02*
X9569643Y-9668214D01*
X9569643Y-9568214D02*
X9555357Y-9582500D01*
X9569643Y-9596786D01*
X9583928Y-9582500D01*
X9569643Y-9568214D01*
X9569643Y-9596786D01*
X9755357Y-9868214D02*
X9726786Y-9853929D01*
X9712500Y-9825357D01*
X9712500Y-9568214D01*
X9912500Y-9868214D02*
X9883928Y-9853929D01*
X9869643Y-9825357D01*
X9869643Y-9568214D01*
X10255357Y-9868214D02*
X10255357Y-9568214D01*
X10355357Y-9782500D01*
X10455357Y-9568214D01*
X10455357Y-9868214D01*
X10726786Y-9868214D02*
X10726786Y-9711072D01*
X10712500Y-9682500D01*
X10683928Y-9668214D01*
X10626786Y-9668214D01*
X10598214Y-9682500D01*
X10726786Y-9853929D02*
X10698214Y-9868214D01*
X10626786Y-9868214D01*
X10598214Y-9853929D01*
X10583928Y-9825357D01*
X10583928Y-9796786D01*
X10598214Y-9768214D01*
X10626786Y-9753929D01*
X10698214Y-9753929D01*
X10726786Y-9739643D01*
X10869643Y-9668214D02*
X10869643Y-9968214D01*
X10869643Y-9682500D02*
X10898214Y-9668214D01*
X10955357Y-9668214D01*
X10983928Y-9682500D01*
X10998214Y-9696786D01*
X11012500Y-9725357D01*
X11012500Y-9811072D01*
X10998214Y-9839643D01*
X10983928Y-9853929D01*
X10955357Y-9868214D01*
X10898214Y-9868214D01*
X10869643Y-9853929D01*
X11141071Y-9839643D02*
X11155357Y-9853929D01*
X11141071Y-9868214D01*
X11126786Y-9853929D01*
X11141071Y-9839643D01*
X11141071Y-9868214D01*
X11141071Y-9682500D02*
X11155357Y-9696786D01*
X11141071Y-9711072D01*
X11126786Y-9696786D01*
X11141071Y-9682500D01*
X11141071Y-9711072D01*
X8757500Y-10342500D02*
X8797500Y-10382500D01*
X8797500Y-10342500D02*
X8757500Y-10382500D01*
X9141071Y-10198214D02*
X9169643Y-10198214D01*
X9198214Y-10212500D01*
X9212500Y-10226786D01*
X9226786Y-10255357D01*
X9241071Y-10312500D01*
X9241071Y-10383929D01*
X9226786Y-10441072D01*
X9212500Y-10469643D01*
X9198214Y-10483929D01*
X9169643Y-10498214D01*
X9141071Y-10498214D01*
X9112500Y-10483929D01*
X9098214Y-10469643D01*
X9083928Y-10441072D01*
X9069643Y-10383929D01*
X9069643Y-10312500D01*
X9083928Y-10255357D01*
X9098214Y-10226786D01*
X9112500Y-10212500D01*
X9141071Y-10198214D01*
X9369643Y-10469643D02*
X9383928Y-10483929D01*
X9369643Y-10498214D01*
X9355357Y-10483929D01*
X9369643Y-10469643D01*
X9369643Y-10498214D01*
X9641071Y-10298214D02*
X9641071Y-10498214D01*
X9569643Y-10183929D02*
X9498214Y-10398214D01*
X9683928Y-10398214D01*
X9855357Y-10198214D02*
X9883928Y-10198214D01*
X9912500Y-10212500D01*
X9926786Y-10226786D01*
X9941071Y-10255357D01*
X9955357Y-10312500D01*
X9955357Y-10383929D01*
X9941071Y-10441072D01*
X9926786Y-10469643D01*
X9912500Y-10483929D01*
X9883928Y-10498214D01*
X9855357Y-10498214D01*
X9826786Y-10483929D01*
X9812500Y-10469643D01*
X9798214Y-10441072D01*
X9783928Y-10383929D01*
X9783928Y-10312500D01*
X9798214Y-10255357D01*
X9812500Y-10226786D01*
X9826786Y-10212500D01*
X9855357Y-10198214D01*
X10083928Y-10498214D02*
X10083928Y-10298214D01*
X10083928Y-10326786D02*
X10098214Y-10312500D01*
X10126786Y-10298214D01*
X10169643Y-10298214D01*
X10198214Y-10312500D01*
X10212500Y-10341072D01*
X10212500Y-10498214D01*
X10212500Y-10341072D02*
X10226786Y-10312500D01*
X10255357Y-10298214D01*
X10298214Y-10298214D01*
X10326786Y-10312500D01*
X10341071Y-10341072D01*
X10341071Y-10498214D01*
X10483928Y-10498214D02*
X10483928Y-10298214D01*
X10483928Y-10326786D02*
X10498214Y-10312500D01*
X10526786Y-10298214D01*
X10569643Y-10298214D01*
X10598214Y-10312500D01*
X10612500Y-10341072D01*
X10612500Y-10498214D01*
X10612500Y-10341072D02*
X10626786Y-10312500D01*
X10655357Y-10298214D01*
X10698214Y-10298214D01*
X10726786Y-10312500D01*
X10741071Y-10341072D01*
X10741071Y-10498214D01*
X11326786Y-10183929D02*
X11069643Y-10569643D01*
X11712500Y-10198214D02*
X11741071Y-10198214D01*
X11769643Y-10212500D01*
X11783928Y-10226786D01*
X11798214Y-10255357D01*
X11812500Y-10312500D01*
X11812500Y-10383929D01*
X11798214Y-10441072D01*
X11783928Y-10469643D01*
X11769643Y-10483929D01*
X11741071Y-10498214D01*
X11712500Y-10498214D01*
X11683928Y-10483929D01*
X11669643Y-10469643D01*
X11655357Y-10441072D01*
X11641071Y-10383929D01*
X11641071Y-10312500D01*
X11655357Y-10255357D01*
X11669643Y-10226786D01*
X11683928Y-10212500D01*
X11712500Y-10198214D01*
X11941071Y-10469643D02*
X11955357Y-10483929D01*
X11941071Y-10498214D01*
X11926786Y-10483929D01*
X11941071Y-10469643D01*
X11941071Y-10498214D01*
X12141071Y-10198214D02*
X12169643Y-10198214D01*
X12198214Y-10212500D01*
X12212500Y-10226786D01*
X12226786Y-10255357D01*
X12241071Y-10312500D01*
X12241071Y-10383929D01*
X12226786Y-10441072D01*
X12212500Y-10469643D01*
X12198214Y-10483929D01*
X12169643Y-10498214D01*
X12141071Y-10498214D01*
X12112500Y-10483929D01*
X12098214Y-10469643D01*
X12083928Y-10441072D01*
X12069643Y-10383929D01*
X12069643Y-10312500D01*
X12083928Y-10255357D01*
X12098214Y-10226786D01*
X12112500Y-10212500D01*
X12141071Y-10198214D01*
X12526786Y-10498214D02*
X12355357Y-10498214D01*
X12441071Y-10498214D02*
X12441071Y-10198214D01*
X12412500Y-10241072D01*
X12383928Y-10269643D01*
X12355357Y-10283929D01*
X12783928Y-10198214D02*
X12726786Y-10198214D01*
X12698214Y-10212500D01*
X12683928Y-10226786D01*
X12655357Y-10269643D01*
X12641071Y-10326786D01*
X12641071Y-10441072D01*
X12655357Y-10469643D01*
X12669643Y-10483929D01*
X12698214Y-10498214D01*
X12755357Y-10498214D01*
X12783928Y-10483929D01*
X12798214Y-10469643D01*
X12812500Y-10441072D01*
X12812500Y-10369643D01*
X12798214Y-10341072D01*
X12783928Y-10326786D01*
X12755357Y-10312500D01*
X12698214Y-10312500D01*
X12669643Y-10326786D01*
X12655357Y-10341072D01*
X12641071Y-10369643D01*
X12926786Y-10198214D02*
X12926786Y-10255357D01*
X13041071Y-10198214D02*
X13041071Y-10255357D01*
X13483928Y-10612500D02*
X13469643Y-10598214D01*
X13441071Y-10555357D01*
X13426786Y-10526786D01*
X13412500Y-10483929D01*
X13398214Y-10412500D01*
X13398214Y-10355357D01*
X13412500Y-10283929D01*
X13426786Y-10241072D01*
X13441071Y-10212500D01*
X13469643Y-10169643D01*
X13483928Y-10155357D01*
X13583928Y-10226786D02*
X13598214Y-10212500D01*
X13626786Y-10198214D01*
X13698214Y-10198214D01*
X13726786Y-10212500D01*
X13741071Y-10226786D01*
X13755357Y-10255357D01*
X13755357Y-10283929D01*
X13741071Y-10326786D01*
X13569643Y-10498214D01*
X13755357Y-10498214D01*
X14041071Y-10498214D02*
X13869643Y-10498214D01*
X13955357Y-10498214D02*
X13955357Y-10198214D01*
X13926786Y-10241072D01*
X13898214Y-10269643D01*
X13869643Y-10283929D01*
X14398214Y-10498214D02*
X14398214Y-10198214D01*
X14526786Y-10498214D02*
X14526786Y-10341072D01*
X14512500Y-10312500D01*
X14483928Y-10298214D01*
X14441071Y-10298214D01*
X14412500Y-10312500D01*
X14398214Y-10326786D01*
X14712500Y-10498214D02*
X14683928Y-10483929D01*
X14669643Y-10469643D01*
X14655357Y-10441072D01*
X14655357Y-10355357D01*
X14669643Y-10326786D01*
X14683928Y-10312500D01*
X14712500Y-10298214D01*
X14755357Y-10298214D01*
X14783928Y-10312500D01*
X14798214Y-10326786D01*
X14812500Y-10355357D01*
X14812500Y-10441072D01*
X14798214Y-10469643D01*
X14783928Y-10483929D01*
X14755357Y-10498214D01*
X14712500Y-10498214D01*
X14983928Y-10498214D02*
X14955357Y-10483929D01*
X14941071Y-10455357D01*
X14941071Y-10198214D01*
X15212500Y-10483929D02*
X15183928Y-10498214D01*
X15126786Y-10498214D01*
X15098214Y-10483929D01*
X15083928Y-10455357D01*
X15083928Y-10341072D01*
X15098214Y-10312500D01*
X15126786Y-10298214D01*
X15183928Y-10298214D01*
X15212500Y-10312500D01*
X15226786Y-10341072D01*
X15226786Y-10369643D01*
X15083928Y-10398214D01*
X15341071Y-10483929D02*
X15369643Y-10498214D01*
X15426786Y-10498214D01*
X15455357Y-10483929D01*
X15469643Y-10455357D01*
X15469643Y-10441072D01*
X15455357Y-10412500D01*
X15426786Y-10398214D01*
X15383928Y-10398214D01*
X15355357Y-10383929D01*
X15341071Y-10355357D01*
X15341071Y-10341072D01*
X15355357Y-10312500D01*
X15383928Y-10298214D01*
X15426786Y-10298214D01*
X15455357Y-10312500D01*
X15569643Y-10612500D02*
X15583928Y-10598214D01*
X15612500Y-10555357D01*
X15626786Y-10526786D01*
X15641071Y-10483929D01*
X15655357Y-10412500D01*
X15655357Y-10355357D01*
X15641071Y-10283929D01*
X15626786Y-10241072D01*
X15612500Y-10212500D01*
X15583928Y-10169643D01*
X15569643Y-10155357D01*
X8797500Y-10758500D02*
G75*
G03X8797500Y-10758500I-42000J0D01*
G01*
X9141071Y-10594214D02*
X9169643Y-10594214D01*
X9198214Y-10608500D01*
X9212500Y-10622786D01*
X9226786Y-10651357D01*
X9241071Y-10708500D01*
X9241071Y-10779929D01*
X9226786Y-10837072D01*
X9212500Y-10865643D01*
X9198214Y-10879929D01*
X9169643Y-10894214D01*
X9141071Y-10894214D01*
X9112500Y-10879929D01*
X9098214Y-10865643D01*
X9083928Y-10837072D01*
X9069643Y-10779929D01*
X9069643Y-10708500D01*
X9083928Y-10651357D01*
X9098214Y-10622786D01*
X9112500Y-10608500D01*
X9141071Y-10594214D01*
X9369643Y-10865643D02*
X9383928Y-10879929D01*
X9369643Y-10894214D01*
X9355357Y-10879929D01*
X9369643Y-10865643D01*
X9369643Y-10894214D01*
X9555357Y-10722786D02*
X9526786Y-10708500D01*
X9512500Y-10694214D01*
X9498214Y-10665643D01*
X9498214Y-10651357D01*
X9512500Y-10622786D01*
X9526786Y-10608500D01*
X9555357Y-10594214D01*
X9612500Y-10594214D01*
X9641071Y-10608500D01*
X9655357Y-10622786D01*
X9669643Y-10651357D01*
X9669643Y-10665643D01*
X9655357Y-10694214D01*
X9641071Y-10708500D01*
X9612500Y-10722786D01*
X9555357Y-10722786D01*
X9526786Y-10737072D01*
X9512500Y-10751357D01*
X9498214Y-10779929D01*
X9498214Y-10837072D01*
X9512500Y-10865643D01*
X9526786Y-10879929D01*
X9555357Y-10894214D01*
X9612500Y-10894214D01*
X9641071Y-10879929D01*
X9655357Y-10865643D01*
X9669643Y-10837072D01*
X9669643Y-10779929D01*
X9655357Y-10751357D01*
X9641071Y-10737072D01*
X9612500Y-10722786D01*
X9926786Y-10694214D02*
X9926786Y-10894214D01*
X9855357Y-10579929D02*
X9783928Y-10794214D01*
X9969643Y-10794214D01*
X10083928Y-10894214D02*
X10083928Y-10694214D01*
X10083928Y-10722786D02*
X10098214Y-10708500D01*
X10126786Y-10694214D01*
X10169643Y-10694214D01*
X10198214Y-10708500D01*
X10212500Y-10737072D01*
X10212500Y-10894214D01*
X10212500Y-10737072D02*
X10226786Y-10708500D01*
X10255357Y-10694214D01*
X10298214Y-10694214D01*
X10326786Y-10708500D01*
X10341071Y-10737072D01*
X10341071Y-10894214D01*
X10483928Y-10894214D02*
X10483928Y-10694214D01*
X10483928Y-10722786D02*
X10498214Y-10708500D01*
X10526786Y-10694214D01*
X10569643Y-10694214D01*
X10598214Y-10708500D01*
X10612500Y-10737072D01*
X10612500Y-10894214D01*
X10612500Y-10737072D02*
X10626786Y-10708500D01*
X10655357Y-10694214D01*
X10698214Y-10694214D01*
X10726786Y-10708500D01*
X10741071Y-10737072D01*
X10741071Y-10894214D01*
X11326786Y-10579929D02*
X11069643Y-10965643D01*
X11712500Y-10594214D02*
X11741071Y-10594214D01*
X11769643Y-10608500D01*
X11783928Y-10622786D01*
X11798214Y-10651357D01*
X11812500Y-10708500D01*
X11812500Y-10779929D01*
X11798214Y-10837072D01*
X11783928Y-10865643D01*
X11769643Y-10879929D01*
X11741071Y-10894214D01*
X11712500Y-10894214D01*
X11683928Y-10879929D01*
X11669643Y-10865643D01*
X11655357Y-10837072D01*
X11641071Y-10779929D01*
X11641071Y-10708500D01*
X11655357Y-10651357D01*
X11669643Y-10622786D01*
X11683928Y-10608500D01*
X11712500Y-10594214D01*
X11941071Y-10865643D02*
X11955357Y-10879929D01*
X11941071Y-10894214D01*
X11926786Y-10879929D01*
X11941071Y-10865643D01*
X11941071Y-10894214D01*
X12141071Y-10594214D02*
X12169643Y-10594214D01*
X12198214Y-10608500D01*
X12212500Y-10622786D01*
X12226786Y-10651357D01*
X12241071Y-10708500D01*
X12241071Y-10779929D01*
X12226786Y-10837072D01*
X12212500Y-10865643D01*
X12198214Y-10879929D01*
X12169643Y-10894214D01*
X12141071Y-10894214D01*
X12112500Y-10879929D01*
X12098214Y-10865643D01*
X12083928Y-10837072D01*
X12069643Y-10779929D01*
X12069643Y-10708500D01*
X12083928Y-10651357D01*
X12098214Y-10622786D01*
X12112500Y-10608500D01*
X12141071Y-10594214D01*
X12341071Y-10594214D02*
X12526786Y-10594214D01*
X12426786Y-10708500D01*
X12469643Y-10708500D01*
X12498214Y-10722786D01*
X12512500Y-10737072D01*
X12526786Y-10765643D01*
X12526786Y-10837072D01*
X12512500Y-10865643D01*
X12498214Y-10879929D01*
X12469643Y-10894214D01*
X12383928Y-10894214D01*
X12355357Y-10879929D01*
X12341071Y-10865643D01*
X12626786Y-10594214D02*
X12812500Y-10594214D01*
X12712500Y-10708500D01*
X12755357Y-10708500D01*
X12783928Y-10722786D01*
X12798214Y-10737072D01*
X12812500Y-10765643D01*
X12812500Y-10837072D01*
X12798214Y-10865643D01*
X12783928Y-10879929D01*
X12755357Y-10894214D01*
X12669643Y-10894214D01*
X12641071Y-10879929D01*
X12626786Y-10865643D01*
X12926786Y-10594214D02*
X12926786Y-10651357D01*
X13041071Y-10594214D02*
X13041071Y-10651357D01*
X13483928Y-11008500D02*
X13469643Y-10994214D01*
X13441071Y-10951357D01*
X13426786Y-10922786D01*
X13412500Y-10879929D01*
X13398214Y-10808500D01*
X13398214Y-10751357D01*
X13412500Y-10679929D01*
X13426786Y-10637072D01*
X13441071Y-10608500D01*
X13469643Y-10565643D01*
X13483928Y-10551357D01*
X13741071Y-10594214D02*
X13598214Y-10594214D01*
X13583928Y-10737072D01*
X13598214Y-10722786D01*
X13626786Y-10708500D01*
X13698214Y-10708500D01*
X13726786Y-10722786D01*
X13741071Y-10737072D01*
X13755357Y-10765643D01*
X13755357Y-10837072D01*
X13741071Y-10865643D01*
X13726786Y-10879929D01*
X13698214Y-10894214D01*
X13626786Y-10894214D01*
X13598214Y-10879929D01*
X13583928Y-10865643D01*
X14112500Y-10894214D02*
X14112500Y-10594214D01*
X14241071Y-10894214D02*
X14241071Y-10737072D01*
X14226786Y-10708500D01*
X14198214Y-10694214D01*
X14155357Y-10694214D01*
X14126786Y-10708500D01*
X14112500Y-10722786D01*
X14426786Y-10894214D02*
X14398214Y-10879929D01*
X14383928Y-10865643D01*
X14369643Y-10837072D01*
X14369643Y-10751357D01*
X14383928Y-10722786D01*
X14398214Y-10708500D01*
X14426786Y-10694214D01*
X14469643Y-10694214D01*
X14498214Y-10708500D01*
X14512500Y-10722786D01*
X14526786Y-10751357D01*
X14526786Y-10837072D01*
X14512500Y-10865643D01*
X14498214Y-10879929D01*
X14469643Y-10894214D01*
X14426786Y-10894214D01*
X14698214Y-10894214D02*
X14669643Y-10879929D01*
X14655357Y-10851357D01*
X14655357Y-10594214D01*
X14926786Y-10879929D02*
X14898214Y-10894214D01*
X14841071Y-10894214D01*
X14812500Y-10879929D01*
X14798214Y-10851357D01*
X14798214Y-10737072D01*
X14812500Y-10708500D01*
X14841071Y-10694214D01*
X14898214Y-10694214D01*
X14926786Y-10708500D01*
X14941071Y-10737072D01*
X14941071Y-10765643D01*
X14798214Y-10794214D01*
X15055357Y-10879929D02*
X15083928Y-10894214D01*
X15141071Y-10894214D01*
X15169643Y-10879929D01*
X15183928Y-10851357D01*
X15183928Y-10837072D01*
X15169643Y-10808500D01*
X15141071Y-10794214D01*
X15098214Y-10794214D01*
X15069643Y-10779929D01*
X15055357Y-10751357D01*
X15055357Y-10737072D01*
X15069643Y-10708500D01*
X15098214Y-10694214D01*
X15141071Y-10694214D01*
X15169643Y-10708500D01*
X15283928Y-11008500D02*
X15298214Y-10994214D01*
X15326786Y-10951357D01*
X15341071Y-10922786D01*
X15355357Y-10879929D01*
X15369643Y-10808500D01*
X15369643Y-10751357D01*
X15355357Y-10679929D01*
X15341071Y-10637072D01*
X15326786Y-10608500D01*
X15298214Y-10565643D01*
X15283928Y-10551357D01*
X8747500Y-11104500D02*
X8747500Y-11204500D01*
X8697500Y-11154500D02*
X8797500Y-11154500D01*
X9241071Y-11290214D02*
X9069643Y-11290214D01*
X9155357Y-11290214D02*
X9155357Y-10990214D01*
X9126786Y-11033072D01*
X9098214Y-11061643D01*
X9069643Y-11075929D01*
X9369643Y-11261643D02*
X9383928Y-11275929D01*
X9369643Y-11290214D01*
X9355357Y-11275929D01*
X9369643Y-11261643D01*
X9369643Y-11290214D01*
X9569643Y-10990214D02*
X9598214Y-10990214D01*
X9626786Y-11004500D01*
X9641071Y-11018786D01*
X9655357Y-11047357D01*
X9669643Y-11104500D01*
X9669643Y-11175929D01*
X9655357Y-11233071D01*
X9641071Y-11261643D01*
X9626786Y-11275929D01*
X9598214Y-11290214D01*
X9569643Y-11290214D01*
X9541071Y-11275929D01*
X9526786Y-11261643D01*
X9512500Y-11233071D01*
X9498214Y-11175929D01*
X9498214Y-11104500D01*
X9512500Y-11047357D01*
X9526786Y-11018786D01*
X9541071Y-11004500D01*
X9569643Y-10990214D01*
X9855357Y-10990214D02*
X9883928Y-10990214D01*
X9912500Y-11004500D01*
X9926786Y-11018786D01*
X9941071Y-11047357D01*
X9955357Y-11104500D01*
X9955357Y-11175929D01*
X9941071Y-11233071D01*
X9926786Y-11261643D01*
X9912500Y-11275929D01*
X9883928Y-11290214D01*
X9855357Y-11290214D01*
X9826786Y-11275929D01*
X9812500Y-11261643D01*
X9798214Y-11233071D01*
X9783928Y-11175929D01*
X9783928Y-11104500D01*
X9798214Y-11047357D01*
X9812500Y-11018786D01*
X9826786Y-11004500D01*
X9855357Y-10990214D01*
X10083928Y-11290214D02*
X10083928Y-11090214D01*
X10083928Y-11118786D02*
X10098214Y-11104500D01*
X10126786Y-11090214D01*
X10169643Y-11090214D01*
X10198214Y-11104500D01*
X10212500Y-11133072D01*
X10212500Y-11290214D01*
X10212500Y-11133072D02*
X10226786Y-11104500D01*
X10255357Y-11090214D01*
X10298214Y-11090214D01*
X10326786Y-11104500D01*
X10341071Y-11133072D01*
X10341071Y-11290214D01*
X10483928Y-11290214D02*
X10483928Y-11090214D01*
X10483928Y-11118786D02*
X10498214Y-11104500D01*
X10526786Y-11090214D01*
X10569643Y-11090214D01*
X10598214Y-11104500D01*
X10612500Y-11133072D01*
X10612500Y-11290214D01*
X10612500Y-11133072D02*
X10626786Y-11104500D01*
X10655357Y-11090214D01*
X10698214Y-11090214D01*
X10726786Y-11104500D01*
X10741071Y-11133072D01*
X10741071Y-11290214D01*
X11326786Y-10975929D02*
X11069643Y-11361643D01*
X11712500Y-10990214D02*
X11741071Y-10990214D01*
X11769643Y-11004500D01*
X11783928Y-11018786D01*
X11798214Y-11047357D01*
X11812500Y-11104500D01*
X11812500Y-11175929D01*
X11798214Y-11233071D01*
X11783928Y-11261643D01*
X11769643Y-11275929D01*
X11741071Y-11290214D01*
X11712500Y-11290214D01*
X11683928Y-11275929D01*
X11669643Y-11261643D01*
X11655357Y-11233071D01*
X11641071Y-11175929D01*
X11641071Y-11104500D01*
X11655357Y-11047357D01*
X11669643Y-11018786D01*
X11683928Y-11004500D01*
X11712500Y-10990214D01*
X11941071Y-11261643D02*
X11955357Y-11275929D01*
X11941071Y-11290214D01*
X11926786Y-11275929D01*
X11941071Y-11261643D01*
X11941071Y-11290214D01*
X12141071Y-10990214D02*
X12169643Y-10990214D01*
X12198214Y-11004500D01*
X12212500Y-11018786D01*
X12226786Y-11047357D01*
X12241071Y-11104500D01*
X12241071Y-11175929D01*
X12226786Y-11233071D01*
X12212500Y-11261643D01*
X12198214Y-11275929D01*
X12169643Y-11290214D01*
X12141071Y-11290214D01*
X12112500Y-11275929D01*
X12098214Y-11261643D01*
X12083928Y-11233071D01*
X12069643Y-11175929D01*
X12069643Y-11104500D01*
X12083928Y-11047357D01*
X12098214Y-11018786D01*
X12112500Y-11004500D01*
X12141071Y-10990214D01*
X12341071Y-10990214D02*
X12526786Y-10990214D01*
X12426786Y-11104500D01*
X12469643Y-11104500D01*
X12498214Y-11118786D01*
X12512500Y-11133072D01*
X12526786Y-11161643D01*
X12526786Y-11233071D01*
X12512500Y-11261643D01*
X12498214Y-11275929D01*
X12469643Y-11290214D01*
X12383928Y-11290214D01*
X12355357Y-11275929D01*
X12341071Y-11261643D01*
X12669643Y-11290214D02*
X12726786Y-11290214D01*
X12755357Y-11275929D01*
X12769643Y-11261643D01*
X12798214Y-11218786D01*
X12812500Y-11161643D01*
X12812500Y-11047357D01*
X12798214Y-11018786D01*
X12783928Y-11004500D01*
X12755357Y-10990214D01*
X12698214Y-10990214D01*
X12669643Y-11004500D01*
X12655357Y-11018786D01*
X12641071Y-11047357D01*
X12641071Y-11118786D01*
X12655357Y-11147357D01*
X12669643Y-11161643D01*
X12698214Y-11175929D01*
X12755357Y-11175929D01*
X12783928Y-11161643D01*
X12798214Y-11147357D01*
X12812500Y-11118786D01*
X12926786Y-10990214D02*
X12926786Y-11047357D01*
X13041071Y-10990214D02*
X13041071Y-11047357D01*
X13483928Y-11404500D02*
X13469643Y-11390214D01*
X13441071Y-11347357D01*
X13426786Y-11318786D01*
X13412500Y-11275929D01*
X13398214Y-11204500D01*
X13398214Y-11147357D01*
X13412500Y-11075929D01*
X13426786Y-11033072D01*
X13441071Y-11004500D01*
X13469643Y-10961643D01*
X13483928Y-10947357D01*
X13583928Y-11018786D02*
X13598214Y-11004500D01*
X13626786Y-10990214D01*
X13698214Y-10990214D01*
X13726786Y-11004500D01*
X13741071Y-11018786D01*
X13755357Y-11047357D01*
X13755357Y-11075929D01*
X13741071Y-11118786D01*
X13569643Y-11290214D01*
X13755357Y-11290214D01*
X13855357Y-10990214D02*
X14055357Y-10990214D01*
X13926786Y-11290214D01*
X14398214Y-11290214D02*
X14398214Y-10990214D01*
X14526786Y-11290214D02*
X14526786Y-11133072D01*
X14512500Y-11104500D01*
X14483928Y-11090214D01*
X14441071Y-11090214D01*
X14412500Y-11104500D01*
X14398214Y-11118786D01*
X14712500Y-11290214D02*
X14683928Y-11275929D01*
X14669643Y-11261643D01*
X14655357Y-11233071D01*
X14655357Y-11147357D01*
X14669643Y-11118786D01*
X14683928Y-11104500D01*
X14712500Y-11090214D01*
X14755357Y-11090214D01*
X14783928Y-11104500D01*
X14798214Y-11118786D01*
X14812500Y-11147357D01*
X14812500Y-11233071D01*
X14798214Y-11261643D01*
X14783928Y-11275929D01*
X14755357Y-11290214D01*
X14712500Y-11290214D01*
X14983928Y-11290214D02*
X14955357Y-11275929D01*
X14941071Y-11247357D01*
X14941071Y-10990214D01*
X15212500Y-11275929D02*
X15183928Y-11290214D01*
X15126786Y-11290214D01*
X15098214Y-11275929D01*
X15083928Y-11247357D01*
X15083928Y-11133072D01*
X15098214Y-11104500D01*
X15126786Y-11090214D01*
X15183928Y-11090214D01*
X15212500Y-11104500D01*
X15226786Y-11133072D01*
X15226786Y-11161643D01*
X15083928Y-11190214D01*
X15341071Y-11275929D02*
X15369643Y-11290214D01*
X15426786Y-11290214D01*
X15455357Y-11275929D01*
X15469643Y-11247357D01*
X15469643Y-11233071D01*
X15455357Y-11204500D01*
X15426786Y-11190214D01*
X15383928Y-11190214D01*
X15355357Y-11175929D01*
X15341071Y-11147357D01*
X15341071Y-11133072D01*
X15355357Y-11104500D01*
X15383928Y-11090214D01*
X15426786Y-11090214D01*
X15455357Y-11104500D01*
X15569643Y-11404500D02*
X15583928Y-11390214D01*
X15612500Y-11347357D01*
X15626786Y-11318786D01*
X15641071Y-11275929D01*
X15655357Y-11204500D01*
X15655357Y-11147357D01*
X15641071Y-11075929D01*
X15626786Y-11033072D01*
X15612500Y-11004500D01*
X15583928Y-10961643D01*
X15569643Y-10947357D01*
X8749906Y-11665406D02*
X8749906Y-11435594D01*
X8520094Y-11435594D01*
X8520094Y-11665406D01*
X8749906Y-11665406D01*
X9055357Y-11386214D02*
X9241071Y-11386214D01*
X9141071Y-11500500D01*
X9183928Y-11500500D01*
X9212500Y-11514786D01*
X9226786Y-11529071D01*
X9241071Y-11557643D01*
X9241071Y-11629071D01*
X9226786Y-11657643D01*
X9212500Y-11671929D01*
X9183928Y-11686214D01*
X9098214Y-11686214D01*
X9069643Y-11671929D01*
X9055357Y-11657643D01*
X9369643Y-11657643D02*
X9383928Y-11671929D01*
X9369643Y-11686214D01*
X9355357Y-11671929D01*
X9369643Y-11657643D01*
X9369643Y-11686214D01*
X9498214Y-11414786D02*
X9512500Y-11400500D01*
X9541071Y-11386214D01*
X9612500Y-11386214D01*
X9641071Y-11400500D01*
X9655357Y-11414786D01*
X9669643Y-11443357D01*
X9669643Y-11471929D01*
X9655357Y-11514786D01*
X9483928Y-11686214D01*
X9669643Y-11686214D01*
X9941071Y-11386214D02*
X9798214Y-11386214D01*
X9783928Y-11529071D01*
X9798214Y-11514786D01*
X9826786Y-11500500D01*
X9898214Y-11500500D01*
X9926786Y-11514786D01*
X9941071Y-11529071D01*
X9955357Y-11557643D01*
X9955357Y-11629071D01*
X9941071Y-11657643D01*
X9926786Y-11671929D01*
X9898214Y-11686214D01*
X9826786Y-11686214D01*
X9798214Y-11671929D01*
X9783928Y-11657643D01*
X10083928Y-11686214D02*
X10083928Y-11486214D01*
X10083928Y-11514786D02*
X10098214Y-11500500D01*
X10126786Y-11486214D01*
X10169643Y-11486214D01*
X10198214Y-11500500D01*
X10212500Y-11529071D01*
X10212500Y-11686214D01*
X10212500Y-11529071D02*
X10226786Y-11500500D01*
X10255357Y-11486214D01*
X10298214Y-11486214D01*
X10326786Y-11500500D01*
X10341071Y-11529071D01*
X10341071Y-11686214D01*
X10483928Y-11686214D02*
X10483928Y-11486214D01*
X10483928Y-11514786D02*
X10498214Y-11500500D01*
X10526786Y-11486214D01*
X10569643Y-11486214D01*
X10598214Y-11500500D01*
X10612500Y-11529071D01*
X10612500Y-11686214D01*
X10612500Y-11529071D02*
X10626786Y-11500500D01*
X10655357Y-11486214D01*
X10698214Y-11486214D01*
X10726786Y-11500500D01*
X10741071Y-11529071D01*
X10741071Y-11686214D01*
X11326786Y-11371929D02*
X11069643Y-11757643D01*
X11712500Y-11386214D02*
X11741071Y-11386214D01*
X11769643Y-11400500D01*
X11783928Y-11414786D01*
X11798214Y-11443357D01*
X11812500Y-11500500D01*
X11812500Y-11571929D01*
X11798214Y-11629071D01*
X11783928Y-11657643D01*
X11769643Y-11671929D01*
X11741071Y-11686214D01*
X11712500Y-11686214D01*
X11683928Y-11671929D01*
X11669643Y-11657643D01*
X11655357Y-11629071D01*
X11641071Y-11571929D01*
X11641071Y-11500500D01*
X11655357Y-11443357D01*
X11669643Y-11414786D01*
X11683928Y-11400500D01*
X11712500Y-11386214D01*
X11941071Y-11657643D02*
X11955357Y-11671929D01*
X11941071Y-11686214D01*
X11926786Y-11671929D01*
X11941071Y-11657643D01*
X11941071Y-11686214D01*
X12241071Y-11686214D02*
X12069643Y-11686214D01*
X12155357Y-11686214D02*
X12155357Y-11386214D01*
X12126786Y-11429071D01*
X12098214Y-11457643D01*
X12069643Y-11471929D01*
X12355357Y-11414786D02*
X12369643Y-11400500D01*
X12398214Y-11386214D01*
X12469643Y-11386214D01*
X12498214Y-11400500D01*
X12512500Y-11414786D01*
X12526786Y-11443357D01*
X12526786Y-11471929D01*
X12512500Y-11514786D01*
X12341071Y-11686214D01*
X12526786Y-11686214D01*
X12698214Y-11514786D02*
X12669643Y-11500500D01*
X12655357Y-11486214D01*
X12641071Y-11457643D01*
X12641071Y-11443357D01*
X12655357Y-11414786D01*
X12669643Y-11400500D01*
X12698214Y-11386214D01*
X12755357Y-11386214D01*
X12783928Y-11400500D01*
X12798214Y-11414786D01*
X12812500Y-11443357D01*
X12812500Y-11457643D01*
X12798214Y-11486214D01*
X12783928Y-11500500D01*
X12755357Y-11514786D01*
X12698214Y-11514786D01*
X12669643Y-11529071D01*
X12655357Y-11543357D01*
X12641071Y-11571929D01*
X12641071Y-11629071D01*
X12655357Y-11657643D01*
X12669643Y-11671929D01*
X12698214Y-11686214D01*
X12755357Y-11686214D01*
X12783928Y-11671929D01*
X12798214Y-11657643D01*
X12812500Y-11629071D01*
X12812500Y-11571929D01*
X12798214Y-11543357D01*
X12783928Y-11529071D01*
X12755357Y-11514786D01*
X12926786Y-11386214D02*
X12926786Y-11443357D01*
X13041071Y-11386214D02*
X13041071Y-11443357D01*
X13483928Y-11800500D02*
X13469643Y-11786214D01*
X13441071Y-11743357D01*
X13426786Y-11714786D01*
X13412500Y-11671929D01*
X13398214Y-11600500D01*
X13398214Y-11543357D01*
X13412500Y-11471929D01*
X13426786Y-11429071D01*
X13441071Y-11400500D01*
X13469643Y-11357643D01*
X13483928Y-11343357D01*
X13583928Y-11414786D02*
X13598214Y-11400500D01*
X13626786Y-11386214D01*
X13698214Y-11386214D01*
X13726786Y-11400500D01*
X13741071Y-11414786D01*
X13755357Y-11443357D01*
X13755357Y-11471929D01*
X13741071Y-11514786D01*
X13569643Y-11686214D01*
X13755357Y-11686214D01*
X14112500Y-11686214D02*
X14112500Y-11386214D01*
X14241071Y-11686214D02*
X14241071Y-11529071D01*
X14226786Y-11500500D01*
X14198214Y-11486214D01*
X14155357Y-11486214D01*
X14126786Y-11500500D01*
X14112500Y-11514786D01*
X14426786Y-11686214D02*
X14398214Y-11671929D01*
X14383928Y-11657643D01*
X14369643Y-11629071D01*
X14369643Y-11543357D01*
X14383928Y-11514786D01*
X14398214Y-11500500D01*
X14426786Y-11486214D01*
X14469643Y-11486214D01*
X14498214Y-11500500D01*
X14512500Y-11514786D01*
X14526786Y-11543357D01*
X14526786Y-11629071D01*
X14512500Y-11657643D01*
X14498214Y-11671929D01*
X14469643Y-11686214D01*
X14426786Y-11686214D01*
X14698214Y-11686214D02*
X14669643Y-11671929D01*
X14655357Y-11643357D01*
X14655357Y-11386214D01*
X14926786Y-11671929D02*
X14898214Y-11686214D01*
X14841071Y-11686214D01*
X14812500Y-11671929D01*
X14798214Y-11643357D01*
X14798214Y-11529071D01*
X14812500Y-11500500D01*
X14841071Y-11486214D01*
X14898214Y-11486214D01*
X14926786Y-11500500D01*
X14941071Y-11529071D01*
X14941071Y-11557643D01*
X14798214Y-11586214D01*
X15055357Y-11671929D02*
X15083928Y-11686214D01*
X15141071Y-11686214D01*
X15169643Y-11671929D01*
X15183928Y-11643357D01*
X15183928Y-11629071D01*
X15169643Y-11600500D01*
X15141071Y-11586214D01*
X15098214Y-11586214D01*
X15069643Y-11571929D01*
X15055357Y-11543357D01*
X15055357Y-11529071D01*
X15069643Y-11500500D01*
X15098214Y-11486214D01*
X15141071Y-11486214D01*
X15169643Y-11500500D01*
X15283928Y-11800500D02*
X15298214Y-11786214D01*
X15326786Y-11743357D01*
X15341071Y-11714786D01*
X15355357Y-11671929D01*
X15369643Y-11600500D01*
X15369643Y-11543357D01*
X15355357Y-11471929D01*
X15341071Y-11429071D01*
X15326786Y-11400500D01*
X15298214Y-11357643D01*
X15283928Y-11343357D01*
M02*
