G04 #@! TF.GenerationSoftware,KiCad,Pcbnew,(5.1.5-0)*
G04 #@! TF.CreationDate,2022-06-25T14:07:13-06:00*
G04 #@! TF.ProjectId,DAC_pockel,4441435f-706f-4636-9b65-6c2e6b696361,rev?*
G04 #@! TF.SameCoordinates,Original*
G04 #@! TF.FileFunction,Copper,L2,Bot*
G04 #@! TF.FilePolarity,Positive*
%FSLAX46Y46*%
G04 Gerber Fmt 4.6, Leading zero omitted, Abs format (unit mm)*
G04 Created by KiCad (PCBNEW (5.1.5-0)) date 2022-06-25 14:07:13*
%MOMM*%
%LPD*%
G04 APERTURE LIST*
%ADD10C,5.000000*%
%ADD11C,1.575000*%
%ADD12R,1.575000X1.575000*%
%ADD13O,1.700000X1.700000*%
%ADD14R,1.700000X1.700000*%
%ADD15R,1.800000X1.400000*%
%ADD16O,1.800000X1.400000*%
%ADD17C,1.240000*%
%ADD18C,0.800000*%
%ADD19C,0.250000*%
%ADD20C,0.254000*%
G04 APERTURE END LIST*
D10*
X97600000Y-81000000D03*
D11*
X96180000Y-64360000D03*
X96180000Y-67120000D03*
X96180000Y-69880000D03*
X96180000Y-72640000D03*
X99020000Y-62980000D03*
X99020000Y-65740000D03*
X99020000Y-71260000D03*
D12*
X99020000Y-74020000D03*
D10*
X97600000Y-56000000D03*
D11*
X99020000Y-68500000D03*
D13*
X146760000Y-76220000D03*
X149300000Y-76220000D03*
X151840000Y-76220000D03*
X154380000Y-76220000D03*
X156920000Y-76220000D03*
X159460000Y-76220000D03*
D14*
X162000000Y-76220000D03*
D13*
X146760000Y-60980000D03*
X149300000Y-60980000D03*
X151840000Y-60980000D03*
X154380000Y-60980000D03*
X156920000Y-60980000D03*
X159460000Y-60980000D03*
D14*
X162000000Y-60980000D03*
D15*
X138000000Y-81400000D03*
D16*
X138000000Y-83940000D03*
X138000000Y-86480000D03*
X138000000Y-89020000D03*
D17*
X107670000Y-91370000D03*
X105130000Y-88830000D03*
X107670000Y-88830000D03*
X105130000Y-91370000D03*
X106400000Y-90100000D03*
D18*
X127000000Y-62000000D03*
X125000000Y-61000000D03*
X126000000Y-59000000D03*
X103480000Y-83620000D03*
X136100000Y-75300000D03*
X135875000Y-60600000D03*
X135900000Y-55000000D03*
X136700000Y-74500000D03*
X136600000Y-58500000D03*
X133100000Y-62000000D03*
X133700000Y-70100000D03*
X109100000Y-85000000D03*
X126800000Y-57800000D03*
X109100000Y-83900000D03*
X126700000Y-56500000D03*
X107800000Y-76900000D03*
X130100000Y-79900000D03*
X123500000Y-65800000D03*
X118100000Y-65800000D03*
X114662653Y-65537347D03*
X112400000Y-67000000D03*
D19*
X103480000Y-75720000D02*
X103480000Y-83620000D01*
X99020000Y-71260000D02*
X103480000Y-75720000D01*
X135700001Y-60774999D02*
X135875000Y-60600000D01*
X136100000Y-75300000D02*
X135700001Y-74900001D01*
X135875000Y-55025000D02*
X135900000Y-55000000D01*
X135875000Y-60600000D02*
X135875000Y-55025000D01*
X136600000Y-74400000D02*
X136700000Y-74500000D01*
X136600000Y-65500000D02*
X136600000Y-62900000D01*
X135700000Y-62000000D02*
X133100000Y-62000000D01*
X136600000Y-62900000D02*
X135700000Y-62000000D01*
X133700000Y-70100000D02*
X136500000Y-70100000D01*
X136500000Y-70100000D02*
X136600000Y-70200000D01*
X136600000Y-70200000D02*
X136600000Y-74400000D01*
X136600000Y-65500000D02*
X136600000Y-70200000D01*
X108751999Y-84625001D02*
X109448001Y-84625001D01*
X108374999Y-84248001D02*
X108751999Y-84625001D01*
X108374999Y-84274999D02*
X108374999Y-84248001D01*
X109448001Y-84625001D02*
X114700000Y-79373002D01*
X109100000Y-85000000D02*
X108374999Y-84274999D01*
X114700000Y-79373002D02*
X114700000Y-67900000D01*
X124800000Y-57800000D02*
X126800000Y-57800000D01*
X114700000Y-67900000D02*
X124800000Y-57800000D01*
X109100000Y-83900000D02*
X113800000Y-79200000D01*
X113800000Y-79200000D02*
X113800000Y-67700000D01*
X125000000Y-56500000D02*
X126700000Y-56500000D01*
X113800000Y-67700000D02*
X125000000Y-56500000D01*
X106400000Y-78300000D02*
X107800000Y-76900000D01*
X106400000Y-90100000D02*
X106400000Y-78300000D01*
X159700000Y-79900000D02*
X130100000Y-79900000D01*
X162000000Y-77600000D02*
X159700000Y-79900000D01*
X162000000Y-76500000D02*
X162000000Y-77600000D01*
X123500000Y-65800000D02*
X118100000Y-65800000D01*
X113862653Y-65537347D02*
X112400000Y-67000000D01*
X114662653Y-65537347D02*
X113862653Y-65537347D01*
D20*
G36*
X163340001Y-58365000D02*
G01*
X137628424Y-58365000D01*
X137595226Y-58198102D01*
X137517205Y-58009744D01*
X137403937Y-57840226D01*
X137259774Y-57696063D01*
X137090256Y-57582795D01*
X136901898Y-57504774D01*
X136701939Y-57465000D01*
X136635000Y-57465000D01*
X136635000Y-55728711D01*
X136703937Y-55659774D01*
X136817205Y-55490256D01*
X136895226Y-55301898D01*
X136935000Y-55101939D01*
X136935000Y-54898061D01*
X136895226Y-54698102D01*
X136817205Y-54509744D01*
X136703937Y-54340226D01*
X136559774Y-54196063D01*
X136390256Y-54082795D01*
X136201898Y-54004774D01*
X136001939Y-53965000D01*
X135798061Y-53965000D01*
X135598102Y-54004774D01*
X135409744Y-54082795D01*
X135240226Y-54196063D01*
X135096063Y-54340226D01*
X134982795Y-54509744D01*
X134904774Y-54698102D01*
X134865000Y-54898061D01*
X134865000Y-55101939D01*
X134904774Y-55301898D01*
X134982795Y-55490256D01*
X135096063Y-55659774D01*
X135115001Y-55678712D01*
X135115000Y-58365000D01*
X132000000Y-58365000D01*
X131876118Y-58377201D01*
X131756996Y-58413336D01*
X131647213Y-58472017D01*
X131550987Y-58550987D01*
X131472017Y-58647213D01*
X131413336Y-58756996D01*
X131377201Y-58876118D01*
X131365000Y-59000000D01*
X131365000Y-79140000D01*
X130803711Y-79140000D01*
X130759774Y-79096063D01*
X130590256Y-78982795D01*
X130401898Y-78904774D01*
X130201939Y-78865000D01*
X129998061Y-78865000D01*
X129798102Y-78904774D01*
X129609744Y-78982795D01*
X129440226Y-79096063D01*
X129296063Y-79240226D01*
X129182795Y-79409744D01*
X129104774Y-79598102D01*
X129065000Y-79798061D01*
X129065000Y-80001939D01*
X129104774Y-80201898D01*
X129182795Y-80390256D01*
X129296063Y-80559774D01*
X129440226Y-80703937D01*
X129609744Y-80817205D01*
X129798102Y-80895226D01*
X129998061Y-80935000D01*
X130201939Y-80935000D01*
X130401898Y-80895226D01*
X130590256Y-80817205D01*
X130759774Y-80703937D01*
X130803711Y-80660000D01*
X131365000Y-80660000D01*
X131365000Y-85000000D01*
X131377201Y-85123882D01*
X131413336Y-85243004D01*
X131472017Y-85352787D01*
X131550987Y-85449013D01*
X131647213Y-85527983D01*
X131756996Y-85586664D01*
X131876118Y-85622799D01*
X132000000Y-85635000D01*
X136759545Y-85635000D01*
X136615044Y-85853343D01*
X136515558Y-86096557D01*
X136507284Y-86146671D01*
X136630626Y-86353000D01*
X137873000Y-86353000D01*
X137873000Y-86333000D01*
X138127000Y-86333000D01*
X138127000Y-86353000D01*
X139369374Y-86353000D01*
X139492716Y-86146671D01*
X139484442Y-86096557D01*
X139384956Y-85853343D01*
X139240455Y-85635000D01*
X163340000Y-85635000D01*
X163340000Y-93340000D01*
X88660000Y-93340000D01*
X88660000Y-92234072D01*
X104445533Y-92234072D01*
X104495274Y-92459691D01*
X104720058Y-92562582D01*
X104960596Y-92619642D01*
X105207645Y-92628680D01*
X105451709Y-92589347D01*
X105683410Y-92503156D01*
X105764726Y-92459691D01*
X105814467Y-92234072D01*
X106985533Y-92234072D01*
X107035274Y-92459691D01*
X107260058Y-92562582D01*
X107500596Y-92619642D01*
X107747645Y-92628680D01*
X107991709Y-92589347D01*
X108223410Y-92503156D01*
X108304726Y-92459691D01*
X108354467Y-92234072D01*
X107670000Y-91549605D01*
X106985533Y-92234072D01*
X105814467Y-92234072D01*
X105130000Y-91549605D01*
X104445533Y-92234072D01*
X88660000Y-92234072D01*
X88660000Y-91447645D01*
X103871320Y-91447645D01*
X103910653Y-91691709D01*
X103996844Y-91923410D01*
X104040309Y-92004726D01*
X104265928Y-92054467D01*
X104950395Y-91370000D01*
X104265928Y-90685533D01*
X104040309Y-90735274D01*
X103937418Y-90960058D01*
X103880358Y-91200596D01*
X103871320Y-91447645D01*
X88660000Y-91447645D01*
X88660000Y-88907645D01*
X103871320Y-88907645D01*
X103910653Y-89151709D01*
X103996844Y-89383410D01*
X104040309Y-89464726D01*
X104265928Y-89514467D01*
X104950395Y-88830000D01*
X104265928Y-88145533D01*
X104040309Y-88195274D01*
X103937418Y-88420058D01*
X103880358Y-88660596D01*
X103871320Y-88907645D01*
X88660000Y-88907645D01*
X88660000Y-87965928D01*
X104445533Y-87965928D01*
X105130000Y-88650395D01*
X105144143Y-88636253D01*
X105323748Y-88815858D01*
X105309605Y-88830000D01*
X105323748Y-88844143D01*
X105144143Y-89023748D01*
X105130000Y-89009605D01*
X104445533Y-89694072D01*
X104495274Y-89919691D01*
X104720058Y-90022582D01*
X104960596Y-90079642D01*
X105145000Y-90086388D01*
X105145000Y-90114709D01*
X105052355Y-90111320D01*
X104808291Y-90150653D01*
X104576590Y-90236844D01*
X104495274Y-90280309D01*
X104445533Y-90505928D01*
X105130000Y-91190395D01*
X105144143Y-91176253D01*
X105323748Y-91355858D01*
X105309605Y-91370000D01*
X105994072Y-92054467D01*
X106219691Y-92004726D01*
X106322582Y-91779942D01*
X106379642Y-91539404D01*
X106386388Y-91355000D01*
X106414709Y-91355000D01*
X106411320Y-91447645D01*
X106450653Y-91691709D01*
X106536844Y-91923410D01*
X106580309Y-92004726D01*
X106805928Y-92054467D01*
X107490395Y-91370000D01*
X107849605Y-91370000D01*
X108534072Y-92054467D01*
X108759691Y-92004726D01*
X108862582Y-91779942D01*
X108919642Y-91539404D01*
X108928680Y-91292355D01*
X108889347Y-91048291D01*
X108803156Y-90816590D01*
X108759691Y-90735274D01*
X108534072Y-90685533D01*
X107849605Y-91370000D01*
X107490395Y-91370000D01*
X107476253Y-91355858D01*
X107655858Y-91176253D01*
X107670000Y-91190395D01*
X108354467Y-90505928D01*
X108304726Y-90280309D01*
X108079942Y-90177418D01*
X107839404Y-90120358D01*
X107655000Y-90113612D01*
X107655000Y-90085291D01*
X107747645Y-90088680D01*
X107991709Y-90049347D01*
X108223410Y-89963156D01*
X108304726Y-89919691D01*
X108354467Y-89694072D01*
X107670000Y-89009605D01*
X107655858Y-89023748D01*
X107476253Y-88844143D01*
X107490395Y-88830000D01*
X107849605Y-88830000D01*
X108534072Y-89514467D01*
X108759691Y-89464726D01*
X108862582Y-89239942D01*
X108914756Y-89020000D01*
X136458541Y-89020000D01*
X136484317Y-89281706D01*
X136560653Y-89533354D01*
X136684618Y-89765275D01*
X136851445Y-89968555D01*
X137054725Y-90135382D01*
X137286646Y-90259347D01*
X137538294Y-90335683D01*
X137734421Y-90355000D01*
X138265579Y-90355000D01*
X138461706Y-90335683D01*
X138713354Y-90259347D01*
X138945275Y-90135382D01*
X139148555Y-89968555D01*
X139315382Y-89765275D01*
X139439347Y-89533354D01*
X139515683Y-89281706D01*
X139541459Y-89020000D01*
X139515683Y-88758294D01*
X139439347Y-88506646D01*
X139315382Y-88274725D01*
X139148555Y-88071445D01*
X138945275Y-87904618D01*
X138713354Y-87780653D01*
X138617358Y-87751533D01*
X138837104Y-87659372D01*
X139054946Y-87512418D01*
X139239933Y-87325789D01*
X139384956Y-87106657D01*
X139484442Y-86863443D01*
X139492716Y-86813329D01*
X139369374Y-86607000D01*
X138127000Y-86607000D01*
X138127000Y-86627000D01*
X137873000Y-86627000D01*
X137873000Y-86607000D01*
X136630626Y-86607000D01*
X136507284Y-86813329D01*
X136515558Y-86863443D01*
X136615044Y-87106657D01*
X136760067Y-87325789D01*
X136945054Y-87512418D01*
X137162896Y-87659372D01*
X137382642Y-87751533D01*
X137286646Y-87780653D01*
X137054725Y-87904618D01*
X136851445Y-88071445D01*
X136684618Y-88274725D01*
X136560653Y-88506646D01*
X136484317Y-88758294D01*
X136458541Y-89020000D01*
X108914756Y-89020000D01*
X108919642Y-88999404D01*
X108928680Y-88752355D01*
X108889347Y-88508291D01*
X108803156Y-88276590D01*
X108759691Y-88195274D01*
X108534072Y-88145533D01*
X107849605Y-88830000D01*
X107490395Y-88830000D01*
X107476253Y-88815858D01*
X107655858Y-88636253D01*
X107670000Y-88650395D01*
X108354467Y-87965928D01*
X108304726Y-87740309D01*
X108079942Y-87637418D01*
X107839404Y-87580358D01*
X107592355Y-87571320D01*
X107348291Y-87610653D01*
X107160000Y-87680696D01*
X107160000Y-84248001D01*
X107611323Y-84248001D01*
X107612653Y-84261500D01*
X107611323Y-84274999D01*
X107614999Y-84312321D01*
X107614999Y-84312331D01*
X107625996Y-84423984D01*
X107667187Y-84559774D01*
X107669453Y-84567245D01*
X107740025Y-84699275D01*
X107746983Y-84707753D01*
X107834998Y-84815000D01*
X107864001Y-84838802D01*
X108065000Y-85039801D01*
X108065000Y-85101939D01*
X108104774Y-85301898D01*
X108182795Y-85490256D01*
X108296063Y-85659774D01*
X108440226Y-85803937D01*
X108609744Y-85917205D01*
X108798102Y-85995226D01*
X108998061Y-86035000D01*
X109201939Y-86035000D01*
X109401898Y-85995226D01*
X109590256Y-85917205D01*
X109759774Y-85803937D01*
X109903937Y-85659774D01*
X110017205Y-85490256D01*
X110095226Y-85301898D01*
X110135000Y-85101939D01*
X110135000Y-85012803D01*
X115211004Y-79936800D01*
X115240001Y-79913003D01*
X115334974Y-79797278D01*
X115405546Y-79665249D01*
X115449003Y-79521988D01*
X115460000Y-79410335D01*
X115460000Y-79410326D01*
X115463676Y-79373003D01*
X115460000Y-79335680D01*
X115460000Y-68214801D01*
X117263605Y-66411197D01*
X117296063Y-66459774D01*
X117440226Y-66603937D01*
X117609744Y-66717205D01*
X117798102Y-66795226D01*
X117998061Y-66835000D01*
X118201939Y-66835000D01*
X118401898Y-66795226D01*
X118590256Y-66717205D01*
X118759774Y-66603937D01*
X118803711Y-66560000D01*
X122796289Y-66560000D01*
X122840226Y-66603937D01*
X123009744Y-66717205D01*
X123198102Y-66795226D01*
X123398061Y-66835000D01*
X123601939Y-66835000D01*
X123801898Y-66795226D01*
X123990256Y-66717205D01*
X124159774Y-66603937D01*
X124303937Y-66459774D01*
X124417205Y-66290256D01*
X124495226Y-66101898D01*
X124535000Y-65901939D01*
X124535000Y-65698061D01*
X124495226Y-65498102D01*
X124417205Y-65309744D01*
X124303937Y-65140226D01*
X124159774Y-64996063D01*
X123990256Y-64882795D01*
X123801898Y-64804774D01*
X123601939Y-64765000D01*
X123398061Y-64765000D01*
X123198102Y-64804774D01*
X123009744Y-64882795D01*
X122840226Y-64996063D01*
X122796289Y-65040000D01*
X118803711Y-65040000D01*
X118759774Y-64996063D01*
X118711197Y-64963605D01*
X125114802Y-58560000D01*
X126096289Y-58560000D01*
X126140226Y-58603937D01*
X126309744Y-58717205D01*
X126498102Y-58795226D01*
X126698061Y-58835000D01*
X126901939Y-58835000D01*
X127101898Y-58795226D01*
X127290256Y-58717205D01*
X127459774Y-58603937D01*
X127603937Y-58459774D01*
X127717205Y-58290256D01*
X127795226Y-58101898D01*
X127835000Y-57901939D01*
X127835000Y-57698061D01*
X127795226Y-57498102D01*
X127717205Y-57309744D01*
X127603937Y-57140226D01*
X127551821Y-57088110D01*
X127617205Y-56990256D01*
X127695226Y-56801898D01*
X127735000Y-56601939D01*
X127735000Y-56398061D01*
X127695226Y-56198102D01*
X127617205Y-56009744D01*
X127503937Y-55840226D01*
X127359774Y-55696063D01*
X127190256Y-55582795D01*
X127001898Y-55504774D01*
X126801939Y-55465000D01*
X126598061Y-55465000D01*
X126398102Y-55504774D01*
X126209744Y-55582795D01*
X126040226Y-55696063D01*
X125996289Y-55740000D01*
X125037323Y-55740000D01*
X125000000Y-55736324D01*
X124962677Y-55740000D01*
X124962667Y-55740000D01*
X124851014Y-55750997D01*
X124726801Y-55788676D01*
X124707753Y-55794454D01*
X124575723Y-55865026D01*
X124492083Y-55933668D01*
X124459999Y-55959999D01*
X124436201Y-55988997D01*
X115499048Y-64926150D01*
X115466590Y-64877573D01*
X115322427Y-64733410D01*
X115152909Y-64620142D01*
X114964551Y-64542121D01*
X114764592Y-64502347D01*
X114560714Y-64502347D01*
X114360755Y-64542121D01*
X114172397Y-64620142D01*
X114002879Y-64733410D01*
X113958942Y-64777347D01*
X113899978Y-64777347D01*
X113862653Y-64773671D01*
X113825328Y-64777347D01*
X113825320Y-64777347D01*
X113713667Y-64788344D01*
X113570406Y-64831801D01*
X113438377Y-64902373D01*
X113322652Y-64997346D01*
X113298854Y-65026344D01*
X112360199Y-65965000D01*
X112298061Y-65965000D01*
X112098102Y-66004774D01*
X111909744Y-66082795D01*
X111740226Y-66196063D01*
X111596063Y-66340226D01*
X111482795Y-66509744D01*
X111404774Y-66698102D01*
X111365000Y-66898061D01*
X111365000Y-67101939D01*
X111404774Y-67301898D01*
X111482795Y-67490256D01*
X111596063Y-67659774D01*
X111740226Y-67803937D01*
X111909744Y-67917205D01*
X112098102Y-67995226D01*
X112298061Y-68035000D01*
X112501939Y-68035000D01*
X112701898Y-67995226D01*
X112890256Y-67917205D01*
X113040001Y-67817149D01*
X113040000Y-78885198D01*
X109060199Y-82865000D01*
X108998061Y-82865000D01*
X108798102Y-82904774D01*
X108609744Y-82982795D01*
X108440226Y-83096063D01*
X108296063Y-83240226D01*
X108182795Y-83409744D01*
X108134301Y-83526818D01*
X108082753Y-83542455D01*
X107950723Y-83613027D01*
X107871195Y-83678294D01*
X107834998Y-83708000D01*
X107740025Y-83823725D01*
X107669453Y-83955754D01*
X107625996Y-84099015D01*
X107614999Y-84210668D01*
X107614999Y-84210679D01*
X107611323Y-84248001D01*
X107160000Y-84248001D01*
X107160000Y-78614801D01*
X107839802Y-77935000D01*
X107901939Y-77935000D01*
X108101898Y-77895226D01*
X108290256Y-77817205D01*
X108459774Y-77703937D01*
X108603937Y-77559774D01*
X108717205Y-77390256D01*
X108795226Y-77201898D01*
X108835000Y-77001939D01*
X108835000Y-76798061D01*
X108795226Y-76598102D01*
X108717205Y-76409744D01*
X108603937Y-76240226D01*
X108459774Y-76096063D01*
X108290256Y-75982795D01*
X108101898Y-75904774D01*
X107901939Y-75865000D01*
X107698061Y-75865000D01*
X107498102Y-75904774D01*
X107309744Y-75982795D01*
X107140226Y-76096063D01*
X106996063Y-76240226D01*
X106882795Y-76409744D01*
X106804774Y-76598102D01*
X106765000Y-76798061D01*
X106765000Y-76860198D01*
X105888998Y-77736201D01*
X105860000Y-77759999D01*
X105836202Y-77788997D01*
X105836201Y-77788998D01*
X105765026Y-77875724D01*
X105694454Y-78007754D01*
X105650998Y-78151015D01*
X105636324Y-78300000D01*
X105640001Y-78337332D01*
X105640000Y-87683218D01*
X105539942Y-87637418D01*
X105299404Y-87580358D01*
X105052355Y-87571320D01*
X104808291Y-87610653D01*
X104576590Y-87696844D01*
X104495274Y-87740309D01*
X104445533Y-87965928D01*
X88660000Y-87965928D01*
X88660000Y-80691229D01*
X94465000Y-80691229D01*
X94465000Y-81308771D01*
X94585476Y-81914446D01*
X94821799Y-82484979D01*
X95164886Y-82998446D01*
X95601554Y-83435114D01*
X96115021Y-83778201D01*
X96685554Y-84014524D01*
X97291229Y-84135000D01*
X97908771Y-84135000D01*
X98514446Y-84014524D01*
X99084979Y-83778201D01*
X99598446Y-83435114D01*
X100035114Y-82998446D01*
X100378201Y-82484979D01*
X100614524Y-81914446D01*
X100735000Y-81308771D01*
X100735000Y-80691229D01*
X100614524Y-80085554D01*
X100378201Y-79515021D01*
X100035114Y-79001554D01*
X99598446Y-78564886D01*
X99084979Y-78221799D01*
X98514446Y-77985476D01*
X97908771Y-77865000D01*
X97291229Y-77865000D01*
X96685554Y-77985476D01*
X96115021Y-78221799D01*
X95601554Y-78564886D01*
X95164886Y-79001554D01*
X94821799Y-79515021D01*
X94585476Y-80085554D01*
X94465000Y-80691229D01*
X88660000Y-80691229D01*
X88660000Y-73623776D01*
X95375829Y-73623776D01*
X95445898Y-73866470D01*
X95699276Y-73986121D01*
X95971128Y-74054040D01*
X96251008Y-74067619D01*
X96528157Y-74026334D01*
X96791928Y-73931774D01*
X96914102Y-73866470D01*
X96984171Y-73623776D01*
X96180000Y-72819605D01*
X95375829Y-73623776D01*
X88660000Y-73623776D01*
X88660000Y-72711008D01*
X94752381Y-72711008D01*
X94793666Y-72988157D01*
X94888226Y-73251928D01*
X94953530Y-73374102D01*
X95196224Y-73444171D01*
X96000395Y-72640000D01*
X96359605Y-72640000D01*
X97163776Y-73444171D01*
X97406470Y-73374102D01*
X97473337Y-73232500D01*
X97594428Y-73232500D01*
X97594428Y-74807500D01*
X97606688Y-74931982D01*
X97642998Y-75051680D01*
X97701963Y-75161994D01*
X97781315Y-75258685D01*
X97878006Y-75338037D01*
X97988320Y-75397002D01*
X98108018Y-75433312D01*
X98232500Y-75445572D01*
X99807500Y-75445572D01*
X99931982Y-75433312D01*
X100051680Y-75397002D01*
X100161994Y-75338037D01*
X100258685Y-75258685D01*
X100338037Y-75161994D01*
X100397002Y-75051680D01*
X100433312Y-74931982D01*
X100445572Y-74807500D01*
X100445572Y-73232500D01*
X100433312Y-73108018D01*
X100397002Y-72988320D01*
X100338037Y-72878006D01*
X100258685Y-72781315D01*
X100161994Y-72701963D01*
X100051680Y-72642998D01*
X99931982Y-72606688D01*
X99807500Y-72594428D01*
X99512947Y-72594428D01*
X99631928Y-72551774D01*
X99754102Y-72486470D01*
X99824171Y-72243776D01*
X99020000Y-71439605D01*
X98215829Y-72243776D01*
X98285898Y-72486470D01*
X98514514Y-72594428D01*
X98232500Y-72594428D01*
X98108018Y-72606688D01*
X97988320Y-72642998D01*
X97878006Y-72701963D01*
X97781315Y-72781315D01*
X97701963Y-72878006D01*
X97642998Y-72988320D01*
X97606688Y-73108018D01*
X97594428Y-73232500D01*
X97473337Y-73232500D01*
X97526121Y-73120724D01*
X97594040Y-72848872D01*
X97607619Y-72568992D01*
X97566334Y-72291843D01*
X97471774Y-72028072D01*
X97406470Y-71905898D01*
X97163776Y-71835829D01*
X96359605Y-72640000D01*
X96000395Y-72640000D01*
X95196224Y-71835829D01*
X94953530Y-71905898D01*
X94833879Y-72159276D01*
X94765960Y-72431128D01*
X94752381Y-72711008D01*
X88660000Y-72711008D01*
X88660000Y-66979896D01*
X94757500Y-66979896D01*
X94757500Y-67260104D01*
X94812166Y-67534928D01*
X94919397Y-67793806D01*
X95075072Y-68026791D01*
X95273209Y-68224928D01*
X95506194Y-68380603D01*
X95765072Y-68487834D01*
X95826234Y-68500000D01*
X95765072Y-68512166D01*
X95506194Y-68619397D01*
X95273209Y-68775072D01*
X95075072Y-68973209D01*
X94919397Y-69206194D01*
X94812166Y-69465072D01*
X94757500Y-69739896D01*
X94757500Y-70020104D01*
X94812166Y-70294928D01*
X94919397Y-70553806D01*
X95075072Y-70786791D01*
X95273209Y-70984928D01*
X95506194Y-71140603D01*
X95765072Y-71247834D01*
X95818478Y-71258457D01*
X95568072Y-71348226D01*
X95445898Y-71413530D01*
X95375829Y-71656224D01*
X96180000Y-72460395D01*
X96984171Y-71656224D01*
X96914102Y-71413530D01*
X96739350Y-71331008D01*
X97592381Y-71331008D01*
X97633666Y-71608157D01*
X97728226Y-71871928D01*
X97793530Y-71994102D01*
X98036224Y-72064171D01*
X98840395Y-71260000D01*
X99199605Y-71260000D01*
X100003776Y-72064171D01*
X100246470Y-71994102D01*
X100366121Y-71740724D01*
X100434040Y-71468872D01*
X100447619Y-71188992D01*
X100406334Y-70911843D01*
X100311774Y-70648072D01*
X100246470Y-70525898D01*
X100003776Y-70455829D01*
X99199605Y-71260000D01*
X98840395Y-71260000D01*
X98036224Y-70455829D01*
X97793530Y-70525898D01*
X97673879Y-70779276D01*
X97605960Y-71051128D01*
X97592381Y-71331008D01*
X96739350Y-71331008D01*
X96660724Y-71293879D01*
X96528952Y-71260957D01*
X96594928Y-71247834D01*
X96853806Y-71140603D01*
X97086791Y-70984928D01*
X97284928Y-70786791D01*
X97440603Y-70553806D01*
X97547834Y-70294928D01*
X97602500Y-70020104D01*
X97602500Y-69739896D01*
X97551555Y-69483776D01*
X98215829Y-69483776D01*
X98285898Y-69726470D01*
X98539276Y-69846121D01*
X98662678Y-69876952D01*
X98408072Y-69968226D01*
X98285898Y-70033530D01*
X98215829Y-70276224D01*
X99020000Y-71080395D01*
X99824171Y-70276224D01*
X99754102Y-70033530D01*
X99500724Y-69913879D01*
X99377322Y-69883048D01*
X99631928Y-69791774D01*
X99754102Y-69726470D01*
X99824171Y-69483776D01*
X99020000Y-68679605D01*
X98215829Y-69483776D01*
X97551555Y-69483776D01*
X97547834Y-69465072D01*
X97440603Y-69206194D01*
X97284928Y-68973209D01*
X97086791Y-68775072D01*
X96853806Y-68619397D01*
X96736985Y-68571008D01*
X97592381Y-68571008D01*
X97633666Y-68848157D01*
X97728226Y-69111928D01*
X97793530Y-69234102D01*
X98036224Y-69304171D01*
X98840395Y-68500000D01*
X99199605Y-68500000D01*
X100003776Y-69304171D01*
X100246470Y-69234102D01*
X100366121Y-68980724D01*
X100434040Y-68708872D01*
X100447619Y-68428992D01*
X100406334Y-68151843D01*
X100311774Y-67888072D01*
X100246470Y-67765898D01*
X100003776Y-67695829D01*
X99199605Y-68500000D01*
X98840395Y-68500000D01*
X98036224Y-67695829D01*
X97793530Y-67765898D01*
X97673879Y-68019276D01*
X97605960Y-68291128D01*
X97592381Y-68571008D01*
X96736985Y-68571008D01*
X96594928Y-68512166D01*
X96533766Y-68500000D01*
X96594928Y-68487834D01*
X96853806Y-68380603D01*
X97086791Y-68224928D01*
X97284928Y-68026791D01*
X97440603Y-67793806D01*
X97547834Y-67534928D01*
X97602500Y-67260104D01*
X97602500Y-66979896D01*
X97547834Y-66705072D01*
X97440603Y-66446194D01*
X97284928Y-66213209D01*
X97086791Y-66015072D01*
X96853806Y-65859397D01*
X96594928Y-65752166D01*
X96541522Y-65741543D01*
X96791928Y-65651774D01*
X96914102Y-65586470D01*
X96984171Y-65343776D01*
X96180000Y-64539605D01*
X95375829Y-65343776D01*
X95445898Y-65586470D01*
X95699276Y-65706121D01*
X95831048Y-65739043D01*
X95765072Y-65752166D01*
X95506194Y-65859397D01*
X95273209Y-66015072D01*
X95075072Y-66213209D01*
X94919397Y-66446194D01*
X94812166Y-66705072D01*
X94757500Y-66979896D01*
X88660000Y-66979896D01*
X88660000Y-64431008D01*
X94752381Y-64431008D01*
X94793666Y-64708157D01*
X94888226Y-64971928D01*
X94953530Y-65094102D01*
X95196224Y-65164171D01*
X96000395Y-64360000D01*
X96359605Y-64360000D01*
X97163776Y-65164171D01*
X97406470Y-65094102D01*
X97526121Y-64840724D01*
X97594040Y-64568872D01*
X97607619Y-64288992D01*
X97566334Y-64011843D01*
X97471774Y-63748072D01*
X97406470Y-63625898D01*
X97163776Y-63555829D01*
X96359605Y-64360000D01*
X96000395Y-64360000D01*
X95196224Y-63555829D01*
X94953530Y-63625898D01*
X94833879Y-63879276D01*
X94765960Y-64151128D01*
X94752381Y-64431008D01*
X88660000Y-64431008D01*
X88660000Y-63376224D01*
X95375829Y-63376224D01*
X96180000Y-64180395D01*
X96984171Y-63376224D01*
X96914102Y-63133530D01*
X96660724Y-63013879D01*
X96388872Y-62945960D01*
X96108992Y-62932381D01*
X95831843Y-62973666D01*
X95568072Y-63068226D01*
X95445898Y-63133530D01*
X95375829Y-63376224D01*
X88660000Y-63376224D01*
X88660000Y-62839896D01*
X97597500Y-62839896D01*
X97597500Y-63120104D01*
X97652166Y-63394928D01*
X97759397Y-63653806D01*
X97915072Y-63886791D01*
X98113209Y-64084928D01*
X98346194Y-64240603D01*
X98605072Y-64347834D01*
X98666234Y-64360000D01*
X98605072Y-64372166D01*
X98346194Y-64479397D01*
X98113209Y-64635072D01*
X97915072Y-64833209D01*
X97759397Y-65066194D01*
X97652166Y-65325072D01*
X97597500Y-65599896D01*
X97597500Y-65880104D01*
X97652166Y-66154928D01*
X97759397Y-66413806D01*
X97915072Y-66646791D01*
X98113209Y-66844928D01*
X98346194Y-67000603D01*
X98605072Y-67107834D01*
X98658478Y-67118457D01*
X98408072Y-67208226D01*
X98285898Y-67273530D01*
X98215829Y-67516224D01*
X99020000Y-68320395D01*
X99824171Y-67516224D01*
X99754102Y-67273530D01*
X99500724Y-67153879D01*
X99368952Y-67120957D01*
X99434928Y-67107834D01*
X99693806Y-67000603D01*
X99926791Y-66844928D01*
X100124928Y-66646791D01*
X100280603Y-66413806D01*
X100387834Y-66154928D01*
X100442500Y-65880104D01*
X100442500Y-65599896D01*
X100387834Y-65325072D01*
X100280603Y-65066194D01*
X100124928Y-64833209D01*
X99926791Y-64635072D01*
X99693806Y-64479397D01*
X99434928Y-64372166D01*
X99373766Y-64360000D01*
X99434928Y-64347834D01*
X99693806Y-64240603D01*
X99926791Y-64084928D01*
X100124928Y-63886791D01*
X100280603Y-63653806D01*
X100387834Y-63394928D01*
X100442500Y-63120104D01*
X100442500Y-62839896D01*
X100387834Y-62565072D01*
X100280603Y-62306194D01*
X100124928Y-62073209D01*
X99926791Y-61875072D01*
X99693806Y-61719397D01*
X99434928Y-61612166D01*
X99160104Y-61557500D01*
X98879896Y-61557500D01*
X98605072Y-61612166D01*
X98346194Y-61719397D01*
X98113209Y-61875072D01*
X97915072Y-62073209D01*
X97759397Y-62306194D01*
X97652166Y-62565072D01*
X97597500Y-62839896D01*
X88660000Y-62839896D01*
X88660000Y-55691229D01*
X94465000Y-55691229D01*
X94465000Y-56308771D01*
X94585476Y-56914446D01*
X94821799Y-57484979D01*
X95164886Y-57998446D01*
X95601554Y-58435114D01*
X96115021Y-58778201D01*
X96685554Y-59014524D01*
X97291229Y-59135000D01*
X97908771Y-59135000D01*
X98514446Y-59014524D01*
X99084979Y-58778201D01*
X99598446Y-58435114D01*
X100035114Y-57998446D01*
X100378201Y-57484979D01*
X100614524Y-56914446D01*
X100735000Y-56308771D01*
X100735000Y-55691229D01*
X100614524Y-55085554D01*
X100378201Y-54515021D01*
X100035114Y-54001554D01*
X99598446Y-53564886D01*
X99084979Y-53221799D01*
X98514446Y-52985476D01*
X97908771Y-52865000D01*
X97291229Y-52865000D01*
X96685554Y-52985476D01*
X96115021Y-53221799D01*
X95601554Y-53564886D01*
X95164886Y-54001554D01*
X94821799Y-54515021D01*
X94585476Y-55085554D01*
X94465000Y-55691229D01*
X88660000Y-55691229D01*
X88660000Y-43660000D01*
X163340001Y-43660000D01*
X163340001Y-58365000D01*
G37*
X163340001Y-58365000D02*
X137628424Y-58365000D01*
X137595226Y-58198102D01*
X137517205Y-58009744D01*
X137403937Y-57840226D01*
X137259774Y-57696063D01*
X137090256Y-57582795D01*
X136901898Y-57504774D01*
X136701939Y-57465000D01*
X136635000Y-57465000D01*
X136635000Y-55728711D01*
X136703937Y-55659774D01*
X136817205Y-55490256D01*
X136895226Y-55301898D01*
X136935000Y-55101939D01*
X136935000Y-54898061D01*
X136895226Y-54698102D01*
X136817205Y-54509744D01*
X136703937Y-54340226D01*
X136559774Y-54196063D01*
X136390256Y-54082795D01*
X136201898Y-54004774D01*
X136001939Y-53965000D01*
X135798061Y-53965000D01*
X135598102Y-54004774D01*
X135409744Y-54082795D01*
X135240226Y-54196063D01*
X135096063Y-54340226D01*
X134982795Y-54509744D01*
X134904774Y-54698102D01*
X134865000Y-54898061D01*
X134865000Y-55101939D01*
X134904774Y-55301898D01*
X134982795Y-55490256D01*
X135096063Y-55659774D01*
X135115001Y-55678712D01*
X135115000Y-58365000D01*
X132000000Y-58365000D01*
X131876118Y-58377201D01*
X131756996Y-58413336D01*
X131647213Y-58472017D01*
X131550987Y-58550987D01*
X131472017Y-58647213D01*
X131413336Y-58756996D01*
X131377201Y-58876118D01*
X131365000Y-59000000D01*
X131365000Y-79140000D01*
X130803711Y-79140000D01*
X130759774Y-79096063D01*
X130590256Y-78982795D01*
X130401898Y-78904774D01*
X130201939Y-78865000D01*
X129998061Y-78865000D01*
X129798102Y-78904774D01*
X129609744Y-78982795D01*
X129440226Y-79096063D01*
X129296063Y-79240226D01*
X129182795Y-79409744D01*
X129104774Y-79598102D01*
X129065000Y-79798061D01*
X129065000Y-80001939D01*
X129104774Y-80201898D01*
X129182795Y-80390256D01*
X129296063Y-80559774D01*
X129440226Y-80703937D01*
X129609744Y-80817205D01*
X129798102Y-80895226D01*
X129998061Y-80935000D01*
X130201939Y-80935000D01*
X130401898Y-80895226D01*
X130590256Y-80817205D01*
X130759774Y-80703937D01*
X130803711Y-80660000D01*
X131365000Y-80660000D01*
X131365000Y-85000000D01*
X131377201Y-85123882D01*
X131413336Y-85243004D01*
X131472017Y-85352787D01*
X131550987Y-85449013D01*
X131647213Y-85527983D01*
X131756996Y-85586664D01*
X131876118Y-85622799D01*
X132000000Y-85635000D01*
X136759545Y-85635000D01*
X136615044Y-85853343D01*
X136515558Y-86096557D01*
X136507284Y-86146671D01*
X136630626Y-86353000D01*
X137873000Y-86353000D01*
X137873000Y-86333000D01*
X138127000Y-86333000D01*
X138127000Y-86353000D01*
X139369374Y-86353000D01*
X139492716Y-86146671D01*
X139484442Y-86096557D01*
X139384956Y-85853343D01*
X139240455Y-85635000D01*
X163340000Y-85635000D01*
X163340000Y-93340000D01*
X88660000Y-93340000D01*
X88660000Y-92234072D01*
X104445533Y-92234072D01*
X104495274Y-92459691D01*
X104720058Y-92562582D01*
X104960596Y-92619642D01*
X105207645Y-92628680D01*
X105451709Y-92589347D01*
X105683410Y-92503156D01*
X105764726Y-92459691D01*
X105814467Y-92234072D01*
X106985533Y-92234072D01*
X107035274Y-92459691D01*
X107260058Y-92562582D01*
X107500596Y-92619642D01*
X107747645Y-92628680D01*
X107991709Y-92589347D01*
X108223410Y-92503156D01*
X108304726Y-92459691D01*
X108354467Y-92234072D01*
X107670000Y-91549605D01*
X106985533Y-92234072D01*
X105814467Y-92234072D01*
X105130000Y-91549605D01*
X104445533Y-92234072D01*
X88660000Y-92234072D01*
X88660000Y-91447645D01*
X103871320Y-91447645D01*
X103910653Y-91691709D01*
X103996844Y-91923410D01*
X104040309Y-92004726D01*
X104265928Y-92054467D01*
X104950395Y-91370000D01*
X104265928Y-90685533D01*
X104040309Y-90735274D01*
X103937418Y-90960058D01*
X103880358Y-91200596D01*
X103871320Y-91447645D01*
X88660000Y-91447645D01*
X88660000Y-88907645D01*
X103871320Y-88907645D01*
X103910653Y-89151709D01*
X103996844Y-89383410D01*
X104040309Y-89464726D01*
X104265928Y-89514467D01*
X104950395Y-88830000D01*
X104265928Y-88145533D01*
X104040309Y-88195274D01*
X103937418Y-88420058D01*
X103880358Y-88660596D01*
X103871320Y-88907645D01*
X88660000Y-88907645D01*
X88660000Y-87965928D01*
X104445533Y-87965928D01*
X105130000Y-88650395D01*
X105144143Y-88636253D01*
X105323748Y-88815858D01*
X105309605Y-88830000D01*
X105323748Y-88844143D01*
X105144143Y-89023748D01*
X105130000Y-89009605D01*
X104445533Y-89694072D01*
X104495274Y-89919691D01*
X104720058Y-90022582D01*
X104960596Y-90079642D01*
X105145000Y-90086388D01*
X105145000Y-90114709D01*
X105052355Y-90111320D01*
X104808291Y-90150653D01*
X104576590Y-90236844D01*
X104495274Y-90280309D01*
X104445533Y-90505928D01*
X105130000Y-91190395D01*
X105144143Y-91176253D01*
X105323748Y-91355858D01*
X105309605Y-91370000D01*
X105994072Y-92054467D01*
X106219691Y-92004726D01*
X106322582Y-91779942D01*
X106379642Y-91539404D01*
X106386388Y-91355000D01*
X106414709Y-91355000D01*
X106411320Y-91447645D01*
X106450653Y-91691709D01*
X106536844Y-91923410D01*
X106580309Y-92004726D01*
X106805928Y-92054467D01*
X107490395Y-91370000D01*
X107849605Y-91370000D01*
X108534072Y-92054467D01*
X108759691Y-92004726D01*
X108862582Y-91779942D01*
X108919642Y-91539404D01*
X108928680Y-91292355D01*
X108889347Y-91048291D01*
X108803156Y-90816590D01*
X108759691Y-90735274D01*
X108534072Y-90685533D01*
X107849605Y-91370000D01*
X107490395Y-91370000D01*
X107476253Y-91355858D01*
X107655858Y-91176253D01*
X107670000Y-91190395D01*
X108354467Y-90505928D01*
X108304726Y-90280309D01*
X108079942Y-90177418D01*
X107839404Y-90120358D01*
X107655000Y-90113612D01*
X107655000Y-90085291D01*
X107747645Y-90088680D01*
X107991709Y-90049347D01*
X108223410Y-89963156D01*
X108304726Y-89919691D01*
X108354467Y-89694072D01*
X107670000Y-89009605D01*
X107655858Y-89023748D01*
X107476253Y-88844143D01*
X107490395Y-88830000D01*
X107849605Y-88830000D01*
X108534072Y-89514467D01*
X108759691Y-89464726D01*
X108862582Y-89239942D01*
X108914756Y-89020000D01*
X136458541Y-89020000D01*
X136484317Y-89281706D01*
X136560653Y-89533354D01*
X136684618Y-89765275D01*
X136851445Y-89968555D01*
X137054725Y-90135382D01*
X137286646Y-90259347D01*
X137538294Y-90335683D01*
X137734421Y-90355000D01*
X138265579Y-90355000D01*
X138461706Y-90335683D01*
X138713354Y-90259347D01*
X138945275Y-90135382D01*
X139148555Y-89968555D01*
X139315382Y-89765275D01*
X139439347Y-89533354D01*
X139515683Y-89281706D01*
X139541459Y-89020000D01*
X139515683Y-88758294D01*
X139439347Y-88506646D01*
X139315382Y-88274725D01*
X139148555Y-88071445D01*
X138945275Y-87904618D01*
X138713354Y-87780653D01*
X138617358Y-87751533D01*
X138837104Y-87659372D01*
X139054946Y-87512418D01*
X139239933Y-87325789D01*
X139384956Y-87106657D01*
X139484442Y-86863443D01*
X139492716Y-86813329D01*
X139369374Y-86607000D01*
X138127000Y-86607000D01*
X138127000Y-86627000D01*
X137873000Y-86627000D01*
X137873000Y-86607000D01*
X136630626Y-86607000D01*
X136507284Y-86813329D01*
X136515558Y-86863443D01*
X136615044Y-87106657D01*
X136760067Y-87325789D01*
X136945054Y-87512418D01*
X137162896Y-87659372D01*
X137382642Y-87751533D01*
X137286646Y-87780653D01*
X137054725Y-87904618D01*
X136851445Y-88071445D01*
X136684618Y-88274725D01*
X136560653Y-88506646D01*
X136484317Y-88758294D01*
X136458541Y-89020000D01*
X108914756Y-89020000D01*
X108919642Y-88999404D01*
X108928680Y-88752355D01*
X108889347Y-88508291D01*
X108803156Y-88276590D01*
X108759691Y-88195274D01*
X108534072Y-88145533D01*
X107849605Y-88830000D01*
X107490395Y-88830000D01*
X107476253Y-88815858D01*
X107655858Y-88636253D01*
X107670000Y-88650395D01*
X108354467Y-87965928D01*
X108304726Y-87740309D01*
X108079942Y-87637418D01*
X107839404Y-87580358D01*
X107592355Y-87571320D01*
X107348291Y-87610653D01*
X107160000Y-87680696D01*
X107160000Y-84248001D01*
X107611323Y-84248001D01*
X107612653Y-84261500D01*
X107611323Y-84274999D01*
X107614999Y-84312321D01*
X107614999Y-84312331D01*
X107625996Y-84423984D01*
X107667187Y-84559774D01*
X107669453Y-84567245D01*
X107740025Y-84699275D01*
X107746983Y-84707753D01*
X107834998Y-84815000D01*
X107864001Y-84838802D01*
X108065000Y-85039801D01*
X108065000Y-85101939D01*
X108104774Y-85301898D01*
X108182795Y-85490256D01*
X108296063Y-85659774D01*
X108440226Y-85803937D01*
X108609744Y-85917205D01*
X108798102Y-85995226D01*
X108998061Y-86035000D01*
X109201939Y-86035000D01*
X109401898Y-85995226D01*
X109590256Y-85917205D01*
X109759774Y-85803937D01*
X109903937Y-85659774D01*
X110017205Y-85490256D01*
X110095226Y-85301898D01*
X110135000Y-85101939D01*
X110135000Y-85012803D01*
X115211004Y-79936800D01*
X115240001Y-79913003D01*
X115334974Y-79797278D01*
X115405546Y-79665249D01*
X115449003Y-79521988D01*
X115460000Y-79410335D01*
X115460000Y-79410326D01*
X115463676Y-79373003D01*
X115460000Y-79335680D01*
X115460000Y-68214801D01*
X117263605Y-66411197D01*
X117296063Y-66459774D01*
X117440226Y-66603937D01*
X117609744Y-66717205D01*
X117798102Y-66795226D01*
X117998061Y-66835000D01*
X118201939Y-66835000D01*
X118401898Y-66795226D01*
X118590256Y-66717205D01*
X118759774Y-66603937D01*
X118803711Y-66560000D01*
X122796289Y-66560000D01*
X122840226Y-66603937D01*
X123009744Y-66717205D01*
X123198102Y-66795226D01*
X123398061Y-66835000D01*
X123601939Y-66835000D01*
X123801898Y-66795226D01*
X123990256Y-66717205D01*
X124159774Y-66603937D01*
X124303937Y-66459774D01*
X124417205Y-66290256D01*
X124495226Y-66101898D01*
X124535000Y-65901939D01*
X124535000Y-65698061D01*
X124495226Y-65498102D01*
X124417205Y-65309744D01*
X124303937Y-65140226D01*
X124159774Y-64996063D01*
X123990256Y-64882795D01*
X123801898Y-64804774D01*
X123601939Y-64765000D01*
X123398061Y-64765000D01*
X123198102Y-64804774D01*
X123009744Y-64882795D01*
X122840226Y-64996063D01*
X122796289Y-65040000D01*
X118803711Y-65040000D01*
X118759774Y-64996063D01*
X118711197Y-64963605D01*
X125114802Y-58560000D01*
X126096289Y-58560000D01*
X126140226Y-58603937D01*
X126309744Y-58717205D01*
X126498102Y-58795226D01*
X126698061Y-58835000D01*
X126901939Y-58835000D01*
X127101898Y-58795226D01*
X127290256Y-58717205D01*
X127459774Y-58603937D01*
X127603937Y-58459774D01*
X127717205Y-58290256D01*
X127795226Y-58101898D01*
X127835000Y-57901939D01*
X127835000Y-57698061D01*
X127795226Y-57498102D01*
X127717205Y-57309744D01*
X127603937Y-57140226D01*
X127551821Y-57088110D01*
X127617205Y-56990256D01*
X127695226Y-56801898D01*
X127735000Y-56601939D01*
X127735000Y-56398061D01*
X127695226Y-56198102D01*
X127617205Y-56009744D01*
X127503937Y-55840226D01*
X127359774Y-55696063D01*
X127190256Y-55582795D01*
X127001898Y-55504774D01*
X126801939Y-55465000D01*
X126598061Y-55465000D01*
X126398102Y-55504774D01*
X126209744Y-55582795D01*
X126040226Y-55696063D01*
X125996289Y-55740000D01*
X125037323Y-55740000D01*
X125000000Y-55736324D01*
X124962677Y-55740000D01*
X124962667Y-55740000D01*
X124851014Y-55750997D01*
X124726801Y-55788676D01*
X124707753Y-55794454D01*
X124575723Y-55865026D01*
X124492083Y-55933668D01*
X124459999Y-55959999D01*
X124436201Y-55988997D01*
X115499048Y-64926150D01*
X115466590Y-64877573D01*
X115322427Y-64733410D01*
X115152909Y-64620142D01*
X114964551Y-64542121D01*
X114764592Y-64502347D01*
X114560714Y-64502347D01*
X114360755Y-64542121D01*
X114172397Y-64620142D01*
X114002879Y-64733410D01*
X113958942Y-64777347D01*
X113899978Y-64777347D01*
X113862653Y-64773671D01*
X113825328Y-64777347D01*
X113825320Y-64777347D01*
X113713667Y-64788344D01*
X113570406Y-64831801D01*
X113438377Y-64902373D01*
X113322652Y-64997346D01*
X113298854Y-65026344D01*
X112360199Y-65965000D01*
X112298061Y-65965000D01*
X112098102Y-66004774D01*
X111909744Y-66082795D01*
X111740226Y-66196063D01*
X111596063Y-66340226D01*
X111482795Y-66509744D01*
X111404774Y-66698102D01*
X111365000Y-66898061D01*
X111365000Y-67101939D01*
X111404774Y-67301898D01*
X111482795Y-67490256D01*
X111596063Y-67659774D01*
X111740226Y-67803937D01*
X111909744Y-67917205D01*
X112098102Y-67995226D01*
X112298061Y-68035000D01*
X112501939Y-68035000D01*
X112701898Y-67995226D01*
X112890256Y-67917205D01*
X113040001Y-67817149D01*
X113040000Y-78885198D01*
X109060199Y-82865000D01*
X108998061Y-82865000D01*
X108798102Y-82904774D01*
X108609744Y-82982795D01*
X108440226Y-83096063D01*
X108296063Y-83240226D01*
X108182795Y-83409744D01*
X108134301Y-83526818D01*
X108082753Y-83542455D01*
X107950723Y-83613027D01*
X107871195Y-83678294D01*
X107834998Y-83708000D01*
X107740025Y-83823725D01*
X107669453Y-83955754D01*
X107625996Y-84099015D01*
X107614999Y-84210668D01*
X107614999Y-84210679D01*
X107611323Y-84248001D01*
X107160000Y-84248001D01*
X107160000Y-78614801D01*
X107839802Y-77935000D01*
X107901939Y-77935000D01*
X108101898Y-77895226D01*
X108290256Y-77817205D01*
X108459774Y-77703937D01*
X108603937Y-77559774D01*
X108717205Y-77390256D01*
X108795226Y-77201898D01*
X108835000Y-77001939D01*
X108835000Y-76798061D01*
X108795226Y-76598102D01*
X108717205Y-76409744D01*
X108603937Y-76240226D01*
X108459774Y-76096063D01*
X108290256Y-75982795D01*
X108101898Y-75904774D01*
X107901939Y-75865000D01*
X107698061Y-75865000D01*
X107498102Y-75904774D01*
X107309744Y-75982795D01*
X107140226Y-76096063D01*
X106996063Y-76240226D01*
X106882795Y-76409744D01*
X106804774Y-76598102D01*
X106765000Y-76798061D01*
X106765000Y-76860198D01*
X105888998Y-77736201D01*
X105860000Y-77759999D01*
X105836202Y-77788997D01*
X105836201Y-77788998D01*
X105765026Y-77875724D01*
X105694454Y-78007754D01*
X105650998Y-78151015D01*
X105636324Y-78300000D01*
X105640001Y-78337332D01*
X105640000Y-87683218D01*
X105539942Y-87637418D01*
X105299404Y-87580358D01*
X105052355Y-87571320D01*
X104808291Y-87610653D01*
X104576590Y-87696844D01*
X104495274Y-87740309D01*
X104445533Y-87965928D01*
X88660000Y-87965928D01*
X88660000Y-80691229D01*
X94465000Y-80691229D01*
X94465000Y-81308771D01*
X94585476Y-81914446D01*
X94821799Y-82484979D01*
X95164886Y-82998446D01*
X95601554Y-83435114D01*
X96115021Y-83778201D01*
X96685554Y-84014524D01*
X97291229Y-84135000D01*
X97908771Y-84135000D01*
X98514446Y-84014524D01*
X99084979Y-83778201D01*
X99598446Y-83435114D01*
X100035114Y-82998446D01*
X100378201Y-82484979D01*
X100614524Y-81914446D01*
X100735000Y-81308771D01*
X100735000Y-80691229D01*
X100614524Y-80085554D01*
X100378201Y-79515021D01*
X100035114Y-79001554D01*
X99598446Y-78564886D01*
X99084979Y-78221799D01*
X98514446Y-77985476D01*
X97908771Y-77865000D01*
X97291229Y-77865000D01*
X96685554Y-77985476D01*
X96115021Y-78221799D01*
X95601554Y-78564886D01*
X95164886Y-79001554D01*
X94821799Y-79515021D01*
X94585476Y-80085554D01*
X94465000Y-80691229D01*
X88660000Y-80691229D01*
X88660000Y-73623776D01*
X95375829Y-73623776D01*
X95445898Y-73866470D01*
X95699276Y-73986121D01*
X95971128Y-74054040D01*
X96251008Y-74067619D01*
X96528157Y-74026334D01*
X96791928Y-73931774D01*
X96914102Y-73866470D01*
X96984171Y-73623776D01*
X96180000Y-72819605D01*
X95375829Y-73623776D01*
X88660000Y-73623776D01*
X88660000Y-72711008D01*
X94752381Y-72711008D01*
X94793666Y-72988157D01*
X94888226Y-73251928D01*
X94953530Y-73374102D01*
X95196224Y-73444171D01*
X96000395Y-72640000D01*
X96359605Y-72640000D01*
X97163776Y-73444171D01*
X97406470Y-73374102D01*
X97473337Y-73232500D01*
X97594428Y-73232500D01*
X97594428Y-74807500D01*
X97606688Y-74931982D01*
X97642998Y-75051680D01*
X97701963Y-75161994D01*
X97781315Y-75258685D01*
X97878006Y-75338037D01*
X97988320Y-75397002D01*
X98108018Y-75433312D01*
X98232500Y-75445572D01*
X99807500Y-75445572D01*
X99931982Y-75433312D01*
X100051680Y-75397002D01*
X100161994Y-75338037D01*
X100258685Y-75258685D01*
X100338037Y-75161994D01*
X100397002Y-75051680D01*
X100433312Y-74931982D01*
X100445572Y-74807500D01*
X100445572Y-73232500D01*
X100433312Y-73108018D01*
X100397002Y-72988320D01*
X100338037Y-72878006D01*
X100258685Y-72781315D01*
X100161994Y-72701963D01*
X100051680Y-72642998D01*
X99931982Y-72606688D01*
X99807500Y-72594428D01*
X99512947Y-72594428D01*
X99631928Y-72551774D01*
X99754102Y-72486470D01*
X99824171Y-72243776D01*
X99020000Y-71439605D01*
X98215829Y-72243776D01*
X98285898Y-72486470D01*
X98514514Y-72594428D01*
X98232500Y-72594428D01*
X98108018Y-72606688D01*
X97988320Y-72642998D01*
X97878006Y-72701963D01*
X97781315Y-72781315D01*
X97701963Y-72878006D01*
X97642998Y-72988320D01*
X97606688Y-73108018D01*
X97594428Y-73232500D01*
X97473337Y-73232500D01*
X97526121Y-73120724D01*
X97594040Y-72848872D01*
X97607619Y-72568992D01*
X97566334Y-72291843D01*
X97471774Y-72028072D01*
X97406470Y-71905898D01*
X97163776Y-71835829D01*
X96359605Y-72640000D01*
X96000395Y-72640000D01*
X95196224Y-71835829D01*
X94953530Y-71905898D01*
X94833879Y-72159276D01*
X94765960Y-72431128D01*
X94752381Y-72711008D01*
X88660000Y-72711008D01*
X88660000Y-66979896D01*
X94757500Y-66979896D01*
X94757500Y-67260104D01*
X94812166Y-67534928D01*
X94919397Y-67793806D01*
X95075072Y-68026791D01*
X95273209Y-68224928D01*
X95506194Y-68380603D01*
X95765072Y-68487834D01*
X95826234Y-68500000D01*
X95765072Y-68512166D01*
X95506194Y-68619397D01*
X95273209Y-68775072D01*
X95075072Y-68973209D01*
X94919397Y-69206194D01*
X94812166Y-69465072D01*
X94757500Y-69739896D01*
X94757500Y-70020104D01*
X94812166Y-70294928D01*
X94919397Y-70553806D01*
X95075072Y-70786791D01*
X95273209Y-70984928D01*
X95506194Y-71140603D01*
X95765072Y-71247834D01*
X95818478Y-71258457D01*
X95568072Y-71348226D01*
X95445898Y-71413530D01*
X95375829Y-71656224D01*
X96180000Y-72460395D01*
X96984171Y-71656224D01*
X96914102Y-71413530D01*
X96739350Y-71331008D01*
X97592381Y-71331008D01*
X97633666Y-71608157D01*
X97728226Y-71871928D01*
X97793530Y-71994102D01*
X98036224Y-72064171D01*
X98840395Y-71260000D01*
X99199605Y-71260000D01*
X100003776Y-72064171D01*
X100246470Y-71994102D01*
X100366121Y-71740724D01*
X100434040Y-71468872D01*
X100447619Y-71188992D01*
X100406334Y-70911843D01*
X100311774Y-70648072D01*
X100246470Y-70525898D01*
X100003776Y-70455829D01*
X99199605Y-71260000D01*
X98840395Y-71260000D01*
X98036224Y-70455829D01*
X97793530Y-70525898D01*
X97673879Y-70779276D01*
X97605960Y-71051128D01*
X97592381Y-71331008D01*
X96739350Y-71331008D01*
X96660724Y-71293879D01*
X96528952Y-71260957D01*
X96594928Y-71247834D01*
X96853806Y-71140603D01*
X97086791Y-70984928D01*
X97284928Y-70786791D01*
X97440603Y-70553806D01*
X97547834Y-70294928D01*
X97602500Y-70020104D01*
X97602500Y-69739896D01*
X97551555Y-69483776D01*
X98215829Y-69483776D01*
X98285898Y-69726470D01*
X98539276Y-69846121D01*
X98662678Y-69876952D01*
X98408072Y-69968226D01*
X98285898Y-70033530D01*
X98215829Y-70276224D01*
X99020000Y-71080395D01*
X99824171Y-70276224D01*
X99754102Y-70033530D01*
X99500724Y-69913879D01*
X99377322Y-69883048D01*
X99631928Y-69791774D01*
X99754102Y-69726470D01*
X99824171Y-69483776D01*
X99020000Y-68679605D01*
X98215829Y-69483776D01*
X97551555Y-69483776D01*
X97547834Y-69465072D01*
X97440603Y-69206194D01*
X97284928Y-68973209D01*
X97086791Y-68775072D01*
X96853806Y-68619397D01*
X96736985Y-68571008D01*
X97592381Y-68571008D01*
X97633666Y-68848157D01*
X97728226Y-69111928D01*
X97793530Y-69234102D01*
X98036224Y-69304171D01*
X98840395Y-68500000D01*
X99199605Y-68500000D01*
X100003776Y-69304171D01*
X100246470Y-69234102D01*
X100366121Y-68980724D01*
X100434040Y-68708872D01*
X100447619Y-68428992D01*
X100406334Y-68151843D01*
X100311774Y-67888072D01*
X100246470Y-67765898D01*
X100003776Y-67695829D01*
X99199605Y-68500000D01*
X98840395Y-68500000D01*
X98036224Y-67695829D01*
X97793530Y-67765898D01*
X97673879Y-68019276D01*
X97605960Y-68291128D01*
X97592381Y-68571008D01*
X96736985Y-68571008D01*
X96594928Y-68512166D01*
X96533766Y-68500000D01*
X96594928Y-68487834D01*
X96853806Y-68380603D01*
X97086791Y-68224928D01*
X97284928Y-68026791D01*
X97440603Y-67793806D01*
X97547834Y-67534928D01*
X97602500Y-67260104D01*
X97602500Y-66979896D01*
X97547834Y-66705072D01*
X97440603Y-66446194D01*
X97284928Y-66213209D01*
X97086791Y-66015072D01*
X96853806Y-65859397D01*
X96594928Y-65752166D01*
X96541522Y-65741543D01*
X96791928Y-65651774D01*
X96914102Y-65586470D01*
X96984171Y-65343776D01*
X96180000Y-64539605D01*
X95375829Y-65343776D01*
X95445898Y-65586470D01*
X95699276Y-65706121D01*
X95831048Y-65739043D01*
X95765072Y-65752166D01*
X95506194Y-65859397D01*
X95273209Y-66015072D01*
X95075072Y-66213209D01*
X94919397Y-66446194D01*
X94812166Y-66705072D01*
X94757500Y-66979896D01*
X88660000Y-66979896D01*
X88660000Y-64431008D01*
X94752381Y-64431008D01*
X94793666Y-64708157D01*
X94888226Y-64971928D01*
X94953530Y-65094102D01*
X95196224Y-65164171D01*
X96000395Y-64360000D01*
X96359605Y-64360000D01*
X97163776Y-65164171D01*
X97406470Y-65094102D01*
X97526121Y-64840724D01*
X97594040Y-64568872D01*
X97607619Y-64288992D01*
X97566334Y-64011843D01*
X97471774Y-63748072D01*
X97406470Y-63625898D01*
X97163776Y-63555829D01*
X96359605Y-64360000D01*
X96000395Y-64360000D01*
X95196224Y-63555829D01*
X94953530Y-63625898D01*
X94833879Y-63879276D01*
X94765960Y-64151128D01*
X94752381Y-64431008D01*
X88660000Y-64431008D01*
X88660000Y-63376224D01*
X95375829Y-63376224D01*
X96180000Y-64180395D01*
X96984171Y-63376224D01*
X96914102Y-63133530D01*
X96660724Y-63013879D01*
X96388872Y-62945960D01*
X96108992Y-62932381D01*
X95831843Y-62973666D01*
X95568072Y-63068226D01*
X95445898Y-63133530D01*
X95375829Y-63376224D01*
X88660000Y-63376224D01*
X88660000Y-62839896D01*
X97597500Y-62839896D01*
X97597500Y-63120104D01*
X97652166Y-63394928D01*
X97759397Y-63653806D01*
X97915072Y-63886791D01*
X98113209Y-64084928D01*
X98346194Y-64240603D01*
X98605072Y-64347834D01*
X98666234Y-64360000D01*
X98605072Y-64372166D01*
X98346194Y-64479397D01*
X98113209Y-64635072D01*
X97915072Y-64833209D01*
X97759397Y-65066194D01*
X97652166Y-65325072D01*
X97597500Y-65599896D01*
X97597500Y-65880104D01*
X97652166Y-66154928D01*
X97759397Y-66413806D01*
X97915072Y-66646791D01*
X98113209Y-66844928D01*
X98346194Y-67000603D01*
X98605072Y-67107834D01*
X98658478Y-67118457D01*
X98408072Y-67208226D01*
X98285898Y-67273530D01*
X98215829Y-67516224D01*
X99020000Y-68320395D01*
X99824171Y-67516224D01*
X99754102Y-67273530D01*
X99500724Y-67153879D01*
X99368952Y-67120957D01*
X99434928Y-67107834D01*
X99693806Y-67000603D01*
X99926791Y-66844928D01*
X100124928Y-66646791D01*
X100280603Y-66413806D01*
X100387834Y-66154928D01*
X100442500Y-65880104D01*
X100442500Y-65599896D01*
X100387834Y-65325072D01*
X100280603Y-65066194D01*
X100124928Y-64833209D01*
X99926791Y-64635072D01*
X99693806Y-64479397D01*
X99434928Y-64372166D01*
X99373766Y-64360000D01*
X99434928Y-64347834D01*
X99693806Y-64240603D01*
X99926791Y-64084928D01*
X100124928Y-63886791D01*
X100280603Y-63653806D01*
X100387834Y-63394928D01*
X100442500Y-63120104D01*
X100442500Y-62839896D01*
X100387834Y-62565072D01*
X100280603Y-62306194D01*
X100124928Y-62073209D01*
X99926791Y-61875072D01*
X99693806Y-61719397D01*
X99434928Y-61612166D01*
X99160104Y-61557500D01*
X98879896Y-61557500D01*
X98605072Y-61612166D01*
X98346194Y-61719397D01*
X98113209Y-61875072D01*
X97915072Y-62073209D01*
X97759397Y-62306194D01*
X97652166Y-62565072D01*
X97597500Y-62839896D01*
X88660000Y-62839896D01*
X88660000Y-55691229D01*
X94465000Y-55691229D01*
X94465000Y-56308771D01*
X94585476Y-56914446D01*
X94821799Y-57484979D01*
X95164886Y-57998446D01*
X95601554Y-58435114D01*
X96115021Y-58778201D01*
X96685554Y-59014524D01*
X97291229Y-59135000D01*
X97908771Y-59135000D01*
X98514446Y-59014524D01*
X99084979Y-58778201D01*
X99598446Y-58435114D01*
X100035114Y-57998446D01*
X100378201Y-57484979D01*
X100614524Y-56914446D01*
X100735000Y-56308771D01*
X100735000Y-55691229D01*
X100614524Y-55085554D01*
X100378201Y-54515021D01*
X100035114Y-54001554D01*
X99598446Y-53564886D01*
X99084979Y-53221799D01*
X98514446Y-52985476D01*
X97908771Y-52865000D01*
X97291229Y-52865000D01*
X96685554Y-52985476D01*
X96115021Y-53221799D01*
X95601554Y-53564886D01*
X95164886Y-54001554D01*
X94821799Y-54515021D01*
X94585476Y-55085554D01*
X94465000Y-55691229D01*
X88660000Y-55691229D01*
X88660000Y-43660000D01*
X163340001Y-43660000D01*
X163340001Y-58365000D01*
G36*
X163340000Y-84873000D02*
G01*
X139161321Y-84873000D01*
X139315382Y-84685275D01*
X139439347Y-84453354D01*
X139515683Y-84201706D01*
X139541459Y-83940000D01*
X139515683Y-83678294D01*
X139439347Y-83426646D01*
X139315382Y-83194725D01*
X139148555Y-82991445D01*
X138945275Y-82824618D01*
X138782258Y-82737483D01*
X138900000Y-82738072D01*
X139024482Y-82725812D01*
X139144180Y-82689502D01*
X139254494Y-82630537D01*
X139351185Y-82551185D01*
X139430537Y-82454494D01*
X139489502Y-82344180D01*
X139525812Y-82224482D01*
X139538072Y-82100000D01*
X139535000Y-81685750D01*
X139376250Y-81527000D01*
X138127000Y-81527000D01*
X138127000Y-81547000D01*
X137873000Y-81547000D01*
X137873000Y-81527000D01*
X136623750Y-81527000D01*
X136465000Y-81685750D01*
X136461928Y-82100000D01*
X136474188Y-82224482D01*
X136510498Y-82344180D01*
X136569463Y-82454494D01*
X136648815Y-82551185D01*
X136745506Y-82630537D01*
X136855820Y-82689502D01*
X136975518Y-82725812D01*
X137100000Y-82738072D01*
X137217742Y-82737483D01*
X137054725Y-82824618D01*
X136851445Y-82991445D01*
X136684618Y-83194725D01*
X136560653Y-83426646D01*
X136484317Y-83678294D01*
X136458541Y-83940000D01*
X136484317Y-84201706D01*
X136560653Y-84453354D01*
X136684618Y-84685275D01*
X136838679Y-84873000D01*
X132127000Y-84873000D01*
X132127000Y-80660000D01*
X136465868Y-80660000D01*
X136461928Y-80700000D01*
X136465000Y-81114250D01*
X136623750Y-81273000D01*
X137873000Y-81273000D01*
X137873000Y-81253000D01*
X138127000Y-81253000D01*
X138127000Y-81273000D01*
X139376250Y-81273000D01*
X139535000Y-81114250D01*
X139538072Y-80700000D01*
X139534132Y-80660000D01*
X159662678Y-80660000D01*
X159700000Y-80663676D01*
X159737322Y-80660000D01*
X159737333Y-80660000D01*
X159848986Y-80649003D01*
X159992247Y-80605546D01*
X160124276Y-80534974D01*
X160240001Y-80440001D01*
X160263804Y-80410997D01*
X162511003Y-78163799D01*
X162540001Y-78140001D01*
X162634974Y-78024276D01*
X162705546Y-77892247D01*
X162749003Y-77748986D01*
X162753033Y-77708072D01*
X162850000Y-77708072D01*
X162974482Y-77695812D01*
X163094180Y-77659502D01*
X163204494Y-77600537D01*
X163301185Y-77521185D01*
X163340000Y-77473888D01*
X163340000Y-84873000D01*
G37*
X163340000Y-84873000D02*
X139161321Y-84873000D01*
X139315382Y-84685275D01*
X139439347Y-84453354D01*
X139515683Y-84201706D01*
X139541459Y-83940000D01*
X139515683Y-83678294D01*
X139439347Y-83426646D01*
X139315382Y-83194725D01*
X139148555Y-82991445D01*
X138945275Y-82824618D01*
X138782258Y-82737483D01*
X138900000Y-82738072D01*
X139024482Y-82725812D01*
X139144180Y-82689502D01*
X139254494Y-82630537D01*
X139351185Y-82551185D01*
X139430537Y-82454494D01*
X139489502Y-82344180D01*
X139525812Y-82224482D01*
X139538072Y-82100000D01*
X139535000Y-81685750D01*
X139376250Y-81527000D01*
X138127000Y-81527000D01*
X138127000Y-81547000D01*
X137873000Y-81547000D01*
X137873000Y-81527000D01*
X136623750Y-81527000D01*
X136465000Y-81685750D01*
X136461928Y-82100000D01*
X136474188Y-82224482D01*
X136510498Y-82344180D01*
X136569463Y-82454494D01*
X136648815Y-82551185D01*
X136745506Y-82630537D01*
X136855820Y-82689502D01*
X136975518Y-82725812D01*
X137100000Y-82738072D01*
X137217742Y-82737483D01*
X137054725Y-82824618D01*
X136851445Y-82991445D01*
X136684618Y-83194725D01*
X136560653Y-83426646D01*
X136484317Y-83678294D01*
X136458541Y-83940000D01*
X136484317Y-84201706D01*
X136560653Y-84453354D01*
X136684618Y-84685275D01*
X136838679Y-84873000D01*
X132127000Y-84873000D01*
X132127000Y-80660000D01*
X136465868Y-80660000D01*
X136461928Y-80700000D01*
X136465000Y-81114250D01*
X136623750Y-81273000D01*
X137873000Y-81273000D01*
X137873000Y-81253000D01*
X138127000Y-81253000D01*
X138127000Y-81273000D01*
X139376250Y-81273000D01*
X139535000Y-81114250D01*
X139538072Y-80700000D01*
X139534132Y-80660000D01*
X159662678Y-80660000D01*
X159700000Y-80663676D01*
X159737322Y-80660000D01*
X159737333Y-80660000D01*
X159848986Y-80649003D01*
X159992247Y-80605546D01*
X160124276Y-80534974D01*
X160240001Y-80440001D01*
X160263804Y-80410997D01*
X162511003Y-78163799D01*
X162540001Y-78140001D01*
X162634974Y-78024276D01*
X162705546Y-77892247D01*
X162749003Y-77748986D01*
X162753033Y-77708072D01*
X162850000Y-77708072D01*
X162974482Y-77695812D01*
X163094180Y-77659502D01*
X163204494Y-77600537D01*
X163301185Y-77521185D01*
X163340000Y-77473888D01*
X163340000Y-84873000D01*
G36*
X135796063Y-59159774D02*
G01*
X135940226Y-59303937D01*
X136109744Y-59417205D01*
X136298102Y-59495226D01*
X136498061Y-59535000D01*
X136701939Y-59535000D01*
X136901898Y-59495226D01*
X137090256Y-59417205D01*
X137259774Y-59303937D01*
X137403937Y-59159774D01*
X137425836Y-59127000D01*
X163340001Y-59127000D01*
X163340001Y-59726112D01*
X163301185Y-59678815D01*
X163204494Y-59599463D01*
X163094180Y-59540498D01*
X162974482Y-59504188D01*
X162850000Y-59491928D01*
X161150000Y-59491928D01*
X161025518Y-59504188D01*
X160905820Y-59540498D01*
X160795506Y-59599463D01*
X160698815Y-59678815D01*
X160619463Y-59775506D01*
X160560498Y-59885820D01*
X160538487Y-59958380D01*
X160406632Y-59826525D01*
X160163411Y-59664010D01*
X159893158Y-59552068D01*
X159606260Y-59495000D01*
X159313740Y-59495000D01*
X159026842Y-59552068D01*
X158756589Y-59664010D01*
X158513368Y-59826525D01*
X158306525Y-60033368D01*
X158190000Y-60207760D01*
X158073475Y-60033368D01*
X157866632Y-59826525D01*
X157623411Y-59664010D01*
X157353158Y-59552068D01*
X157066260Y-59495000D01*
X156773740Y-59495000D01*
X156486842Y-59552068D01*
X156216589Y-59664010D01*
X155973368Y-59826525D01*
X155766525Y-60033368D01*
X155650000Y-60207760D01*
X155533475Y-60033368D01*
X155326632Y-59826525D01*
X155083411Y-59664010D01*
X154813158Y-59552068D01*
X154526260Y-59495000D01*
X154233740Y-59495000D01*
X153946842Y-59552068D01*
X153676589Y-59664010D01*
X153433368Y-59826525D01*
X153226525Y-60033368D01*
X153110000Y-60207760D01*
X152993475Y-60033368D01*
X152786632Y-59826525D01*
X152543411Y-59664010D01*
X152273158Y-59552068D01*
X151986260Y-59495000D01*
X151693740Y-59495000D01*
X151406842Y-59552068D01*
X151136589Y-59664010D01*
X150893368Y-59826525D01*
X150686525Y-60033368D01*
X150570000Y-60207760D01*
X150453475Y-60033368D01*
X150246632Y-59826525D01*
X150003411Y-59664010D01*
X149733158Y-59552068D01*
X149446260Y-59495000D01*
X149153740Y-59495000D01*
X148866842Y-59552068D01*
X148596589Y-59664010D01*
X148353368Y-59826525D01*
X148146525Y-60033368D01*
X148030000Y-60207760D01*
X147913475Y-60033368D01*
X147706632Y-59826525D01*
X147463411Y-59664010D01*
X147193158Y-59552068D01*
X146906260Y-59495000D01*
X146613740Y-59495000D01*
X146326842Y-59552068D01*
X146056589Y-59664010D01*
X145813368Y-59826525D01*
X145606525Y-60033368D01*
X145444010Y-60276589D01*
X145332068Y-60546842D01*
X145275000Y-60833740D01*
X145275000Y-61126260D01*
X145332068Y-61413158D01*
X145444010Y-61683411D01*
X145606525Y-61926632D01*
X145813368Y-62133475D01*
X146056589Y-62295990D01*
X146326842Y-62407932D01*
X146613740Y-62465000D01*
X146906260Y-62465000D01*
X147193158Y-62407932D01*
X147463411Y-62295990D01*
X147706632Y-62133475D01*
X147913475Y-61926632D01*
X148030000Y-61752240D01*
X148146525Y-61926632D01*
X148353368Y-62133475D01*
X148596589Y-62295990D01*
X148866842Y-62407932D01*
X149153740Y-62465000D01*
X149446260Y-62465000D01*
X149733158Y-62407932D01*
X150003411Y-62295990D01*
X150246632Y-62133475D01*
X150453475Y-61926632D01*
X150570000Y-61752240D01*
X150686525Y-61926632D01*
X150893368Y-62133475D01*
X151136589Y-62295990D01*
X151406842Y-62407932D01*
X151693740Y-62465000D01*
X151986260Y-62465000D01*
X152273158Y-62407932D01*
X152543411Y-62295990D01*
X152786632Y-62133475D01*
X152993475Y-61926632D01*
X153110000Y-61752240D01*
X153226525Y-61926632D01*
X153433368Y-62133475D01*
X153676589Y-62295990D01*
X153946842Y-62407932D01*
X154233740Y-62465000D01*
X154526260Y-62465000D01*
X154813158Y-62407932D01*
X155083411Y-62295990D01*
X155326632Y-62133475D01*
X155533475Y-61926632D01*
X155650000Y-61752240D01*
X155766525Y-61926632D01*
X155973368Y-62133475D01*
X156216589Y-62295990D01*
X156486842Y-62407932D01*
X156773740Y-62465000D01*
X157066260Y-62465000D01*
X157353158Y-62407932D01*
X157623411Y-62295990D01*
X157866632Y-62133475D01*
X158073475Y-61926632D01*
X158190000Y-61752240D01*
X158306525Y-61926632D01*
X158513368Y-62133475D01*
X158756589Y-62295990D01*
X159026842Y-62407932D01*
X159313740Y-62465000D01*
X159606260Y-62465000D01*
X159893158Y-62407932D01*
X160163411Y-62295990D01*
X160406632Y-62133475D01*
X160538487Y-62001620D01*
X160560498Y-62074180D01*
X160619463Y-62184494D01*
X160698815Y-62281185D01*
X160795506Y-62360537D01*
X160905820Y-62419502D01*
X161025518Y-62455812D01*
X161150000Y-62468072D01*
X162850000Y-62468072D01*
X162974482Y-62455812D01*
X163094180Y-62419502D01*
X163204494Y-62360537D01*
X163301185Y-62281185D01*
X163340001Y-62233888D01*
X163340000Y-74966112D01*
X163301185Y-74918815D01*
X163204494Y-74839463D01*
X163094180Y-74780498D01*
X162974482Y-74744188D01*
X162850000Y-74731928D01*
X161150000Y-74731928D01*
X161025518Y-74744188D01*
X160905820Y-74780498D01*
X160795506Y-74839463D01*
X160698815Y-74918815D01*
X160619463Y-75015506D01*
X160560498Y-75125820D01*
X160536034Y-75206466D01*
X160460269Y-75122412D01*
X160226920Y-74948359D01*
X159964099Y-74823175D01*
X159816890Y-74778524D01*
X159587000Y-74899845D01*
X159587000Y-76093000D01*
X159607000Y-76093000D01*
X159607000Y-76347000D01*
X159587000Y-76347000D01*
X159587000Y-77540155D01*
X159816890Y-77661476D01*
X159964099Y-77616825D01*
X160226920Y-77491641D01*
X160460269Y-77317588D01*
X160536034Y-77233534D01*
X160560498Y-77314180D01*
X160619463Y-77424494D01*
X160698815Y-77521185D01*
X160795506Y-77600537D01*
X160879673Y-77645526D01*
X159385199Y-79140000D01*
X132127000Y-79140000D01*
X132127000Y-76073740D01*
X145275000Y-76073740D01*
X145275000Y-76366260D01*
X145332068Y-76653158D01*
X145444010Y-76923411D01*
X145606525Y-77166632D01*
X145813368Y-77373475D01*
X146056589Y-77535990D01*
X146326842Y-77647932D01*
X146613740Y-77705000D01*
X146906260Y-77705000D01*
X147193158Y-77647932D01*
X147463411Y-77535990D01*
X147706632Y-77373475D01*
X147913475Y-77166632D01*
X148030000Y-76992240D01*
X148146525Y-77166632D01*
X148353368Y-77373475D01*
X148596589Y-77535990D01*
X148866842Y-77647932D01*
X149153740Y-77705000D01*
X149446260Y-77705000D01*
X149733158Y-77647932D01*
X150003411Y-77535990D01*
X150246632Y-77373475D01*
X150453475Y-77166632D01*
X150570000Y-76992240D01*
X150686525Y-77166632D01*
X150893368Y-77373475D01*
X151136589Y-77535990D01*
X151406842Y-77647932D01*
X151693740Y-77705000D01*
X151986260Y-77705000D01*
X152273158Y-77647932D01*
X152543411Y-77535990D01*
X152786632Y-77373475D01*
X152993475Y-77166632D01*
X153110000Y-76992240D01*
X153226525Y-77166632D01*
X153433368Y-77373475D01*
X153676589Y-77535990D01*
X153946842Y-77647932D01*
X154233740Y-77705000D01*
X154526260Y-77705000D01*
X154813158Y-77647932D01*
X155083411Y-77535990D01*
X155326632Y-77373475D01*
X155533475Y-77166632D01*
X155650000Y-76992240D01*
X155766525Y-77166632D01*
X155973368Y-77373475D01*
X156216589Y-77535990D01*
X156486842Y-77647932D01*
X156773740Y-77705000D01*
X157066260Y-77705000D01*
X157353158Y-77647932D01*
X157623411Y-77535990D01*
X157866632Y-77373475D01*
X158073475Y-77166632D01*
X158195195Y-76984466D01*
X158264822Y-77101355D01*
X158459731Y-77317588D01*
X158693080Y-77491641D01*
X158955901Y-77616825D01*
X159103110Y-77661476D01*
X159333000Y-77540155D01*
X159333000Y-76347000D01*
X159313000Y-76347000D01*
X159313000Y-76093000D01*
X159333000Y-76093000D01*
X159333000Y-74899845D01*
X159103110Y-74778524D01*
X158955901Y-74823175D01*
X158693080Y-74948359D01*
X158459731Y-75122412D01*
X158264822Y-75338645D01*
X158195195Y-75455534D01*
X158073475Y-75273368D01*
X157866632Y-75066525D01*
X157623411Y-74904010D01*
X157353158Y-74792068D01*
X157066260Y-74735000D01*
X156773740Y-74735000D01*
X156486842Y-74792068D01*
X156216589Y-74904010D01*
X155973368Y-75066525D01*
X155766525Y-75273368D01*
X155650000Y-75447760D01*
X155533475Y-75273368D01*
X155326632Y-75066525D01*
X155083411Y-74904010D01*
X154813158Y-74792068D01*
X154526260Y-74735000D01*
X154233740Y-74735000D01*
X153946842Y-74792068D01*
X153676589Y-74904010D01*
X153433368Y-75066525D01*
X153226525Y-75273368D01*
X153110000Y-75447760D01*
X152993475Y-75273368D01*
X152786632Y-75066525D01*
X152543411Y-74904010D01*
X152273158Y-74792068D01*
X151986260Y-74735000D01*
X151693740Y-74735000D01*
X151406842Y-74792068D01*
X151136589Y-74904010D01*
X150893368Y-75066525D01*
X150686525Y-75273368D01*
X150570000Y-75447760D01*
X150453475Y-75273368D01*
X150246632Y-75066525D01*
X150003411Y-74904010D01*
X149733158Y-74792068D01*
X149446260Y-74735000D01*
X149153740Y-74735000D01*
X148866842Y-74792068D01*
X148596589Y-74904010D01*
X148353368Y-75066525D01*
X148146525Y-75273368D01*
X148030000Y-75447760D01*
X147913475Y-75273368D01*
X147706632Y-75066525D01*
X147463411Y-74904010D01*
X147193158Y-74792068D01*
X146906260Y-74735000D01*
X146613740Y-74735000D01*
X146326842Y-74792068D01*
X146056589Y-74904010D01*
X145813368Y-75066525D01*
X145606525Y-75273368D01*
X145444010Y-75516589D01*
X145332068Y-75786842D01*
X145275000Y-76073740D01*
X132127000Y-76073740D01*
X132127000Y-62355556D01*
X132182795Y-62490256D01*
X132296063Y-62659774D01*
X132440226Y-62803937D01*
X132609744Y-62917205D01*
X132798102Y-62995226D01*
X132998061Y-63035000D01*
X133201939Y-63035000D01*
X133401898Y-62995226D01*
X133590256Y-62917205D01*
X133759774Y-62803937D01*
X133803711Y-62760000D01*
X135385199Y-62760000D01*
X135840001Y-63214803D01*
X135840000Y-65462667D01*
X135840000Y-65462668D01*
X135840001Y-69340000D01*
X134403711Y-69340000D01*
X134359774Y-69296063D01*
X134190256Y-69182795D01*
X134001898Y-69104774D01*
X133801939Y-69065000D01*
X133598061Y-69065000D01*
X133398102Y-69104774D01*
X133209744Y-69182795D01*
X133040226Y-69296063D01*
X132896063Y-69440226D01*
X132782795Y-69609744D01*
X132704774Y-69798102D01*
X132665000Y-69998061D01*
X132665000Y-70201939D01*
X132704774Y-70401898D01*
X132782795Y-70590256D01*
X132896063Y-70759774D01*
X133040226Y-70903937D01*
X133209744Y-71017205D01*
X133398102Y-71095226D01*
X133598061Y-71135000D01*
X133801939Y-71135000D01*
X134001898Y-71095226D01*
X134190256Y-71017205D01*
X134359774Y-70903937D01*
X134403711Y-70860000D01*
X135840000Y-70860000D01*
X135840001Y-73924129D01*
X135782795Y-74009744D01*
X135704774Y-74198102D01*
X135665000Y-74398061D01*
X135665000Y-74601939D01*
X135704774Y-74801898D01*
X135782795Y-74990256D01*
X135896063Y-75159774D01*
X136040226Y-75303937D01*
X136209744Y-75417205D01*
X136398102Y-75495226D01*
X136598061Y-75535000D01*
X136801939Y-75535000D01*
X137001898Y-75495226D01*
X137190256Y-75417205D01*
X137359774Y-75303937D01*
X137503937Y-75159774D01*
X137617205Y-74990256D01*
X137695226Y-74801898D01*
X137735000Y-74601939D01*
X137735000Y-74398061D01*
X137695226Y-74198102D01*
X137617205Y-74009744D01*
X137503937Y-73840226D01*
X137360000Y-73696289D01*
X137360000Y-70237322D01*
X137363676Y-70199999D01*
X137360000Y-70162677D01*
X137360000Y-62937322D01*
X137363676Y-62899999D01*
X137360000Y-62862676D01*
X137360000Y-62862667D01*
X137349003Y-62751014D01*
X137305546Y-62607753D01*
X137234974Y-62475724D01*
X137140001Y-62359999D01*
X137111003Y-62336201D01*
X136263803Y-61489002D01*
X136240001Y-61459999D01*
X136124276Y-61365026D01*
X135992247Y-61294454D01*
X135848986Y-61250997D01*
X135737333Y-61240000D01*
X135737322Y-61240000D01*
X135700000Y-61236324D01*
X135662678Y-61240000D01*
X133803711Y-61240000D01*
X133759774Y-61196063D01*
X133590256Y-61082795D01*
X133401898Y-61004774D01*
X133201939Y-60965000D01*
X132998061Y-60965000D01*
X132798102Y-61004774D01*
X132609744Y-61082795D01*
X132440226Y-61196063D01*
X132296063Y-61340226D01*
X132182795Y-61509744D01*
X132127000Y-61644444D01*
X132127000Y-59127000D01*
X135774164Y-59127000D01*
X135796063Y-59159774D01*
G37*
X135796063Y-59159774D02*
X135940226Y-59303937D01*
X136109744Y-59417205D01*
X136298102Y-59495226D01*
X136498061Y-59535000D01*
X136701939Y-59535000D01*
X136901898Y-59495226D01*
X137090256Y-59417205D01*
X137259774Y-59303937D01*
X137403937Y-59159774D01*
X137425836Y-59127000D01*
X163340001Y-59127000D01*
X163340001Y-59726112D01*
X163301185Y-59678815D01*
X163204494Y-59599463D01*
X163094180Y-59540498D01*
X162974482Y-59504188D01*
X162850000Y-59491928D01*
X161150000Y-59491928D01*
X161025518Y-59504188D01*
X160905820Y-59540498D01*
X160795506Y-59599463D01*
X160698815Y-59678815D01*
X160619463Y-59775506D01*
X160560498Y-59885820D01*
X160538487Y-59958380D01*
X160406632Y-59826525D01*
X160163411Y-59664010D01*
X159893158Y-59552068D01*
X159606260Y-59495000D01*
X159313740Y-59495000D01*
X159026842Y-59552068D01*
X158756589Y-59664010D01*
X158513368Y-59826525D01*
X158306525Y-60033368D01*
X158190000Y-60207760D01*
X158073475Y-60033368D01*
X157866632Y-59826525D01*
X157623411Y-59664010D01*
X157353158Y-59552068D01*
X157066260Y-59495000D01*
X156773740Y-59495000D01*
X156486842Y-59552068D01*
X156216589Y-59664010D01*
X155973368Y-59826525D01*
X155766525Y-60033368D01*
X155650000Y-60207760D01*
X155533475Y-60033368D01*
X155326632Y-59826525D01*
X155083411Y-59664010D01*
X154813158Y-59552068D01*
X154526260Y-59495000D01*
X154233740Y-59495000D01*
X153946842Y-59552068D01*
X153676589Y-59664010D01*
X153433368Y-59826525D01*
X153226525Y-60033368D01*
X153110000Y-60207760D01*
X152993475Y-60033368D01*
X152786632Y-59826525D01*
X152543411Y-59664010D01*
X152273158Y-59552068D01*
X151986260Y-59495000D01*
X151693740Y-59495000D01*
X151406842Y-59552068D01*
X151136589Y-59664010D01*
X150893368Y-59826525D01*
X150686525Y-60033368D01*
X150570000Y-60207760D01*
X150453475Y-60033368D01*
X150246632Y-59826525D01*
X150003411Y-59664010D01*
X149733158Y-59552068D01*
X149446260Y-59495000D01*
X149153740Y-59495000D01*
X148866842Y-59552068D01*
X148596589Y-59664010D01*
X148353368Y-59826525D01*
X148146525Y-60033368D01*
X148030000Y-60207760D01*
X147913475Y-60033368D01*
X147706632Y-59826525D01*
X147463411Y-59664010D01*
X147193158Y-59552068D01*
X146906260Y-59495000D01*
X146613740Y-59495000D01*
X146326842Y-59552068D01*
X146056589Y-59664010D01*
X145813368Y-59826525D01*
X145606525Y-60033368D01*
X145444010Y-60276589D01*
X145332068Y-60546842D01*
X145275000Y-60833740D01*
X145275000Y-61126260D01*
X145332068Y-61413158D01*
X145444010Y-61683411D01*
X145606525Y-61926632D01*
X145813368Y-62133475D01*
X146056589Y-62295990D01*
X146326842Y-62407932D01*
X146613740Y-62465000D01*
X146906260Y-62465000D01*
X147193158Y-62407932D01*
X147463411Y-62295990D01*
X147706632Y-62133475D01*
X147913475Y-61926632D01*
X148030000Y-61752240D01*
X148146525Y-61926632D01*
X148353368Y-62133475D01*
X148596589Y-62295990D01*
X148866842Y-62407932D01*
X149153740Y-62465000D01*
X149446260Y-62465000D01*
X149733158Y-62407932D01*
X150003411Y-62295990D01*
X150246632Y-62133475D01*
X150453475Y-61926632D01*
X150570000Y-61752240D01*
X150686525Y-61926632D01*
X150893368Y-62133475D01*
X151136589Y-62295990D01*
X151406842Y-62407932D01*
X151693740Y-62465000D01*
X151986260Y-62465000D01*
X152273158Y-62407932D01*
X152543411Y-62295990D01*
X152786632Y-62133475D01*
X152993475Y-61926632D01*
X153110000Y-61752240D01*
X153226525Y-61926632D01*
X153433368Y-62133475D01*
X153676589Y-62295990D01*
X153946842Y-62407932D01*
X154233740Y-62465000D01*
X154526260Y-62465000D01*
X154813158Y-62407932D01*
X155083411Y-62295990D01*
X155326632Y-62133475D01*
X155533475Y-61926632D01*
X155650000Y-61752240D01*
X155766525Y-61926632D01*
X155973368Y-62133475D01*
X156216589Y-62295990D01*
X156486842Y-62407932D01*
X156773740Y-62465000D01*
X157066260Y-62465000D01*
X157353158Y-62407932D01*
X157623411Y-62295990D01*
X157866632Y-62133475D01*
X158073475Y-61926632D01*
X158190000Y-61752240D01*
X158306525Y-61926632D01*
X158513368Y-62133475D01*
X158756589Y-62295990D01*
X159026842Y-62407932D01*
X159313740Y-62465000D01*
X159606260Y-62465000D01*
X159893158Y-62407932D01*
X160163411Y-62295990D01*
X160406632Y-62133475D01*
X160538487Y-62001620D01*
X160560498Y-62074180D01*
X160619463Y-62184494D01*
X160698815Y-62281185D01*
X160795506Y-62360537D01*
X160905820Y-62419502D01*
X161025518Y-62455812D01*
X161150000Y-62468072D01*
X162850000Y-62468072D01*
X162974482Y-62455812D01*
X163094180Y-62419502D01*
X163204494Y-62360537D01*
X163301185Y-62281185D01*
X163340001Y-62233888D01*
X163340000Y-74966112D01*
X163301185Y-74918815D01*
X163204494Y-74839463D01*
X163094180Y-74780498D01*
X162974482Y-74744188D01*
X162850000Y-74731928D01*
X161150000Y-74731928D01*
X161025518Y-74744188D01*
X160905820Y-74780498D01*
X160795506Y-74839463D01*
X160698815Y-74918815D01*
X160619463Y-75015506D01*
X160560498Y-75125820D01*
X160536034Y-75206466D01*
X160460269Y-75122412D01*
X160226920Y-74948359D01*
X159964099Y-74823175D01*
X159816890Y-74778524D01*
X159587000Y-74899845D01*
X159587000Y-76093000D01*
X159607000Y-76093000D01*
X159607000Y-76347000D01*
X159587000Y-76347000D01*
X159587000Y-77540155D01*
X159816890Y-77661476D01*
X159964099Y-77616825D01*
X160226920Y-77491641D01*
X160460269Y-77317588D01*
X160536034Y-77233534D01*
X160560498Y-77314180D01*
X160619463Y-77424494D01*
X160698815Y-77521185D01*
X160795506Y-77600537D01*
X160879673Y-77645526D01*
X159385199Y-79140000D01*
X132127000Y-79140000D01*
X132127000Y-76073740D01*
X145275000Y-76073740D01*
X145275000Y-76366260D01*
X145332068Y-76653158D01*
X145444010Y-76923411D01*
X145606525Y-77166632D01*
X145813368Y-77373475D01*
X146056589Y-77535990D01*
X146326842Y-77647932D01*
X146613740Y-77705000D01*
X146906260Y-77705000D01*
X147193158Y-77647932D01*
X147463411Y-77535990D01*
X147706632Y-77373475D01*
X147913475Y-77166632D01*
X148030000Y-76992240D01*
X148146525Y-77166632D01*
X148353368Y-77373475D01*
X148596589Y-77535990D01*
X148866842Y-77647932D01*
X149153740Y-77705000D01*
X149446260Y-77705000D01*
X149733158Y-77647932D01*
X150003411Y-77535990D01*
X150246632Y-77373475D01*
X150453475Y-77166632D01*
X150570000Y-76992240D01*
X150686525Y-77166632D01*
X150893368Y-77373475D01*
X151136589Y-77535990D01*
X151406842Y-77647932D01*
X151693740Y-77705000D01*
X151986260Y-77705000D01*
X152273158Y-77647932D01*
X152543411Y-77535990D01*
X152786632Y-77373475D01*
X152993475Y-77166632D01*
X153110000Y-76992240D01*
X153226525Y-77166632D01*
X153433368Y-77373475D01*
X153676589Y-77535990D01*
X153946842Y-77647932D01*
X154233740Y-77705000D01*
X154526260Y-77705000D01*
X154813158Y-77647932D01*
X155083411Y-77535990D01*
X155326632Y-77373475D01*
X155533475Y-77166632D01*
X155650000Y-76992240D01*
X155766525Y-77166632D01*
X155973368Y-77373475D01*
X156216589Y-77535990D01*
X156486842Y-77647932D01*
X156773740Y-77705000D01*
X157066260Y-77705000D01*
X157353158Y-77647932D01*
X157623411Y-77535990D01*
X157866632Y-77373475D01*
X158073475Y-77166632D01*
X158195195Y-76984466D01*
X158264822Y-77101355D01*
X158459731Y-77317588D01*
X158693080Y-77491641D01*
X158955901Y-77616825D01*
X159103110Y-77661476D01*
X159333000Y-77540155D01*
X159333000Y-76347000D01*
X159313000Y-76347000D01*
X159313000Y-76093000D01*
X159333000Y-76093000D01*
X159333000Y-74899845D01*
X159103110Y-74778524D01*
X158955901Y-74823175D01*
X158693080Y-74948359D01*
X158459731Y-75122412D01*
X158264822Y-75338645D01*
X158195195Y-75455534D01*
X158073475Y-75273368D01*
X157866632Y-75066525D01*
X157623411Y-74904010D01*
X157353158Y-74792068D01*
X157066260Y-74735000D01*
X156773740Y-74735000D01*
X156486842Y-74792068D01*
X156216589Y-74904010D01*
X155973368Y-75066525D01*
X155766525Y-75273368D01*
X155650000Y-75447760D01*
X155533475Y-75273368D01*
X155326632Y-75066525D01*
X155083411Y-74904010D01*
X154813158Y-74792068D01*
X154526260Y-74735000D01*
X154233740Y-74735000D01*
X153946842Y-74792068D01*
X153676589Y-74904010D01*
X153433368Y-75066525D01*
X153226525Y-75273368D01*
X153110000Y-75447760D01*
X152993475Y-75273368D01*
X152786632Y-75066525D01*
X152543411Y-74904010D01*
X152273158Y-74792068D01*
X151986260Y-74735000D01*
X151693740Y-74735000D01*
X151406842Y-74792068D01*
X151136589Y-74904010D01*
X150893368Y-75066525D01*
X150686525Y-75273368D01*
X150570000Y-75447760D01*
X150453475Y-75273368D01*
X150246632Y-75066525D01*
X150003411Y-74904010D01*
X149733158Y-74792068D01*
X149446260Y-74735000D01*
X149153740Y-74735000D01*
X148866842Y-74792068D01*
X148596589Y-74904010D01*
X148353368Y-75066525D01*
X148146525Y-75273368D01*
X148030000Y-75447760D01*
X147913475Y-75273368D01*
X147706632Y-75066525D01*
X147463411Y-74904010D01*
X147193158Y-74792068D01*
X146906260Y-74735000D01*
X146613740Y-74735000D01*
X146326842Y-74792068D01*
X146056589Y-74904010D01*
X145813368Y-75066525D01*
X145606525Y-75273368D01*
X145444010Y-75516589D01*
X145332068Y-75786842D01*
X145275000Y-76073740D01*
X132127000Y-76073740D01*
X132127000Y-62355556D01*
X132182795Y-62490256D01*
X132296063Y-62659774D01*
X132440226Y-62803937D01*
X132609744Y-62917205D01*
X132798102Y-62995226D01*
X132998061Y-63035000D01*
X133201939Y-63035000D01*
X133401898Y-62995226D01*
X133590256Y-62917205D01*
X133759774Y-62803937D01*
X133803711Y-62760000D01*
X135385199Y-62760000D01*
X135840001Y-63214803D01*
X135840000Y-65462667D01*
X135840000Y-65462668D01*
X135840001Y-69340000D01*
X134403711Y-69340000D01*
X134359774Y-69296063D01*
X134190256Y-69182795D01*
X134001898Y-69104774D01*
X133801939Y-69065000D01*
X133598061Y-69065000D01*
X133398102Y-69104774D01*
X133209744Y-69182795D01*
X133040226Y-69296063D01*
X132896063Y-69440226D01*
X132782795Y-69609744D01*
X132704774Y-69798102D01*
X132665000Y-69998061D01*
X132665000Y-70201939D01*
X132704774Y-70401898D01*
X132782795Y-70590256D01*
X132896063Y-70759774D01*
X133040226Y-70903937D01*
X133209744Y-71017205D01*
X133398102Y-71095226D01*
X133598061Y-71135000D01*
X133801939Y-71135000D01*
X134001898Y-71095226D01*
X134190256Y-71017205D01*
X134359774Y-70903937D01*
X134403711Y-70860000D01*
X135840000Y-70860000D01*
X135840001Y-73924129D01*
X135782795Y-74009744D01*
X135704774Y-74198102D01*
X135665000Y-74398061D01*
X135665000Y-74601939D01*
X135704774Y-74801898D01*
X135782795Y-74990256D01*
X135896063Y-75159774D01*
X136040226Y-75303937D01*
X136209744Y-75417205D01*
X136398102Y-75495226D01*
X136598061Y-75535000D01*
X136801939Y-75535000D01*
X137001898Y-75495226D01*
X137190256Y-75417205D01*
X137359774Y-75303937D01*
X137503937Y-75159774D01*
X137617205Y-74990256D01*
X137695226Y-74801898D01*
X137735000Y-74601939D01*
X137735000Y-74398061D01*
X137695226Y-74198102D01*
X137617205Y-74009744D01*
X137503937Y-73840226D01*
X137360000Y-73696289D01*
X137360000Y-70237322D01*
X137363676Y-70199999D01*
X137360000Y-70162677D01*
X137360000Y-62937322D01*
X137363676Y-62899999D01*
X137360000Y-62862676D01*
X137360000Y-62862667D01*
X137349003Y-62751014D01*
X137305546Y-62607753D01*
X137234974Y-62475724D01*
X137140001Y-62359999D01*
X137111003Y-62336201D01*
X136263803Y-61489002D01*
X136240001Y-61459999D01*
X136124276Y-61365026D01*
X135992247Y-61294454D01*
X135848986Y-61250997D01*
X135737333Y-61240000D01*
X135737322Y-61240000D01*
X135700000Y-61236324D01*
X135662678Y-61240000D01*
X133803711Y-61240000D01*
X133759774Y-61196063D01*
X133590256Y-61082795D01*
X133401898Y-61004774D01*
X133201939Y-60965000D01*
X132998061Y-60965000D01*
X132798102Y-61004774D01*
X132609744Y-61082795D01*
X132440226Y-61196063D01*
X132296063Y-61340226D01*
X132182795Y-61509744D01*
X132127000Y-61644444D01*
X132127000Y-59127000D01*
X135774164Y-59127000D01*
X135796063Y-59159774D01*
M02*
