G04 #@! TF.GenerationSoftware,KiCad,Pcbnew,(5.1.5-0)*
G04 #@! TF.CreationDate,2022-06-25T14:07:13-06:00*
G04 #@! TF.ProjectId,DAC_pockel,4441435f-706f-4636-9b65-6c2e6b696361,rev?*
G04 #@! TF.SameCoordinates,Original*
G04 #@! TF.FileFunction,Legend,Top*
G04 #@! TF.FilePolarity,Positive*
%FSLAX46Y46*%
G04 Gerber Fmt 4.6, Leading zero omitted, Abs format (unit mm)*
G04 Created by KiCad (PCBNEW (5.1.5-0)) date 2022-06-25 14:07:13*
%MOMM*%
%LPD*%
G04 APERTURE LIST*
%ADD10C,0.150000*%
%ADD11C,0.254000*%
%ADD12C,0.120000*%
%ADD13C,0.152000*%
%ADD14C,5.102000*%
%ADD15C,1.677000*%
%ADD16R,1.677000X1.677000*%
%ADD17C,0.100000*%
%ADD18O,1.802000X1.802000*%
%ADD19R,1.802000X1.802000*%
%ADD20R,1.002000X0.902000*%
%ADD21R,1.162000X0.752000*%
%ADD22R,1.602000X2.102000*%
%ADD23R,3.902000X2.102000*%
%ADD24R,1.902000X1.502000*%
%ADD25O,1.902000X1.502000*%
%ADD26C,1.342000*%
G04 APERTURE END LIST*
D10*
X103538095Y-57627380D02*
X103538095Y-56627380D01*
X103919047Y-56627380D01*
X104014285Y-56675000D01*
X104061904Y-56722619D01*
X104109523Y-56817857D01*
X104109523Y-56960714D01*
X104061904Y-57055952D01*
X104014285Y-57103571D01*
X103919047Y-57151190D01*
X103538095Y-57151190D01*
X104680952Y-57627380D02*
X104585714Y-57579761D01*
X104538095Y-57532142D01*
X104490476Y-57436904D01*
X104490476Y-57151190D01*
X104538095Y-57055952D01*
X104585714Y-57008333D01*
X104680952Y-56960714D01*
X104823809Y-56960714D01*
X104919047Y-57008333D01*
X104966666Y-57055952D01*
X105014285Y-57151190D01*
X105014285Y-57436904D01*
X104966666Y-57532142D01*
X104919047Y-57579761D01*
X104823809Y-57627380D01*
X104680952Y-57627380D01*
X105871428Y-57579761D02*
X105776190Y-57627380D01*
X105585714Y-57627380D01*
X105490476Y-57579761D01*
X105442857Y-57532142D01*
X105395238Y-57436904D01*
X105395238Y-57151190D01*
X105442857Y-57055952D01*
X105490476Y-57008333D01*
X105585714Y-56960714D01*
X105776190Y-56960714D01*
X105871428Y-57008333D01*
X106300000Y-57627380D02*
X106300000Y-56627380D01*
X106395238Y-57246428D02*
X106680952Y-57627380D01*
X106680952Y-56960714D02*
X106300000Y-57341666D01*
X107490476Y-57579761D02*
X107395238Y-57627380D01*
X107204761Y-57627380D01*
X107109523Y-57579761D01*
X107061904Y-57484523D01*
X107061904Y-57103571D01*
X107109523Y-57008333D01*
X107204761Y-56960714D01*
X107395238Y-56960714D01*
X107490476Y-57008333D01*
X107538095Y-57103571D01*
X107538095Y-57198809D01*
X107061904Y-57294047D01*
X108109523Y-57627380D02*
X108014285Y-57579761D01*
X107966666Y-57484523D01*
X107966666Y-56627380D01*
X109823809Y-57532142D02*
X109776190Y-57579761D01*
X109633333Y-57627380D01*
X109538095Y-57627380D01*
X109395238Y-57579761D01*
X109300000Y-57484523D01*
X109252380Y-57389285D01*
X109204761Y-57198809D01*
X109204761Y-57055952D01*
X109252380Y-56865476D01*
X109300000Y-56770238D01*
X109395238Y-56675000D01*
X109538095Y-56627380D01*
X109633333Y-56627380D01*
X109776190Y-56675000D01*
X109823809Y-56722619D01*
X110633333Y-57579761D02*
X110538095Y-57627380D01*
X110347619Y-57627380D01*
X110252380Y-57579761D01*
X110204761Y-57484523D01*
X110204761Y-57103571D01*
X110252380Y-57008333D01*
X110347619Y-56960714D01*
X110538095Y-56960714D01*
X110633333Y-57008333D01*
X110680952Y-57103571D01*
X110680952Y-57198809D01*
X110204761Y-57294047D01*
X111252380Y-57627380D02*
X111157142Y-57579761D01*
X111109523Y-57484523D01*
X111109523Y-56627380D01*
X111776190Y-57627380D02*
X111680952Y-57579761D01*
X111633333Y-57484523D01*
X111633333Y-56627380D01*
X112919047Y-57627380D02*
X112919047Y-56960714D01*
X112919047Y-56627380D02*
X112871428Y-56675000D01*
X112919047Y-56722619D01*
X112966666Y-56675000D01*
X112919047Y-56627380D01*
X112919047Y-56722619D01*
X113395238Y-56960714D02*
X113395238Y-57627380D01*
X113395238Y-57055952D02*
X113442857Y-57008333D01*
X113538095Y-56960714D01*
X113680952Y-56960714D01*
X113776190Y-57008333D01*
X113823809Y-57103571D01*
X113823809Y-57627380D01*
X114157142Y-56960714D02*
X114538095Y-56960714D01*
X114300000Y-56627380D02*
X114300000Y-57484523D01*
X114347619Y-57579761D01*
X114442857Y-57627380D01*
X114538095Y-57627380D01*
X115252380Y-57579761D02*
X115157142Y-57627380D01*
X114966666Y-57627380D01*
X114871428Y-57579761D01*
X114823809Y-57484523D01*
X114823809Y-57103571D01*
X114871428Y-57008333D01*
X114966666Y-56960714D01*
X115157142Y-56960714D01*
X115252380Y-57008333D01*
X115300000Y-57103571D01*
X115300000Y-57198809D01*
X114823809Y-57294047D01*
X115728571Y-57627380D02*
X115728571Y-56960714D01*
X115728571Y-57151190D02*
X115776190Y-57055952D01*
X115823809Y-57008333D01*
X115919047Y-56960714D01*
X116014285Y-56960714D01*
X116204761Y-56960714D02*
X116585714Y-56960714D01*
X116347619Y-57627380D02*
X116347619Y-56770238D01*
X116395238Y-56675000D01*
X116490476Y-56627380D01*
X116585714Y-56627380D01*
X117347619Y-57627380D02*
X117347619Y-57103571D01*
X117300000Y-57008333D01*
X117204761Y-56960714D01*
X117014285Y-56960714D01*
X116919047Y-57008333D01*
X117347619Y-57579761D02*
X117252380Y-57627380D01*
X117014285Y-57627380D01*
X116919047Y-57579761D01*
X116871428Y-57484523D01*
X116871428Y-57389285D01*
X116919047Y-57294047D01*
X117014285Y-57246428D01*
X117252380Y-57246428D01*
X117347619Y-57198809D01*
X118252380Y-57579761D02*
X118157142Y-57627380D01*
X117966666Y-57627380D01*
X117871428Y-57579761D01*
X117823809Y-57532142D01*
X117776190Y-57436904D01*
X117776190Y-57151190D01*
X117823809Y-57055952D01*
X117871428Y-57008333D01*
X117966666Y-56960714D01*
X118157142Y-56960714D01*
X118252380Y-57008333D01*
X119061904Y-57579761D02*
X118966666Y-57627380D01*
X118776190Y-57627380D01*
X118680952Y-57579761D01*
X118633333Y-57484523D01*
X118633333Y-57103571D01*
X118680952Y-57008333D01*
X118776190Y-56960714D01*
X118966666Y-56960714D01*
X119061904Y-57008333D01*
X119109523Y-57103571D01*
X119109523Y-57198809D01*
X118633333Y-57294047D01*
X109061904Y-58277380D02*
X108871428Y-58277380D01*
X108776190Y-58325000D01*
X108728571Y-58372619D01*
X108633333Y-58515476D01*
X108585714Y-58705952D01*
X108585714Y-59086904D01*
X108633333Y-59182142D01*
X108680952Y-59229761D01*
X108776190Y-59277380D01*
X108966666Y-59277380D01*
X109061904Y-59229761D01*
X109109523Y-59182142D01*
X109157142Y-59086904D01*
X109157142Y-58848809D01*
X109109523Y-58753571D01*
X109061904Y-58705952D01*
X108966666Y-58658333D01*
X108776190Y-58658333D01*
X108680952Y-58705952D01*
X108633333Y-58753571D01*
X108585714Y-58848809D01*
X110300000Y-58229761D02*
X109442857Y-59515476D01*
X110585714Y-58372619D02*
X110633333Y-58325000D01*
X110728571Y-58277380D01*
X110966666Y-58277380D01*
X111061904Y-58325000D01*
X111109523Y-58372619D01*
X111157142Y-58467857D01*
X111157142Y-58563095D01*
X111109523Y-58705952D01*
X110538095Y-59277380D01*
X111157142Y-59277380D01*
X111776190Y-58277380D02*
X111871428Y-58277380D01*
X111966666Y-58325000D01*
X112014285Y-58372619D01*
X112061904Y-58467857D01*
X112109523Y-58658333D01*
X112109523Y-58896428D01*
X112061904Y-59086904D01*
X112014285Y-59182142D01*
X111966666Y-59229761D01*
X111871428Y-59277380D01*
X111776190Y-59277380D01*
X111680952Y-59229761D01*
X111633333Y-59182142D01*
X111585714Y-59086904D01*
X111538095Y-58896428D01*
X111538095Y-58658333D01*
X111585714Y-58467857D01*
X111633333Y-58372619D01*
X111680952Y-58325000D01*
X111776190Y-58277380D01*
X112490476Y-58372619D02*
X112538095Y-58325000D01*
X112633333Y-58277380D01*
X112871428Y-58277380D01*
X112966666Y-58325000D01*
X113014285Y-58372619D01*
X113061904Y-58467857D01*
X113061904Y-58563095D01*
X113014285Y-58705952D01*
X112442857Y-59277380D01*
X113061904Y-59277380D01*
X113442857Y-58372619D02*
X113490476Y-58325000D01*
X113585714Y-58277380D01*
X113823809Y-58277380D01*
X113919047Y-58325000D01*
X113966666Y-58372619D01*
X114014285Y-58467857D01*
X114014285Y-58563095D01*
X113966666Y-58705952D01*
X113395238Y-59277380D01*
X114014285Y-59277380D01*
D11*
X88100000Y-53930000D02*
X82100000Y-53930000D01*
X82100000Y-58070000D02*
X88100000Y-58070000D01*
X82100000Y-53960000D02*
X82100000Y-58070000D01*
X82100000Y-83070000D02*
X82100000Y-78960000D01*
X88100000Y-83070000D02*
X82100000Y-83070000D01*
X88100000Y-78930000D02*
X82100000Y-78930000D01*
X82100000Y-60120000D02*
X88100000Y-60120000D01*
X82100000Y-76870000D02*
X82100000Y-60120000D01*
X88100000Y-76870000D02*
X82100000Y-76870000D01*
X82820000Y-68495000D02*
X82120000Y-68495000D01*
X88100000Y-83900000D02*
X88100000Y-53100000D01*
X100600000Y-83900000D02*
X88100000Y-83900000D01*
X100600000Y-53100000D02*
X100600000Y-83900000D01*
X88100000Y-53100000D02*
X100600000Y-53100000D01*
D12*
X138290000Y-59940000D02*
X138290000Y-56060000D01*
X141410000Y-54890000D02*
X141410000Y-55940000D01*
X140260000Y-54890000D02*
X141410000Y-54890000D01*
X141410000Y-60060000D02*
X142400000Y-60060000D01*
X141410000Y-61110000D02*
X141410000Y-60060000D01*
X140260000Y-61110000D02*
X141410000Y-61110000D01*
X125310000Y-66871267D02*
X125310000Y-66528733D01*
X124290000Y-66871267D02*
X124290000Y-66528733D01*
X134128733Y-69510000D02*
X134471267Y-69510000D01*
X134128733Y-68490000D02*
X134471267Y-68490000D01*
X131400000Y-67860000D02*
X134850000Y-67860000D01*
X131400000Y-67860000D02*
X129450000Y-67860000D01*
X131400000Y-62740000D02*
X133350000Y-62740000D01*
X131400000Y-62740000D02*
X129450000Y-62740000D01*
X163330000Y-76220000D02*
X163330000Y-77550000D01*
X163330000Y-77550000D02*
X162000000Y-77550000D01*
X160730000Y-77550000D02*
X145430000Y-77550000D01*
X145430000Y-74890000D02*
X145430000Y-77550000D01*
X160730000Y-74890000D02*
X145430000Y-74890000D01*
X160730000Y-74890000D02*
X160730000Y-77550000D01*
X163330000Y-60980000D02*
X163330000Y-62310000D01*
X163330000Y-62310000D02*
X162000000Y-62310000D01*
X160730000Y-62310000D02*
X145430000Y-62310000D01*
X145430000Y-59650000D02*
X145430000Y-62310000D01*
X160730000Y-59650000D02*
X145430000Y-59650000D01*
X160730000Y-59650000D02*
X160730000Y-62310000D01*
X131100000Y-59660000D02*
X134550000Y-59660000D01*
X131100000Y-59660000D02*
X129150000Y-59660000D01*
X131100000Y-54540000D02*
X133050000Y-54540000D01*
X131100000Y-54540000D02*
X129150000Y-54540000D01*
X127628733Y-69610000D02*
X127971267Y-69610000D01*
X127628733Y-68590000D02*
X127971267Y-68590000D01*
X110660000Y-81280000D02*
X109200000Y-81280000D01*
X110660000Y-78120000D02*
X108500000Y-78120000D01*
X110660000Y-78120000D02*
X110660000Y-79050000D01*
X110660000Y-81280000D02*
X110660000Y-80350000D01*
X106950000Y-82010000D02*
X104500000Y-82010000D01*
X105150000Y-85230000D02*
X106950000Y-85230000D01*
X109728733Y-83110000D02*
X110071267Y-83110000D01*
X109728733Y-82090000D02*
X110071267Y-82090000D01*
X105628733Y-87010000D02*
X105971267Y-87010000D01*
X105628733Y-85990000D02*
X105971267Y-85990000D01*
X117610000Y-76571267D02*
X117610000Y-76228733D01*
X116590000Y-76571267D02*
X116590000Y-76228733D01*
X118540000Y-77910000D02*
X122750000Y-77910000D01*
X118540000Y-74890000D02*
X118540000Y-77910000D01*
X122750000Y-74890000D02*
X118540000Y-74890000D01*
X116690000Y-87200000D02*
X116690000Y-81190000D01*
X123510000Y-84950000D02*
X123510000Y-81190000D01*
X116690000Y-81190000D02*
X117950000Y-81190000D01*
X123510000Y-81190000D02*
X122250000Y-81190000D01*
X114571267Y-87310000D02*
X114228733Y-87310000D01*
X114571267Y-86290000D02*
X114228733Y-86290000D01*
X118310000Y-88165000D02*
X114400000Y-88165000D01*
X118310000Y-90035000D02*
X118310000Y-88165000D01*
X114400000Y-90035000D02*
X118310000Y-90035000D01*
X123410000Y-88165000D02*
X119500000Y-88165000D01*
X123410000Y-90035000D02*
X123410000Y-88165000D01*
X119500000Y-90035000D02*
X123410000Y-90035000D01*
X127910000Y-84502064D02*
X127910000Y-83297936D01*
X126090000Y-84502064D02*
X126090000Y-83297936D01*
X131300000Y-75660000D02*
X134750000Y-75660000D01*
X131300000Y-75660000D02*
X129350000Y-75660000D01*
X131300000Y-70540000D02*
X133250000Y-70540000D01*
X131300000Y-70540000D02*
X129350000Y-70540000D01*
X127728733Y-77610000D02*
X128071267Y-77610000D01*
X127728733Y-76590000D02*
X128071267Y-76590000D01*
X134628733Y-77510000D02*
X134971267Y-77510000D01*
X134628733Y-76490000D02*
X134971267Y-76490000D01*
X127528733Y-61210000D02*
X127871267Y-61210000D01*
X127528733Y-60190000D02*
X127871267Y-60190000D01*
X133728733Y-61210000D02*
X134071267Y-61210000D01*
X133728733Y-60190000D02*
X134071267Y-60190000D01*
X129510000Y-88571267D02*
X129510000Y-88228733D01*
X128490000Y-88571267D02*
X128490000Y-88228733D01*
X126760000Y-89980000D02*
X125300000Y-89980000D01*
X126760000Y-86820000D02*
X124600000Y-86820000D01*
X126760000Y-86820000D02*
X126760000Y-87750000D01*
X126760000Y-89980000D02*
X126760000Y-89050000D01*
X136550000Y-79130000D02*
X136550000Y-80330000D01*
X137750000Y-79130000D02*
X136550000Y-79130000D01*
X143090000Y-91100000D02*
X136750000Y-91100000D01*
X136750000Y-79330000D02*
X136750000Y-91100000D01*
X143090000Y-79330000D02*
X136750000Y-79330000D01*
X143090000Y-79330000D02*
X143090000Y-91100000D01*
X134202064Y-82140000D02*
X132997936Y-82140000D01*
X134202064Y-84860000D02*
X132997936Y-84860000D01*
X126700000Y-92600000D02*
X125300000Y-92600000D01*
X124600000Y-91900000D02*
X124600000Y-91300000D01*
X125300000Y-90600000D02*
X126700000Y-90600000D01*
X127400000Y-91300000D02*
X127400000Y-91900000D01*
X127400000Y-91900000D02*
G75*
G02X126700000Y-92600000I-700000J0D01*
G01*
X126700000Y-90600000D02*
G75*
G02X127400000Y-91300000I0J-700000D01*
G01*
X124600000Y-91300000D02*
G75*
G02X125300000Y-90600000I700000J0D01*
G01*
X125300000Y-92600000D02*
G75*
G02X124600000Y-91900000I0J700000D01*
G01*
X108270000Y-89480000D02*
X108270000Y-90720000D01*
X104530000Y-89480000D02*
X104530000Y-90720000D01*
X107020000Y-91970000D02*
X105780000Y-91970000D01*
X107020000Y-88230000D02*
X105780000Y-88230000D01*
X121871267Y-90590000D02*
X121528733Y-90590000D01*
X121871267Y-91610000D02*
X121528733Y-91610000D01*
X130290000Y-87203733D02*
X130290000Y-87546267D01*
X131310000Y-87203733D02*
X131310000Y-87546267D01*
X132190000Y-87228733D02*
X132190000Y-87571267D01*
X133210000Y-87228733D02*
X133210000Y-87571267D01*
X135810000Y-88602064D02*
X135810000Y-87397936D01*
X133990000Y-88602064D02*
X133990000Y-87397936D01*
X133197936Y-80910000D02*
X134402064Y-80910000D01*
X133197936Y-79090000D02*
X134402064Y-79090000D01*
X110071267Y-76290000D02*
X109728733Y-76290000D01*
X110071267Y-77310000D02*
X109728733Y-77310000D01*
D13*
X95297514Y-84574071D02*
X95297514Y-85390500D01*
X95243085Y-85553785D01*
X95134228Y-85662642D01*
X94970942Y-85717071D01*
X94862085Y-85717071D01*
X96440514Y-85717071D02*
X95787371Y-85717071D01*
X96113942Y-85717071D02*
X96113942Y-84574071D01*
X96005085Y-84737357D01*
X95896228Y-84846214D01*
X95787371Y-84900642D01*
D10*
X136452380Y-58333333D02*
X137166666Y-58333333D01*
X137309523Y-58380952D01*
X137404761Y-58476190D01*
X137452380Y-58619047D01*
X137452380Y-58714285D01*
X136452380Y-57428571D02*
X136452380Y-57619047D01*
X136500000Y-57714285D01*
X136547619Y-57761904D01*
X136690476Y-57857142D01*
X136880952Y-57904761D01*
X137261904Y-57904761D01*
X137357142Y-57857142D01*
X137404761Y-57809523D01*
X137452380Y-57714285D01*
X137452380Y-57523809D01*
X137404761Y-57428571D01*
X137357142Y-57380952D01*
X137261904Y-57333333D01*
X137023809Y-57333333D01*
X136928571Y-57380952D01*
X136880952Y-57428571D01*
X136833333Y-57523809D01*
X136833333Y-57714285D01*
X136880952Y-57809523D01*
X136928571Y-57857142D01*
X137023809Y-57904761D01*
X123822380Y-66866666D02*
X123346190Y-67200000D01*
X123822380Y-67438095D02*
X122822380Y-67438095D01*
X122822380Y-67057142D01*
X122870000Y-66961904D01*
X122917619Y-66914285D01*
X123012857Y-66866666D01*
X123155714Y-66866666D01*
X123250952Y-66914285D01*
X123298571Y-66961904D01*
X123346190Y-67057142D01*
X123346190Y-67438095D01*
X122822380Y-66533333D02*
X122822380Y-65914285D01*
X123203333Y-66247619D01*
X123203333Y-66104761D01*
X123250952Y-66009523D01*
X123298571Y-65961904D01*
X123393809Y-65914285D01*
X123631904Y-65914285D01*
X123727142Y-65961904D01*
X123774761Y-66009523D01*
X123822380Y-66104761D01*
X123822380Y-66390476D01*
X123774761Y-66485714D01*
X123727142Y-66533333D01*
X137057142Y-69457142D02*
X137009523Y-69504761D01*
X136866666Y-69552380D01*
X136771428Y-69552380D01*
X136628571Y-69504761D01*
X136533333Y-69409523D01*
X136485714Y-69314285D01*
X136438095Y-69123809D01*
X136438095Y-68980952D01*
X136485714Y-68790476D01*
X136533333Y-68695238D01*
X136628571Y-68600000D01*
X136771428Y-68552380D01*
X136866666Y-68552380D01*
X137009523Y-68600000D01*
X137057142Y-68647619D01*
X138009523Y-69552380D02*
X137438095Y-69552380D01*
X137723809Y-69552380D02*
X137723809Y-68552380D01*
X137628571Y-68695238D01*
X137533333Y-68790476D01*
X137438095Y-68838095D01*
X138866666Y-68552380D02*
X138676190Y-68552380D01*
X138580952Y-68600000D01*
X138533333Y-68647619D01*
X138438095Y-68790476D01*
X138390476Y-68980952D01*
X138390476Y-69361904D01*
X138438095Y-69457142D01*
X138485714Y-69504761D01*
X138580952Y-69552380D01*
X138771428Y-69552380D01*
X138866666Y-69504761D01*
X138914285Y-69457142D01*
X138961904Y-69361904D01*
X138961904Y-69123809D01*
X138914285Y-69028571D01*
X138866666Y-68980952D01*
X138771428Y-68933333D01*
X138580952Y-68933333D01*
X138485714Y-68980952D01*
X138438095Y-69028571D01*
X138390476Y-69123809D01*
X130638095Y-68152380D02*
X130638095Y-68961904D01*
X130685714Y-69057142D01*
X130733333Y-69104761D01*
X130828571Y-69152380D01*
X131019047Y-69152380D01*
X131114285Y-69104761D01*
X131161904Y-69057142D01*
X131209523Y-68961904D01*
X131209523Y-68152380D01*
X132114285Y-68152380D02*
X131923809Y-68152380D01*
X131828571Y-68200000D01*
X131780952Y-68247619D01*
X131685714Y-68390476D01*
X131638095Y-68580952D01*
X131638095Y-68961904D01*
X131685714Y-69057142D01*
X131733333Y-69104761D01*
X131828571Y-69152380D01*
X132019047Y-69152380D01*
X132114285Y-69104761D01*
X132161904Y-69057142D01*
X132209523Y-68961904D01*
X132209523Y-68723809D01*
X132161904Y-68628571D01*
X132114285Y-68580952D01*
X132019047Y-68533333D01*
X131828571Y-68533333D01*
X131733333Y-68580952D01*
X131685714Y-68628571D01*
X131638095Y-68723809D01*
X164222380Y-76553333D02*
X164936666Y-76553333D01*
X165079523Y-76600952D01*
X165174761Y-76696190D01*
X165222380Y-76839047D01*
X165222380Y-76934285D01*
X164222380Y-76172380D02*
X164222380Y-75553333D01*
X164603333Y-75886666D01*
X164603333Y-75743809D01*
X164650952Y-75648571D01*
X164698571Y-75600952D01*
X164793809Y-75553333D01*
X165031904Y-75553333D01*
X165127142Y-75600952D01*
X165174761Y-75648571D01*
X165222380Y-75743809D01*
X165222380Y-76029523D01*
X165174761Y-76124761D01*
X165127142Y-76172380D01*
X164222380Y-61313333D02*
X164936666Y-61313333D01*
X165079523Y-61360952D01*
X165174761Y-61456190D01*
X165222380Y-61599047D01*
X165222380Y-61694285D01*
X164317619Y-60884761D02*
X164270000Y-60837142D01*
X164222380Y-60741904D01*
X164222380Y-60503809D01*
X164270000Y-60408571D01*
X164317619Y-60360952D01*
X164412857Y-60313333D01*
X164508095Y-60313333D01*
X164650952Y-60360952D01*
X165222380Y-60932380D01*
X165222380Y-60313333D01*
X130123809Y-60952380D02*
X130123809Y-59952380D01*
X131171428Y-60857142D02*
X131123809Y-60904761D01*
X130980952Y-60952380D01*
X130885714Y-60952380D01*
X130742857Y-60904761D01*
X130647619Y-60809523D01*
X130600000Y-60714285D01*
X130552380Y-60523809D01*
X130552380Y-60380952D01*
X130600000Y-60190476D01*
X130647619Y-60095238D01*
X130742857Y-60000000D01*
X130885714Y-59952380D01*
X130980952Y-59952380D01*
X131123809Y-60000000D01*
X131171428Y-60047619D01*
X132123809Y-60952380D02*
X131552380Y-60952380D01*
X131838095Y-60952380D02*
X131838095Y-59952380D01*
X131742857Y-60095238D01*
X131647619Y-60190476D01*
X131552380Y-60238095D01*
X123757142Y-69557142D02*
X123709523Y-69604761D01*
X123566666Y-69652380D01*
X123471428Y-69652380D01*
X123328571Y-69604761D01*
X123233333Y-69509523D01*
X123185714Y-69414285D01*
X123138095Y-69223809D01*
X123138095Y-69080952D01*
X123185714Y-68890476D01*
X123233333Y-68795238D01*
X123328571Y-68700000D01*
X123471428Y-68652380D01*
X123566666Y-68652380D01*
X123709523Y-68700000D01*
X123757142Y-68747619D01*
X124709523Y-69652380D02*
X124138095Y-69652380D01*
X124423809Y-69652380D02*
X124423809Y-68652380D01*
X124328571Y-68795238D01*
X124233333Y-68890476D01*
X124138095Y-68938095D01*
X125042857Y-68652380D02*
X125709523Y-68652380D01*
X125280952Y-69652380D01*
X106138095Y-77852380D02*
X106138095Y-78661904D01*
X106185714Y-78757142D01*
X106233333Y-78804761D01*
X106328571Y-78852380D01*
X106519047Y-78852380D01*
X106614285Y-78804761D01*
X106661904Y-78757142D01*
X106709523Y-78661904D01*
X106709523Y-77852380D01*
X107661904Y-77852380D02*
X107185714Y-77852380D01*
X107138095Y-78328571D01*
X107185714Y-78280952D01*
X107280952Y-78233333D01*
X107519047Y-78233333D01*
X107614285Y-78280952D01*
X107661904Y-78328571D01*
X107709523Y-78423809D01*
X107709523Y-78661904D01*
X107661904Y-78757142D01*
X107614285Y-78804761D01*
X107519047Y-78852380D01*
X107280952Y-78852380D01*
X107185714Y-78804761D01*
X107138095Y-78757142D01*
X105288095Y-80172380D02*
X105288095Y-80981904D01*
X105335714Y-81077142D01*
X105383333Y-81124761D01*
X105478571Y-81172380D01*
X105669047Y-81172380D01*
X105764285Y-81124761D01*
X105811904Y-81077142D01*
X105859523Y-80981904D01*
X105859523Y-80172380D01*
X106240476Y-80172380D02*
X106859523Y-80172380D01*
X106526190Y-80553333D01*
X106669047Y-80553333D01*
X106764285Y-80600952D01*
X106811904Y-80648571D01*
X106859523Y-80743809D01*
X106859523Y-80981904D01*
X106811904Y-81077142D01*
X106764285Y-81124761D01*
X106669047Y-81172380D01*
X106383333Y-81172380D01*
X106288095Y-81124761D01*
X106240476Y-81077142D01*
X112657142Y-82957142D02*
X112609523Y-83004761D01*
X112466666Y-83052380D01*
X112371428Y-83052380D01*
X112228571Y-83004761D01*
X112133333Y-82909523D01*
X112085714Y-82814285D01*
X112038095Y-82623809D01*
X112038095Y-82480952D01*
X112085714Y-82290476D01*
X112133333Y-82195238D01*
X112228571Y-82100000D01*
X112371428Y-82052380D01*
X112466666Y-82052380D01*
X112609523Y-82100000D01*
X112657142Y-82147619D01*
X113609523Y-83052380D02*
X113038095Y-83052380D01*
X113323809Y-83052380D02*
X113323809Y-82052380D01*
X113228571Y-82195238D01*
X113133333Y-82290476D01*
X113038095Y-82338095D01*
X114514285Y-82052380D02*
X114038095Y-82052380D01*
X113990476Y-82528571D01*
X114038095Y-82480952D01*
X114133333Y-82433333D01*
X114371428Y-82433333D01*
X114466666Y-82480952D01*
X114514285Y-82528571D01*
X114561904Y-82623809D01*
X114561904Y-82861904D01*
X114514285Y-82957142D01*
X114466666Y-83004761D01*
X114371428Y-83052380D01*
X114133333Y-83052380D01*
X114038095Y-83004761D01*
X113990476Y-82957142D01*
X108457142Y-86857142D02*
X108409523Y-86904761D01*
X108266666Y-86952380D01*
X108171428Y-86952380D01*
X108028571Y-86904761D01*
X107933333Y-86809523D01*
X107885714Y-86714285D01*
X107838095Y-86523809D01*
X107838095Y-86380952D01*
X107885714Y-86190476D01*
X107933333Y-86095238D01*
X108028571Y-86000000D01*
X108171428Y-85952380D01*
X108266666Y-85952380D01*
X108409523Y-86000000D01*
X108457142Y-86047619D01*
X109409523Y-86952380D02*
X108838095Y-86952380D01*
X109123809Y-86952380D02*
X109123809Y-85952380D01*
X109028571Y-86095238D01*
X108933333Y-86190476D01*
X108838095Y-86238095D01*
X110266666Y-86285714D02*
X110266666Y-86952380D01*
X110028571Y-85904761D02*
X109790476Y-86619047D01*
X110409523Y-86619047D01*
X116027142Y-76566666D02*
X116074761Y-76614285D01*
X116122380Y-76757142D01*
X116122380Y-76852380D01*
X116074761Y-76995238D01*
X115979523Y-77090476D01*
X115884285Y-77138095D01*
X115693809Y-77185714D01*
X115550952Y-77185714D01*
X115360476Y-77138095D01*
X115265238Y-77090476D01*
X115170000Y-76995238D01*
X115122380Y-76852380D01*
X115122380Y-76757142D01*
X115170000Y-76614285D01*
X115217619Y-76566666D01*
X116122380Y-76090476D02*
X116122380Y-75900000D01*
X116074761Y-75804761D01*
X116027142Y-75757142D01*
X115884285Y-75661904D01*
X115693809Y-75614285D01*
X115312857Y-75614285D01*
X115217619Y-75661904D01*
X115170000Y-75709523D01*
X115122380Y-75804761D01*
X115122380Y-75995238D01*
X115170000Y-76090476D01*
X115217619Y-76138095D01*
X115312857Y-76185714D01*
X115550952Y-76185714D01*
X115646190Y-76138095D01*
X115693809Y-76090476D01*
X115741428Y-75995238D01*
X115741428Y-75804761D01*
X115693809Y-75709523D01*
X115646190Y-75661904D01*
X115550952Y-75614285D01*
X120833333Y-74457142D02*
X120785714Y-74504761D01*
X120642857Y-74552380D01*
X120547619Y-74552380D01*
X120404761Y-74504761D01*
X120309523Y-74409523D01*
X120261904Y-74314285D01*
X120214285Y-74123809D01*
X120214285Y-73980952D01*
X120261904Y-73790476D01*
X120309523Y-73695238D01*
X120404761Y-73600000D01*
X120547619Y-73552380D01*
X120642857Y-73552380D01*
X120785714Y-73600000D01*
X120833333Y-73647619D01*
X121690476Y-73552380D02*
X121500000Y-73552380D01*
X121404761Y-73600000D01*
X121357142Y-73647619D01*
X121261904Y-73790476D01*
X121214285Y-73980952D01*
X121214285Y-74361904D01*
X121261904Y-74457142D01*
X121309523Y-74504761D01*
X121404761Y-74552380D01*
X121595238Y-74552380D01*
X121690476Y-74504761D01*
X121738095Y-74457142D01*
X121785714Y-74361904D01*
X121785714Y-74123809D01*
X121738095Y-74028571D01*
X121690476Y-73980952D01*
X121595238Y-73933333D01*
X121404761Y-73933333D01*
X121309523Y-73980952D01*
X121261904Y-74028571D01*
X121214285Y-74123809D01*
X115052380Y-83861904D02*
X115861904Y-83861904D01*
X115957142Y-83814285D01*
X116004761Y-83766666D01*
X116052380Y-83671428D01*
X116052380Y-83480952D01*
X116004761Y-83385714D01*
X115957142Y-83338095D01*
X115861904Y-83290476D01*
X115052380Y-83290476D01*
X115147619Y-82861904D02*
X115100000Y-82814285D01*
X115052380Y-82719047D01*
X115052380Y-82480952D01*
X115100000Y-82385714D01*
X115147619Y-82338095D01*
X115242857Y-82290476D01*
X115338095Y-82290476D01*
X115480952Y-82338095D01*
X116052380Y-82909523D01*
X116052380Y-82290476D01*
X111533333Y-87252380D02*
X111200000Y-86776190D01*
X110961904Y-87252380D02*
X110961904Y-86252380D01*
X111342857Y-86252380D01*
X111438095Y-86300000D01*
X111485714Y-86347619D01*
X111533333Y-86442857D01*
X111533333Y-86585714D01*
X111485714Y-86680952D01*
X111438095Y-86728571D01*
X111342857Y-86776190D01*
X110961904Y-86776190D01*
X111914285Y-86347619D02*
X111961904Y-86300000D01*
X112057142Y-86252380D01*
X112295238Y-86252380D01*
X112390476Y-86300000D01*
X112438095Y-86347619D01*
X112485714Y-86442857D01*
X112485714Y-86538095D01*
X112438095Y-86680952D01*
X111866666Y-87252380D01*
X112485714Y-87252380D01*
X111457142Y-89757142D02*
X111409523Y-89804761D01*
X111266666Y-89852380D01*
X111171428Y-89852380D01*
X111028571Y-89804761D01*
X110933333Y-89709523D01*
X110885714Y-89614285D01*
X110838095Y-89423809D01*
X110838095Y-89280952D01*
X110885714Y-89090476D01*
X110933333Y-88995238D01*
X111028571Y-88900000D01*
X111171428Y-88852380D01*
X111266666Y-88852380D01*
X111409523Y-88900000D01*
X111457142Y-88947619D01*
X112409523Y-89852380D02*
X111838095Y-89852380D01*
X112123809Y-89852380D02*
X112123809Y-88852380D01*
X112028571Y-88995238D01*
X111933333Y-89090476D01*
X111838095Y-89138095D01*
X112742857Y-88852380D02*
X113361904Y-88852380D01*
X113028571Y-89233333D01*
X113171428Y-89233333D01*
X113266666Y-89280952D01*
X113314285Y-89328571D01*
X113361904Y-89423809D01*
X113361904Y-89661904D01*
X113314285Y-89757142D01*
X113266666Y-89804761D01*
X113171428Y-89852380D01*
X112885714Y-89852380D01*
X112790476Y-89804761D01*
X112742857Y-89757142D01*
X118057142Y-91257142D02*
X118009523Y-91304761D01*
X117866666Y-91352380D01*
X117771428Y-91352380D01*
X117628571Y-91304761D01*
X117533333Y-91209523D01*
X117485714Y-91114285D01*
X117438095Y-90923809D01*
X117438095Y-90780952D01*
X117485714Y-90590476D01*
X117533333Y-90495238D01*
X117628571Y-90400000D01*
X117771428Y-90352380D01*
X117866666Y-90352380D01*
X118009523Y-90400000D01*
X118057142Y-90447619D01*
X119009523Y-91352380D02*
X118438095Y-91352380D01*
X118723809Y-91352380D02*
X118723809Y-90352380D01*
X118628571Y-90495238D01*
X118533333Y-90590476D01*
X118438095Y-90638095D01*
X119628571Y-90352380D02*
X119723809Y-90352380D01*
X119819047Y-90400000D01*
X119866666Y-90447619D01*
X119914285Y-90542857D01*
X119961904Y-90733333D01*
X119961904Y-90971428D01*
X119914285Y-91161904D01*
X119866666Y-91257142D01*
X119819047Y-91304761D01*
X119723809Y-91352380D01*
X119628571Y-91352380D01*
X119533333Y-91304761D01*
X119485714Y-91257142D01*
X119438095Y-91161904D01*
X119390476Y-90971428D01*
X119390476Y-90733333D01*
X119438095Y-90542857D01*
X119485714Y-90447619D01*
X119533333Y-90400000D01*
X119628571Y-90352380D01*
X125537142Y-84066666D02*
X125584761Y-84114285D01*
X125632380Y-84257142D01*
X125632380Y-84352380D01*
X125584761Y-84495238D01*
X125489523Y-84590476D01*
X125394285Y-84638095D01*
X125203809Y-84685714D01*
X125060952Y-84685714D01*
X124870476Y-84638095D01*
X124775238Y-84590476D01*
X124680000Y-84495238D01*
X124632380Y-84352380D01*
X124632380Y-84257142D01*
X124680000Y-84114285D01*
X124727619Y-84066666D01*
X125060952Y-83495238D02*
X125013333Y-83590476D01*
X124965714Y-83638095D01*
X124870476Y-83685714D01*
X124822857Y-83685714D01*
X124727619Y-83638095D01*
X124680000Y-83590476D01*
X124632380Y-83495238D01*
X124632380Y-83304761D01*
X124680000Y-83209523D01*
X124727619Y-83161904D01*
X124822857Y-83114285D01*
X124870476Y-83114285D01*
X124965714Y-83161904D01*
X125013333Y-83209523D01*
X125060952Y-83304761D01*
X125060952Y-83495238D01*
X125108571Y-83590476D01*
X125156190Y-83638095D01*
X125251428Y-83685714D01*
X125441904Y-83685714D01*
X125537142Y-83638095D01*
X125584761Y-83590476D01*
X125632380Y-83495238D01*
X125632380Y-83304761D01*
X125584761Y-83209523D01*
X125537142Y-83161904D01*
X125441904Y-83114285D01*
X125251428Y-83114285D01*
X125156190Y-83161904D01*
X125108571Y-83209523D01*
X125060952Y-83304761D01*
X130538095Y-75952380D02*
X130538095Y-76761904D01*
X130585714Y-76857142D01*
X130633333Y-76904761D01*
X130728571Y-76952380D01*
X130919047Y-76952380D01*
X131014285Y-76904761D01*
X131061904Y-76857142D01*
X131109523Y-76761904D01*
X131109523Y-75952380D01*
X132014285Y-76285714D02*
X132014285Y-76952380D01*
X131776190Y-75904761D02*
X131538095Y-76619047D01*
X132157142Y-76619047D01*
X126257142Y-78757142D02*
X126209523Y-78804761D01*
X126066666Y-78852380D01*
X125971428Y-78852380D01*
X125828571Y-78804761D01*
X125733333Y-78709523D01*
X125685714Y-78614285D01*
X125638095Y-78423809D01*
X125638095Y-78280952D01*
X125685714Y-78090476D01*
X125733333Y-77995238D01*
X125828571Y-77900000D01*
X125971428Y-77852380D01*
X126066666Y-77852380D01*
X126209523Y-77900000D01*
X126257142Y-77947619D01*
X127209523Y-78852380D02*
X126638095Y-78852380D01*
X126923809Y-78852380D02*
X126923809Y-77852380D01*
X126828571Y-77995238D01*
X126733333Y-78090476D01*
X126638095Y-78138095D01*
X127590476Y-77947619D02*
X127638095Y-77900000D01*
X127733333Y-77852380D01*
X127971428Y-77852380D01*
X128066666Y-77900000D01*
X128114285Y-77947619D01*
X128161904Y-78042857D01*
X128161904Y-78138095D01*
X128114285Y-78280952D01*
X127542857Y-78852380D01*
X128161904Y-78852380D01*
X134357142Y-78757142D02*
X134309523Y-78804761D01*
X134166666Y-78852380D01*
X134071428Y-78852380D01*
X133928571Y-78804761D01*
X133833333Y-78709523D01*
X133785714Y-78614285D01*
X133738095Y-78423809D01*
X133738095Y-78280952D01*
X133785714Y-78090476D01*
X133833333Y-77995238D01*
X133928571Y-77900000D01*
X134071428Y-77852380D01*
X134166666Y-77852380D01*
X134309523Y-77900000D01*
X134357142Y-77947619D01*
X135309523Y-78852380D02*
X134738095Y-78852380D01*
X135023809Y-78852380D02*
X135023809Y-77852380D01*
X134928571Y-77995238D01*
X134833333Y-78090476D01*
X134738095Y-78138095D01*
X136261904Y-78852380D02*
X135690476Y-78852380D01*
X135976190Y-78852380D02*
X135976190Y-77852380D01*
X135880952Y-77995238D01*
X135785714Y-78090476D01*
X135690476Y-78138095D01*
X126657142Y-62957142D02*
X126609523Y-63004761D01*
X126466666Y-63052380D01*
X126371428Y-63052380D01*
X126228571Y-63004761D01*
X126133333Y-62909523D01*
X126085714Y-62814285D01*
X126038095Y-62623809D01*
X126038095Y-62480952D01*
X126085714Y-62290476D01*
X126133333Y-62195238D01*
X126228571Y-62100000D01*
X126371428Y-62052380D01*
X126466666Y-62052380D01*
X126609523Y-62100000D01*
X126657142Y-62147619D01*
X127038095Y-62147619D02*
X127085714Y-62100000D01*
X127180952Y-62052380D01*
X127419047Y-62052380D01*
X127514285Y-62100000D01*
X127561904Y-62147619D01*
X127609523Y-62242857D01*
X127609523Y-62338095D01*
X127561904Y-62480952D01*
X126990476Y-63052380D01*
X127609523Y-63052380D01*
X128466666Y-62052380D02*
X128276190Y-62052380D01*
X128180952Y-62100000D01*
X128133333Y-62147619D01*
X128038095Y-62290476D01*
X127990476Y-62480952D01*
X127990476Y-62861904D01*
X128038095Y-62957142D01*
X128085714Y-63004761D01*
X128180952Y-63052380D01*
X128371428Y-63052380D01*
X128466666Y-63004761D01*
X128514285Y-62957142D01*
X128561904Y-62861904D01*
X128561904Y-62623809D01*
X128514285Y-62528571D01*
X128466666Y-62480952D01*
X128371428Y-62433333D01*
X128180952Y-62433333D01*
X128085714Y-62480952D01*
X128038095Y-62528571D01*
X127990476Y-62623809D01*
X133257142Y-62757142D02*
X133209523Y-62804761D01*
X133066666Y-62852380D01*
X132971428Y-62852380D01*
X132828571Y-62804761D01*
X132733333Y-62709523D01*
X132685714Y-62614285D01*
X132638095Y-62423809D01*
X132638095Y-62280952D01*
X132685714Y-62090476D01*
X132733333Y-61995238D01*
X132828571Y-61900000D01*
X132971428Y-61852380D01*
X133066666Y-61852380D01*
X133209523Y-61900000D01*
X133257142Y-61947619D01*
X133638095Y-61947619D02*
X133685714Y-61900000D01*
X133780952Y-61852380D01*
X134019047Y-61852380D01*
X134114285Y-61900000D01*
X134161904Y-61947619D01*
X134209523Y-62042857D01*
X134209523Y-62138095D01*
X134161904Y-62280952D01*
X133590476Y-62852380D01*
X134209523Y-62852380D01*
X135114285Y-61852380D02*
X134638095Y-61852380D01*
X134590476Y-62328571D01*
X134638095Y-62280952D01*
X134733333Y-62233333D01*
X134971428Y-62233333D01*
X135066666Y-62280952D01*
X135114285Y-62328571D01*
X135161904Y-62423809D01*
X135161904Y-62661904D01*
X135114285Y-62757142D01*
X135066666Y-62804761D01*
X134971428Y-62852380D01*
X134733333Y-62852380D01*
X134638095Y-62804761D01*
X134590476Y-62757142D01*
X129352380Y-91366666D02*
X128876190Y-91700000D01*
X129352380Y-91938095D02*
X128352380Y-91938095D01*
X128352380Y-91557142D01*
X128400000Y-91461904D01*
X128447619Y-91414285D01*
X128542857Y-91366666D01*
X128685714Y-91366666D01*
X128780952Y-91414285D01*
X128828571Y-91461904D01*
X128876190Y-91557142D01*
X128876190Y-91938095D01*
X129352380Y-90414285D02*
X129352380Y-90985714D01*
X129352380Y-90700000D02*
X128352380Y-90700000D01*
X128495238Y-90795238D01*
X128590476Y-90890476D01*
X128638095Y-90985714D01*
X124704761Y-86447619D02*
X124609523Y-86400000D01*
X124514285Y-86304761D01*
X124371428Y-86161904D01*
X124276190Y-86114285D01*
X124180952Y-86114285D01*
X124228571Y-86352380D02*
X124133333Y-86304761D01*
X124038095Y-86209523D01*
X123990476Y-86019047D01*
X123990476Y-85685714D01*
X124038095Y-85495238D01*
X124133333Y-85400000D01*
X124228571Y-85352380D01*
X124419047Y-85352380D01*
X124514285Y-85400000D01*
X124609523Y-85495238D01*
X124657142Y-85685714D01*
X124657142Y-86019047D01*
X124609523Y-86209523D01*
X124514285Y-86304761D01*
X124419047Y-86352380D01*
X124228571Y-86352380D01*
X125609523Y-86352380D02*
X125038095Y-86352380D01*
X125323809Y-86352380D02*
X125323809Y-85352380D01*
X125228571Y-85495238D01*
X125133333Y-85590476D01*
X125038095Y-85638095D01*
X137785714Y-78852380D02*
X137785714Y-77852380D01*
X138166666Y-77852380D01*
X138261904Y-77900000D01*
X138309523Y-77947619D01*
X138357142Y-78042857D01*
X138357142Y-78185714D01*
X138309523Y-78280952D01*
X138261904Y-78328571D01*
X138166666Y-78376190D01*
X137785714Y-78376190D01*
X138738095Y-78804761D02*
X138880952Y-78852380D01*
X139119047Y-78852380D01*
X139214285Y-78804761D01*
X139261904Y-78757142D01*
X139309523Y-78661904D01*
X139309523Y-78566666D01*
X139261904Y-78471428D01*
X139214285Y-78423809D01*
X139119047Y-78376190D01*
X138928571Y-78328571D01*
X138833333Y-78280952D01*
X138785714Y-78233333D01*
X138738095Y-78138095D01*
X138738095Y-78042857D01*
X138785714Y-77947619D01*
X138833333Y-77900000D01*
X138928571Y-77852380D01*
X139166666Y-77852380D01*
X139309523Y-77900000D01*
X140261904Y-78852380D02*
X139690476Y-78852380D01*
X139976190Y-78852380D02*
X139976190Y-77852380D01*
X139880952Y-77995238D01*
X139785714Y-78090476D01*
X139690476Y-78138095D01*
X130233333Y-83052380D02*
X129757142Y-83052380D01*
X129757142Y-82052380D01*
X131090476Y-83052380D02*
X130519047Y-83052380D01*
X130804761Y-83052380D02*
X130804761Y-82052380D01*
X130709523Y-82195238D01*
X130614285Y-82290476D01*
X130519047Y-82338095D01*
X122466666Y-92152380D02*
X122466666Y-92866666D01*
X122419047Y-93009523D01*
X122323809Y-93104761D01*
X122180952Y-93152380D01*
X122085714Y-93152380D01*
X122942857Y-93152380D02*
X122942857Y-92152380D01*
X123323809Y-92152380D01*
X123419047Y-92200000D01*
X123466666Y-92247619D01*
X123514285Y-92342857D01*
X123514285Y-92485714D01*
X123466666Y-92580952D01*
X123419047Y-92628571D01*
X123323809Y-92676190D01*
X122942857Y-92676190D01*
X124466666Y-93152380D02*
X123895238Y-93152380D01*
X124180952Y-93152380D02*
X124180952Y-92152380D01*
X124085714Y-92295238D01*
X123990476Y-92390476D01*
X123895238Y-92438095D01*
X102652380Y-90473333D02*
X103366666Y-90473333D01*
X103509523Y-90520952D01*
X103604761Y-90616190D01*
X103652380Y-90759047D01*
X103652380Y-90854285D01*
X102652380Y-90092380D02*
X102652380Y-89425714D01*
X103652380Y-89854285D01*
X119933333Y-92957142D02*
X119885714Y-93004761D01*
X119742857Y-93052380D01*
X119647619Y-93052380D01*
X119504761Y-93004761D01*
X119409523Y-92909523D01*
X119361904Y-92814285D01*
X119314285Y-92623809D01*
X119314285Y-92480952D01*
X119361904Y-92290476D01*
X119409523Y-92195238D01*
X119504761Y-92100000D01*
X119647619Y-92052380D01*
X119742857Y-92052380D01*
X119885714Y-92100000D01*
X119933333Y-92147619D01*
X120266666Y-92052380D02*
X120933333Y-92052380D01*
X120504761Y-93052380D01*
X131557142Y-90816666D02*
X131604761Y-90864285D01*
X131652380Y-91007142D01*
X131652380Y-91102380D01*
X131604761Y-91245238D01*
X131509523Y-91340476D01*
X131414285Y-91388095D01*
X131223809Y-91435714D01*
X131080952Y-91435714D01*
X130890476Y-91388095D01*
X130795238Y-91340476D01*
X130700000Y-91245238D01*
X130652380Y-91102380D01*
X130652380Y-91007142D01*
X130700000Y-90864285D01*
X130747619Y-90816666D01*
X130652380Y-89911904D02*
X130652380Y-90388095D01*
X131128571Y-90435714D01*
X131080952Y-90388095D01*
X131033333Y-90292857D01*
X131033333Y-90054761D01*
X131080952Y-89959523D01*
X131128571Y-89911904D01*
X131223809Y-89864285D01*
X131461904Y-89864285D01*
X131557142Y-89911904D01*
X131604761Y-89959523D01*
X131652380Y-90054761D01*
X131652380Y-90292857D01*
X131604761Y-90388095D01*
X131557142Y-90435714D01*
X133057142Y-90366666D02*
X133104761Y-90414285D01*
X133152380Y-90557142D01*
X133152380Y-90652380D01*
X133104761Y-90795238D01*
X133009523Y-90890476D01*
X132914285Y-90938095D01*
X132723809Y-90985714D01*
X132580952Y-90985714D01*
X132390476Y-90938095D01*
X132295238Y-90890476D01*
X132200000Y-90795238D01*
X132152380Y-90652380D01*
X132152380Y-90557142D01*
X132200000Y-90414285D01*
X132247619Y-90366666D01*
X132485714Y-89509523D02*
X133152380Y-89509523D01*
X132104761Y-89747619D02*
X132819047Y-89985714D01*
X132819047Y-89366666D01*
X135757142Y-91866666D02*
X135804761Y-91914285D01*
X135852380Y-92057142D01*
X135852380Y-92152380D01*
X135804761Y-92295238D01*
X135709523Y-92390476D01*
X135614285Y-92438095D01*
X135423809Y-92485714D01*
X135280952Y-92485714D01*
X135090476Y-92438095D01*
X134995238Y-92390476D01*
X134900000Y-92295238D01*
X134852380Y-92152380D01*
X134852380Y-92057142D01*
X134900000Y-91914285D01*
X134947619Y-91866666D01*
X134852380Y-91533333D02*
X134852380Y-90914285D01*
X135233333Y-91247619D01*
X135233333Y-91104761D01*
X135280952Y-91009523D01*
X135328571Y-90961904D01*
X135423809Y-90914285D01*
X135661904Y-90914285D01*
X135757142Y-90961904D01*
X135804761Y-91009523D01*
X135852380Y-91104761D01*
X135852380Y-91390476D01*
X135804761Y-91485714D01*
X135757142Y-91533333D01*
X130233333Y-80557142D02*
X130185714Y-80604761D01*
X130042857Y-80652380D01*
X129947619Y-80652380D01*
X129804761Y-80604761D01*
X129709523Y-80509523D01*
X129661904Y-80414285D01*
X129614285Y-80223809D01*
X129614285Y-80080952D01*
X129661904Y-79890476D01*
X129709523Y-79795238D01*
X129804761Y-79700000D01*
X129947619Y-79652380D01*
X130042857Y-79652380D01*
X130185714Y-79700000D01*
X130233333Y-79747619D01*
X130614285Y-79747619D02*
X130661904Y-79700000D01*
X130757142Y-79652380D01*
X130995238Y-79652380D01*
X131090476Y-79700000D01*
X131138095Y-79747619D01*
X131185714Y-79842857D01*
X131185714Y-79938095D01*
X131138095Y-80080952D01*
X130566666Y-80652380D01*
X131185714Y-80652380D01*
X112533333Y-77257142D02*
X112485714Y-77304761D01*
X112342857Y-77352380D01*
X112247619Y-77352380D01*
X112104761Y-77304761D01*
X112009523Y-77209523D01*
X111961904Y-77114285D01*
X111914285Y-76923809D01*
X111914285Y-76780952D01*
X111961904Y-76590476D01*
X112009523Y-76495238D01*
X112104761Y-76400000D01*
X112247619Y-76352380D01*
X112342857Y-76352380D01*
X112485714Y-76400000D01*
X112533333Y-76447619D01*
X113485714Y-77352380D02*
X112914285Y-77352380D01*
X113200000Y-77352380D02*
X113200000Y-76352380D01*
X113104761Y-76495238D01*
X113009523Y-76590476D01*
X112914285Y-76638095D01*
%LPC*%
D14*
X97600000Y-81000000D03*
D15*
X96180000Y-64360000D03*
X96180000Y-67120000D03*
X96180000Y-69880000D03*
X96180000Y-72640000D03*
X99020000Y-62980000D03*
X99020000Y-65740000D03*
X99020000Y-71260000D03*
D16*
X99020000Y-74020000D03*
D14*
X97600000Y-56000000D03*
D15*
X99020000Y-68500000D03*
D17*
G36*
X139806338Y-54550306D02*
G01*
X139832669Y-54554212D01*
X139858490Y-54560680D01*
X139883553Y-54569648D01*
X139907617Y-54581029D01*
X139930449Y-54594714D01*
X139951830Y-54610571D01*
X139971553Y-54628447D01*
X139989429Y-54648170D01*
X140005286Y-54669551D01*
X140018971Y-54692383D01*
X140030352Y-54716447D01*
X140039320Y-54741510D01*
X140045788Y-54767331D01*
X140049694Y-54793662D01*
X140051000Y-54820249D01*
X140051000Y-55579751D01*
X140049694Y-55606338D01*
X140045788Y-55632669D01*
X140039320Y-55658490D01*
X140030352Y-55683553D01*
X140018971Y-55707617D01*
X140005286Y-55730449D01*
X139989429Y-55751830D01*
X139971553Y-55771553D01*
X139951830Y-55789429D01*
X139930449Y-55805286D01*
X139907617Y-55818971D01*
X139883553Y-55830352D01*
X139858490Y-55839320D01*
X139832669Y-55845788D01*
X139806338Y-55849694D01*
X139779751Y-55851000D01*
X138420249Y-55851000D01*
X138393662Y-55849694D01*
X138367331Y-55845788D01*
X138341510Y-55839320D01*
X138316447Y-55830352D01*
X138292383Y-55818971D01*
X138269551Y-55805286D01*
X138248170Y-55789429D01*
X138228447Y-55771553D01*
X138210571Y-55751830D01*
X138194714Y-55730449D01*
X138181029Y-55707617D01*
X138169648Y-55683553D01*
X138160680Y-55658490D01*
X138154212Y-55632669D01*
X138150306Y-55606338D01*
X138149000Y-55579751D01*
X138149000Y-54820249D01*
X138150306Y-54793662D01*
X138154212Y-54767331D01*
X138160680Y-54741510D01*
X138169648Y-54716447D01*
X138181029Y-54692383D01*
X138194714Y-54669551D01*
X138210571Y-54648170D01*
X138228447Y-54628447D01*
X138248170Y-54610571D01*
X138269551Y-54594714D01*
X138292383Y-54581029D01*
X138316447Y-54569648D01*
X138341510Y-54560680D01*
X138367331Y-54554212D01*
X138393662Y-54550306D01*
X138420249Y-54549000D01*
X139779751Y-54549000D01*
X139806338Y-54550306D01*
G37*
G36*
X139806338Y-60150306D02*
G01*
X139832669Y-60154212D01*
X139858490Y-60160680D01*
X139883553Y-60169648D01*
X139907617Y-60181029D01*
X139930449Y-60194714D01*
X139951830Y-60210571D01*
X139971553Y-60228447D01*
X139989429Y-60248170D01*
X140005286Y-60269551D01*
X140018971Y-60292383D01*
X140030352Y-60316447D01*
X140039320Y-60341510D01*
X140045788Y-60367331D01*
X140049694Y-60393662D01*
X140051000Y-60420249D01*
X140051000Y-61179751D01*
X140049694Y-61206338D01*
X140045788Y-61232669D01*
X140039320Y-61258490D01*
X140030352Y-61283553D01*
X140018971Y-61307617D01*
X140005286Y-61330449D01*
X139989429Y-61351830D01*
X139971553Y-61371553D01*
X139951830Y-61389429D01*
X139930449Y-61405286D01*
X139907617Y-61418971D01*
X139883553Y-61430352D01*
X139858490Y-61439320D01*
X139832669Y-61445788D01*
X139806338Y-61449694D01*
X139779751Y-61451000D01*
X138420249Y-61451000D01*
X138393662Y-61449694D01*
X138367331Y-61445788D01*
X138341510Y-61439320D01*
X138316447Y-61430352D01*
X138292383Y-61418971D01*
X138269551Y-61405286D01*
X138248170Y-61389429D01*
X138228447Y-61371553D01*
X138210571Y-61351830D01*
X138194714Y-61330449D01*
X138181029Y-61307617D01*
X138169648Y-61283553D01*
X138160680Y-61258490D01*
X138154212Y-61232669D01*
X138150306Y-61206338D01*
X138149000Y-61179751D01*
X138149000Y-60420249D01*
X138150306Y-60393662D01*
X138154212Y-60367331D01*
X138160680Y-60341510D01*
X138169648Y-60316447D01*
X138181029Y-60292383D01*
X138194714Y-60269551D01*
X138210571Y-60248170D01*
X138228447Y-60228447D01*
X138248170Y-60210571D01*
X138269551Y-60194714D01*
X138292383Y-60181029D01*
X138316447Y-60169648D01*
X138341510Y-60160680D01*
X138367331Y-60154212D01*
X138393662Y-60150306D01*
X138420249Y-60149000D01*
X139779751Y-60149000D01*
X139806338Y-60150306D01*
G37*
G36*
X142292702Y-56149845D02*
G01*
X142309738Y-56152372D01*
X142326445Y-56156557D01*
X142342661Y-56162359D01*
X142358230Y-56169723D01*
X142373003Y-56178577D01*
X142386836Y-56188837D01*
X142399597Y-56200403D01*
X142411163Y-56213164D01*
X142421423Y-56226997D01*
X142430277Y-56241770D01*
X142437641Y-56257339D01*
X142443443Y-56273555D01*
X142447628Y-56290262D01*
X142450155Y-56307298D01*
X142451000Y-56324500D01*
X142451000Y-56675500D01*
X142450155Y-56692702D01*
X142447628Y-56709738D01*
X142443443Y-56726445D01*
X142437641Y-56742661D01*
X142430277Y-56758230D01*
X142421423Y-56773003D01*
X142411163Y-56786836D01*
X142399597Y-56799597D01*
X142386836Y-56811163D01*
X142373003Y-56821423D01*
X142358230Y-56830277D01*
X142342661Y-56837641D01*
X142326445Y-56843443D01*
X142309738Y-56847628D01*
X142292702Y-56850155D01*
X142275500Y-56851000D01*
X140974500Y-56851000D01*
X140957298Y-56850155D01*
X140940262Y-56847628D01*
X140923555Y-56843443D01*
X140907339Y-56837641D01*
X140891770Y-56830277D01*
X140876997Y-56821423D01*
X140863164Y-56811163D01*
X140850403Y-56799597D01*
X140838837Y-56786836D01*
X140828577Y-56773003D01*
X140819723Y-56758230D01*
X140812359Y-56742661D01*
X140806557Y-56726445D01*
X140802372Y-56709738D01*
X140799845Y-56692702D01*
X140799000Y-56675500D01*
X140799000Y-56324500D01*
X140799845Y-56307298D01*
X140802372Y-56290262D01*
X140806557Y-56273555D01*
X140812359Y-56257339D01*
X140819723Y-56241770D01*
X140828577Y-56226997D01*
X140838837Y-56213164D01*
X140850403Y-56200403D01*
X140863164Y-56188837D01*
X140876997Y-56178577D01*
X140891770Y-56169723D01*
X140907339Y-56162359D01*
X140923555Y-56156557D01*
X140940262Y-56152372D01*
X140957298Y-56149845D01*
X140974500Y-56149000D01*
X142275500Y-56149000D01*
X142292702Y-56149845D01*
G37*
G36*
X142292702Y-57149845D02*
G01*
X142309738Y-57152372D01*
X142326445Y-57156557D01*
X142342661Y-57162359D01*
X142358230Y-57169723D01*
X142373003Y-57178577D01*
X142386836Y-57188837D01*
X142399597Y-57200403D01*
X142411163Y-57213164D01*
X142421423Y-57226997D01*
X142430277Y-57241770D01*
X142437641Y-57257339D01*
X142443443Y-57273555D01*
X142447628Y-57290262D01*
X142450155Y-57307298D01*
X142451000Y-57324500D01*
X142451000Y-57675500D01*
X142450155Y-57692702D01*
X142447628Y-57709738D01*
X142443443Y-57726445D01*
X142437641Y-57742661D01*
X142430277Y-57758230D01*
X142421423Y-57773003D01*
X142411163Y-57786836D01*
X142399597Y-57799597D01*
X142386836Y-57811163D01*
X142373003Y-57821423D01*
X142358230Y-57830277D01*
X142342661Y-57837641D01*
X142326445Y-57843443D01*
X142309738Y-57847628D01*
X142292702Y-57850155D01*
X142275500Y-57851000D01*
X140974500Y-57851000D01*
X140957298Y-57850155D01*
X140940262Y-57847628D01*
X140923555Y-57843443D01*
X140907339Y-57837641D01*
X140891770Y-57830277D01*
X140876997Y-57821423D01*
X140863164Y-57811163D01*
X140850403Y-57799597D01*
X140838837Y-57786836D01*
X140828577Y-57773003D01*
X140819723Y-57758230D01*
X140812359Y-57742661D01*
X140806557Y-57726445D01*
X140802372Y-57709738D01*
X140799845Y-57692702D01*
X140799000Y-57675500D01*
X140799000Y-57324500D01*
X140799845Y-57307298D01*
X140802372Y-57290262D01*
X140806557Y-57273555D01*
X140812359Y-57257339D01*
X140819723Y-57241770D01*
X140828577Y-57226997D01*
X140838837Y-57213164D01*
X140850403Y-57200403D01*
X140863164Y-57188837D01*
X140876997Y-57178577D01*
X140891770Y-57169723D01*
X140907339Y-57162359D01*
X140923555Y-57156557D01*
X140940262Y-57152372D01*
X140957298Y-57149845D01*
X140974500Y-57149000D01*
X142275500Y-57149000D01*
X142292702Y-57149845D01*
G37*
G36*
X142292702Y-58149845D02*
G01*
X142309738Y-58152372D01*
X142326445Y-58156557D01*
X142342661Y-58162359D01*
X142358230Y-58169723D01*
X142373003Y-58178577D01*
X142386836Y-58188837D01*
X142399597Y-58200403D01*
X142411163Y-58213164D01*
X142421423Y-58226997D01*
X142430277Y-58241770D01*
X142437641Y-58257339D01*
X142443443Y-58273555D01*
X142447628Y-58290262D01*
X142450155Y-58307298D01*
X142451000Y-58324500D01*
X142451000Y-58675500D01*
X142450155Y-58692702D01*
X142447628Y-58709738D01*
X142443443Y-58726445D01*
X142437641Y-58742661D01*
X142430277Y-58758230D01*
X142421423Y-58773003D01*
X142411163Y-58786836D01*
X142399597Y-58799597D01*
X142386836Y-58811163D01*
X142373003Y-58821423D01*
X142358230Y-58830277D01*
X142342661Y-58837641D01*
X142326445Y-58843443D01*
X142309738Y-58847628D01*
X142292702Y-58850155D01*
X142275500Y-58851000D01*
X140974500Y-58851000D01*
X140957298Y-58850155D01*
X140940262Y-58847628D01*
X140923555Y-58843443D01*
X140907339Y-58837641D01*
X140891770Y-58830277D01*
X140876997Y-58821423D01*
X140863164Y-58811163D01*
X140850403Y-58799597D01*
X140838837Y-58786836D01*
X140828577Y-58773003D01*
X140819723Y-58758230D01*
X140812359Y-58742661D01*
X140806557Y-58726445D01*
X140802372Y-58709738D01*
X140799845Y-58692702D01*
X140799000Y-58675500D01*
X140799000Y-58324500D01*
X140799845Y-58307298D01*
X140802372Y-58290262D01*
X140806557Y-58273555D01*
X140812359Y-58257339D01*
X140819723Y-58241770D01*
X140828577Y-58226997D01*
X140838837Y-58213164D01*
X140850403Y-58200403D01*
X140863164Y-58188837D01*
X140876997Y-58178577D01*
X140891770Y-58169723D01*
X140907339Y-58162359D01*
X140923555Y-58156557D01*
X140940262Y-58152372D01*
X140957298Y-58149845D01*
X140974500Y-58149000D01*
X142275500Y-58149000D01*
X142292702Y-58149845D01*
G37*
G36*
X142292702Y-59149845D02*
G01*
X142309738Y-59152372D01*
X142326445Y-59156557D01*
X142342661Y-59162359D01*
X142358230Y-59169723D01*
X142373003Y-59178577D01*
X142386836Y-59188837D01*
X142399597Y-59200403D01*
X142411163Y-59213164D01*
X142421423Y-59226997D01*
X142430277Y-59241770D01*
X142437641Y-59257339D01*
X142443443Y-59273555D01*
X142447628Y-59290262D01*
X142450155Y-59307298D01*
X142451000Y-59324500D01*
X142451000Y-59675500D01*
X142450155Y-59692702D01*
X142447628Y-59709738D01*
X142443443Y-59726445D01*
X142437641Y-59742661D01*
X142430277Y-59758230D01*
X142421423Y-59773003D01*
X142411163Y-59786836D01*
X142399597Y-59799597D01*
X142386836Y-59811163D01*
X142373003Y-59821423D01*
X142358230Y-59830277D01*
X142342661Y-59837641D01*
X142326445Y-59843443D01*
X142309738Y-59847628D01*
X142292702Y-59850155D01*
X142275500Y-59851000D01*
X140974500Y-59851000D01*
X140957298Y-59850155D01*
X140940262Y-59847628D01*
X140923555Y-59843443D01*
X140907339Y-59837641D01*
X140891770Y-59830277D01*
X140876997Y-59821423D01*
X140863164Y-59811163D01*
X140850403Y-59799597D01*
X140838837Y-59786836D01*
X140828577Y-59773003D01*
X140819723Y-59758230D01*
X140812359Y-59742661D01*
X140806557Y-59726445D01*
X140802372Y-59709738D01*
X140799845Y-59692702D01*
X140799000Y-59675500D01*
X140799000Y-59324500D01*
X140799845Y-59307298D01*
X140802372Y-59290262D01*
X140806557Y-59273555D01*
X140812359Y-59257339D01*
X140819723Y-59241770D01*
X140828577Y-59226997D01*
X140838837Y-59213164D01*
X140850403Y-59200403D01*
X140863164Y-59188837D01*
X140876997Y-59178577D01*
X140891770Y-59169723D01*
X140907339Y-59162359D01*
X140923555Y-59156557D01*
X140940262Y-59152372D01*
X140957298Y-59149845D01*
X140974500Y-59149000D01*
X142275500Y-59149000D01*
X142292702Y-59149845D01*
G37*
G36*
X125088779Y-65250266D02*
G01*
X125114309Y-65254053D01*
X125139345Y-65260325D01*
X125163646Y-65269020D01*
X125186977Y-65280055D01*
X125209115Y-65293323D01*
X125229845Y-65308698D01*
X125248969Y-65326031D01*
X125266302Y-65345155D01*
X125281677Y-65365885D01*
X125294945Y-65388023D01*
X125305980Y-65411354D01*
X125314675Y-65435655D01*
X125320947Y-65460691D01*
X125324734Y-65486221D01*
X125326000Y-65512000D01*
X125326000Y-66138000D01*
X125324734Y-66163779D01*
X125320947Y-66189309D01*
X125314675Y-66214345D01*
X125305980Y-66238646D01*
X125294945Y-66261977D01*
X125281677Y-66284115D01*
X125266302Y-66304845D01*
X125248969Y-66323969D01*
X125229845Y-66341302D01*
X125209115Y-66356677D01*
X125186977Y-66369945D01*
X125163646Y-66380980D01*
X125139345Y-66389675D01*
X125114309Y-66395947D01*
X125088779Y-66399734D01*
X125063000Y-66401000D01*
X124537000Y-66401000D01*
X124511221Y-66399734D01*
X124485691Y-66395947D01*
X124460655Y-66389675D01*
X124436354Y-66380980D01*
X124413023Y-66369945D01*
X124390885Y-66356677D01*
X124370155Y-66341302D01*
X124351031Y-66323969D01*
X124333698Y-66304845D01*
X124318323Y-66284115D01*
X124305055Y-66261977D01*
X124294020Y-66238646D01*
X124285325Y-66214345D01*
X124279053Y-66189309D01*
X124275266Y-66163779D01*
X124274000Y-66138000D01*
X124274000Y-65512000D01*
X124275266Y-65486221D01*
X124279053Y-65460691D01*
X124285325Y-65435655D01*
X124294020Y-65411354D01*
X124305055Y-65388023D01*
X124318323Y-65365885D01*
X124333698Y-65345155D01*
X124351031Y-65326031D01*
X124370155Y-65308698D01*
X124390885Y-65293323D01*
X124413023Y-65280055D01*
X124436354Y-65269020D01*
X124460655Y-65260325D01*
X124485691Y-65254053D01*
X124511221Y-65250266D01*
X124537000Y-65249000D01*
X125063000Y-65249000D01*
X125088779Y-65250266D01*
G37*
G36*
X125088779Y-67000266D02*
G01*
X125114309Y-67004053D01*
X125139345Y-67010325D01*
X125163646Y-67019020D01*
X125186977Y-67030055D01*
X125209115Y-67043323D01*
X125229845Y-67058698D01*
X125248969Y-67076031D01*
X125266302Y-67095155D01*
X125281677Y-67115885D01*
X125294945Y-67138023D01*
X125305980Y-67161354D01*
X125314675Y-67185655D01*
X125320947Y-67210691D01*
X125324734Y-67236221D01*
X125326000Y-67262000D01*
X125326000Y-67888000D01*
X125324734Y-67913779D01*
X125320947Y-67939309D01*
X125314675Y-67964345D01*
X125305980Y-67988646D01*
X125294945Y-68011977D01*
X125281677Y-68034115D01*
X125266302Y-68054845D01*
X125248969Y-68073969D01*
X125229845Y-68091302D01*
X125209115Y-68106677D01*
X125186977Y-68119945D01*
X125163646Y-68130980D01*
X125139345Y-68139675D01*
X125114309Y-68145947D01*
X125088779Y-68149734D01*
X125063000Y-68151000D01*
X124537000Y-68151000D01*
X124511221Y-68149734D01*
X124485691Y-68145947D01*
X124460655Y-68139675D01*
X124436354Y-68130980D01*
X124413023Y-68119945D01*
X124390885Y-68106677D01*
X124370155Y-68091302D01*
X124351031Y-68073969D01*
X124333698Y-68054845D01*
X124318323Y-68034115D01*
X124305055Y-68011977D01*
X124294020Y-67988646D01*
X124285325Y-67964345D01*
X124279053Y-67939309D01*
X124275266Y-67913779D01*
X124274000Y-67888000D01*
X124274000Y-67262000D01*
X124275266Y-67236221D01*
X124279053Y-67210691D01*
X124285325Y-67185655D01*
X124294020Y-67161354D01*
X124305055Y-67138023D01*
X124318323Y-67115885D01*
X124333698Y-67095155D01*
X124351031Y-67076031D01*
X124370155Y-67058698D01*
X124390885Y-67043323D01*
X124413023Y-67030055D01*
X124436354Y-67019020D01*
X124460655Y-67010325D01*
X124485691Y-67004053D01*
X124511221Y-67000266D01*
X124537000Y-66999000D01*
X125063000Y-66999000D01*
X125088779Y-67000266D01*
G37*
G36*
X135513779Y-68475266D02*
G01*
X135539309Y-68479053D01*
X135564345Y-68485325D01*
X135588646Y-68494020D01*
X135611977Y-68505055D01*
X135634115Y-68518323D01*
X135654845Y-68533698D01*
X135673969Y-68551031D01*
X135691302Y-68570155D01*
X135706677Y-68590885D01*
X135719945Y-68613023D01*
X135730980Y-68636354D01*
X135739675Y-68660655D01*
X135745947Y-68685691D01*
X135749734Y-68711221D01*
X135751000Y-68737000D01*
X135751000Y-69263000D01*
X135749734Y-69288779D01*
X135745947Y-69314309D01*
X135739675Y-69339345D01*
X135730980Y-69363646D01*
X135719945Y-69386977D01*
X135706677Y-69409115D01*
X135691302Y-69429845D01*
X135673969Y-69448969D01*
X135654845Y-69466302D01*
X135634115Y-69481677D01*
X135611977Y-69494945D01*
X135588646Y-69505980D01*
X135564345Y-69514675D01*
X135539309Y-69520947D01*
X135513779Y-69524734D01*
X135488000Y-69526000D01*
X134862000Y-69526000D01*
X134836221Y-69524734D01*
X134810691Y-69520947D01*
X134785655Y-69514675D01*
X134761354Y-69505980D01*
X134738023Y-69494945D01*
X134715885Y-69481677D01*
X134695155Y-69466302D01*
X134676031Y-69448969D01*
X134658698Y-69429845D01*
X134643323Y-69409115D01*
X134630055Y-69386977D01*
X134619020Y-69363646D01*
X134610325Y-69339345D01*
X134604053Y-69314309D01*
X134600266Y-69288779D01*
X134599000Y-69263000D01*
X134599000Y-68737000D01*
X134600266Y-68711221D01*
X134604053Y-68685691D01*
X134610325Y-68660655D01*
X134619020Y-68636354D01*
X134630055Y-68613023D01*
X134643323Y-68590885D01*
X134658698Y-68570155D01*
X134676031Y-68551031D01*
X134695155Y-68533698D01*
X134715885Y-68518323D01*
X134738023Y-68505055D01*
X134761354Y-68494020D01*
X134785655Y-68485325D01*
X134810691Y-68479053D01*
X134836221Y-68475266D01*
X134862000Y-68474000D01*
X135488000Y-68474000D01*
X135513779Y-68475266D01*
G37*
G36*
X133763779Y-68475266D02*
G01*
X133789309Y-68479053D01*
X133814345Y-68485325D01*
X133838646Y-68494020D01*
X133861977Y-68505055D01*
X133884115Y-68518323D01*
X133904845Y-68533698D01*
X133923969Y-68551031D01*
X133941302Y-68570155D01*
X133956677Y-68590885D01*
X133969945Y-68613023D01*
X133980980Y-68636354D01*
X133989675Y-68660655D01*
X133995947Y-68685691D01*
X133999734Y-68711221D01*
X134001000Y-68737000D01*
X134001000Y-69263000D01*
X133999734Y-69288779D01*
X133995947Y-69314309D01*
X133989675Y-69339345D01*
X133980980Y-69363646D01*
X133969945Y-69386977D01*
X133956677Y-69409115D01*
X133941302Y-69429845D01*
X133923969Y-69448969D01*
X133904845Y-69466302D01*
X133884115Y-69481677D01*
X133861977Y-69494945D01*
X133838646Y-69505980D01*
X133814345Y-69514675D01*
X133789309Y-69520947D01*
X133763779Y-69524734D01*
X133738000Y-69526000D01*
X133112000Y-69526000D01*
X133086221Y-69524734D01*
X133060691Y-69520947D01*
X133035655Y-69514675D01*
X133011354Y-69505980D01*
X132988023Y-69494945D01*
X132965885Y-69481677D01*
X132945155Y-69466302D01*
X132926031Y-69448969D01*
X132908698Y-69429845D01*
X132893323Y-69409115D01*
X132880055Y-69386977D01*
X132869020Y-69363646D01*
X132860325Y-69339345D01*
X132854053Y-69314309D01*
X132850266Y-69288779D01*
X132849000Y-69263000D01*
X132849000Y-68737000D01*
X132850266Y-68711221D01*
X132854053Y-68685691D01*
X132860325Y-68660655D01*
X132869020Y-68636354D01*
X132880055Y-68613023D01*
X132893323Y-68590885D01*
X132908698Y-68570155D01*
X132926031Y-68551031D01*
X132945155Y-68533698D01*
X132965885Y-68518323D01*
X132988023Y-68505055D01*
X133011354Y-68494020D01*
X133035655Y-68485325D01*
X133060691Y-68479053D01*
X133086221Y-68475266D01*
X133112000Y-68474000D01*
X133738000Y-68474000D01*
X133763779Y-68475266D01*
G37*
G36*
X129792702Y-66854845D02*
G01*
X129809738Y-66857372D01*
X129826445Y-66861557D01*
X129842661Y-66867359D01*
X129858230Y-66874723D01*
X129873003Y-66883577D01*
X129886836Y-66893837D01*
X129899597Y-66905403D01*
X129911163Y-66918164D01*
X129921423Y-66931997D01*
X129930277Y-66946770D01*
X129937641Y-66962339D01*
X129943443Y-66978555D01*
X129947628Y-66995262D01*
X129950155Y-67012298D01*
X129951000Y-67029500D01*
X129951000Y-67380500D01*
X129950155Y-67397702D01*
X129947628Y-67414738D01*
X129943443Y-67431445D01*
X129937641Y-67447661D01*
X129930277Y-67463230D01*
X129921423Y-67478003D01*
X129911163Y-67491836D01*
X129899597Y-67504597D01*
X129886836Y-67516163D01*
X129873003Y-67526423D01*
X129858230Y-67535277D01*
X129842661Y-67542641D01*
X129826445Y-67548443D01*
X129809738Y-67552628D01*
X129792702Y-67555155D01*
X129775500Y-67556000D01*
X128074500Y-67556000D01*
X128057298Y-67555155D01*
X128040262Y-67552628D01*
X128023555Y-67548443D01*
X128007339Y-67542641D01*
X127991770Y-67535277D01*
X127976997Y-67526423D01*
X127963164Y-67516163D01*
X127950403Y-67504597D01*
X127938837Y-67491836D01*
X127928577Y-67478003D01*
X127919723Y-67463230D01*
X127912359Y-67447661D01*
X127906557Y-67431445D01*
X127902372Y-67414738D01*
X127899845Y-67397702D01*
X127899000Y-67380500D01*
X127899000Y-67029500D01*
X127899845Y-67012298D01*
X127902372Y-66995262D01*
X127906557Y-66978555D01*
X127912359Y-66962339D01*
X127919723Y-66946770D01*
X127928577Y-66931997D01*
X127938837Y-66918164D01*
X127950403Y-66905403D01*
X127963164Y-66893837D01*
X127976997Y-66883577D01*
X127991770Y-66874723D01*
X128007339Y-66867359D01*
X128023555Y-66861557D01*
X128040262Y-66857372D01*
X128057298Y-66854845D01*
X128074500Y-66854000D01*
X129775500Y-66854000D01*
X129792702Y-66854845D01*
G37*
G36*
X129792702Y-65584845D02*
G01*
X129809738Y-65587372D01*
X129826445Y-65591557D01*
X129842661Y-65597359D01*
X129858230Y-65604723D01*
X129873003Y-65613577D01*
X129886836Y-65623837D01*
X129899597Y-65635403D01*
X129911163Y-65648164D01*
X129921423Y-65661997D01*
X129930277Y-65676770D01*
X129937641Y-65692339D01*
X129943443Y-65708555D01*
X129947628Y-65725262D01*
X129950155Y-65742298D01*
X129951000Y-65759500D01*
X129951000Y-66110500D01*
X129950155Y-66127702D01*
X129947628Y-66144738D01*
X129943443Y-66161445D01*
X129937641Y-66177661D01*
X129930277Y-66193230D01*
X129921423Y-66208003D01*
X129911163Y-66221836D01*
X129899597Y-66234597D01*
X129886836Y-66246163D01*
X129873003Y-66256423D01*
X129858230Y-66265277D01*
X129842661Y-66272641D01*
X129826445Y-66278443D01*
X129809738Y-66282628D01*
X129792702Y-66285155D01*
X129775500Y-66286000D01*
X128074500Y-66286000D01*
X128057298Y-66285155D01*
X128040262Y-66282628D01*
X128023555Y-66278443D01*
X128007339Y-66272641D01*
X127991770Y-66265277D01*
X127976997Y-66256423D01*
X127963164Y-66246163D01*
X127950403Y-66234597D01*
X127938837Y-66221836D01*
X127928577Y-66208003D01*
X127919723Y-66193230D01*
X127912359Y-66177661D01*
X127906557Y-66161445D01*
X127902372Y-66144738D01*
X127899845Y-66127702D01*
X127899000Y-66110500D01*
X127899000Y-65759500D01*
X127899845Y-65742298D01*
X127902372Y-65725262D01*
X127906557Y-65708555D01*
X127912359Y-65692339D01*
X127919723Y-65676770D01*
X127928577Y-65661997D01*
X127938837Y-65648164D01*
X127950403Y-65635403D01*
X127963164Y-65623837D01*
X127976997Y-65613577D01*
X127991770Y-65604723D01*
X128007339Y-65597359D01*
X128023555Y-65591557D01*
X128040262Y-65587372D01*
X128057298Y-65584845D01*
X128074500Y-65584000D01*
X129775500Y-65584000D01*
X129792702Y-65584845D01*
G37*
G36*
X129792702Y-64314845D02*
G01*
X129809738Y-64317372D01*
X129826445Y-64321557D01*
X129842661Y-64327359D01*
X129858230Y-64334723D01*
X129873003Y-64343577D01*
X129886836Y-64353837D01*
X129899597Y-64365403D01*
X129911163Y-64378164D01*
X129921423Y-64391997D01*
X129930277Y-64406770D01*
X129937641Y-64422339D01*
X129943443Y-64438555D01*
X129947628Y-64455262D01*
X129950155Y-64472298D01*
X129951000Y-64489500D01*
X129951000Y-64840500D01*
X129950155Y-64857702D01*
X129947628Y-64874738D01*
X129943443Y-64891445D01*
X129937641Y-64907661D01*
X129930277Y-64923230D01*
X129921423Y-64938003D01*
X129911163Y-64951836D01*
X129899597Y-64964597D01*
X129886836Y-64976163D01*
X129873003Y-64986423D01*
X129858230Y-64995277D01*
X129842661Y-65002641D01*
X129826445Y-65008443D01*
X129809738Y-65012628D01*
X129792702Y-65015155D01*
X129775500Y-65016000D01*
X128074500Y-65016000D01*
X128057298Y-65015155D01*
X128040262Y-65012628D01*
X128023555Y-65008443D01*
X128007339Y-65002641D01*
X127991770Y-64995277D01*
X127976997Y-64986423D01*
X127963164Y-64976163D01*
X127950403Y-64964597D01*
X127938837Y-64951836D01*
X127928577Y-64938003D01*
X127919723Y-64923230D01*
X127912359Y-64907661D01*
X127906557Y-64891445D01*
X127902372Y-64874738D01*
X127899845Y-64857702D01*
X127899000Y-64840500D01*
X127899000Y-64489500D01*
X127899845Y-64472298D01*
X127902372Y-64455262D01*
X127906557Y-64438555D01*
X127912359Y-64422339D01*
X127919723Y-64406770D01*
X127928577Y-64391997D01*
X127938837Y-64378164D01*
X127950403Y-64365403D01*
X127963164Y-64353837D01*
X127976997Y-64343577D01*
X127991770Y-64334723D01*
X128007339Y-64327359D01*
X128023555Y-64321557D01*
X128040262Y-64317372D01*
X128057298Y-64314845D01*
X128074500Y-64314000D01*
X129775500Y-64314000D01*
X129792702Y-64314845D01*
G37*
G36*
X129792702Y-63044845D02*
G01*
X129809738Y-63047372D01*
X129826445Y-63051557D01*
X129842661Y-63057359D01*
X129858230Y-63064723D01*
X129873003Y-63073577D01*
X129886836Y-63083837D01*
X129899597Y-63095403D01*
X129911163Y-63108164D01*
X129921423Y-63121997D01*
X129930277Y-63136770D01*
X129937641Y-63152339D01*
X129943443Y-63168555D01*
X129947628Y-63185262D01*
X129950155Y-63202298D01*
X129951000Y-63219500D01*
X129951000Y-63570500D01*
X129950155Y-63587702D01*
X129947628Y-63604738D01*
X129943443Y-63621445D01*
X129937641Y-63637661D01*
X129930277Y-63653230D01*
X129921423Y-63668003D01*
X129911163Y-63681836D01*
X129899597Y-63694597D01*
X129886836Y-63706163D01*
X129873003Y-63716423D01*
X129858230Y-63725277D01*
X129842661Y-63732641D01*
X129826445Y-63738443D01*
X129809738Y-63742628D01*
X129792702Y-63745155D01*
X129775500Y-63746000D01*
X128074500Y-63746000D01*
X128057298Y-63745155D01*
X128040262Y-63742628D01*
X128023555Y-63738443D01*
X128007339Y-63732641D01*
X127991770Y-63725277D01*
X127976997Y-63716423D01*
X127963164Y-63706163D01*
X127950403Y-63694597D01*
X127938837Y-63681836D01*
X127928577Y-63668003D01*
X127919723Y-63653230D01*
X127912359Y-63637661D01*
X127906557Y-63621445D01*
X127902372Y-63604738D01*
X127899845Y-63587702D01*
X127899000Y-63570500D01*
X127899000Y-63219500D01*
X127899845Y-63202298D01*
X127902372Y-63185262D01*
X127906557Y-63168555D01*
X127912359Y-63152339D01*
X127919723Y-63136770D01*
X127928577Y-63121997D01*
X127938837Y-63108164D01*
X127950403Y-63095403D01*
X127963164Y-63083837D01*
X127976997Y-63073577D01*
X127991770Y-63064723D01*
X128007339Y-63057359D01*
X128023555Y-63051557D01*
X128040262Y-63047372D01*
X128057298Y-63044845D01*
X128074500Y-63044000D01*
X129775500Y-63044000D01*
X129792702Y-63044845D01*
G37*
G36*
X134742702Y-63044845D02*
G01*
X134759738Y-63047372D01*
X134776445Y-63051557D01*
X134792661Y-63057359D01*
X134808230Y-63064723D01*
X134823003Y-63073577D01*
X134836836Y-63083837D01*
X134849597Y-63095403D01*
X134861163Y-63108164D01*
X134871423Y-63121997D01*
X134880277Y-63136770D01*
X134887641Y-63152339D01*
X134893443Y-63168555D01*
X134897628Y-63185262D01*
X134900155Y-63202298D01*
X134901000Y-63219500D01*
X134901000Y-63570500D01*
X134900155Y-63587702D01*
X134897628Y-63604738D01*
X134893443Y-63621445D01*
X134887641Y-63637661D01*
X134880277Y-63653230D01*
X134871423Y-63668003D01*
X134861163Y-63681836D01*
X134849597Y-63694597D01*
X134836836Y-63706163D01*
X134823003Y-63716423D01*
X134808230Y-63725277D01*
X134792661Y-63732641D01*
X134776445Y-63738443D01*
X134759738Y-63742628D01*
X134742702Y-63745155D01*
X134725500Y-63746000D01*
X133024500Y-63746000D01*
X133007298Y-63745155D01*
X132990262Y-63742628D01*
X132973555Y-63738443D01*
X132957339Y-63732641D01*
X132941770Y-63725277D01*
X132926997Y-63716423D01*
X132913164Y-63706163D01*
X132900403Y-63694597D01*
X132888837Y-63681836D01*
X132878577Y-63668003D01*
X132869723Y-63653230D01*
X132862359Y-63637661D01*
X132856557Y-63621445D01*
X132852372Y-63604738D01*
X132849845Y-63587702D01*
X132849000Y-63570500D01*
X132849000Y-63219500D01*
X132849845Y-63202298D01*
X132852372Y-63185262D01*
X132856557Y-63168555D01*
X132862359Y-63152339D01*
X132869723Y-63136770D01*
X132878577Y-63121997D01*
X132888837Y-63108164D01*
X132900403Y-63095403D01*
X132913164Y-63083837D01*
X132926997Y-63073577D01*
X132941770Y-63064723D01*
X132957339Y-63057359D01*
X132973555Y-63051557D01*
X132990262Y-63047372D01*
X133007298Y-63044845D01*
X133024500Y-63044000D01*
X134725500Y-63044000D01*
X134742702Y-63044845D01*
G37*
G36*
X134742702Y-64314845D02*
G01*
X134759738Y-64317372D01*
X134776445Y-64321557D01*
X134792661Y-64327359D01*
X134808230Y-64334723D01*
X134823003Y-64343577D01*
X134836836Y-64353837D01*
X134849597Y-64365403D01*
X134861163Y-64378164D01*
X134871423Y-64391997D01*
X134880277Y-64406770D01*
X134887641Y-64422339D01*
X134893443Y-64438555D01*
X134897628Y-64455262D01*
X134900155Y-64472298D01*
X134901000Y-64489500D01*
X134901000Y-64840500D01*
X134900155Y-64857702D01*
X134897628Y-64874738D01*
X134893443Y-64891445D01*
X134887641Y-64907661D01*
X134880277Y-64923230D01*
X134871423Y-64938003D01*
X134861163Y-64951836D01*
X134849597Y-64964597D01*
X134836836Y-64976163D01*
X134823003Y-64986423D01*
X134808230Y-64995277D01*
X134792661Y-65002641D01*
X134776445Y-65008443D01*
X134759738Y-65012628D01*
X134742702Y-65015155D01*
X134725500Y-65016000D01*
X133024500Y-65016000D01*
X133007298Y-65015155D01*
X132990262Y-65012628D01*
X132973555Y-65008443D01*
X132957339Y-65002641D01*
X132941770Y-64995277D01*
X132926997Y-64986423D01*
X132913164Y-64976163D01*
X132900403Y-64964597D01*
X132888837Y-64951836D01*
X132878577Y-64938003D01*
X132869723Y-64923230D01*
X132862359Y-64907661D01*
X132856557Y-64891445D01*
X132852372Y-64874738D01*
X132849845Y-64857702D01*
X132849000Y-64840500D01*
X132849000Y-64489500D01*
X132849845Y-64472298D01*
X132852372Y-64455262D01*
X132856557Y-64438555D01*
X132862359Y-64422339D01*
X132869723Y-64406770D01*
X132878577Y-64391997D01*
X132888837Y-64378164D01*
X132900403Y-64365403D01*
X132913164Y-64353837D01*
X132926997Y-64343577D01*
X132941770Y-64334723D01*
X132957339Y-64327359D01*
X132973555Y-64321557D01*
X132990262Y-64317372D01*
X133007298Y-64314845D01*
X133024500Y-64314000D01*
X134725500Y-64314000D01*
X134742702Y-64314845D01*
G37*
G36*
X134742702Y-65584845D02*
G01*
X134759738Y-65587372D01*
X134776445Y-65591557D01*
X134792661Y-65597359D01*
X134808230Y-65604723D01*
X134823003Y-65613577D01*
X134836836Y-65623837D01*
X134849597Y-65635403D01*
X134861163Y-65648164D01*
X134871423Y-65661997D01*
X134880277Y-65676770D01*
X134887641Y-65692339D01*
X134893443Y-65708555D01*
X134897628Y-65725262D01*
X134900155Y-65742298D01*
X134901000Y-65759500D01*
X134901000Y-66110500D01*
X134900155Y-66127702D01*
X134897628Y-66144738D01*
X134893443Y-66161445D01*
X134887641Y-66177661D01*
X134880277Y-66193230D01*
X134871423Y-66208003D01*
X134861163Y-66221836D01*
X134849597Y-66234597D01*
X134836836Y-66246163D01*
X134823003Y-66256423D01*
X134808230Y-66265277D01*
X134792661Y-66272641D01*
X134776445Y-66278443D01*
X134759738Y-66282628D01*
X134742702Y-66285155D01*
X134725500Y-66286000D01*
X133024500Y-66286000D01*
X133007298Y-66285155D01*
X132990262Y-66282628D01*
X132973555Y-66278443D01*
X132957339Y-66272641D01*
X132941770Y-66265277D01*
X132926997Y-66256423D01*
X132913164Y-66246163D01*
X132900403Y-66234597D01*
X132888837Y-66221836D01*
X132878577Y-66208003D01*
X132869723Y-66193230D01*
X132862359Y-66177661D01*
X132856557Y-66161445D01*
X132852372Y-66144738D01*
X132849845Y-66127702D01*
X132849000Y-66110500D01*
X132849000Y-65759500D01*
X132849845Y-65742298D01*
X132852372Y-65725262D01*
X132856557Y-65708555D01*
X132862359Y-65692339D01*
X132869723Y-65676770D01*
X132878577Y-65661997D01*
X132888837Y-65648164D01*
X132900403Y-65635403D01*
X132913164Y-65623837D01*
X132926997Y-65613577D01*
X132941770Y-65604723D01*
X132957339Y-65597359D01*
X132973555Y-65591557D01*
X132990262Y-65587372D01*
X133007298Y-65584845D01*
X133024500Y-65584000D01*
X134725500Y-65584000D01*
X134742702Y-65584845D01*
G37*
G36*
X134742702Y-66854845D02*
G01*
X134759738Y-66857372D01*
X134776445Y-66861557D01*
X134792661Y-66867359D01*
X134808230Y-66874723D01*
X134823003Y-66883577D01*
X134836836Y-66893837D01*
X134849597Y-66905403D01*
X134861163Y-66918164D01*
X134871423Y-66931997D01*
X134880277Y-66946770D01*
X134887641Y-66962339D01*
X134893443Y-66978555D01*
X134897628Y-66995262D01*
X134900155Y-67012298D01*
X134901000Y-67029500D01*
X134901000Y-67380500D01*
X134900155Y-67397702D01*
X134897628Y-67414738D01*
X134893443Y-67431445D01*
X134887641Y-67447661D01*
X134880277Y-67463230D01*
X134871423Y-67478003D01*
X134861163Y-67491836D01*
X134849597Y-67504597D01*
X134836836Y-67516163D01*
X134823003Y-67526423D01*
X134808230Y-67535277D01*
X134792661Y-67542641D01*
X134776445Y-67548443D01*
X134759738Y-67552628D01*
X134742702Y-67555155D01*
X134725500Y-67556000D01*
X133024500Y-67556000D01*
X133007298Y-67555155D01*
X132990262Y-67552628D01*
X132973555Y-67548443D01*
X132957339Y-67542641D01*
X132941770Y-67535277D01*
X132926997Y-67526423D01*
X132913164Y-67516163D01*
X132900403Y-67504597D01*
X132888837Y-67491836D01*
X132878577Y-67478003D01*
X132869723Y-67463230D01*
X132862359Y-67447661D01*
X132856557Y-67431445D01*
X132852372Y-67414738D01*
X132849845Y-67397702D01*
X132849000Y-67380500D01*
X132849000Y-67029500D01*
X132849845Y-67012298D01*
X132852372Y-66995262D01*
X132856557Y-66978555D01*
X132862359Y-66962339D01*
X132869723Y-66946770D01*
X132878577Y-66931997D01*
X132888837Y-66918164D01*
X132900403Y-66905403D01*
X132913164Y-66893837D01*
X132926997Y-66883577D01*
X132941770Y-66874723D01*
X132957339Y-66867359D01*
X132973555Y-66861557D01*
X132990262Y-66857372D01*
X133007298Y-66854845D01*
X133024500Y-66854000D01*
X134725500Y-66854000D01*
X134742702Y-66854845D01*
G37*
D18*
X146760000Y-76220000D03*
X149300000Y-76220000D03*
X151840000Y-76220000D03*
X154380000Y-76220000D03*
X156920000Y-76220000D03*
X159460000Y-76220000D03*
D19*
X162000000Y-76220000D03*
D18*
X146760000Y-60980000D03*
X149300000Y-60980000D03*
X151840000Y-60980000D03*
X154380000Y-60980000D03*
X156920000Y-60980000D03*
X159460000Y-60980000D03*
D19*
X162000000Y-60980000D03*
D17*
G36*
X129492702Y-58654845D02*
G01*
X129509738Y-58657372D01*
X129526445Y-58661557D01*
X129542661Y-58667359D01*
X129558230Y-58674723D01*
X129573003Y-58683577D01*
X129586836Y-58693837D01*
X129599597Y-58705403D01*
X129611163Y-58718164D01*
X129621423Y-58731997D01*
X129630277Y-58746770D01*
X129637641Y-58762339D01*
X129643443Y-58778555D01*
X129647628Y-58795262D01*
X129650155Y-58812298D01*
X129651000Y-58829500D01*
X129651000Y-59180500D01*
X129650155Y-59197702D01*
X129647628Y-59214738D01*
X129643443Y-59231445D01*
X129637641Y-59247661D01*
X129630277Y-59263230D01*
X129621423Y-59278003D01*
X129611163Y-59291836D01*
X129599597Y-59304597D01*
X129586836Y-59316163D01*
X129573003Y-59326423D01*
X129558230Y-59335277D01*
X129542661Y-59342641D01*
X129526445Y-59348443D01*
X129509738Y-59352628D01*
X129492702Y-59355155D01*
X129475500Y-59356000D01*
X127774500Y-59356000D01*
X127757298Y-59355155D01*
X127740262Y-59352628D01*
X127723555Y-59348443D01*
X127707339Y-59342641D01*
X127691770Y-59335277D01*
X127676997Y-59326423D01*
X127663164Y-59316163D01*
X127650403Y-59304597D01*
X127638837Y-59291836D01*
X127628577Y-59278003D01*
X127619723Y-59263230D01*
X127612359Y-59247661D01*
X127606557Y-59231445D01*
X127602372Y-59214738D01*
X127599845Y-59197702D01*
X127599000Y-59180500D01*
X127599000Y-58829500D01*
X127599845Y-58812298D01*
X127602372Y-58795262D01*
X127606557Y-58778555D01*
X127612359Y-58762339D01*
X127619723Y-58746770D01*
X127628577Y-58731997D01*
X127638837Y-58718164D01*
X127650403Y-58705403D01*
X127663164Y-58693837D01*
X127676997Y-58683577D01*
X127691770Y-58674723D01*
X127707339Y-58667359D01*
X127723555Y-58661557D01*
X127740262Y-58657372D01*
X127757298Y-58654845D01*
X127774500Y-58654000D01*
X129475500Y-58654000D01*
X129492702Y-58654845D01*
G37*
G36*
X129492702Y-57384845D02*
G01*
X129509738Y-57387372D01*
X129526445Y-57391557D01*
X129542661Y-57397359D01*
X129558230Y-57404723D01*
X129573003Y-57413577D01*
X129586836Y-57423837D01*
X129599597Y-57435403D01*
X129611163Y-57448164D01*
X129621423Y-57461997D01*
X129630277Y-57476770D01*
X129637641Y-57492339D01*
X129643443Y-57508555D01*
X129647628Y-57525262D01*
X129650155Y-57542298D01*
X129651000Y-57559500D01*
X129651000Y-57910500D01*
X129650155Y-57927702D01*
X129647628Y-57944738D01*
X129643443Y-57961445D01*
X129637641Y-57977661D01*
X129630277Y-57993230D01*
X129621423Y-58008003D01*
X129611163Y-58021836D01*
X129599597Y-58034597D01*
X129586836Y-58046163D01*
X129573003Y-58056423D01*
X129558230Y-58065277D01*
X129542661Y-58072641D01*
X129526445Y-58078443D01*
X129509738Y-58082628D01*
X129492702Y-58085155D01*
X129475500Y-58086000D01*
X127774500Y-58086000D01*
X127757298Y-58085155D01*
X127740262Y-58082628D01*
X127723555Y-58078443D01*
X127707339Y-58072641D01*
X127691770Y-58065277D01*
X127676997Y-58056423D01*
X127663164Y-58046163D01*
X127650403Y-58034597D01*
X127638837Y-58021836D01*
X127628577Y-58008003D01*
X127619723Y-57993230D01*
X127612359Y-57977661D01*
X127606557Y-57961445D01*
X127602372Y-57944738D01*
X127599845Y-57927702D01*
X127599000Y-57910500D01*
X127599000Y-57559500D01*
X127599845Y-57542298D01*
X127602372Y-57525262D01*
X127606557Y-57508555D01*
X127612359Y-57492339D01*
X127619723Y-57476770D01*
X127628577Y-57461997D01*
X127638837Y-57448164D01*
X127650403Y-57435403D01*
X127663164Y-57423837D01*
X127676997Y-57413577D01*
X127691770Y-57404723D01*
X127707339Y-57397359D01*
X127723555Y-57391557D01*
X127740262Y-57387372D01*
X127757298Y-57384845D01*
X127774500Y-57384000D01*
X129475500Y-57384000D01*
X129492702Y-57384845D01*
G37*
G36*
X129492702Y-56114845D02*
G01*
X129509738Y-56117372D01*
X129526445Y-56121557D01*
X129542661Y-56127359D01*
X129558230Y-56134723D01*
X129573003Y-56143577D01*
X129586836Y-56153837D01*
X129599597Y-56165403D01*
X129611163Y-56178164D01*
X129621423Y-56191997D01*
X129630277Y-56206770D01*
X129637641Y-56222339D01*
X129643443Y-56238555D01*
X129647628Y-56255262D01*
X129650155Y-56272298D01*
X129651000Y-56289500D01*
X129651000Y-56640500D01*
X129650155Y-56657702D01*
X129647628Y-56674738D01*
X129643443Y-56691445D01*
X129637641Y-56707661D01*
X129630277Y-56723230D01*
X129621423Y-56738003D01*
X129611163Y-56751836D01*
X129599597Y-56764597D01*
X129586836Y-56776163D01*
X129573003Y-56786423D01*
X129558230Y-56795277D01*
X129542661Y-56802641D01*
X129526445Y-56808443D01*
X129509738Y-56812628D01*
X129492702Y-56815155D01*
X129475500Y-56816000D01*
X127774500Y-56816000D01*
X127757298Y-56815155D01*
X127740262Y-56812628D01*
X127723555Y-56808443D01*
X127707339Y-56802641D01*
X127691770Y-56795277D01*
X127676997Y-56786423D01*
X127663164Y-56776163D01*
X127650403Y-56764597D01*
X127638837Y-56751836D01*
X127628577Y-56738003D01*
X127619723Y-56723230D01*
X127612359Y-56707661D01*
X127606557Y-56691445D01*
X127602372Y-56674738D01*
X127599845Y-56657702D01*
X127599000Y-56640500D01*
X127599000Y-56289500D01*
X127599845Y-56272298D01*
X127602372Y-56255262D01*
X127606557Y-56238555D01*
X127612359Y-56222339D01*
X127619723Y-56206770D01*
X127628577Y-56191997D01*
X127638837Y-56178164D01*
X127650403Y-56165403D01*
X127663164Y-56153837D01*
X127676997Y-56143577D01*
X127691770Y-56134723D01*
X127707339Y-56127359D01*
X127723555Y-56121557D01*
X127740262Y-56117372D01*
X127757298Y-56114845D01*
X127774500Y-56114000D01*
X129475500Y-56114000D01*
X129492702Y-56114845D01*
G37*
G36*
X129492702Y-54844845D02*
G01*
X129509738Y-54847372D01*
X129526445Y-54851557D01*
X129542661Y-54857359D01*
X129558230Y-54864723D01*
X129573003Y-54873577D01*
X129586836Y-54883837D01*
X129599597Y-54895403D01*
X129611163Y-54908164D01*
X129621423Y-54921997D01*
X129630277Y-54936770D01*
X129637641Y-54952339D01*
X129643443Y-54968555D01*
X129647628Y-54985262D01*
X129650155Y-55002298D01*
X129651000Y-55019500D01*
X129651000Y-55370500D01*
X129650155Y-55387702D01*
X129647628Y-55404738D01*
X129643443Y-55421445D01*
X129637641Y-55437661D01*
X129630277Y-55453230D01*
X129621423Y-55468003D01*
X129611163Y-55481836D01*
X129599597Y-55494597D01*
X129586836Y-55506163D01*
X129573003Y-55516423D01*
X129558230Y-55525277D01*
X129542661Y-55532641D01*
X129526445Y-55538443D01*
X129509738Y-55542628D01*
X129492702Y-55545155D01*
X129475500Y-55546000D01*
X127774500Y-55546000D01*
X127757298Y-55545155D01*
X127740262Y-55542628D01*
X127723555Y-55538443D01*
X127707339Y-55532641D01*
X127691770Y-55525277D01*
X127676997Y-55516423D01*
X127663164Y-55506163D01*
X127650403Y-55494597D01*
X127638837Y-55481836D01*
X127628577Y-55468003D01*
X127619723Y-55453230D01*
X127612359Y-55437661D01*
X127606557Y-55421445D01*
X127602372Y-55404738D01*
X127599845Y-55387702D01*
X127599000Y-55370500D01*
X127599000Y-55019500D01*
X127599845Y-55002298D01*
X127602372Y-54985262D01*
X127606557Y-54968555D01*
X127612359Y-54952339D01*
X127619723Y-54936770D01*
X127628577Y-54921997D01*
X127638837Y-54908164D01*
X127650403Y-54895403D01*
X127663164Y-54883837D01*
X127676997Y-54873577D01*
X127691770Y-54864723D01*
X127707339Y-54857359D01*
X127723555Y-54851557D01*
X127740262Y-54847372D01*
X127757298Y-54844845D01*
X127774500Y-54844000D01*
X129475500Y-54844000D01*
X129492702Y-54844845D01*
G37*
G36*
X134442702Y-54844845D02*
G01*
X134459738Y-54847372D01*
X134476445Y-54851557D01*
X134492661Y-54857359D01*
X134508230Y-54864723D01*
X134523003Y-54873577D01*
X134536836Y-54883837D01*
X134549597Y-54895403D01*
X134561163Y-54908164D01*
X134571423Y-54921997D01*
X134580277Y-54936770D01*
X134587641Y-54952339D01*
X134593443Y-54968555D01*
X134597628Y-54985262D01*
X134600155Y-55002298D01*
X134601000Y-55019500D01*
X134601000Y-55370500D01*
X134600155Y-55387702D01*
X134597628Y-55404738D01*
X134593443Y-55421445D01*
X134587641Y-55437661D01*
X134580277Y-55453230D01*
X134571423Y-55468003D01*
X134561163Y-55481836D01*
X134549597Y-55494597D01*
X134536836Y-55506163D01*
X134523003Y-55516423D01*
X134508230Y-55525277D01*
X134492661Y-55532641D01*
X134476445Y-55538443D01*
X134459738Y-55542628D01*
X134442702Y-55545155D01*
X134425500Y-55546000D01*
X132724500Y-55546000D01*
X132707298Y-55545155D01*
X132690262Y-55542628D01*
X132673555Y-55538443D01*
X132657339Y-55532641D01*
X132641770Y-55525277D01*
X132626997Y-55516423D01*
X132613164Y-55506163D01*
X132600403Y-55494597D01*
X132588837Y-55481836D01*
X132578577Y-55468003D01*
X132569723Y-55453230D01*
X132562359Y-55437661D01*
X132556557Y-55421445D01*
X132552372Y-55404738D01*
X132549845Y-55387702D01*
X132549000Y-55370500D01*
X132549000Y-55019500D01*
X132549845Y-55002298D01*
X132552372Y-54985262D01*
X132556557Y-54968555D01*
X132562359Y-54952339D01*
X132569723Y-54936770D01*
X132578577Y-54921997D01*
X132588837Y-54908164D01*
X132600403Y-54895403D01*
X132613164Y-54883837D01*
X132626997Y-54873577D01*
X132641770Y-54864723D01*
X132657339Y-54857359D01*
X132673555Y-54851557D01*
X132690262Y-54847372D01*
X132707298Y-54844845D01*
X132724500Y-54844000D01*
X134425500Y-54844000D01*
X134442702Y-54844845D01*
G37*
G36*
X134442702Y-56114845D02*
G01*
X134459738Y-56117372D01*
X134476445Y-56121557D01*
X134492661Y-56127359D01*
X134508230Y-56134723D01*
X134523003Y-56143577D01*
X134536836Y-56153837D01*
X134549597Y-56165403D01*
X134561163Y-56178164D01*
X134571423Y-56191997D01*
X134580277Y-56206770D01*
X134587641Y-56222339D01*
X134593443Y-56238555D01*
X134597628Y-56255262D01*
X134600155Y-56272298D01*
X134601000Y-56289500D01*
X134601000Y-56640500D01*
X134600155Y-56657702D01*
X134597628Y-56674738D01*
X134593443Y-56691445D01*
X134587641Y-56707661D01*
X134580277Y-56723230D01*
X134571423Y-56738003D01*
X134561163Y-56751836D01*
X134549597Y-56764597D01*
X134536836Y-56776163D01*
X134523003Y-56786423D01*
X134508230Y-56795277D01*
X134492661Y-56802641D01*
X134476445Y-56808443D01*
X134459738Y-56812628D01*
X134442702Y-56815155D01*
X134425500Y-56816000D01*
X132724500Y-56816000D01*
X132707298Y-56815155D01*
X132690262Y-56812628D01*
X132673555Y-56808443D01*
X132657339Y-56802641D01*
X132641770Y-56795277D01*
X132626997Y-56786423D01*
X132613164Y-56776163D01*
X132600403Y-56764597D01*
X132588837Y-56751836D01*
X132578577Y-56738003D01*
X132569723Y-56723230D01*
X132562359Y-56707661D01*
X132556557Y-56691445D01*
X132552372Y-56674738D01*
X132549845Y-56657702D01*
X132549000Y-56640500D01*
X132549000Y-56289500D01*
X132549845Y-56272298D01*
X132552372Y-56255262D01*
X132556557Y-56238555D01*
X132562359Y-56222339D01*
X132569723Y-56206770D01*
X132578577Y-56191997D01*
X132588837Y-56178164D01*
X132600403Y-56165403D01*
X132613164Y-56153837D01*
X132626997Y-56143577D01*
X132641770Y-56134723D01*
X132657339Y-56127359D01*
X132673555Y-56121557D01*
X132690262Y-56117372D01*
X132707298Y-56114845D01*
X132724500Y-56114000D01*
X134425500Y-56114000D01*
X134442702Y-56114845D01*
G37*
G36*
X134442702Y-57384845D02*
G01*
X134459738Y-57387372D01*
X134476445Y-57391557D01*
X134492661Y-57397359D01*
X134508230Y-57404723D01*
X134523003Y-57413577D01*
X134536836Y-57423837D01*
X134549597Y-57435403D01*
X134561163Y-57448164D01*
X134571423Y-57461997D01*
X134580277Y-57476770D01*
X134587641Y-57492339D01*
X134593443Y-57508555D01*
X134597628Y-57525262D01*
X134600155Y-57542298D01*
X134601000Y-57559500D01*
X134601000Y-57910500D01*
X134600155Y-57927702D01*
X134597628Y-57944738D01*
X134593443Y-57961445D01*
X134587641Y-57977661D01*
X134580277Y-57993230D01*
X134571423Y-58008003D01*
X134561163Y-58021836D01*
X134549597Y-58034597D01*
X134536836Y-58046163D01*
X134523003Y-58056423D01*
X134508230Y-58065277D01*
X134492661Y-58072641D01*
X134476445Y-58078443D01*
X134459738Y-58082628D01*
X134442702Y-58085155D01*
X134425500Y-58086000D01*
X132724500Y-58086000D01*
X132707298Y-58085155D01*
X132690262Y-58082628D01*
X132673555Y-58078443D01*
X132657339Y-58072641D01*
X132641770Y-58065277D01*
X132626997Y-58056423D01*
X132613164Y-58046163D01*
X132600403Y-58034597D01*
X132588837Y-58021836D01*
X132578577Y-58008003D01*
X132569723Y-57993230D01*
X132562359Y-57977661D01*
X132556557Y-57961445D01*
X132552372Y-57944738D01*
X132549845Y-57927702D01*
X132549000Y-57910500D01*
X132549000Y-57559500D01*
X132549845Y-57542298D01*
X132552372Y-57525262D01*
X132556557Y-57508555D01*
X132562359Y-57492339D01*
X132569723Y-57476770D01*
X132578577Y-57461997D01*
X132588837Y-57448164D01*
X132600403Y-57435403D01*
X132613164Y-57423837D01*
X132626997Y-57413577D01*
X132641770Y-57404723D01*
X132657339Y-57397359D01*
X132673555Y-57391557D01*
X132690262Y-57387372D01*
X132707298Y-57384845D01*
X132724500Y-57384000D01*
X134425500Y-57384000D01*
X134442702Y-57384845D01*
G37*
G36*
X134442702Y-58654845D02*
G01*
X134459738Y-58657372D01*
X134476445Y-58661557D01*
X134492661Y-58667359D01*
X134508230Y-58674723D01*
X134523003Y-58683577D01*
X134536836Y-58693837D01*
X134549597Y-58705403D01*
X134561163Y-58718164D01*
X134571423Y-58731997D01*
X134580277Y-58746770D01*
X134587641Y-58762339D01*
X134593443Y-58778555D01*
X134597628Y-58795262D01*
X134600155Y-58812298D01*
X134601000Y-58829500D01*
X134601000Y-59180500D01*
X134600155Y-59197702D01*
X134597628Y-59214738D01*
X134593443Y-59231445D01*
X134587641Y-59247661D01*
X134580277Y-59263230D01*
X134571423Y-59278003D01*
X134561163Y-59291836D01*
X134549597Y-59304597D01*
X134536836Y-59316163D01*
X134523003Y-59326423D01*
X134508230Y-59335277D01*
X134492661Y-59342641D01*
X134476445Y-59348443D01*
X134459738Y-59352628D01*
X134442702Y-59355155D01*
X134425500Y-59356000D01*
X132724500Y-59356000D01*
X132707298Y-59355155D01*
X132690262Y-59352628D01*
X132673555Y-59348443D01*
X132657339Y-59342641D01*
X132641770Y-59335277D01*
X132626997Y-59326423D01*
X132613164Y-59316163D01*
X132600403Y-59304597D01*
X132588837Y-59291836D01*
X132578577Y-59278003D01*
X132569723Y-59263230D01*
X132562359Y-59247661D01*
X132556557Y-59231445D01*
X132552372Y-59214738D01*
X132549845Y-59197702D01*
X132549000Y-59180500D01*
X132549000Y-58829500D01*
X132549845Y-58812298D01*
X132552372Y-58795262D01*
X132556557Y-58778555D01*
X132562359Y-58762339D01*
X132569723Y-58746770D01*
X132578577Y-58731997D01*
X132588837Y-58718164D01*
X132600403Y-58705403D01*
X132613164Y-58693837D01*
X132626997Y-58683577D01*
X132641770Y-58674723D01*
X132657339Y-58667359D01*
X132673555Y-58661557D01*
X132690262Y-58657372D01*
X132707298Y-58654845D01*
X132724500Y-58654000D01*
X134425500Y-58654000D01*
X134442702Y-58654845D01*
G37*
G36*
X129013779Y-68575266D02*
G01*
X129039309Y-68579053D01*
X129064345Y-68585325D01*
X129088646Y-68594020D01*
X129111977Y-68605055D01*
X129134115Y-68618323D01*
X129154845Y-68633698D01*
X129173969Y-68651031D01*
X129191302Y-68670155D01*
X129206677Y-68690885D01*
X129219945Y-68713023D01*
X129230980Y-68736354D01*
X129239675Y-68760655D01*
X129245947Y-68785691D01*
X129249734Y-68811221D01*
X129251000Y-68837000D01*
X129251000Y-69363000D01*
X129249734Y-69388779D01*
X129245947Y-69414309D01*
X129239675Y-69439345D01*
X129230980Y-69463646D01*
X129219945Y-69486977D01*
X129206677Y-69509115D01*
X129191302Y-69529845D01*
X129173969Y-69548969D01*
X129154845Y-69566302D01*
X129134115Y-69581677D01*
X129111977Y-69594945D01*
X129088646Y-69605980D01*
X129064345Y-69614675D01*
X129039309Y-69620947D01*
X129013779Y-69624734D01*
X128988000Y-69626000D01*
X128362000Y-69626000D01*
X128336221Y-69624734D01*
X128310691Y-69620947D01*
X128285655Y-69614675D01*
X128261354Y-69605980D01*
X128238023Y-69594945D01*
X128215885Y-69581677D01*
X128195155Y-69566302D01*
X128176031Y-69548969D01*
X128158698Y-69529845D01*
X128143323Y-69509115D01*
X128130055Y-69486977D01*
X128119020Y-69463646D01*
X128110325Y-69439345D01*
X128104053Y-69414309D01*
X128100266Y-69388779D01*
X128099000Y-69363000D01*
X128099000Y-68837000D01*
X128100266Y-68811221D01*
X128104053Y-68785691D01*
X128110325Y-68760655D01*
X128119020Y-68736354D01*
X128130055Y-68713023D01*
X128143323Y-68690885D01*
X128158698Y-68670155D01*
X128176031Y-68651031D01*
X128195155Y-68633698D01*
X128215885Y-68618323D01*
X128238023Y-68605055D01*
X128261354Y-68594020D01*
X128285655Y-68585325D01*
X128310691Y-68579053D01*
X128336221Y-68575266D01*
X128362000Y-68574000D01*
X128988000Y-68574000D01*
X129013779Y-68575266D01*
G37*
G36*
X127263779Y-68575266D02*
G01*
X127289309Y-68579053D01*
X127314345Y-68585325D01*
X127338646Y-68594020D01*
X127361977Y-68605055D01*
X127384115Y-68618323D01*
X127404845Y-68633698D01*
X127423969Y-68651031D01*
X127441302Y-68670155D01*
X127456677Y-68690885D01*
X127469945Y-68713023D01*
X127480980Y-68736354D01*
X127489675Y-68760655D01*
X127495947Y-68785691D01*
X127499734Y-68811221D01*
X127501000Y-68837000D01*
X127501000Y-69363000D01*
X127499734Y-69388779D01*
X127495947Y-69414309D01*
X127489675Y-69439345D01*
X127480980Y-69463646D01*
X127469945Y-69486977D01*
X127456677Y-69509115D01*
X127441302Y-69529845D01*
X127423969Y-69548969D01*
X127404845Y-69566302D01*
X127384115Y-69581677D01*
X127361977Y-69594945D01*
X127338646Y-69605980D01*
X127314345Y-69614675D01*
X127289309Y-69620947D01*
X127263779Y-69624734D01*
X127238000Y-69626000D01*
X126612000Y-69626000D01*
X126586221Y-69624734D01*
X126560691Y-69620947D01*
X126535655Y-69614675D01*
X126511354Y-69605980D01*
X126488023Y-69594945D01*
X126465885Y-69581677D01*
X126445155Y-69566302D01*
X126426031Y-69548969D01*
X126408698Y-69529845D01*
X126393323Y-69509115D01*
X126380055Y-69486977D01*
X126369020Y-69463646D01*
X126360325Y-69439345D01*
X126354053Y-69414309D01*
X126350266Y-69388779D01*
X126349000Y-69363000D01*
X126349000Y-68837000D01*
X126350266Y-68811221D01*
X126354053Y-68785691D01*
X126360325Y-68760655D01*
X126369020Y-68736354D01*
X126380055Y-68713023D01*
X126393323Y-68690885D01*
X126408698Y-68670155D01*
X126426031Y-68651031D01*
X126445155Y-68633698D01*
X126465885Y-68618323D01*
X126488023Y-68605055D01*
X126511354Y-68594020D01*
X126535655Y-68585325D01*
X126560691Y-68579053D01*
X126586221Y-68575266D01*
X126612000Y-68574000D01*
X127238000Y-68574000D01*
X127263779Y-68575266D01*
G37*
D20*
X110900000Y-79700000D03*
X108900000Y-80650000D03*
X108900000Y-78750000D03*
D21*
X107150000Y-83620000D03*
X107150000Y-82670000D03*
X107150000Y-84570000D03*
X104950000Y-84570000D03*
X104950000Y-83620000D03*
X104950000Y-82670000D03*
D17*
G36*
X111113779Y-82075266D02*
G01*
X111139309Y-82079053D01*
X111164345Y-82085325D01*
X111188646Y-82094020D01*
X111211977Y-82105055D01*
X111234115Y-82118323D01*
X111254845Y-82133698D01*
X111273969Y-82151031D01*
X111291302Y-82170155D01*
X111306677Y-82190885D01*
X111319945Y-82213023D01*
X111330980Y-82236354D01*
X111339675Y-82260655D01*
X111345947Y-82285691D01*
X111349734Y-82311221D01*
X111351000Y-82337000D01*
X111351000Y-82863000D01*
X111349734Y-82888779D01*
X111345947Y-82914309D01*
X111339675Y-82939345D01*
X111330980Y-82963646D01*
X111319945Y-82986977D01*
X111306677Y-83009115D01*
X111291302Y-83029845D01*
X111273969Y-83048969D01*
X111254845Y-83066302D01*
X111234115Y-83081677D01*
X111211977Y-83094945D01*
X111188646Y-83105980D01*
X111164345Y-83114675D01*
X111139309Y-83120947D01*
X111113779Y-83124734D01*
X111088000Y-83126000D01*
X110462000Y-83126000D01*
X110436221Y-83124734D01*
X110410691Y-83120947D01*
X110385655Y-83114675D01*
X110361354Y-83105980D01*
X110338023Y-83094945D01*
X110315885Y-83081677D01*
X110295155Y-83066302D01*
X110276031Y-83048969D01*
X110258698Y-83029845D01*
X110243323Y-83009115D01*
X110230055Y-82986977D01*
X110219020Y-82963646D01*
X110210325Y-82939345D01*
X110204053Y-82914309D01*
X110200266Y-82888779D01*
X110199000Y-82863000D01*
X110199000Y-82337000D01*
X110200266Y-82311221D01*
X110204053Y-82285691D01*
X110210325Y-82260655D01*
X110219020Y-82236354D01*
X110230055Y-82213023D01*
X110243323Y-82190885D01*
X110258698Y-82170155D01*
X110276031Y-82151031D01*
X110295155Y-82133698D01*
X110315885Y-82118323D01*
X110338023Y-82105055D01*
X110361354Y-82094020D01*
X110385655Y-82085325D01*
X110410691Y-82079053D01*
X110436221Y-82075266D01*
X110462000Y-82074000D01*
X111088000Y-82074000D01*
X111113779Y-82075266D01*
G37*
G36*
X109363779Y-82075266D02*
G01*
X109389309Y-82079053D01*
X109414345Y-82085325D01*
X109438646Y-82094020D01*
X109461977Y-82105055D01*
X109484115Y-82118323D01*
X109504845Y-82133698D01*
X109523969Y-82151031D01*
X109541302Y-82170155D01*
X109556677Y-82190885D01*
X109569945Y-82213023D01*
X109580980Y-82236354D01*
X109589675Y-82260655D01*
X109595947Y-82285691D01*
X109599734Y-82311221D01*
X109601000Y-82337000D01*
X109601000Y-82863000D01*
X109599734Y-82888779D01*
X109595947Y-82914309D01*
X109589675Y-82939345D01*
X109580980Y-82963646D01*
X109569945Y-82986977D01*
X109556677Y-83009115D01*
X109541302Y-83029845D01*
X109523969Y-83048969D01*
X109504845Y-83066302D01*
X109484115Y-83081677D01*
X109461977Y-83094945D01*
X109438646Y-83105980D01*
X109414345Y-83114675D01*
X109389309Y-83120947D01*
X109363779Y-83124734D01*
X109338000Y-83126000D01*
X108712000Y-83126000D01*
X108686221Y-83124734D01*
X108660691Y-83120947D01*
X108635655Y-83114675D01*
X108611354Y-83105980D01*
X108588023Y-83094945D01*
X108565885Y-83081677D01*
X108545155Y-83066302D01*
X108526031Y-83048969D01*
X108508698Y-83029845D01*
X108493323Y-83009115D01*
X108480055Y-82986977D01*
X108469020Y-82963646D01*
X108460325Y-82939345D01*
X108454053Y-82914309D01*
X108450266Y-82888779D01*
X108449000Y-82863000D01*
X108449000Y-82337000D01*
X108450266Y-82311221D01*
X108454053Y-82285691D01*
X108460325Y-82260655D01*
X108469020Y-82236354D01*
X108480055Y-82213023D01*
X108493323Y-82190885D01*
X108508698Y-82170155D01*
X108526031Y-82151031D01*
X108545155Y-82133698D01*
X108565885Y-82118323D01*
X108588023Y-82105055D01*
X108611354Y-82094020D01*
X108635655Y-82085325D01*
X108660691Y-82079053D01*
X108686221Y-82075266D01*
X108712000Y-82074000D01*
X109338000Y-82074000D01*
X109363779Y-82075266D01*
G37*
G36*
X107013779Y-85975266D02*
G01*
X107039309Y-85979053D01*
X107064345Y-85985325D01*
X107088646Y-85994020D01*
X107111977Y-86005055D01*
X107134115Y-86018323D01*
X107154845Y-86033698D01*
X107173969Y-86051031D01*
X107191302Y-86070155D01*
X107206677Y-86090885D01*
X107219945Y-86113023D01*
X107230980Y-86136354D01*
X107239675Y-86160655D01*
X107245947Y-86185691D01*
X107249734Y-86211221D01*
X107251000Y-86237000D01*
X107251000Y-86763000D01*
X107249734Y-86788779D01*
X107245947Y-86814309D01*
X107239675Y-86839345D01*
X107230980Y-86863646D01*
X107219945Y-86886977D01*
X107206677Y-86909115D01*
X107191302Y-86929845D01*
X107173969Y-86948969D01*
X107154845Y-86966302D01*
X107134115Y-86981677D01*
X107111977Y-86994945D01*
X107088646Y-87005980D01*
X107064345Y-87014675D01*
X107039309Y-87020947D01*
X107013779Y-87024734D01*
X106988000Y-87026000D01*
X106362000Y-87026000D01*
X106336221Y-87024734D01*
X106310691Y-87020947D01*
X106285655Y-87014675D01*
X106261354Y-87005980D01*
X106238023Y-86994945D01*
X106215885Y-86981677D01*
X106195155Y-86966302D01*
X106176031Y-86948969D01*
X106158698Y-86929845D01*
X106143323Y-86909115D01*
X106130055Y-86886977D01*
X106119020Y-86863646D01*
X106110325Y-86839345D01*
X106104053Y-86814309D01*
X106100266Y-86788779D01*
X106099000Y-86763000D01*
X106099000Y-86237000D01*
X106100266Y-86211221D01*
X106104053Y-86185691D01*
X106110325Y-86160655D01*
X106119020Y-86136354D01*
X106130055Y-86113023D01*
X106143323Y-86090885D01*
X106158698Y-86070155D01*
X106176031Y-86051031D01*
X106195155Y-86033698D01*
X106215885Y-86018323D01*
X106238023Y-86005055D01*
X106261354Y-85994020D01*
X106285655Y-85985325D01*
X106310691Y-85979053D01*
X106336221Y-85975266D01*
X106362000Y-85974000D01*
X106988000Y-85974000D01*
X107013779Y-85975266D01*
G37*
G36*
X105263779Y-85975266D02*
G01*
X105289309Y-85979053D01*
X105314345Y-85985325D01*
X105338646Y-85994020D01*
X105361977Y-86005055D01*
X105384115Y-86018323D01*
X105404845Y-86033698D01*
X105423969Y-86051031D01*
X105441302Y-86070155D01*
X105456677Y-86090885D01*
X105469945Y-86113023D01*
X105480980Y-86136354D01*
X105489675Y-86160655D01*
X105495947Y-86185691D01*
X105499734Y-86211221D01*
X105501000Y-86237000D01*
X105501000Y-86763000D01*
X105499734Y-86788779D01*
X105495947Y-86814309D01*
X105489675Y-86839345D01*
X105480980Y-86863646D01*
X105469945Y-86886977D01*
X105456677Y-86909115D01*
X105441302Y-86929845D01*
X105423969Y-86948969D01*
X105404845Y-86966302D01*
X105384115Y-86981677D01*
X105361977Y-86994945D01*
X105338646Y-87005980D01*
X105314345Y-87014675D01*
X105289309Y-87020947D01*
X105263779Y-87024734D01*
X105238000Y-87026000D01*
X104612000Y-87026000D01*
X104586221Y-87024734D01*
X104560691Y-87020947D01*
X104535655Y-87014675D01*
X104511354Y-87005980D01*
X104488023Y-86994945D01*
X104465885Y-86981677D01*
X104445155Y-86966302D01*
X104426031Y-86948969D01*
X104408698Y-86929845D01*
X104393323Y-86909115D01*
X104380055Y-86886977D01*
X104369020Y-86863646D01*
X104360325Y-86839345D01*
X104354053Y-86814309D01*
X104350266Y-86788779D01*
X104349000Y-86763000D01*
X104349000Y-86237000D01*
X104350266Y-86211221D01*
X104354053Y-86185691D01*
X104360325Y-86160655D01*
X104369020Y-86136354D01*
X104380055Y-86113023D01*
X104393323Y-86090885D01*
X104408698Y-86070155D01*
X104426031Y-86051031D01*
X104445155Y-86033698D01*
X104465885Y-86018323D01*
X104488023Y-86005055D01*
X104511354Y-85994020D01*
X104535655Y-85985325D01*
X104560691Y-85979053D01*
X104586221Y-85975266D01*
X104612000Y-85974000D01*
X105238000Y-85974000D01*
X105263779Y-85975266D01*
G37*
G36*
X117388779Y-74950266D02*
G01*
X117414309Y-74954053D01*
X117439345Y-74960325D01*
X117463646Y-74969020D01*
X117486977Y-74980055D01*
X117509115Y-74993323D01*
X117529845Y-75008698D01*
X117548969Y-75026031D01*
X117566302Y-75045155D01*
X117581677Y-75065885D01*
X117594945Y-75088023D01*
X117605980Y-75111354D01*
X117614675Y-75135655D01*
X117620947Y-75160691D01*
X117624734Y-75186221D01*
X117626000Y-75212000D01*
X117626000Y-75838000D01*
X117624734Y-75863779D01*
X117620947Y-75889309D01*
X117614675Y-75914345D01*
X117605980Y-75938646D01*
X117594945Y-75961977D01*
X117581677Y-75984115D01*
X117566302Y-76004845D01*
X117548969Y-76023969D01*
X117529845Y-76041302D01*
X117509115Y-76056677D01*
X117486977Y-76069945D01*
X117463646Y-76080980D01*
X117439345Y-76089675D01*
X117414309Y-76095947D01*
X117388779Y-76099734D01*
X117363000Y-76101000D01*
X116837000Y-76101000D01*
X116811221Y-76099734D01*
X116785691Y-76095947D01*
X116760655Y-76089675D01*
X116736354Y-76080980D01*
X116713023Y-76069945D01*
X116690885Y-76056677D01*
X116670155Y-76041302D01*
X116651031Y-76023969D01*
X116633698Y-76004845D01*
X116618323Y-75984115D01*
X116605055Y-75961977D01*
X116594020Y-75938646D01*
X116585325Y-75914345D01*
X116579053Y-75889309D01*
X116575266Y-75863779D01*
X116574000Y-75838000D01*
X116574000Y-75212000D01*
X116575266Y-75186221D01*
X116579053Y-75160691D01*
X116585325Y-75135655D01*
X116594020Y-75111354D01*
X116605055Y-75088023D01*
X116618323Y-75065885D01*
X116633698Y-75045155D01*
X116651031Y-75026031D01*
X116670155Y-75008698D01*
X116690885Y-74993323D01*
X116713023Y-74980055D01*
X116736354Y-74969020D01*
X116760655Y-74960325D01*
X116785691Y-74954053D01*
X116811221Y-74950266D01*
X116837000Y-74949000D01*
X117363000Y-74949000D01*
X117388779Y-74950266D01*
G37*
G36*
X117388779Y-76700266D02*
G01*
X117414309Y-76704053D01*
X117439345Y-76710325D01*
X117463646Y-76719020D01*
X117486977Y-76730055D01*
X117509115Y-76743323D01*
X117529845Y-76758698D01*
X117548969Y-76776031D01*
X117566302Y-76795155D01*
X117581677Y-76815885D01*
X117594945Y-76838023D01*
X117605980Y-76861354D01*
X117614675Y-76885655D01*
X117620947Y-76910691D01*
X117624734Y-76936221D01*
X117626000Y-76962000D01*
X117626000Y-77588000D01*
X117624734Y-77613779D01*
X117620947Y-77639309D01*
X117614675Y-77664345D01*
X117605980Y-77688646D01*
X117594945Y-77711977D01*
X117581677Y-77734115D01*
X117566302Y-77754845D01*
X117548969Y-77773969D01*
X117529845Y-77791302D01*
X117509115Y-77806677D01*
X117486977Y-77819945D01*
X117463646Y-77830980D01*
X117439345Y-77839675D01*
X117414309Y-77845947D01*
X117388779Y-77849734D01*
X117363000Y-77851000D01*
X116837000Y-77851000D01*
X116811221Y-77849734D01*
X116785691Y-77845947D01*
X116760655Y-77839675D01*
X116736354Y-77830980D01*
X116713023Y-77819945D01*
X116690885Y-77806677D01*
X116670155Y-77791302D01*
X116651031Y-77773969D01*
X116633698Y-77754845D01*
X116618323Y-77734115D01*
X116605055Y-77711977D01*
X116594020Y-77688646D01*
X116585325Y-77664345D01*
X116579053Y-77639309D01*
X116575266Y-77613779D01*
X116574000Y-77588000D01*
X116574000Y-76962000D01*
X116575266Y-76936221D01*
X116579053Y-76910691D01*
X116585325Y-76885655D01*
X116594020Y-76861354D01*
X116605055Y-76838023D01*
X116618323Y-76815885D01*
X116633698Y-76795155D01*
X116651031Y-76776031D01*
X116670155Y-76758698D01*
X116690885Y-76743323D01*
X116713023Y-76730055D01*
X116736354Y-76719020D01*
X116760655Y-76710325D01*
X116785691Y-76704053D01*
X116811221Y-76700266D01*
X116837000Y-76699000D01*
X117363000Y-76699000D01*
X117388779Y-76700266D01*
G37*
G36*
X123008147Y-75175296D02*
G01*
X123034283Y-75179173D01*
X123059913Y-75185594D01*
X123084791Y-75194495D01*
X123108677Y-75205792D01*
X123131340Y-75219376D01*
X123152563Y-75235116D01*
X123172140Y-75252860D01*
X123189884Y-75272437D01*
X123205624Y-75293660D01*
X123219208Y-75316323D01*
X123230505Y-75340209D01*
X123239406Y-75365087D01*
X123245827Y-75390717D01*
X123249704Y-75416853D01*
X123251000Y-75443244D01*
X123251000Y-77356756D01*
X123249704Y-77383147D01*
X123245827Y-77409283D01*
X123239406Y-77434913D01*
X123230505Y-77459791D01*
X123219208Y-77483677D01*
X123205624Y-77506340D01*
X123189884Y-77527563D01*
X123172140Y-77547140D01*
X123152563Y-77564884D01*
X123131340Y-77580624D01*
X123108677Y-77594208D01*
X123084791Y-77605505D01*
X123059913Y-77614406D01*
X123034283Y-77620827D01*
X123008147Y-77624704D01*
X122981756Y-77626000D01*
X122093244Y-77626000D01*
X122066853Y-77624704D01*
X122040717Y-77620827D01*
X122015087Y-77614406D01*
X121990209Y-77605505D01*
X121966323Y-77594208D01*
X121943660Y-77580624D01*
X121922437Y-77564884D01*
X121902860Y-77547140D01*
X121885116Y-77527563D01*
X121869376Y-77506340D01*
X121855792Y-77483677D01*
X121844495Y-77459791D01*
X121835594Y-77434913D01*
X121829173Y-77409283D01*
X121825296Y-77383147D01*
X121824000Y-77356756D01*
X121824000Y-75443244D01*
X121825296Y-75416853D01*
X121829173Y-75390717D01*
X121835594Y-75365087D01*
X121844495Y-75340209D01*
X121855792Y-75316323D01*
X121869376Y-75293660D01*
X121885116Y-75272437D01*
X121902860Y-75252860D01*
X121922437Y-75235116D01*
X121943660Y-75219376D01*
X121966323Y-75205792D01*
X121990209Y-75194495D01*
X122015087Y-75185594D01*
X122040717Y-75179173D01*
X122066853Y-75175296D01*
X122093244Y-75174000D01*
X122981756Y-75174000D01*
X123008147Y-75175296D01*
G37*
G36*
X119933147Y-75175296D02*
G01*
X119959283Y-75179173D01*
X119984913Y-75185594D01*
X120009791Y-75194495D01*
X120033677Y-75205792D01*
X120056340Y-75219376D01*
X120077563Y-75235116D01*
X120097140Y-75252860D01*
X120114884Y-75272437D01*
X120130624Y-75293660D01*
X120144208Y-75316323D01*
X120155505Y-75340209D01*
X120164406Y-75365087D01*
X120170827Y-75390717D01*
X120174704Y-75416853D01*
X120176000Y-75443244D01*
X120176000Y-77356756D01*
X120174704Y-77383147D01*
X120170827Y-77409283D01*
X120164406Y-77434913D01*
X120155505Y-77459791D01*
X120144208Y-77483677D01*
X120130624Y-77506340D01*
X120114884Y-77527563D01*
X120097140Y-77547140D01*
X120077563Y-77564884D01*
X120056340Y-77580624D01*
X120033677Y-77594208D01*
X120009791Y-77605505D01*
X119984913Y-77614406D01*
X119959283Y-77620827D01*
X119933147Y-77624704D01*
X119906756Y-77626000D01*
X119018244Y-77626000D01*
X118991853Y-77624704D01*
X118965717Y-77620827D01*
X118940087Y-77614406D01*
X118915209Y-77605505D01*
X118891323Y-77594208D01*
X118868660Y-77580624D01*
X118847437Y-77564884D01*
X118827860Y-77547140D01*
X118810116Y-77527563D01*
X118794376Y-77506340D01*
X118780792Y-77483677D01*
X118769495Y-77459791D01*
X118760594Y-77434913D01*
X118754173Y-77409283D01*
X118750296Y-77383147D01*
X118749000Y-77356756D01*
X118749000Y-75443244D01*
X118750296Y-75416853D01*
X118754173Y-75390717D01*
X118760594Y-75365087D01*
X118769495Y-75340209D01*
X118780792Y-75316323D01*
X118794376Y-75293660D01*
X118810116Y-75272437D01*
X118827860Y-75252860D01*
X118847437Y-75235116D01*
X118868660Y-75219376D01*
X118891323Y-75205792D01*
X118915209Y-75194495D01*
X118940087Y-75185594D01*
X118965717Y-75179173D01*
X118991853Y-75175296D01*
X119018244Y-75174000D01*
X119906756Y-75174000D01*
X119933147Y-75175296D01*
G37*
D22*
X117800000Y-86250000D03*
X122400000Y-86250000D03*
X120100000Y-86250000D03*
D23*
X120100000Y-79950000D03*
D17*
G36*
X115613779Y-86275266D02*
G01*
X115639309Y-86279053D01*
X115664345Y-86285325D01*
X115688646Y-86294020D01*
X115711977Y-86305055D01*
X115734115Y-86318323D01*
X115754845Y-86333698D01*
X115773969Y-86351031D01*
X115791302Y-86370155D01*
X115806677Y-86390885D01*
X115819945Y-86413023D01*
X115830980Y-86436354D01*
X115839675Y-86460655D01*
X115845947Y-86485691D01*
X115849734Y-86511221D01*
X115851000Y-86537000D01*
X115851000Y-87063000D01*
X115849734Y-87088779D01*
X115845947Y-87114309D01*
X115839675Y-87139345D01*
X115830980Y-87163646D01*
X115819945Y-87186977D01*
X115806677Y-87209115D01*
X115791302Y-87229845D01*
X115773969Y-87248969D01*
X115754845Y-87266302D01*
X115734115Y-87281677D01*
X115711977Y-87294945D01*
X115688646Y-87305980D01*
X115664345Y-87314675D01*
X115639309Y-87320947D01*
X115613779Y-87324734D01*
X115588000Y-87326000D01*
X114962000Y-87326000D01*
X114936221Y-87324734D01*
X114910691Y-87320947D01*
X114885655Y-87314675D01*
X114861354Y-87305980D01*
X114838023Y-87294945D01*
X114815885Y-87281677D01*
X114795155Y-87266302D01*
X114776031Y-87248969D01*
X114758698Y-87229845D01*
X114743323Y-87209115D01*
X114730055Y-87186977D01*
X114719020Y-87163646D01*
X114710325Y-87139345D01*
X114704053Y-87114309D01*
X114700266Y-87088779D01*
X114699000Y-87063000D01*
X114699000Y-86537000D01*
X114700266Y-86511221D01*
X114704053Y-86485691D01*
X114710325Y-86460655D01*
X114719020Y-86436354D01*
X114730055Y-86413023D01*
X114743323Y-86390885D01*
X114758698Y-86370155D01*
X114776031Y-86351031D01*
X114795155Y-86333698D01*
X114815885Y-86318323D01*
X114838023Y-86305055D01*
X114861354Y-86294020D01*
X114885655Y-86285325D01*
X114910691Y-86279053D01*
X114936221Y-86275266D01*
X114962000Y-86274000D01*
X115588000Y-86274000D01*
X115613779Y-86275266D01*
G37*
G36*
X113863779Y-86275266D02*
G01*
X113889309Y-86279053D01*
X113914345Y-86285325D01*
X113938646Y-86294020D01*
X113961977Y-86305055D01*
X113984115Y-86318323D01*
X114004845Y-86333698D01*
X114023969Y-86351031D01*
X114041302Y-86370155D01*
X114056677Y-86390885D01*
X114069945Y-86413023D01*
X114080980Y-86436354D01*
X114089675Y-86460655D01*
X114095947Y-86485691D01*
X114099734Y-86511221D01*
X114101000Y-86537000D01*
X114101000Y-87063000D01*
X114099734Y-87088779D01*
X114095947Y-87114309D01*
X114089675Y-87139345D01*
X114080980Y-87163646D01*
X114069945Y-87186977D01*
X114056677Y-87209115D01*
X114041302Y-87229845D01*
X114023969Y-87248969D01*
X114004845Y-87266302D01*
X113984115Y-87281677D01*
X113961977Y-87294945D01*
X113938646Y-87305980D01*
X113914345Y-87314675D01*
X113889309Y-87320947D01*
X113863779Y-87324734D01*
X113838000Y-87326000D01*
X113212000Y-87326000D01*
X113186221Y-87324734D01*
X113160691Y-87320947D01*
X113135655Y-87314675D01*
X113111354Y-87305980D01*
X113088023Y-87294945D01*
X113065885Y-87281677D01*
X113045155Y-87266302D01*
X113026031Y-87248969D01*
X113008698Y-87229845D01*
X112993323Y-87209115D01*
X112980055Y-87186977D01*
X112969020Y-87163646D01*
X112960325Y-87139345D01*
X112954053Y-87114309D01*
X112950266Y-87088779D01*
X112949000Y-87063000D01*
X112949000Y-86537000D01*
X112950266Y-86511221D01*
X112954053Y-86485691D01*
X112960325Y-86460655D01*
X112969020Y-86436354D01*
X112980055Y-86413023D01*
X112993323Y-86390885D01*
X113008698Y-86370155D01*
X113026031Y-86351031D01*
X113045155Y-86333698D01*
X113065885Y-86318323D01*
X113088023Y-86305055D01*
X113111354Y-86294020D01*
X113135655Y-86285325D01*
X113160691Y-86279053D01*
X113186221Y-86275266D01*
X113212000Y-86274000D01*
X113838000Y-86274000D01*
X113863779Y-86275266D01*
G37*
G36*
X115158468Y-88375295D02*
G01*
X115184569Y-88379167D01*
X115210166Y-88385578D01*
X115235011Y-88394468D01*
X115258865Y-88405750D01*
X115281498Y-88419316D01*
X115302693Y-88435035D01*
X115322245Y-88452755D01*
X115339965Y-88472307D01*
X115355684Y-88493502D01*
X115369250Y-88516135D01*
X115380532Y-88539989D01*
X115389422Y-88564834D01*
X115395833Y-88590431D01*
X115399705Y-88616532D01*
X115401000Y-88642888D01*
X115401000Y-89557112D01*
X115399705Y-89583468D01*
X115395833Y-89609569D01*
X115389422Y-89635166D01*
X115380532Y-89660011D01*
X115369250Y-89683865D01*
X115355684Y-89706498D01*
X115339965Y-89727693D01*
X115322245Y-89747245D01*
X115302693Y-89764965D01*
X115281498Y-89780684D01*
X115258865Y-89794250D01*
X115235011Y-89805532D01*
X115210166Y-89814422D01*
X115184569Y-89820833D01*
X115158468Y-89824705D01*
X115132112Y-89826000D01*
X114167888Y-89826000D01*
X114141532Y-89824705D01*
X114115431Y-89820833D01*
X114089834Y-89814422D01*
X114064989Y-89805532D01*
X114041135Y-89794250D01*
X114018502Y-89780684D01*
X113997307Y-89764965D01*
X113977755Y-89747245D01*
X113960035Y-89727693D01*
X113944316Y-89706498D01*
X113930750Y-89683865D01*
X113919468Y-89660011D01*
X113910578Y-89635166D01*
X113904167Y-89609569D01*
X113900295Y-89583468D01*
X113899000Y-89557112D01*
X113899000Y-88642888D01*
X113900295Y-88616532D01*
X113904167Y-88590431D01*
X113910578Y-88564834D01*
X113919468Y-88539989D01*
X113930750Y-88516135D01*
X113944316Y-88493502D01*
X113960035Y-88472307D01*
X113977755Y-88452755D01*
X113997307Y-88435035D01*
X114018502Y-88419316D01*
X114041135Y-88405750D01*
X114064989Y-88394468D01*
X114089834Y-88385578D01*
X114115431Y-88379167D01*
X114141532Y-88375295D01*
X114167888Y-88374000D01*
X115132112Y-88374000D01*
X115158468Y-88375295D01*
G37*
G36*
X117858468Y-88375295D02*
G01*
X117884569Y-88379167D01*
X117910166Y-88385578D01*
X117935011Y-88394468D01*
X117958865Y-88405750D01*
X117981498Y-88419316D01*
X118002693Y-88435035D01*
X118022245Y-88452755D01*
X118039965Y-88472307D01*
X118055684Y-88493502D01*
X118069250Y-88516135D01*
X118080532Y-88539989D01*
X118089422Y-88564834D01*
X118095833Y-88590431D01*
X118099705Y-88616532D01*
X118101000Y-88642888D01*
X118101000Y-89557112D01*
X118099705Y-89583468D01*
X118095833Y-89609569D01*
X118089422Y-89635166D01*
X118080532Y-89660011D01*
X118069250Y-89683865D01*
X118055684Y-89706498D01*
X118039965Y-89727693D01*
X118022245Y-89747245D01*
X118002693Y-89764965D01*
X117981498Y-89780684D01*
X117958865Y-89794250D01*
X117935011Y-89805532D01*
X117910166Y-89814422D01*
X117884569Y-89820833D01*
X117858468Y-89824705D01*
X117832112Y-89826000D01*
X116867888Y-89826000D01*
X116841532Y-89824705D01*
X116815431Y-89820833D01*
X116789834Y-89814422D01*
X116764989Y-89805532D01*
X116741135Y-89794250D01*
X116718502Y-89780684D01*
X116697307Y-89764965D01*
X116677755Y-89747245D01*
X116660035Y-89727693D01*
X116644316Y-89706498D01*
X116630750Y-89683865D01*
X116619468Y-89660011D01*
X116610578Y-89635166D01*
X116604167Y-89609569D01*
X116600295Y-89583468D01*
X116599000Y-89557112D01*
X116599000Y-88642888D01*
X116600295Y-88616532D01*
X116604167Y-88590431D01*
X116610578Y-88564834D01*
X116619468Y-88539989D01*
X116630750Y-88516135D01*
X116644316Y-88493502D01*
X116660035Y-88472307D01*
X116677755Y-88452755D01*
X116697307Y-88435035D01*
X116718502Y-88419316D01*
X116741135Y-88405750D01*
X116764989Y-88394468D01*
X116789834Y-88385578D01*
X116815431Y-88379167D01*
X116841532Y-88375295D01*
X116867888Y-88374000D01*
X117832112Y-88374000D01*
X117858468Y-88375295D01*
G37*
G36*
X120258468Y-88375295D02*
G01*
X120284569Y-88379167D01*
X120310166Y-88385578D01*
X120335011Y-88394468D01*
X120358865Y-88405750D01*
X120381498Y-88419316D01*
X120402693Y-88435035D01*
X120422245Y-88452755D01*
X120439965Y-88472307D01*
X120455684Y-88493502D01*
X120469250Y-88516135D01*
X120480532Y-88539989D01*
X120489422Y-88564834D01*
X120495833Y-88590431D01*
X120499705Y-88616532D01*
X120501000Y-88642888D01*
X120501000Y-89557112D01*
X120499705Y-89583468D01*
X120495833Y-89609569D01*
X120489422Y-89635166D01*
X120480532Y-89660011D01*
X120469250Y-89683865D01*
X120455684Y-89706498D01*
X120439965Y-89727693D01*
X120422245Y-89747245D01*
X120402693Y-89764965D01*
X120381498Y-89780684D01*
X120358865Y-89794250D01*
X120335011Y-89805532D01*
X120310166Y-89814422D01*
X120284569Y-89820833D01*
X120258468Y-89824705D01*
X120232112Y-89826000D01*
X119267888Y-89826000D01*
X119241532Y-89824705D01*
X119215431Y-89820833D01*
X119189834Y-89814422D01*
X119164989Y-89805532D01*
X119141135Y-89794250D01*
X119118502Y-89780684D01*
X119097307Y-89764965D01*
X119077755Y-89747245D01*
X119060035Y-89727693D01*
X119044316Y-89706498D01*
X119030750Y-89683865D01*
X119019468Y-89660011D01*
X119010578Y-89635166D01*
X119004167Y-89609569D01*
X119000295Y-89583468D01*
X118999000Y-89557112D01*
X118999000Y-88642888D01*
X119000295Y-88616532D01*
X119004167Y-88590431D01*
X119010578Y-88564834D01*
X119019468Y-88539989D01*
X119030750Y-88516135D01*
X119044316Y-88493502D01*
X119060035Y-88472307D01*
X119077755Y-88452755D01*
X119097307Y-88435035D01*
X119118502Y-88419316D01*
X119141135Y-88405750D01*
X119164989Y-88394468D01*
X119189834Y-88385578D01*
X119215431Y-88379167D01*
X119241532Y-88375295D01*
X119267888Y-88374000D01*
X120232112Y-88374000D01*
X120258468Y-88375295D01*
G37*
G36*
X122958468Y-88375295D02*
G01*
X122984569Y-88379167D01*
X123010166Y-88385578D01*
X123035011Y-88394468D01*
X123058865Y-88405750D01*
X123081498Y-88419316D01*
X123102693Y-88435035D01*
X123122245Y-88452755D01*
X123139965Y-88472307D01*
X123155684Y-88493502D01*
X123169250Y-88516135D01*
X123180532Y-88539989D01*
X123189422Y-88564834D01*
X123195833Y-88590431D01*
X123199705Y-88616532D01*
X123201000Y-88642888D01*
X123201000Y-89557112D01*
X123199705Y-89583468D01*
X123195833Y-89609569D01*
X123189422Y-89635166D01*
X123180532Y-89660011D01*
X123169250Y-89683865D01*
X123155684Y-89706498D01*
X123139965Y-89727693D01*
X123122245Y-89747245D01*
X123102693Y-89764965D01*
X123081498Y-89780684D01*
X123058865Y-89794250D01*
X123035011Y-89805532D01*
X123010166Y-89814422D01*
X122984569Y-89820833D01*
X122958468Y-89824705D01*
X122932112Y-89826000D01*
X121967888Y-89826000D01*
X121941532Y-89824705D01*
X121915431Y-89820833D01*
X121889834Y-89814422D01*
X121864989Y-89805532D01*
X121841135Y-89794250D01*
X121818502Y-89780684D01*
X121797307Y-89764965D01*
X121777755Y-89747245D01*
X121760035Y-89727693D01*
X121744316Y-89706498D01*
X121730750Y-89683865D01*
X121719468Y-89660011D01*
X121710578Y-89635166D01*
X121704167Y-89609569D01*
X121700295Y-89583468D01*
X121699000Y-89557112D01*
X121699000Y-88642888D01*
X121700295Y-88616532D01*
X121704167Y-88590431D01*
X121710578Y-88564834D01*
X121719468Y-88539989D01*
X121730750Y-88516135D01*
X121744316Y-88493502D01*
X121760035Y-88472307D01*
X121777755Y-88452755D01*
X121797307Y-88435035D01*
X121818502Y-88419316D01*
X121841135Y-88405750D01*
X121864989Y-88394468D01*
X121889834Y-88385578D01*
X121915431Y-88379167D01*
X121941532Y-88375295D01*
X121967888Y-88374000D01*
X122932112Y-88374000D01*
X122958468Y-88375295D01*
G37*
G36*
X127684363Y-81650290D02*
G01*
X127710369Y-81654148D01*
X127735871Y-81660535D01*
X127760624Y-81669392D01*
X127784390Y-81680633D01*
X127806939Y-81694148D01*
X127828056Y-81709809D01*
X127847535Y-81727465D01*
X127865191Y-81746944D01*
X127880852Y-81768061D01*
X127894367Y-81790610D01*
X127905608Y-81814376D01*
X127914465Y-81839129D01*
X127920852Y-81864631D01*
X127924710Y-81890637D01*
X127926000Y-81916895D01*
X127926000Y-82908105D01*
X127924710Y-82934363D01*
X127920852Y-82960369D01*
X127914465Y-82985871D01*
X127905608Y-83010624D01*
X127894367Y-83034390D01*
X127880852Y-83056939D01*
X127865191Y-83078056D01*
X127847535Y-83097535D01*
X127828056Y-83115191D01*
X127806939Y-83130852D01*
X127784390Y-83144367D01*
X127760624Y-83155608D01*
X127735871Y-83164465D01*
X127710369Y-83170852D01*
X127684363Y-83174710D01*
X127658105Y-83176000D01*
X126341895Y-83176000D01*
X126315637Y-83174710D01*
X126289631Y-83170852D01*
X126264129Y-83164465D01*
X126239376Y-83155608D01*
X126215610Y-83144367D01*
X126193061Y-83130852D01*
X126171944Y-83115191D01*
X126152465Y-83097535D01*
X126134809Y-83078056D01*
X126119148Y-83056939D01*
X126105633Y-83034390D01*
X126094392Y-83010624D01*
X126085535Y-82985871D01*
X126079148Y-82960369D01*
X126075290Y-82934363D01*
X126074000Y-82908105D01*
X126074000Y-81916895D01*
X126075290Y-81890637D01*
X126079148Y-81864631D01*
X126085535Y-81839129D01*
X126094392Y-81814376D01*
X126105633Y-81790610D01*
X126119148Y-81768061D01*
X126134809Y-81746944D01*
X126152465Y-81727465D01*
X126171944Y-81709809D01*
X126193061Y-81694148D01*
X126215610Y-81680633D01*
X126239376Y-81669392D01*
X126264129Y-81660535D01*
X126289631Y-81654148D01*
X126315637Y-81650290D01*
X126341895Y-81649000D01*
X127658105Y-81649000D01*
X127684363Y-81650290D01*
G37*
G36*
X127684363Y-84625290D02*
G01*
X127710369Y-84629148D01*
X127735871Y-84635535D01*
X127760624Y-84644392D01*
X127784390Y-84655633D01*
X127806939Y-84669148D01*
X127828056Y-84684809D01*
X127847535Y-84702465D01*
X127865191Y-84721944D01*
X127880852Y-84743061D01*
X127894367Y-84765610D01*
X127905608Y-84789376D01*
X127914465Y-84814129D01*
X127920852Y-84839631D01*
X127924710Y-84865637D01*
X127926000Y-84891895D01*
X127926000Y-85883105D01*
X127924710Y-85909363D01*
X127920852Y-85935369D01*
X127914465Y-85960871D01*
X127905608Y-85985624D01*
X127894367Y-86009390D01*
X127880852Y-86031939D01*
X127865191Y-86053056D01*
X127847535Y-86072535D01*
X127828056Y-86090191D01*
X127806939Y-86105852D01*
X127784390Y-86119367D01*
X127760624Y-86130608D01*
X127735871Y-86139465D01*
X127710369Y-86145852D01*
X127684363Y-86149710D01*
X127658105Y-86151000D01*
X126341895Y-86151000D01*
X126315637Y-86149710D01*
X126289631Y-86145852D01*
X126264129Y-86139465D01*
X126239376Y-86130608D01*
X126215610Y-86119367D01*
X126193061Y-86105852D01*
X126171944Y-86090191D01*
X126152465Y-86072535D01*
X126134809Y-86053056D01*
X126119148Y-86031939D01*
X126105633Y-86009390D01*
X126094392Y-85985624D01*
X126085535Y-85960871D01*
X126079148Y-85935369D01*
X126075290Y-85909363D01*
X126074000Y-85883105D01*
X126074000Y-84891895D01*
X126075290Y-84865637D01*
X126079148Y-84839631D01*
X126085535Y-84814129D01*
X126094392Y-84789376D01*
X126105633Y-84765610D01*
X126119148Y-84743061D01*
X126134809Y-84721944D01*
X126152465Y-84702465D01*
X126171944Y-84684809D01*
X126193061Y-84669148D01*
X126215610Y-84655633D01*
X126239376Y-84644392D01*
X126264129Y-84635535D01*
X126289631Y-84629148D01*
X126315637Y-84625290D01*
X126341895Y-84624000D01*
X127658105Y-84624000D01*
X127684363Y-84625290D01*
G37*
G36*
X129692702Y-74654845D02*
G01*
X129709738Y-74657372D01*
X129726445Y-74661557D01*
X129742661Y-74667359D01*
X129758230Y-74674723D01*
X129773003Y-74683577D01*
X129786836Y-74693837D01*
X129799597Y-74705403D01*
X129811163Y-74718164D01*
X129821423Y-74731997D01*
X129830277Y-74746770D01*
X129837641Y-74762339D01*
X129843443Y-74778555D01*
X129847628Y-74795262D01*
X129850155Y-74812298D01*
X129851000Y-74829500D01*
X129851000Y-75180500D01*
X129850155Y-75197702D01*
X129847628Y-75214738D01*
X129843443Y-75231445D01*
X129837641Y-75247661D01*
X129830277Y-75263230D01*
X129821423Y-75278003D01*
X129811163Y-75291836D01*
X129799597Y-75304597D01*
X129786836Y-75316163D01*
X129773003Y-75326423D01*
X129758230Y-75335277D01*
X129742661Y-75342641D01*
X129726445Y-75348443D01*
X129709738Y-75352628D01*
X129692702Y-75355155D01*
X129675500Y-75356000D01*
X127974500Y-75356000D01*
X127957298Y-75355155D01*
X127940262Y-75352628D01*
X127923555Y-75348443D01*
X127907339Y-75342641D01*
X127891770Y-75335277D01*
X127876997Y-75326423D01*
X127863164Y-75316163D01*
X127850403Y-75304597D01*
X127838837Y-75291836D01*
X127828577Y-75278003D01*
X127819723Y-75263230D01*
X127812359Y-75247661D01*
X127806557Y-75231445D01*
X127802372Y-75214738D01*
X127799845Y-75197702D01*
X127799000Y-75180500D01*
X127799000Y-74829500D01*
X127799845Y-74812298D01*
X127802372Y-74795262D01*
X127806557Y-74778555D01*
X127812359Y-74762339D01*
X127819723Y-74746770D01*
X127828577Y-74731997D01*
X127838837Y-74718164D01*
X127850403Y-74705403D01*
X127863164Y-74693837D01*
X127876997Y-74683577D01*
X127891770Y-74674723D01*
X127907339Y-74667359D01*
X127923555Y-74661557D01*
X127940262Y-74657372D01*
X127957298Y-74654845D01*
X127974500Y-74654000D01*
X129675500Y-74654000D01*
X129692702Y-74654845D01*
G37*
G36*
X129692702Y-73384845D02*
G01*
X129709738Y-73387372D01*
X129726445Y-73391557D01*
X129742661Y-73397359D01*
X129758230Y-73404723D01*
X129773003Y-73413577D01*
X129786836Y-73423837D01*
X129799597Y-73435403D01*
X129811163Y-73448164D01*
X129821423Y-73461997D01*
X129830277Y-73476770D01*
X129837641Y-73492339D01*
X129843443Y-73508555D01*
X129847628Y-73525262D01*
X129850155Y-73542298D01*
X129851000Y-73559500D01*
X129851000Y-73910500D01*
X129850155Y-73927702D01*
X129847628Y-73944738D01*
X129843443Y-73961445D01*
X129837641Y-73977661D01*
X129830277Y-73993230D01*
X129821423Y-74008003D01*
X129811163Y-74021836D01*
X129799597Y-74034597D01*
X129786836Y-74046163D01*
X129773003Y-74056423D01*
X129758230Y-74065277D01*
X129742661Y-74072641D01*
X129726445Y-74078443D01*
X129709738Y-74082628D01*
X129692702Y-74085155D01*
X129675500Y-74086000D01*
X127974500Y-74086000D01*
X127957298Y-74085155D01*
X127940262Y-74082628D01*
X127923555Y-74078443D01*
X127907339Y-74072641D01*
X127891770Y-74065277D01*
X127876997Y-74056423D01*
X127863164Y-74046163D01*
X127850403Y-74034597D01*
X127838837Y-74021836D01*
X127828577Y-74008003D01*
X127819723Y-73993230D01*
X127812359Y-73977661D01*
X127806557Y-73961445D01*
X127802372Y-73944738D01*
X127799845Y-73927702D01*
X127799000Y-73910500D01*
X127799000Y-73559500D01*
X127799845Y-73542298D01*
X127802372Y-73525262D01*
X127806557Y-73508555D01*
X127812359Y-73492339D01*
X127819723Y-73476770D01*
X127828577Y-73461997D01*
X127838837Y-73448164D01*
X127850403Y-73435403D01*
X127863164Y-73423837D01*
X127876997Y-73413577D01*
X127891770Y-73404723D01*
X127907339Y-73397359D01*
X127923555Y-73391557D01*
X127940262Y-73387372D01*
X127957298Y-73384845D01*
X127974500Y-73384000D01*
X129675500Y-73384000D01*
X129692702Y-73384845D01*
G37*
G36*
X129692702Y-72114845D02*
G01*
X129709738Y-72117372D01*
X129726445Y-72121557D01*
X129742661Y-72127359D01*
X129758230Y-72134723D01*
X129773003Y-72143577D01*
X129786836Y-72153837D01*
X129799597Y-72165403D01*
X129811163Y-72178164D01*
X129821423Y-72191997D01*
X129830277Y-72206770D01*
X129837641Y-72222339D01*
X129843443Y-72238555D01*
X129847628Y-72255262D01*
X129850155Y-72272298D01*
X129851000Y-72289500D01*
X129851000Y-72640500D01*
X129850155Y-72657702D01*
X129847628Y-72674738D01*
X129843443Y-72691445D01*
X129837641Y-72707661D01*
X129830277Y-72723230D01*
X129821423Y-72738003D01*
X129811163Y-72751836D01*
X129799597Y-72764597D01*
X129786836Y-72776163D01*
X129773003Y-72786423D01*
X129758230Y-72795277D01*
X129742661Y-72802641D01*
X129726445Y-72808443D01*
X129709738Y-72812628D01*
X129692702Y-72815155D01*
X129675500Y-72816000D01*
X127974500Y-72816000D01*
X127957298Y-72815155D01*
X127940262Y-72812628D01*
X127923555Y-72808443D01*
X127907339Y-72802641D01*
X127891770Y-72795277D01*
X127876997Y-72786423D01*
X127863164Y-72776163D01*
X127850403Y-72764597D01*
X127838837Y-72751836D01*
X127828577Y-72738003D01*
X127819723Y-72723230D01*
X127812359Y-72707661D01*
X127806557Y-72691445D01*
X127802372Y-72674738D01*
X127799845Y-72657702D01*
X127799000Y-72640500D01*
X127799000Y-72289500D01*
X127799845Y-72272298D01*
X127802372Y-72255262D01*
X127806557Y-72238555D01*
X127812359Y-72222339D01*
X127819723Y-72206770D01*
X127828577Y-72191997D01*
X127838837Y-72178164D01*
X127850403Y-72165403D01*
X127863164Y-72153837D01*
X127876997Y-72143577D01*
X127891770Y-72134723D01*
X127907339Y-72127359D01*
X127923555Y-72121557D01*
X127940262Y-72117372D01*
X127957298Y-72114845D01*
X127974500Y-72114000D01*
X129675500Y-72114000D01*
X129692702Y-72114845D01*
G37*
G36*
X129692702Y-70844845D02*
G01*
X129709738Y-70847372D01*
X129726445Y-70851557D01*
X129742661Y-70857359D01*
X129758230Y-70864723D01*
X129773003Y-70873577D01*
X129786836Y-70883837D01*
X129799597Y-70895403D01*
X129811163Y-70908164D01*
X129821423Y-70921997D01*
X129830277Y-70936770D01*
X129837641Y-70952339D01*
X129843443Y-70968555D01*
X129847628Y-70985262D01*
X129850155Y-71002298D01*
X129851000Y-71019500D01*
X129851000Y-71370500D01*
X129850155Y-71387702D01*
X129847628Y-71404738D01*
X129843443Y-71421445D01*
X129837641Y-71437661D01*
X129830277Y-71453230D01*
X129821423Y-71468003D01*
X129811163Y-71481836D01*
X129799597Y-71494597D01*
X129786836Y-71506163D01*
X129773003Y-71516423D01*
X129758230Y-71525277D01*
X129742661Y-71532641D01*
X129726445Y-71538443D01*
X129709738Y-71542628D01*
X129692702Y-71545155D01*
X129675500Y-71546000D01*
X127974500Y-71546000D01*
X127957298Y-71545155D01*
X127940262Y-71542628D01*
X127923555Y-71538443D01*
X127907339Y-71532641D01*
X127891770Y-71525277D01*
X127876997Y-71516423D01*
X127863164Y-71506163D01*
X127850403Y-71494597D01*
X127838837Y-71481836D01*
X127828577Y-71468003D01*
X127819723Y-71453230D01*
X127812359Y-71437661D01*
X127806557Y-71421445D01*
X127802372Y-71404738D01*
X127799845Y-71387702D01*
X127799000Y-71370500D01*
X127799000Y-71019500D01*
X127799845Y-71002298D01*
X127802372Y-70985262D01*
X127806557Y-70968555D01*
X127812359Y-70952339D01*
X127819723Y-70936770D01*
X127828577Y-70921997D01*
X127838837Y-70908164D01*
X127850403Y-70895403D01*
X127863164Y-70883837D01*
X127876997Y-70873577D01*
X127891770Y-70864723D01*
X127907339Y-70857359D01*
X127923555Y-70851557D01*
X127940262Y-70847372D01*
X127957298Y-70844845D01*
X127974500Y-70844000D01*
X129675500Y-70844000D01*
X129692702Y-70844845D01*
G37*
G36*
X134642702Y-70844845D02*
G01*
X134659738Y-70847372D01*
X134676445Y-70851557D01*
X134692661Y-70857359D01*
X134708230Y-70864723D01*
X134723003Y-70873577D01*
X134736836Y-70883837D01*
X134749597Y-70895403D01*
X134761163Y-70908164D01*
X134771423Y-70921997D01*
X134780277Y-70936770D01*
X134787641Y-70952339D01*
X134793443Y-70968555D01*
X134797628Y-70985262D01*
X134800155Y-71002298D01*
X134801000Y-71019500D01*
X134801000Y-71370500D01*
X134800155Y-71387702D01*
X134797628Y-71404738D01*
X134793443Y-71421445D01*
X134787641Y-71437661D01*
X134780277Y-71453230D01*
X134771423Y-71468003D01*
X134761163Y-71481836D01*
X134749597Y-71494597D01*
X134736836Y-71506163D01*
X134723003Y-71516423D01*
X134708230Y-71525277D01*
X134692661Y-71532641D01*
X134676445Y-71538443D01*
X134659738Y-71542628D01*
X134642702Y-71545155D01*
X134625500Y-71546000D01*
X132924500Y-71546000D01*
X132907298Y-71545155D01*
X132890262Y-71542628D01*
X132873555Y-71538443D01*
X132857339Y-71532641D01*
X132841770Y-71525277D01*
X132826997Y-71516423D01*
X132813164Y-71506163D01*
X132800403Y-71494597D01*
X132788837Y-71481836D01*
X132778577Y-71468003D01*
X132769723Y-71453230D01*
X132762359Y-71437661D01*
X132756557Y-71421445D01*
X132752372Y-71404738D01*
X132749845Y-71387702D01*
X132749000Y-71370500D01*
X132749000Y-71019500D01*
X132749845Y-71002298D01*
X132752372Y-70985262D01*
X132756557Y-70968555D01*
X132762359Y-70952339D01*
X132769723Y-70936770D01*
X132778577Y-70921997D01*
X132788837Y-70908164D01*
X132800403Y-70895403D01*
X132813164Y-70883837D01*
X132826997Y-70873577D01*
X132841770Y-70864723D01*
X132857339Y-70857359D01*
X132873555Y-70851557D01*
X132890262Y-70847372D01*
X132907298Y-70844845D01*
X132924500Y-70844000D01*
X134625500Y-70844000D01*
X134642702Y-70844845D01*
G37*
G36*
X134642702Y-72114845D02*
G01*
X134659738Y-72117372D01*
X134676445Y-72121557D01*
X134692661Y-72127359D01*
X134708230Y-72134723D01*
X134723003Y-72143577D01*
X134736836Y-72153837D01*
X134749597Y-72165403D01*
X134761163Y-72178164D01*
X134771423Y-72191997D01*
X134780277Y-72206770D01*
X134787641Y-72222339D01*
X134793443Y-72238555D01*
X134797628Y-72255262D01*
X134800155Y-72272298D01*
X134801000Y-72289500D01*
X134801000Y-72640500D01*
X134800155Y-72657702D01*
X134797628Y-72674738D01*
X134793443Y-72691445D01*
X134787641Y-72707661D01*
X134780277Y-72723230D01*
X134771423Y-72738003D01*
X134761163Y-72751836D01*
X134749597Y-72764597D01*
X134736836Y-72776163D01*
X134723003Y-72786423D01*
X134708230Y-72795277D01*
X134692661Y-72802641D01*
X134676445Y-72808443D01*
X134659738Y-72812628D01*
X134642702Y-72815155D01*
X134625500Y-72816000D01*
X132924500Y-72816000D01*
X132907298Y-72815155D01*
X132890262Y-72812628D01*
X132873555Y-72808443D01*
X132857339Y-72802641D01*
X132841770Y-72795277D01*
X132826997Y-72786423D01*
X132813164Y-72776163D01*
X132800403Y-72764597D01*
X132788837Y-72751836D01*
X132778577Y-72738003D01*
X132769723Y-72723230D01*
X132762359Y-72707661D01*
X132756557Y-72691445D01*
X132752372Y-72674738D01*
X132749845Y-72657702D01*
X132749000Y-72640500D01*
X132749000Y-72289500D01*
X132749845Y-72272298D01*
X132752372Y-72255262D01*
X132756557Y-72238555D01*
X132762359Y-72222339D01*
X132769723Y-72206770D01*
X132778577Y-72191997D01*
X132788837Y-72178164D01*
X132800403Y-72165403D01*
X132813164Y-72153837D01*
X132826997Y-72143577D01*
X132841770Y-72134723D01*
X132857339Y-72127359D01*
X132873555Y-72121557D01*
X132890262Y-72117372D01*
X132907298Y-72114845D01*
X132924500Y-72114000D01*
X134625500Y-72114000D01*
X134642702Y-72114845D01*
G37*
G36*
X134642702Y-73384845D02*
G01*
X134659738Y-73387372D01*
X134676445Y-73391557D01*
X134692661Y-73397359D01*
X134708230Y-73404723D01*
X134723003Y-73413577D01*
X134736836Y-73423837D01*
X134749597Y-73435403D01*
X134761163Y-73448164D01*
X134771423Y-73461997D01*
X134780277Y-73476770D01*
X134787641Y-73492339D01*
X134793443Y-73508555D01*
X134797628Y-73525262D01*
X134800155Y-73542298D01*
X134801000Y-73559500D01*
X134801000Y-73910500D01*
X134800155Y-73927702D01*
X134797628Y-73944738D01*
X134793443Y-73961445D01*
X134787641Y-73977661D01*
X134780277Y-73993230D01*
X134771423Y-74008003D01*
X134761163Y-74021836D01*
X134749597Y-74034597D01*
X134736836Y-74046163D01*
X134723003Y-74056423D01*
X134708230Y-74065277D01*
X134692661Y-74072641D01*
X134676445Y-74078443D01*
X134659738Y-74082628D01*
X134642702Y-74085155D01*
X134625500Y-74086000D01*
X132924500Y-74086000D01*
X132907298Y-74085155D01*
X132890262Y-74082628D01*
X132873555Y-74078443D01*
X132857339Y-74072641D01*
X132841770Y-74065277D01*
X132826997Y-74056423D01*
X132813164Y-74046163D01*
X132800403Y-74034597D01*
X132788837Y-74021836D01*
X132778577Y-74008003D01*
X132769723Y-73993230D01*
X132762359Y-73977661D01*
X132756557Y-73961445D01*
X132752372Y-73944738D01*
X132749845Y-73927702D01*
X132749000Y-73910500D01*
X132749000Y-73559500D01*
X132749845Y-73542298D01*
X132752372Y-73525262D01*
X132756557Y-73508555D01*
X132762359Y-73492339D01*
X132769723Y-73476770D01*
X132778577Y-73461997D01*
X132788837Y-73448164D01*
X132800403Y-73435403D01*
X132813164Y-73423837D01*
X132826997Y-73413577D01*
X132841770Y-73404723D01*
X132857339Y-73397359D01*
X132873555Y-73391557D01*
X132890262Y-73387372D01*
X132907298Y-73384845D01*
X132924500Y-73384000D01*
X134625500Y-73384000D01*
X134642702Y-73384845D01*
G37*
G36*
X134642702Y-74654845D02*
G01*
X134659738Y-74657372D01*
X134676445Y-74661557D01*
X134692661Y-74667359D01*
X134708230Y-74674723D01*
X134723003Y-74683577D01*
X134736836Y-74693837D01*
X134749597Y-74705403D01*
X134761163Y-74718164D01*
X134771423Y-74731997D01*
X134780277Y-74746770D01*
X134787641Y-74762339D01*
X134793443Y-74778555D01*
X134797628Y-74795262D01*
X134800155Y-74812298D01*
X134801000Y-74829500D01*
X134801000Y-75180500D01*
X134800155Y-75197702D01*
X134797628Y-75214738D01*
X134793443Y-75231445D01*
X134787641Y-75247661D01*
X134780277Y-75263230D01*
X134771423Y-75278003D01*
X134761163Y-75291836D01*
X134749597Y-75304597D01*
X134736836Y-75316163D01*
X134723003Y-75326423D01*
X134708230Y-75335277D01*
X134692661Y-75342641D01*
X134676445Y-75348443D01*
X134659738Y-75352628D01*
X134642702Y-75355155D01*
X134625500Y-75356000D01*
X132924500Y-75356000D01*
X132907298Y-75355155D01*
X132890262Y-75352628D01*
X132873555Y-75348443D01*
X132857339Y-75342641D01*
X132841770Y-75335277D01*
X132826997Y-75326423D01*
X132813164Y-75316163D01*
X132800403Y-75304597D01*
X132788837Y-75291836D01*
X132778577Y-75278003D01*
X132769723Y-75263230D01*
X132762359Y-75247661D01*
X132756557Y-75231445D01*
X132752372Y-75214738D01*
X132749845Y-75197702D01*
X132749000Y-75180500D01*
X132749000Y-74829500D01*
X132749845Y-74812298D01*
X132752372Y-74795262D01*
X132756557Y-74778555D01*
X132762359Y-74762339D01*
X132769723Y-74746770D01*
X132778577Y-74731997D01*
X132788837Y-74718164D01*
X132800403Y-74705403D01*
X132813164Y-74693837D01*
X132826997Y-74683577D01*
X132841770Y-74674723D01*
X132857339Y-74667359D01*
X132873555Y-74661557D01*
X132890262Y-74657372D01*
X132907298Y-74654845D01*
X132924500Y-74654000D01*
X134625500Y-74654000D01*
X134642702Y-74654845D01*
G37*
G36*
X129113779Y-76575266D02*
G01*
X129139309Y-76579053D01*
X129164345Y-76585325D01*
X129188646Y-76594020D01*
X129211977Y-76605055D01*
X129234115Y-76618323D01*
X129254845Y-76633698D01*
X129273969Y-76651031D01*
X129291302Y-76670155D01*
X129306677Y-76690885D01*
X129319945Y-76713023D01*
X129330980Y-76736354D01*
X129339675Y-76760655D01*
X129345947Y-76785691D01*
X129349734Y-76811221D01*
X129351000Y-76837000D01*
X129351000Y-77363000D01*
X129349734Y-77388779D01*
X129345947Y-77414309D01*
X129339675Y-77439345D01*
X129330980Y-77463646D01*
X129319945Y-77486977D01*
X129306677Y-77509115D01*
X129291302Y-77529845D01*
X129273969Y-77548969D01*
X129254845Y-77566302D01*
X129234115Y-77581677D01*
X129211977Y-77594945D01*
X129188646Y-77605980D01*
X129164345Y-77614675D01*
X129139309Y-77620947D01*
X129113779Y-77624734D01*
X129088000Y-77626000D01*
X128462000Y-77626000D01*
X128436221Y-77624734D01*
X128410691Y-77620947D01*
X128385655Y-77614675D01*
X128361354Y-77605980D01*
X128338023Y-77594945D01*
X128315885Y-77581677D01*
X128295155Y-77566302D01*
X128276031Y-77548969D01*
X128258698Y-77529845D01*
X128243323Y-77509115D01*
X128230055Y-77486977D01*
X128219020Y-77463646D01*
X128210325Y-77439345D01*
X128204053Y-77414309D01*
X128200266Y-77388779D01*
X128199000Y-77363000D01*
X128199000Y-76837000D01*
X128200266Y-76811221D01*
X128204053Y-76785691D01*
X128210325Y-76760655D01*
X128219020Y-76736354D01*
X128230055Y-76713023D01*
X128243323Y-76690885D01*
X128258698Y-76670155D01*
X128276031Y-76651031D01*
X128295155Y-76633698D01*
X128315885Y-76618323D01*
X128338023Y-76605055D01*
X128361354Y-76594020D01*
X128385655Y-76585325D01*
X128410691Y-76579053D01*
X128436221Y-76575266D01*
X128462000Y-76574000D01*
X129088000Y-76574000D01*
X129113779Y-76575266D01*
G37*
G36*
X127363779Y-76575266D02*
G01*
X127389309Y-76579053D01*
X127414345Y-76585325D01*
X127438646Y-76594020D01*
X127461977Y-76605055D01*
X127484115Y-76618323D01*
X127504845Y-76633698D01*
X127523969Y-76651031D01*
X127541302Y-76670155D01*
X127556677Y-76690885D01*
X127569945Y-76713023D01*
X127580980Y-76736354D01*
X127589675Y-76760655D01*
X127595947Y-76785691D01*
X127599734Y-76811221D01*
X127601000Y-76837000D01*
X127601000Y-77363000D01*
X127599734Y-77388779D01*
X127595947Y-77414309D01*
X127589675Y-77439345D01*
X127580980Y-77463646D01*
X127569945Y-77486977D01*
X127556677Y-77509115D01*
X127541302Y-77529845D01*
X127523969Y-77548969D01*
X127504845Y-77566302D01*
X127484115Y-77581677D01*
X127461977Y-77594945D01*
X127438646Y-77605980D01*
X127414345Y-77614675D01*
X127389309Y-77620947D01*
X127363779Y-77624734D01*
X127338000Y-77626000D01*
X126712000Y-77626000D01*
X126686221Y-77624734D01*
X126660691Y-77620947D01*
X126635655Y-77614675D01*
X126611354Y-77605980D01*
X126588023Y-77594945D01*
X126565885Y-77581677D01*
X126545155Y-77566302D01*
X126526031Y-77548969D01*
X126508698Y-77529845D01*
X126493323Y-77509115D01*
X126480055Y-77486977D01*
X126469020Y-77463646D01*
X126460325Y-77439345D01*
X126454053Y-77414309D01*
X126450266Y-77388779D01*
X126449000Y-77363000D01*
X126449000Y-76837000D01*
X126450266Y-76811221D01*
X126454053Y-76785691D01*
X126460325Y-76760655D01*
X126469020Y-76736354D01*
X126480055Y-76713023D01*
X126493323Y-76690885D01*
X126508698Y-76670155D01*
X126526031Y-76651031D01*
X126545155Y-76633698D01*
X126565885Y-76618323D01*
X126588023Y-76605055D01*
X126611354Y-76594020D01*
X126635655Y-76585325D01*
X126660691Y-76579053D01*
X126686221Y-76575266D01*
X126712000Y-76574000D01*
X127338000Y-76574000D01*
X127363779Y-76575266D01*
G37*
G36*
X136013779Y-76475266D02*
G01*
X136039309Y-76479053D01*
X136064345Y-76485325D01*
X136088646Y-76494020D01*
X136111977Y-76505055D01*
X136134115Y-76518323D01*
X136154845Y-76533698D01*
X136173969Y-76551031D01*
X136191302Y-76570155D01*
X136206677Y-76590885D01*
X136219945Y-76613023D01*
X136230980Y-76636354D01*
X136239675Y-76660655D01*
X136245947Y-76685691D01*
X136249734Y-76711221D01*
X136251000Y-76737000D01*
X136251000Y-77263000D01*
X136249734Y-77288779D01*
X136245947Y-77314309D01*
X136239675Y-77339345D01*
X136230980Y-77363646D01*
X136219945Y-77386977D01*
X136206677Y-77409115D01*
X136191302Y-77429845D01*
X136173969Y-77448969D01*
X136154845Y-77466302D01*
X136134115Y-77481677D01*
X136111977Y-77494945D01*
X136088646Y-77505980D01*
X136064345Y-77514675D01*
X136039309Y-77520947D01*
X136013779Y-77524734D01*
X135988000Y-77526000D01*
X135362000Y-77526000D01*
X135336221Y-77524734D01*
X135310691Y-77520947D01*
X135285655Y-77514675D01*
X135261354Y-77505980D01*
X135238023Y-77494945D01*
X135215885Y-77481677D01*
X135195155Y-77466302D01*
X135176031Y-77448969D01*
X135158698Y-77429845D01*
X135143323Y-77409115D01*
X135130055Y-77386977D01*
X135119020Y-77363646D01*
X135110325Y-77339345D01*
X135104053Y-77314309D01*
X135100266Y-77288779D01*
X135099000Y-77263000D01*
X135099000Y-76737000D01*
X135100266Y-76711221D01*
X135104053Y-76685691D01*
X135110325Y-76660655D01*
X135119020Y-76636354D01*
X135130055Y-76613023D01*
X135143323Y-76590885D01*
X135158698Y-76570155D01*
X135176031Y-76551031D01*
X135195155Y-76533698D01*
X135215885Y-76518323D01*
X135238023Y-76505055D01*
X135261354Y-76494020D01*
X135285655Y-76485325D01*
X135310691Y-76479053D01*
X135336221Y-76475266D01*
X135362000Y-76474000D01*
X135988000Y-76474000D01*
X136013779Y-76475266D01*
G37*
G36*
X134263779Y-76475266D02*
G01*
X134289309Y-76479053D01*
X134314345Y-76485325D01*
X134338646Y-76494020D01*
X134361977Y-76505055D01*
X134384115Y-76518323D01*
X134404845Y-76533698D01*
X134423969Y-76551031D01*
X134441302Y-76570155D01*
X134456677Y-76590885D01*
X134469945Y-76613023D01*
X134480980Y-76636354D01*
X134489675Y-76660655D01*
X134495947Y-76685691D01*
X134499734Y-76711221D01*
X134501000Y-76737000D01*
X134501000Y-77263000D01*
X134499734Y-77288779D01*
X134495947Y-77314309D01*
X134489675Y-77339345D01*
X134480980Y-77363646D01*
X134469945Y-77386977D01*
X134456677Y-77409115D01*
X134441302Y-77429845D01*
X134423969Y-77448969D01*
X134404845Y-77466302D01*
X134384115Y-77481677D01*
X134361977Y-77494945D01*
X134338646Y-77505980D01*
X134314345Y-77514675D01*
X134289309Y-77520947D01*
X134263779Y-77524734D01*
X134238000Y-77526000D01*
X133612000Y-77526000D01*
X133586221Y-77524734D01*
X133560691Y-77520947D01*
X133535655Y-77514675D01*
X133511354Y-77505980D01*
X133488023Y-77494945D01*
X133465885Y-77481677D01*
X133445155Y-77466302D01*
X133426031Y-77448969D01*
X133408698Y-77429845D01*
X133393323Y-77409115D01*
X133380055Y-77386977D01*
X133369020Y-77363646D01*
X133360325Y-77339345D01*
X133354053Y-77314309D01*
X133350266Y-77288779D01*
X133349000Y-77263000D01*
X133349000Y-76737000D01*
X133350266Y-76711221D01*
X133354053Y-76685691D01*
X133360325Y-76660655D01*
X133369020Y-76636354D01*
X133380055Y-76613023D01*
X133393323Y-76590885D01*
X133408698Y-76570155D01*
X133426031Y-76551031D01*
X133445155Y-76533698D01*
X133465885Y-76518323D01*
X133488023Y-76505055D01*
X133511354Y-76494020D01*
X133535655Y-76485325D01*
X133560691Y-76479053D01*
X133586221Y-76475266D01*
X133612000Y-76474000D01*
X134238000Y-76474000D01*
X134263779Y-76475266D01*
G37*
G36*
X128913779Y-60175266D02*
G01*
X128939309Y-60179053D01*
X128964345Y-60185325D01*
X128988646Y-60194020D01*
X129011977Y-60205055D01*
X129034115Y-60218323D01*
X129054845Y-60233698D01*
X129073969Y-60251031D01*
X129091302Y-60270155D01*
X129106677Y-60290885D01*
X129119945Y-60313023D01*
X129130980Y-60336354D01*
X129139675Y-60360655D01*
X129145947Y-60385691D01*
X129149734Y-60411221D01*
X129151000Y-60437000D01*
X129151000Y-60963000D01*
X129149734Y-60988779D01*
X129145947Y-61014309D01*
X129139675Y-61039345D01*
X129130980Y-61063646D01*
X129119945Y-61086977D01*
X129106677Y-61109115D01*
X129091302Y-61129845D01*
X129073969Y-61148969D01*
X129054845Y-61166302D01*
X129034115Y-61181677D01*
X129011977Y-61194945D01*
X128988646Y-61205980D01*
X128964345Y-61214675D01*
X128939309Y-61220947D01*
X128913779Y-61224734D01*
X128888000Y-61226000D01*
X128262000Y-61226000D01*
X128236221Y-61224734D01*
X128210691Y-61220947D01*
X128185655Y-61214675D01*
X128161354Y-61205980D01*
X128138023Y-61194945D01*
X128115885Y-61181677D01*
X128095155Y-61166302D01*
X128076031Y-61148969D01*
X128058698Y-61129845D01*
X128043323Y-61109115D01*
X128030055Y-61086977D01*
X128019020Y-61063646D01*
X128010325Y-61039345D01*
X128004053Y-61014309D01*
X128000266Y-60988779D01*
X127999000Y-60963000D01*
X127999000Y-60437000D01*
X128000266Y-60411221D01*
X128004053Y-60385691D01*
X128010325Y-60360655D01*
X128019020Y-60336354D01*
X128030055Y-60313023D01*
X128043323Y-60290885D01*
X128058698Y-60270155D01*
X128076031Y-60251031D01*
X128095155Y-60233698D01*
X128115885Y-60218323D01*
X128138023Y-60205055D01*
X128161354Y-60194020D01*
X128185655Y-60185325D01*
X128210691Y-60179053D01*
X128236221Y-60175266D01*
X128262000Y-60174000D01*
X128888000Y-60174000D01*
X128913779Y-60175266D01*
G37*
G36*
X127163779Y-60175266D02*
G01*
X127189309Y-60179053D01*
X127214345Y-60185325D01*
X127238646Y-60194020D01*
X127261977Y-60205055D01*
X127284115Y-60218323D01*
X127304845Y-60233698D01*
X127323969Y-60251031D01*
X127341302Y-60270155D01*
X127356677Y-60290885D01*
X127369945Y-60313023D01*
X127380980Y-60336354D01*
X127389675Y-60360655D01*
X127395947Y-60385691D01*
X127399734Y-60411221D01*
X127401000Y-60437000D01*
X127401000Y-60963000D01*
X127399734Y-60988779D01*
X127395947Y-61014309D01*
X127389675Y-61039345D01*
X127380980Y-61063646D01*
X127369945Y-61086977D01*
X127356677Y-61109115D01*
X127341302Y-61129845D01*
X127323969Y-61148969D01*
X127304845Y-61166302D01*
X127284115Y-61181677D01*
X127261977Y-61194945D01*
X127238646Y-61205980D01*
X127214345Y-61214675D01*
X127189309Y-61220947D01*
X127163779Y-61224734D01*
X127138000Y-61226000D01*
X126512000Y-61226000D01*
X126486221Y-61224734D01*
X126460691Y-61220947D01*
X126435655Y-61214675D01*
X126411354Y-61205980D01*
X126388023Y-61194945D01*
X126365885Y-61181677D01*
X126345155Y-61166302D01*
X126326031Y-61148969D01*
X126308698Y-61129845D01*
X126293323Y-61109115D01*
X126280055Y-61086977D01*
X126269020Y-61063646D01*
X126260325Y-61039345D01*
X126254053Y-61014309D01*
X126250266Y-60988779D01*
X126249000Y-60963000D01*
X126249000Y-60437000D01*
X126250266Y-60411221D01*
X126254053Y-60385691D01*
X126260325Y-60360655D01*
X126269020Y-60336354D01*
X126280055Y-60313023D01*
X126293323Y-60290885D01*
X126308698Y-60270155D01*
X126326031Y-60251031D01*
X126345155Y-60233698D01*
X126365885Y-60218323D01*
X126388023Y-60205055D01*
X126411354Y-60194020D01*
X126435655Y-60185325D01*
X126460691Y-60179053D01*
X126486221Y-60175266D01*
X126512000Y-60174000D01*
X127138000Y-60174000D01*
X127163779Y-60175266D01*
G37*
G36*
X135113779Y-60175266D02*
G01*
X135139309Y-60179053D01*
X135164345Y-60185325D01*
X135188646Y-60194020D01*
X135211977Y-60205055D01*
X135234115Y-60218323D01*
X135254845Y-60233698D01*
X135273969Y-60251031D01*
X135291302Y-60270155D01*
X135306677Y-60290885D01*
X135319945Y-60313023D01*
X135330980Y-60336354D01*
X135339675Y-60360655D01*
X135345947Y-60385691D01*
X135349734Y-60411221D01*
X135351000Y-60437000D01*
X135351000Y-60963000D01*
X135349734Y-60988779D01*
X135345947Y-61014309D01*
X135339675Y-61039345D01*
X135330980Y-61063646D01*
X135319945Y-61086977D01*
X135306677Y-61109115D01*
X135291302Y-61129845D01*
X135273969Y-61148969D01*
X135254845Y-61166302D01*
X135234115Y-61181677D01*
X135211977Y-61194945D01*
X135188646Y-61205980D01*
X135164345Y-61214675D01*
X135139309Y-61220947D01*
X135113779Y-61224734D01*
X135088000Y-61226000D01*
X134462000Y-61226000D01*
X134436221Y-61224734D01*
X134410691Y-61220947D01*
X134385655Y-61214675D01*
X134361354Y-61205980D01*
X134338023Y-61194945D01*
X134315885Y-61181677D01*
X134295155Y-61166302D01*
X134276031Y-61148969D01*
X134258698Y-61129845D01*
X134243323Y-61109115D01*
X134230055Y-61086977D01*
X134219020Y-61063646D01*
X134210325Y-61039345D01*
X134204053Y-61014309D01*
X134200266Y-60988779D01*
X134199000Y-60963000D01*
X134199000Y-60437000D01*
X134200266Y-60411221D01*
X134204053Y-60385691D01*
X134210325Y-60360655D01*
X134219020Y-60336354D01*
X134230055Y-60313023D01*
X134243323Y-60290885D01*
X134258698Y-60270155D01*
X134276031Y-60251031D01*
X134295155Y-60233698D01*
X134315885Y-60218323D01*
X134338023Y-60205055D01*
X134361354Y-60194020D01*
X134385655Y-60185325D01*
X134410691Y-60179053D01*
X134436221Y-60175266D01*
X134462000Y-60174000D01*
X135088000Y-60174000D01*
X135113779Y-60175266D01*
G37*
G36*
X133363779Y-60175266D02*
G01*
X133389309Y-60179053D01*
X133414345Y-60185325D01*
X133438646Y-60194020D01*
X133461977Y-60205055D01*
X133484115Y-60218323D01*
X133504845Y-60233698D01*
X133523969Y-60251031D01*
X133541302Y-60270155D01*
X133556677Y-60290885D01*
X133569945Y-60313023D01*
X133580980Y-60336354D01*
X133589675Y-60360655D01*
X133595947Y-60385691D01*
X133599734Y-60411221D01*
X133601000Y-60437000D01*
X133601000Y-60963000D01*
X133599734Y-60988779D01*
X133595947Y-61014309D01*
X133589675Y-61039345D01*
X133580980Y-61063646D01*
X133569945Y-61086977D01*
X133556677Y-61109115D01*
X133541302Y-61129845D01*
X133523969Y-61148969D01*
X133504845Y-61166302D01*
X133484115Y-61181677D01*
X133461977Y-61194945D01*
X133438646Y-61205980D01*
X133414345Y-61214675D01*
X133389309Y-61220947D01*
X133363779Y-61224734D01*
X133338000Y-61226000D01*
X132712000Y-61226000D01*
X132686221Y-61224734D01*
X132660691Y-61220947D01*
X132635655Y-61214675D01*
X132611354Y-61205980D01*
X132588023Y-61194945D01*
X132565885Y-61181677D01*
X132545155Y-61166302D01*
X132526031Y-61148969D01*
X132508698Y-61129845D01*
X132493323Y-61109115D01*
X132480055Y-61086977D01*
X132469020Y-61063646D01*
X132460325Y-61039345D01*
X132454053Y-61014309D01*
X132450266Y-60988779D01*
X132449000Y-60963000D01*
X132449000Y-60437000D01*
X132450266Y-60411221D01*
X132454053Y-60385691D01*
X132460325Y-60360655D01*
X132469020Y-60336354D01*
X132480055Y-60313023D01*
X132493323Y-60290885D01*
X132508698Y-60270155D01*
X132526031Y-60251031D01*
X132545155Y-60233698D01*
X132565885Y-60218323D01*
X132588023Y-60205055D01*
X132611354Y-60194020D01*
X132635655Y-60185325D01*
X132660691Y-60179053D01*
X132686221Y-60175266D01*
X132712000Y-60174000D01*
X133338000Y-60174000D01*
X133363779Y-60175266D01*
G37*
G36*
X129288779Y-86950266D02*
G01*
X129314309Y-86954053D01*
X129339345Y-86960325D01*
X129363646Y-86969020D01*
X129386977Y-86980055D01*
X129409115Y-86993323D01*
X129429845Y-87008698D01*
X129448969Y-87026031D01*
X129466302Y-87045155D01*
X129481677Y-87065885D01*
X129494945Y-87088023D01*
X129505980Y-87111354D01*
X129514675Y-87135655D01*
X129520947Y-87160691D01*
X129524734Y-87186221D01*
X129526000Y-87212000D01*
X129526000Y-87838000D01*
X129524734Y-87863779D01*
X129520947Y-87889309D01*
X129514675Y-87914345D01*
X129505980Y-87938646D01*
X129494945Y-87961977D01*
X129481677Y-87984115D01*
X129466302Y-88004845D01*
X129448969Y-88023969D01*
X129429845Y-88041302D01*
X129409115Y-88056677D01*
X129386977Y-88069945D01*
X129363646Y-88080980D01*
X129339345Y-88089675D01*
X129314309Y-88095947D01*
X129288779Y-88099734D01*
X129263000Y-88101000D01*
X128737000Y-88101000D01*
X128711221Y-88099734D01*
X128685691Y-88095947D01*
X128660655Y-88089675D01*
X128636354Y-88080980D01*
X128613023Y-88069945D01*
X128590885Y-88056677D01*
X128570155Y-88041302D01*
X128551031Y-88023969D01*
X128533698Y-88004845D01*
X128518323Y-87984115D01*
X128505055Y-87961977D01*
X128494020Y-87938646D01*
X128485325Y-87914345D01*
X128479053Y-87889309D01*
X128475266Y-87863779D01*
X128474000Y-87838000D01*
X128474000Y-87212000D01*
X128475266Y-87186221D01*
X128479053Y-87160691D01*
X128485325Y-87135655D01*
X128494020Y-87111354D01*
X128505055Y-87088023D01*
X128518323Y-87065885D01*
X128533698Y-87045155D01*
X128551031Y-87026031D01*
X128570155Y-87008698D01*
X128590885Y-86993323D01*
X128613023Y-86980055D01*
X128636354Y-86969020D01*
X128660655Y-86960325D01*
X128685691Y-86954053D01*
X128711221Y-86950266D01*
X128737000Y-86949000D01*
X129263000Y-86949000D01*
X129288779Y-86950266D01*
G37*
G36*
X129288779Y-88700266D02*
G01*
X129314309Y-88704053D01*
X129339345Y-88710325D01*
X129363646Y-88719020D01*
X129386977Y-88730055D01*
X129409115Y-88743323D01*
X129429845Y-88758698D01*
X129448969Y-88776031D01*
X129466302Y-88795155D01*
X129481677Y-88815885D01*
X129494945Y-88838023D01*
X129505980Y-88861354D01*
X129514675Y-88885655D01*
X129520947Y-88910691D01*
X129524734Y-88936221D01*
X129526000Y-88962000D01*
X129526000Y-89588000D01*
X129524734Y-89613779D01*
X129520947Y-89639309D01*
X129514675Y-89664345D01*
X129505980Y-89688646D01*
X129494945Y-89711977D01*
X129481677Y-89734115D01*
X129466302Y-89754845D01*
X129448969Y-89773969D01*
X129429845Y-89791302D01*
X129409115Y-89806677D01*
X129386977Y-89819945D01*
X129363646Y-89830980D01*
X129339345Y-89839675D01*
X129314309Y-89845947D01*
X129288779Y-89849734D01*
X129263000Y-89851000D01*
X128737000Y-89851000D01*
X128711221Y-89849734D01*
X128685691Y-89845947D01*
X128660655Y-89839675D01*
X128636354Y-89830980D01*
X128613023Y-89819945D01*
X128590885Y-89806677D01*
X128570155Y-89791302D01*
X128551031Y-89773969D01*
X128533698Y-89754845D01*
X128518323Y-89734115D01*
X128505055Y-89711977D01*
X128494020Y-89688646D01*
X128485325Y-89664345D01*
X128479053Y-89639309D01*
X128475266Y-89613779D01*
X128474000Y-89588000D01*
X128474000Y-88962000D01*
X128475266Y-88936221D01*
X128479053Y-88910691D01*
X128485325Y-88885655D01*
X128494020Y-88861354D01*
X128505055Y-88838023D01*
X128518323Y-88815885D01*
X128533698Y-88795155D01*
X128551031Y-88776031D01*
X128570155Y-88758698D01*
X128590885Y-88743323D01*
X128613023Y-88730055D01*
X128636354Y-88719020D01*
X128660655Y-88710325D01*
X128685691Y-88704053D01*
X128711221Y-88700266D01*
X128737000Y-88699000D01*
X129263000Y-88699000D01*
X129288779Y-88700266D01*
G37*
D20*
X127000000Y-88400000D03*
X125000000Y-89350000D03*
X125000000Y-87450000D03*
D24*
X138000000Y-81400000D03*
D25*
X138000000Y-83940000D03*
X138000000Y-86480000D03*
X138000000Y-89020000D03*
D17*
G36*
X132634363Y-82125290D02*
G01*
X132660369Y-82129148D01*
X132685871Y-82135535D01*
X132710624Y-82144392D01*
X132734390Y-82155633D01*
X132756939Y-82169148D01*
X132778056Y-82184809D01*
X132797535Y-82202465D01*
X132815191Y-82221944D01*
X132830852Y-82243061D01*
X132844367Y-82265610D01*
X132855608Y-82289376D01*
X132864465Y-82314129D01*
X132870852Y-82339631D01*
X132874710Y-82365637D01*
X132876000Y-82391895D01*
X132876000Y-84608105D01*
X132874710Y-84634363D01*
X132870852Y-84660369D01*
X132864465Y-84685871D01*
X132855608Y-84710624D01*
X132844367Y-84734390D01*
X132830852Y-84756939D01*
X132815191Y-84778056D01*
X132797535Y-84797535D01*
X132778056Y-84815191D01*
X132756939Y-84830852D01*
X132734390Y-84844367D01*
X132710624Y-84855608D01*
X132685871Y-84864465D01*
X132660369Y-84870852D01*
X132634363Y-84874710D01*
X132608105Y-84876000D01*
X131616895Y-84876000D01*
X131590637Y-84874710D01*
X131564631Y-84870852D01*
X131539129Y-84864465D01*
X131514376Y-84855608D01*
X131490610Y-84844367D01*
X131468061Y-84830852D01*
X131446944Y-84815191D01*
X131427465Y-84797535D01*
X131409809Y-84778056D01*
X131394148Y-84756939D01*
X131380633Y-84734390D01*
X131369392Y-84710624D01*
X131360535Y-84685871D01*
X131354148Y-84660369D01*
X131350290Y-84634363D01*
X131349000Y-84608105D01*
X131349000Y-82391895D01*
X131350290Y-82365637D01*
X131354148Y-82339631D01*
X131360535Y-82314129D01*
X131369392Y-82289376D01*
X131380633Y-82265610D01*
X131394148Y-82243061D01*
X131409809Y-82221944D01*
X131427465Y-82202465D01*
X131446944Y-82184809D01*
X131468061Y-82169148D01*
X131490610Y-82155633D01*
X131514376Y-82144392D01*
X131539129Y-82135535D01*
X131564631Y-82129148D01*
X131590637Y-82125290D01*
X131616895Y-82124000D01*
X132608105Y-82124000D01*
X132634363Y-82125290D01*
G37*
G36*
X135609363Y-82125290D02*
G01*
X135635369Y-82129148D01*
X135660871Y-82135535D01*
X135685624Y-82144392D01*
X135709390Y-82155633D01*
X135731939Y-82169148D01*
X135753056Y-82184809D01*
X135772535Y-82202465D01*
X135790191Y-82221944D01*
X135805852Y-82243061D01*
X135819367Y-82265610D01*
X135830608Y-82289376D01*
X135839465Y-82314129D01*
X135845852Y-82339631D01*
X135849710Y-82365637D01*
X135851000Y-82391895D01*
X135851000Y-84608105D01*
X135849710Y-84634363D01*
X135845852Y-84660369D01*
X135839465Y-84685871D01*
X135830608Y-84710624D01*
X135819367Y-84734390D01*
X135805852Y-84756939D01*
X135790191Y-84778056D01*
X135772535Y-84797535D01*
X135753056Y-84815191D01*
X135731939Y-84830852D01*
X135709390Y-84844367D01*
X135685624Y-84855608D01*
X135660871Y-84864465D01*
X135635369Y-84870852D01*
X135609363Y-84874710D01*
X135583105Y-84876000D01*
X134591895Y-84876000D01*
X134565637Y-84874710D01*
X134539631Y-84870852D01*
X134514129Y-84864465D01*
X134489376Y-84855608D01*
X134465610Y-84844367D01*
X134443061Y-84830852D01*
X134421944Y-84815191D01*
X134402465Y-84797535D01*
X134384809Y-84778056D01*
X134369148Y-84756939D01*
X134355633Y-84734390D01*
X134344392Y-84710624D01*
X134335535Y-84685871D01*
X134329148Y-84660369D01*
X134325290Y-84634363D01*
X134324000Y-84608105D01*
X134324000Y-82391895D01*
X134325290Y-82365637D01*
X134329148Y-82339631D01*
X134335535Y-82314129D01*
X134344392Y-82289376D01*
X134355633Y-82265610D01*
X134369148Y-82243061D01*
X134384809Y-82221944D01*
X134402465Y-82202465D01*
X134421944Y-82184809D01*
X134443061Y-82169148D01*
X134465610Y-82155633D01*
X134489376Y-82144392D01*
X134514129Y-82135535D01*
X134539631Y-82129148D01*
X134565637Y-82125290D01*
X134591895Y-82124000D01*
X135583105Y-82124000D01*
X135609363Y-82125290D01*
G37*
G36*
X125343888Y-92400398D02*
G01*
X125325466Y-92400398D01*
X125320467Y-92400152D01*
X125271636Y-92395342D01*
X125266686Y-92394608D01*
X125218561Y-92385036D01*
X125213705Y-92383820D01*
X125166750Y-92369576D01*
X125162039Y-92367890D01*
X125116706Y-92349113D01*
X125112180Y-92346973D01*
X125068907Y-92323842D01*
X125064616Y-92321269D01*
X125023817Y-92294009D01*
X125019796Y-92291027D01*
X124981867Y-92259899D01*
X124978159Y-92256538D01*
X124943462Y-92221841D01*
X124940101Y-92218133D01*
X124908973Y-92180204D01*
X124905991Y-92176183D01*
X124878731Y-92135384D01*
X124876158Y-92131093D01*
X124853027Y-92087820D01*
X124850887Y-92083294D01*
X124832110Y-92037961D01*
X124830424Y-92033250D01*
X124816180Y-91986295D01*
X124814964Y-91981439D01*
X124805392Y-91933314D01*
X124804658Y-91928364D01*
X124799848Y-91879533D01*
X124799602Y-91874534D01*
X124799602Y-91856112D01*
X124799000Y-91850000D01*
X124799000Y-91350000D01*
X124799602Y-91343888D01*
X124799602Y-91325466D01*
X124799848Y-91320467D01*
X124804658Y-91271636D01*
X124805392Y-91266686D01*
X124814964Y-91218561D01*
X124816180Y-91213705D01*
X124830424Y-91166750D01*
X124832110Y-91162039D01*
X124850887Y-91116706D01*
X124853027Y-91112180D01*
X124876158Y-91068907D01*
X124878731Y-91064616D01*
X124905991Y-91023817D01*
X124908973Y-91019796D01*
X124940101Y-90981867D01*
X124943462Y-90978159D01*
X124978159Y-90943462D01*
X124981867Y-90940101D01*
X125019796Y-90908973D01*
X125023817Y-90905991D01*
X125064616Y-90878731D01*
X125068907Y-90876158D01*
X125112180Y-90853027D01*
X125116706Y-90850887D01*
X125162039Y-90832110D01*
X125166750Y-90830424D01*
X125213705Y-90816180D01*
X125218561Y-90814964D01*
X125266686Y-90805392D01*
X125271636Y-90804658D01*
X125320467Y-90799848D01*
X125325466Y-90799602D01*
X125343888Y-90799602D01*
X125350000Y-90799000D01*
X125850000Y-90799000D01*
X125859950Y-90799980D01*
X125869517Y-90802882D01*
X125878334Y-90807595D01*
X125886062Y-90813938D01*
X125892405Y-90821666D01*
X125897118Y-90830483D01*
X125900020Y-90840050D01*
X125901000Y-90850000D01*
X125901000Y-92350000D01*
X125900020Y-92359950D01*
X125897118Y-92369517D01*
X125892405Y-92378334D01*
X125886062Y-92386062D01*
X125878334Y-92392405D01*
X125869517Y-92397118D01*
X125859950Y-92400020D01*
X125850000Y-92401000D01*
X125350000Y-92401000D01*
X125343888Y-92400398D01*
G37*
G36*
X126140050Y-92400020D02*
G01*
X126130483Y-92397118D01*
X126121666Y-92392405D01*
X126113938Y-92386062D01*
X126107595Y-92378334D01*
X126102882Y-92369517D01*
X126099980Y-92359950D01*
X126099000Y-92350000D01*
X126099000Y-90850000D01*
X126099980Y-90840050D01*
X126102882Y-90830483D01*
X126107595Y-90821666D01*
X126113938Y-90813938D01*
X126121666Y-90807595D01*
X126130483Y-90802882D01*
X126140050Y-90799980D01*
X126150000Y-90799000D01*
X126650000Y-90799000D01*
X126656112Y-90799602D01*
X126674534Y-90799602D01*
X126679533Y-90799848D01*
X126728364Y-90804658D01*
X126733314Y-90805392D01*
X126781439Y-90814964D01*
X126786295Y-90816180D01*
X126833250Y-90830424D01*
X126837961Y-90832110D01*
X126883294Y-90850887D01*
X126887820Y-90853027D01*
X126931093Y-90876158D01*
X126935384Y-90878731D01*
X126976183Y-90905991D01*
X126980204Y-90908973D01*
X127018133Y-90940101D01*
X127021841Y-90943462D01*
X127056538Y-90978159D01*
X127059899Y-90981867D01*
X127091027Y-91019796D01*
X127094009Y-91023817D01*
X127121269Y-91064616D01*
X127123842Y-91068907D01*
X127146973Y-91112180D01*
X127149113Y-91116706D01*
X127167890Y-91162039D01*
X127169576Y-91166750D01*
X127183820Y-91213705D01*
X127185036Y-91218561D01*
X127194608Y-91266686D01*
X127195342Y-91271636D01*
X127200152Y-91320467D01*
X127200398Y-91325466D01*
X127200398Y-91343888D01*
X127201000Y-91350000D01*
X127201000Y-91850000D01*
X127200398Y-91856112D01*
X127200398Y-91874534D01*
X127200152Y-91879533D01*
X127195342Y-91928364D01*
X127194608Y-91933314D01*
X127185036Y-91981439D01*
X127183820Y-91986295D01*
X127169576Y-92033250D01*
X127167890Y-92037961D01*
X127149113Y-92083294D01*
X127146973Y-92087820D01*
X127123842Y-92131093D01*
X127121269Y-92135384D01*
X127094009Y-92176183D01*
X127091027Y-92180204D01*
X127059899Y-92218133D01*
X127056538Y-92221841D01*
X127021841Y-92256538D01*
X127018133Y-92259899D01*
X126980204Y-92291027D01*
X126976183Y-92294009D01*
X126935384Y-92321269D01*
X126931093Y-92323842D01*
X126887820Y-92346973D01*
X126883294Y-92349113D01*
X126837961Y-92367890D01*
X126833250Y-92369576D01*
X126786295Y-92383820D01*
X126781439Y-92385036D01*
X126733314Y-92394608D01*
X126728364Y-92395342D01*
X126679533Y-92400152D01*
X126674534Y-92400398D01*
X126656112Y-92400398D01*
X126650000Y-92401000D01*
X126150000Y-92401000D01*
X126140050Y-92400020D01*
G37*
D26*
X107670000Y-91370000D03*
X105130000Y-88830000D03*
X107670000Y-88830000D03*
X105130000Y-91370000D03*
X106400000Y-90100000D03*
D17*
G36*
X121163779Y-90575266D02*
G01*
X121189309Y-90579053D01*
X121214345Y-90585325D01*
X121238646Y-90594020D01*
X121261977Y-90605055D01*
X121284115Y-90618323D01*
X121304845Y-90633698D01*
X121323969Y-90651031D01*
X121341302Y-90670155D01*
X121356677Y-90690885D01*
X121369945Y-90713023D01*
X121380980Y-90736354D01*
X121389675Y-90760655D01*
X121395947Y-90785691D01*
X121399734Y-90811221D01*
X121401000Y-90837000D01*
X121401000Y-91363000D01*
X121399734Y-91388779D01*
X121395947Y-91414309D01*
X121389675Y-91439345D01*
X121380980Y-91463646D01*
X121369945Y-91486977D01*
X121356677Y-91509115D01*
X121341302Y-91529845D01*
X121323969Y-91548969D01*
X121304845Y-91566302D01*
X121284115Y-91581677D01*
X121261977Y-91594945D01*
X121238646Y-91605980D01*
X121214345Y-91614675D01*
X121189309Y-91620947D01*
X121163779Y-91624734D01*
X121138000Y-91626000D01*
X120512000Y-91626000D01*
X120486221Y-91624734D01*
X120460691Y-91620947D01*
X120435655Y-91614675D01*
X120411354Y-91605980D01*
X120388023Y-91594945D01*
X120365885Y-91581677D01*
X120345155Y-91566302D01*
X120326031Y-91548969D01*
X120308698Y-91529845D01*
X120293323Y-91509115D01*
X120280055Y-91486977D01*
X120269020Y-91463646D01*
X120260325Y-91439345D01*
X120254053Y-91414309D01*
X120250266Y-91388779D01*
X120249000Y-91363000D01*
X120249000Y-90837000D01*
X120250266Y-90811221D01*
X120254053Y-90785691D01*
X120260325Y-90760655D01*
X120269020Y-90736354D01*
X120280055Y-90713023D01*
X120293323Y-90690885D01*
X120308698Y-90670155D01*
X120326031Y-90651031D01*
X120345155Y-90633698D01*
X120365885Y-90618323D01*
X120388023Y-90605055D01*
X120411354Y-90594020D01*
X120435655Y-90585325D01*
X120460691Y-90579053D01*
X120486221Y-90575266D01*
X120512000Y-90574000D01*
X121138000Y-90574000D01*
X121163779Y-90575266D01*
G37*
G36*
X122913779Y-90575266D02*
G01*
X122939309Y-90579053D01*
X122964345Y-90585325D01*
X122988646Y-90594020D01*
X123011977Y-90605055D01*
X123034115Y-90618323D01*
X123054845Y-90633698D01*
X123073969Y-90651031D01*
X123091302Y-90670155D01*
X123106677Y-90690885D01*
X123119945Y-90713023D01*
X123130980Y-90736354D01*
X123139675Y-90760655D01*
X123145947Y-90785691D01*
X123149734Y-90811221D01*
X123151000Y-90837000D01*
X123151000Y-91363000D01*
X123149734Y-91388779D01*
X123145947Y-91414309D01*
X123139675Y-91439345D01*
X123130980Y-91463646D01*
X123119945Y-91486977D01*
X123106677Y-91509115D01*
X123091302Y-91529845D01*
X123073969Y-91548969D01*
X123054845Y-91566302D01*
X123034115Y-91581677D01*
X123011977Y-91594945D01*
X122988646Y-91605980D01*
X122964345Y-91614675D01*
X122939309Y-91620947D01*
X122913779Y-91624734D01*
X122888000Y-91626000D01*
X122262000Y-91626000D01*
X122236221Y-91624734D01*
X122210691Y-91620947D01*
X122185655Y-91614675D01*
X122161354Y-91605980D01*
X122138023Y-91594945D01*
X122115885Y-91581677D01*
X122095155Y-91566302D01*
X122076031Y-91548969D01*
X122058698Y-91529845D01*
X122043323Y-91509115D01*
X122030055Y-91486977D01*
X122019020Y-91463646D01*
X122010325Y-91439345D01*
X122004053Y-91414309D01*
X122000266Y-91388779D01*
X121999000Y-91363000D01*
X121999000Y-90837000D01*
X122000266Y-90811221D01*
X122004053Y-90785691D01*
X122010325Y-90760655D01*
X122019020Y-90736354D01*
X122030055Y-90713023D01*
X122043323Y-90690885D01*
X122058698Y-90670155D01*
X122076031Y-90651031D01*
X122095155Y-90633698D01*
X122115885Y-90618323D01*
X122138023Y-90605055D01*
X122161354Y-90594020D01*
X122185655Y-90585325D01*
X122210691Y-90579053D01*
X122236221Y-90575266D01*
X122262000Y-90574000D01*
X122888000Y-90574000D01*
X122913779Y-90575266D01*
G37*
G36*
X131088779Y-87675266D02*
G01*
X131114309Y-87679053D01*
X131139345Y-87685325D01*
X131163646Y-87694020D01*
X131186977Y-87705055D01*
X131209115Y-87718323D01*
X131229845Y-87733698D01*
X131248969Y-87751031D01*
X131266302Y-87770155D01*
X131281677Y-87790885D01*
X131294945Y-87813023D01*
X131305980Y-87836354D01*
X131314675Y-87860655D01*
X131320947Y-87885691D01*
X131324734Y-87911221D01*
X131326000Y-87937000D01*
X131326000Y-88563000D01*
X131324734Y-88588779D01*
X131320947Y-88614309D01*
X131314675Y-88639345D01*
X131305980Y-88663646D01*
X131294945Y-88686977D01*
X131281677Y-88709115D01*
X131266302Y-88729845D01*
X131248969Y-88748969D01*
X131229845Y-88766302D01*
X131209115Y-88781677D01*
X131186977Y-88794945D01*
X131163646Y-88805980D01*
X131139345Y-88814675D01*
X131114309Y-88820947D01*
X131088779Y-88824734D01*
X131063000Y-88826000D01*
X130537000Y-88826000D01*
X130511221Y-88824734D01*
X130485691Y-88820947D01*
X130460655Y-88814675D01*
X130436354Y-88805980D01*
X130413023Y-88794945D01*
X130390885Y-88781677D01*
X130370155Y-88766302D01*
X130351031Y-88748969D01*
X130333698Y-88729845D01*
X130318323Y-88709115D01*
X130305055Y-88686977D01*
X130294020Y-88663646D01*
X130285325Y-88639345D01*
X130279053Y-88614309D01*
X130275266Y-88588779D01*
X130274000Y-88563000D01*
X130274000Y-87937000D01*
X130275266Y-87911221D01*
X130279053Y-87885691D01*
X130285325Y-87860655D01*
X130294020Y-87836354D01*
X130305055Y-87813023D01*
X130318323Y-87790885D01*
X130333698Y-87770155D01*
X130351031Y-87751031D01*
X130370155Y-87733698D01*
X130390885Y-87718323D01*
X130413023Y-87705055D01*
X130436354Y-87694020D01*
X130460655Y-87685325D01*
X130485691Y-87679053D01*
X130511221Y-87675266D01*
X130537000Y-87674000D01*
X131063000Y-87674000D01*
X131088779Y-87675266D01*
G37*
G36*
X131088779Y-85925266D02*
G01*
X131114309Y-85929053D01*
X131139345Y-85935325D01*
X131163646Y-85944020D01*
X131186977Y-85955055D01*
X131209115Y-85968323D01*
X131229845Y-85983698D01*
X131248969Y-86001031D01*
X131266302Y-86020155D01*
X131281677Y-86040885D01*
X131294945Y-86063023D01*
X131305980Y-86086354D01*
X131314675Y-86110655D01*
X131320947Y-86135691D01*
X131324734Y-86161221D01*
X131326000Y-86187000D01*
X131326000Y-86813000D01*
X131324734Y-86838779D01*
X131320947Y-86864309D01*
X131314675Y-86889345D01*
X131305980Y-86913646D01*
X131294945Y-86936977D01*
X131281677Y-86959115D01*
X131266302Y-86979845D01*
X131248969Y-86998969D01*
X131229845Y-87016302D01*
X131209115Y-87031677D01*
X131186977Y-87044945D01*
X131163646Y-87055980D01*
X131139345Y-87064675D01*
X131114309Y-87070947D01*
X131088779Y-87074734D01*
X131063000Y-87076000D01*
X130537000Y-87076000D01*
X130511221Y-87074734D01*
X130485691Y-87070947D01*
X130460655Y-87064675D01*
X130436354Y-87055980D01*
X130413023Y-87044945D01*
X130390885Y-87031677D01*
X130370155Y-87016302D01*
X130351031Y-86998969D01*
X130333698Y-86979845D01*
X130318323Y-86959115D01*
X130305055Y-86936977D01*
X130294020Y-86913646D01*
X130285325Y-86889345D01*
X130279053Y-86864309D01*
X130275266Y-86838779D01*
X130274000Y-86813000D01*
X130274000Y-86187000D01*
X130275266Y-86161221D01*
X130279053Y-86135691D01*
X130285325Y-86110655D01*
X130294020Y-86086354D01*
X130305055Y-86063023D01*
X130318323Y-86040885D01*
X130333698Y-86020155D01*
X130351031Y-86001031D01*
X130370155Y-85983698D01*
X130390885Y-85968323D01*
X130413023Y-85955055D01*
X130436354Y-85944020D01*
X130460655Y-85935325D01*
X130485691Y-85929053D01*
X130511221Y-85925266D01*
X130537000Y-85924000D01*
X131063000Y-85924000D01*
X131088779Y-85925266D01*
G37*
G36*
X132988779Y-87700266D02*
G01*
X133014309Y-87704053D01*
X133039345Y-87710325D01*
X133063646Y-87719020D01*
X133086977Y-87730055D01*
X133109115Y-87743323D01*
X133129845Y-87758698D01*
X133148969Y-87776031D01*
X133166302Y-87795155D01*
X133181677Y-87815885D01*
X133194945Y-87838023D01*
X133205980Y-87861354D01*
X133214675Y-87885655D01*
X133220947Y-87910691D01*
X133224734Y-87936221D01*
X133226000Y-87962000D01*
X133226000Y-88588000D01*
X133224734Y-88613779D01*
X133220947Y-88639309D01*
X133214675Y-88664345D01*
X133205980Y-88688646D01*
X133194945Y-88711977D01*
X133181677Y-88734115D01*
X133166302Y-88754845D01*
X133148969Y-88773969D01*
X133129845Y-88791302D01*
X133109115Y-88806677D01*
X133086977Y-88819945D01*
X133063646Y-88830980D01*
X133039345Y-88839675D01*
X133014309Y-88845947D01*
X132988779Y-88849734D01*
X132963000Y-88851000D01*
X132437000Y-88851000D01*
X132411221Y-88849734D01*
X132385691Y-88845947D01*
X132360655Y-88839675D01*
X132336354Y-88830980D01*
X132313023Y-88819945D01*
X132290885Y-88806677D01*
X132270155Y-88791302D01*
X132251031Y-88773969D01*
X132233698Y-88754845D01*
X132218323Y-88734115D01*
X132205055Y-88711977D01*
X132194020Y-88688646D01*
X132185325Y-88664345D01*
X132179053Y-88639309D01*
X132175266Y-88613779D01*
X132174000Y-88588000D01*
X132174000Y-87962000D01*
X132175266Y-87936221D01*
X132179053Y-87910691D01*
X132185325Y-87885655D01*
X132194020Y-87861354D01*
X132205055Y-87838023D01*
X132218323Y-87815885D01*
X132233698Y-87795155D01*
X132251031Y-87776031D01*
X132270155Y-87758698D01*
X132290885Y-87743323D01*
X132313023Y-87730055D01*
X132336354Y-87719020D01*
X132360655Y-87710325D01*
X132385691Y-87704053D01*
X132411221Y-87700266D01*
X132437000Y-87699000D01*
X132963000Y-87699000D01*
X132988779Y-87700266D01*
G37*
G36*
X132988779Y-85950266D02*
G01*
X133014309Y-85954053D01*
X133039345Y-85960325D01*
X133063646Y-85969020D01*
X133086977Y-85980055D01*
X133109115Y-85993323D01*
X133129845Y-86008698D01*
X133148969Y-86026031D01*
X133166302Y-86045155D01*
X133181677Y-86065885D01*
X133194945Y-86088023D01*
X133205980Y-86111354D01*
X133214675Y-86135655D01*
X133220947Y-86160691D01*
X133224734Y-86186221D01*
X133226000Y-86212000D01*
X133226000Y-86838000D01*
X133224734Y-86863779D01*
X133220947Y-86889309D01*
X133214675Y-86914345D01*
X133205980Y-86938646D01*
X133194945Y-86961977D01*
X133181677Y-86984115D01*
X133166302Y-87004845D01*
X133148969Y-87023969D01*
X133129845Y-87041302D01*
X133109115Y-87056677D01*
X133086977Y-87069945D01*
X133063646Y-87080980D01*
X133039345Y-87089675D01*
X133014309Y-87095947D01*
X132988779Y-87099734D01*
X132963000Y-87101000D01*
X132437000Y-87101000D01*
X132411221Y-87099734D01*
X132385691Y-87095947D01*
X132360655Y-87089675D01*
X132336354Y-87080980D01*
X132313023Y-87069945D01*
X132290885Y-87056677D01*
X132270155Y-87041302D01*
X132251031Y-87023969D01*
X132233698Y-87004845D01*
X132218323Y-86984115D01*
X132205055Y-86961977D01*
X132194020Y-86938646D01*
X132185325Y-86914345D01*
X132179053Y-86889309D01*
X132175266Y-86863779D01*
X132174000Y-86838000D01*
X132174000Y-86212000D01*
X132175266Y-86186221D01*
X132179053Y-86160691D01*
X132185325Y-86135655D01*
X132194020Y-86111354D01*
X132205055Y-86088023D01*
X132218323Y-86065885D01*
X132233698Y-86045155D01*
X132251031Y-86026031D01*
X132270155Y-86008698D01*
X132290885Y-85993323D01*
X132313023Y-85980055D01*
X132336354Y-85969020D01*
X132360655Y-85960325D01*
X132385691Y-85954053D01*
X132411221Y-85950266D01*
X132437000Y-85949000D01*
X132963000Y-85949000D01*
X132988779Y-85950266D01*
G37*
G36*
X135584363Y-85750290D02*
G01*
X135610369Y-85754148D01*
X135635871Y-85760535D01*
X135660624Y-85769392D01*
X135684390Y-85780633D01*
X135706939Y-85794148D01*
X135728056Y-85809809D01*
X135747535Y-85827465D01*
X135765191Y-85846944D01*
X135780852Y-85868061D01*
X135794367Y-85890610D01*
X135805608Y-85914376D01*
X135814465Y-85939129D01*
X135820852Y-85964631D01*
X135824710Y-85990637D01*
X135826000Y-86016895D01*
X135826000Y-87008105D01*
X135824710Y-87034363D01*
X135820852Y-87060369D01*
X135814465Y-87085871D01*
X135805608Y-87110624D01*
X135794367Y-87134390D01*
X135780852Y-87156939D01*
X135765191Y-87178056D01*
X135747535Y-87197535D01*
X135728056Y-87215191D01*
X135706939Y-87230852D01*
X135684390Y-87244367D01*
X135660624Y-87255608D01*
X135635871Y-87264465D01*
X135610369Y-87270852D01*
X135584363Y-87274710D01*
X135558105Y-87276000D01*
X134241895Y-87276000D01*
X134215637Y-87274710D01*
X134189631Y-87270852D01*
X134164129Y-87264465D01*
X134139376Y-87255608D01*
X134115610Y-87244367D01*
X134093061Y-87230852D01*
X134071944Y-87215191D01*
X134052465Y-87197535D01*
X134034809Y-87178056D01*
X134019148Y-87156939D01*
X134005633Y-87134390D01*
X133994392Y-87110624D01*
X133985535Y-87085871D01*
X133979148Y-87060369D01*
X133975290Y-87034363D01*
X133974000Y-87008105D01*
X133974000Y-86016895D01*
X133975290Y-85990637D01*
X133979148Y-85964631D01*
X133985535Y-85939129D01*
X133994392Y-85914376D01*
X134005633Y-85890610D01*
X134019148Y-85868061D01*
X134034809Y-85846944D01*
X134052465Y-85827465D01*
X134071944Y-85809809D01*
X134093061Y-85794148D01*
X134115610Y-85780633D01*
X134139376Y-85769392D01*
X134164129Y-85760535D01*
X134189631Y-85754148D01*
X134215637Y-85750290D01*
X134241895Y-85749000D01*
X135558105Y-85749000D01*
X135584363Y-85750290D01*
G37*
G36*
X135584363Y-88725290D02*
G01*
X135610369Y-88729148D01*
X135635871Y-88735535D01*
X135660624Y-88744392D01*
X135684390Y-88755633D01*
X135706939Y-88769148D01*
X135728056Y-88784809D01*
X135747535Y-88802465D01*
X135765191Y-88821944D01*
X135780852Y-88843061D01*
X135794367Y-88865610D01*
X135805608Y-88889376D01*
X135814465Y-88914129D01*
X135820852Y-88939631D01*
X135824710Y-88965637D01*
X135826000Y-88991895D01*
X135826000Y-89983105D01*
X135824710Y-90009363D01*
X135820852Y-90035369D01*
X135814465Y-90060871D01*
X135805608Y-90085624D01*
X135794367Y-90109390D01*
X135780852Y-90131939D01*
X135765191Y-90153056D01*
X135747535Y-90172535D01*
X135728056Y-90190191D01*
X135706939Y-90205852D01*
X135684390Y-90219367D01*
X135660624Y-90230608D01*
X135635871Y-90239465D01*
X135610369Y-90245852D01*
X135584363Y-90249710D01*
X135558105Y-90251000D01*
X134241895Y-90251000D01*
X134215637Y-90249710D01*
X134189631Y-90245852D01*
X134164129Y-90239465D01*
X134139376Y-90230608D01*
X134115610Y-90219367D01*
X134093061Y-90205852D01*
X134071944Y-90190191D01*
X134052465Y-90172535D01*
X134034809Y-90153056D01*
X134019148Y-90131939D01*
X134005633Y-90109390D01*
X133994392Y-90085624D01*
X133985535Y-90060871D01*
X133979148Y-90035369D01*
X133975290Y-90009363D01*
X133974000Y-89983105D01*
X133974000Y-88991895D01*
X133975290Y-88965637D01*
X133979148Y-88939631D01*
X133985535Y-88914129D01*
X133994392Y-88889376D01*
X134005633Y-88865610D01*
X134019148Y-88843061D01*
X134034809Y-88821944D01*
X134052465Y-88802465D01*
X134071944Y-88784809D01*
X134093061Y-88769148D01*
X134115610Y-88755633D01*
X134139376Y-88744392D01*
X134164129Y-88735535D01*
X134189631Y-88729148D01*
X134215637Y-88725290D01*
X134241895Y-88724000D01*
X135558105Y-88724000D01*
X135584363Y-88725290D01*
G37*
G36*
X135809363Y-79075290D02*
G01*
X135835369Y-79079148D01*
X135860871Y-79085535D01*
X135885624Y-79094392D01*
X135909390Y-79105633D01*
X135931939Y-79119148D01*
X135953056Y-79134809D01*
X135972535Y-79152465D01*
X135990191Y-79171944D01*
X136005852Y-79193061D01*
X136019367Y-79215610D01*
X136030608Y-79239376D01*
X136039465Y-79264129D01*
X136045852Y-79289631D01*
X136049710Y-79315637D01*
X136051000Y-79341895D01*
X136051000Y-80658105D01*
X136049710Y-80684363D01*
X136045852Y-80710369D01*
X136039465Y-80735871D01*
X136030608Y-80760624D01*
X136019367Y-80784390D01*
X136005852Y-80806939D01*
X135990191Y-80828056D01*
X135972535Y-80847535D01*
X135953056Y-80865191D01*
X135931939Y-80880852D01*
X135909390Y-80894367D01*
X135885624Y-80905608D01*
X135860871Y-80914465D01*
X135835369Y-80920852D01*
X135809363Y-80924710D01*
X135783105Y-80926000D01*
X134791895Y-80926000D01*
X134765637Y-80924710D01*
X134739631Y-80920852D01*
X134714129Y-80914465D01*
X134689376Y-80905608D01*
X134665610Y-80894367D01*
X134643061Y-80880852D01*
X134621944Y-80865191D01*
X134602465Y-80847535D01*
X134584809Y-80828056D01*
X134569148Y-80806939D01*
X134555633Y-80784390D01*
X134544392Y-80760624D01*
X134535535Y-80735871D01*
X134529148Y-80710369D01*
X134525290Y-80684363D01*
X134524000Y-80658105D01*
X134524000Y-79341895D01*
X134525290Y-79315637D01*
X134529148Y-79289631D01*
X134535535Y-79264129D01*
X134544392Y-79239376D01*
X134555633Y-79215610D01*
X134569148Y-79193061D01*
X134584809Y-79171944D01*
X134602465Y-79152465D01*
X134621944Y-79134809D01*
X134643061Y-79119148D01*
X134665610Y-79105633D01*
X134689376Y-79094392D01*
X134714129Y-79085535D01*
X134739631Y-79079148D01*
X134765637Y-79075290D01*
X134791895Y-79074000D01*
X135783105Y-79074000D01*
X135809363Y-79075290D01*
G37*
G36*
X132834363Y-79075290D02*
G01*
X132860369Y-79079148D01*
X132885871Y-79085535D01*
X132910624Y-79094392D01*
X132934390Y-79105633D01*
X132956939Y-79119148D01*
X132978056Y-79134809D01*
X132997535Y-79152465D01*
X133015191Y-79171944D01*
X133030852Y-79193061D01*
X133044367Y-79215610D01*
X133055608Y-79239376D01*
X133064465Y-79264129D01*
X133070852Y-79289631D01*
X133074710Y-79315637D01*
X133076000Y-79341895D01*
X133076000Y-80658105D01*
X133074710Y-80684363D01*
X133070852Y-80710369D01*
X133064465Y-80735871D01*
X133055608Y-80760624D01*
X133044367Y-80784390D01*
X133030852Y-80806939D01*
X133015191Y-80828056D01*
X132997535Y-80847535D01*
X132978056Y-80865191D01*
X132956939Y-80880852D01*
X132934390Y-80894367D01*
X132910624Y-80905608D01*
X132885871Y-80914465D01*
X132860369Y-80920852D01*
X132834363Y-80924710D01*
X132808105Y-80926000D01*
X131816895Y-80926000D01*
X131790637Y-80924710D01*
X131764631Y-80920852D01*
X131739129Y-80914465D01*
X131714376Y-80905608D01*
X131690610Y-80894367D01*
X131668061Y-80880852D01*
X131646944Y-80865191D01*
X131627465Y-80847535D01*
X131609809Y-80828056D01*
X131594148Y-80806939D01*
X131580633Y-80784390D01*
X131569392Y-80760624D01*
X131560535Y-80735871D01*
X131554148Y-80710369D01*
X131550290Y-80684363D01*
X131549000Y-80658105D01*
X131549000Y-79341895D01*
X131550290Y-79315637D01*
X131554148Y-79289631D01*
X131560535Y-79264129D01*
X131569392Y-79239376D01*
X131580633Y-79215610D01*
X131594148Y-79193061D01*
X131609809Y-79171944D01*
X131627465Y-79152465D01*
X131646944Y-79134809D01*
X131668061Y-79119148D01*
X131690610Y-79105633D01*
X131714376Y-79094392D01*
X131739129Y-79085535D01*
X131764631Y-79079148D01*
X131790637Y-79075290D01*
X131816895Y-79074000D01*
X132808105Y-79074000D01*
X132834363Y-79075290D01*
G37*
G36*
X109363779Y-76275266D02*
G01*
X109389309Y-76279053D01*
X109414345Y-76285325D01*
X109438646Y-76294020D01*
X109461977Y-76305055D01*
X109484115Y-76318323D01*
X109504845Y-76333698D01*
X109523969Y-76351031D01*
X109541302Y-76370155D01*
X109556677Y-76390885D01*
X109569945Y-76413023D01*
X109580980Y-76436354D01*
X109589675Y-76460655D01*
X109595947Y-76485691D01*
X109599734Y-76511221D01*
X109601000Y-76537000D01*
X109601000Y-77063000D01*
X109599734Y-77088779D01*
X109595947Y-77114309D01*
X109589675Y-77139345D01*
X109580980Y-77163646D01*
X109569945Y-77186977D01*
X109556677Y-77209115D01*
X109541302Y-77229845D01*
X109523969Y-77248969D01*
X109504845Y-77266302D01*
X109484115Y-77281677D01*
X109461977Y-77294945D01*
X109438646Y-77305980D01*
X109414345Y-77314675D01*
X109389309Y-77320947D01*
X109363779Y-77324734D01*
X109338000Y-77326000D01*
X108712000Y-77326000D01*
X108686221Y-77324734D01*
X108660691Y-77320947D01*
X108635655Y-77314675D01*
X108611354Y-77305980D01*
X108588023Y-77294945D01*
X108565885Y-77281677D01*
X108545155Y-77266302D01*
X108526031Y-77248969D01*
X108508698Y-77229845D01*
X108493323Y-77209115D01*
X108480055Y-77186977D01*
X108469020Y-77163646D01*
X108460325Y-77139345D01*
X108454053Y-77114309D01*
X108450266Y-77088779D01*
X108449000Y-77063000D01*
X108449000Y-76537000D01*
X108450266Y-76511221D01*
X108454053Y-76485691D01*
X108460325Y-76460655D01*
X108469020Y-76436354D01*
X108480055Y-76413023D01*
X108493323Y-76390885D01*
X108508698Y-76370155D01*
X108526031Y-76351031D01*
X108545155Y-76333698D01*
X108565885Y-76318323D01*
X108588023Y-76305055D01*
X108611354Y-76294020D01*
X108635655Y-76285325D01*
X108660691Y-76279053D01*
X108686221Y-76275266D01*
X108712000Y-76274000D01*
X109338000Y-76274000D01*
X109363779Y-76275266D01*
G37*
G36*
X111113779Y-76275266D02*
G01*
X111139309Y-76279053D01*
X111164345Y-76285325D01*
X111188646Y-76294020D01*
X111211977Y-76305055D01*
X111234115Y-76318323D01*
X111254845Y-76333698D01*
X111273969Y-76351031D01*
X111291302Y-76370155D01*
X111306677Y-76390885D01*
X111319945Y-76413023D01*
X111330980Y-76436354D01*
X111339675Y-76460655D01*
X111345947Y-76485691D01*
X111349734Y-76511221D01*
X111351000Y-76537000D01*
X111351000Y-77063000D01*
X111349734Y-77088779D01*
X111345947Y-77114309D01*
X111339675Y-77139345D01*
X111330980Y-77163646D01*
X111319945Y-77186977D01*
X111306677Y-77209115D01*
X111291302Y-77229845D01*
X111273969Y-77248969D01*
X111254845Y-77266302D01*
X111234115Y-77281677D01*
X111211977Y-77294945D01*
X111188646Y-77305980D01*
X111164345Y-77314675D01*
X111139309Y-77320947D01*
X111113779Y-77324734D01*
X111088000Y-77326000D01*
X110462000Y-77326000D01*
X110436221Y-77324734D01*
X110410691Y-77320947D01*
X110385655Y-77314675D01*
X110361354Y-77305980D01*
X110338023Y-77294945D01*
X110315885Y-77281677D01*
X110295155Y-77266302D01*
X110276031Y-77248969D01*
X110258698Y-77229845D01*
X110243323Y-77209115D01*
X110230055Y-77186977D01*
X110219020Y-77163646D01*
X110210325Y-77139345D01*
X110204053Y-77114309D01*
X110200266Y-77088779D01*
X110199000Y-77063000D01*
X110199000Y-76537000D01*
X110200266Y-76511221D01*
X110204053Y-76485691D01*
X110210325Y-76460655D01*
X110219020Y-76436354D01*
X110230055Y-76413023D01*
X110243323Y-76390885D01*
X110258698Y-76370155D01*
X110276031Y-76351031D01*
X110295155Y-76333698D01*
X110315885Y-76318323D01*
X110338023Y-76305055D01*
X110361354Y-76294020D01*
X110385655Y-76285325D01*
X110410691Y-76279053D01*
X110436221Y-76275266D01*
X110462000Y-76274000D01*
X111088000Y-76274000D01*
X111113779Y-76275266D01*
G37*
M02*
