M48
; DRILL file {KiCad (5.1.5-0)} date Saturday, June 25, 2022 at 02:07:16 PM
; FORMAT={-:-/ absolute / metric / decimal}
; #@! TF.CreationDate,2022-06-25T14:07:16-06:00
; #@! TF.GenerationSoftware,Kicad,Pcbnew,(5.1.5-0)
; #@! TF.FileFunction,Plated,1,2,PTH
FMAT,2
METRIC
T1C0.400
T2C0.840
T3C1.000
T4C3.250
%
G90
G05
T1
X103.48Y-83.62
X107.8Y-76.9
X109.1Y-83.9
X109.1Y-85.0
X112.4Y-67.0
X114.663Y-65.537
X118.1Y-65.8
X123.5Y-65.8
X125.0Y-61.0
X126.0Y-59.0
X126.7Y-56.5
X126.8Y-57.8
X127.0Y-62.0
X130.1Y-79.9
X133.1Y-62.0
X133.7Y-70.1
X135.875Y-60.6
X135.9Y-55.0
X136.1Y-75.3
X136.6Y-58.5
X136.7Y-74.5
T2
X105.13Y-88.83
X105.13Y-91.37
X106.4Y-90.1
X107.67Y-88.83
X107.67Y-91.37
T3
X138.0Y-81.4
X138.0Y-83.94
X138.0Y-86.48
X138.0Y-89.02
X96.18Y-64.36
X96.18Y-67.12
X96.18Y-69.88
X96.18Y-72.64
X99.02Y-62.98
X99.02Y-65.74
X99.02Y-68.5
X99.02Y-71.26
X99.02Y-74.02
X146.76Y-76.22
X149.3Y-76.22
X151.84Y-76.22
X154.38Y-76.22
X156.92Y-76.22
X159.46Y-76.22
X162.0Y-76.22
X146.76Y-60.98
X149.3Y-60.98
X151.84Y-60.98
X154.38Y-60.98
X156.92Y-60.98
X159.46Y-60.98
X162.0Y-60.98
T4
X97.6Y-56.0
X97.6Y-81.0
T0
M30
